<svg width="656" height="367" viewBox="0 0 656 367" fill="none" xmlns="http://www.w3.org/2000/svg">
<g clip-path="url(#clip0)">
<g style="mix-blend-mode:screen" opacity="0.3" filter="url(#filter0_f)">
<ellipse cx="313.5" cy="172.5" rx="313.5" ry="141.5" fill="#FE0707"/>
</g>
<g style="mix-blend-mode:color-dodge" filter="url(#filter1_f)">
<path d="M174.37 198.243V216.786C174.37 219.485 173.019 220.835 170.315 220.835H164.476C161.827 220.835 160.503 219.485 160.503 216.786V104.799C160.503 101.992 161.881 100.589 164.639 100.589H196.915C205.565 100.589 213.702 102.748 221.325 107.066C228.732 111.331 234.652 117.107 239.085 124.395C241.302 128.012 242.978 131.952 244.113 136.217C245.303 140.428 245.898 144.8 245.898 149.335C245.898 155.867 244.627 162.102 242.086 168.04C239.599 173.978 236.085 179.214 231.543 183.749C227.002 188.283 221.758 191.846 215.811 194.437C209.864 196.974 203.565 198.243 196.915 198.243H184.443M174.37 114.192V184.396H196.996C201.592 184.396 205.998 183.506 210.215 181.724C214.486 179.943 218.271 177.46 221.569 174.275C224.921 171.036 227.516 167.284 229.354 163.019C231.246 158.755 232.192 154.193 232.192 149.335C232.192 144.422 231.246 139.834 229.354 135.569C227.516 131.305 224.893 127.553 221.487 124.314C218.135 121.129 214.243 118.646 209.809 116.864C205.376 115.083 200.673 114.192 195.699 114.192H185.85M398.255 114.597V217.353C398.255 218.271 397.877 219.08 397.12 219.782C396.417 220.484 395.633 220.835 394.768 220.835H387.632C386.821 220.835 386.037 220.511 385.28 219.863C384.577 219.161 384.226 218.405 384.226 217.596V103.423C384.226 101.533 385.091 100.589 386.821 100.589H468.647C470.377 100.589 471.242 101.533 471.242 103.423V217.596C471.242 218.459 470.891 219.215 470.188 219.863C469.485 220.511 468.701 220.835 467.836 220.835H460.781C459.916 220.835 459.105 220.484 458.348 219.782C457.645 219.08 457.294 218.271 457.294 217.353V114.597H408.303M283.561 161.659L277.02 166.177V218.163C277.02 219.944 276.155 220.835 274.425 220.835H266.072C264.071 220.835 263.071 219.944 263.071 218.163V103.261C263.071 102.505 263.368 101.884 263.963 101.398C264.558 100.858 265.261 100.589 266.072 100.589H274.425C275.235 100.589 275.857 100.831 276.29 101.317C276.776 101.803 277.02 102.451 277.02 103.261V149.173L345.06 101.317C345.925 100.831 346.79 100.589 347.655 100.589H356.17C356.981 100.589 357.603 100.831 358.035 101.317C358.522 101.803 358.765 102.451 358.765 103.261V218.163C358.765 219.944 357.9 220.835 356.17 220.835H347.817C345.871 220.835 344.898 219.944 344.898 218.163V119.293L294.261 154.269M64.7327 210.151V218.163C64.7327 218.918 64.976 219.566 65.4625 220.106C66.0032 220.592 66.706 220.835 67.571 220.835H76.0862C77.8163 220.835 78.6813 219.944 78.6813 218.163V114.597H138.287C139.044 114.597 139.666 114.327 140.153 113.787C140.693 113.247 140.964 112.546 140.964 111.682V103.261C140.964 102.505 140.693 101.884 140.153 101.398C139.666 100.858 139.044 100.589 138.287 100.589H67.4089C65.6247 100.589 64.7327 101.479 64.7327 103.261V201.716M510.89 114.597V217.353C510.89 218.271 510.511 219.08 509.754 219.782C509.051 220.484 508.267 220.835 507.402 220.835H500.266C499.455 220.835 498.671 220.511 497.914 219.863C497.211 219.161 496.86 218.405 496.86 217.596V103.423C496.86 101.533 497.725 100.589 499.455 100.589H581.281C583.011 100.589 583.877 101.533 583.877 103.423V217.596C583.877 218.459 583.525 219.215 582.822 219.863C582.119 220.511 581.336 220.835 580.47 220.835H573.415C572.55 220.835 571.739 220.484 570.982 219.782C570.279 219.08 569.928 218.271 569.928 217.353V114.597H520.937" stroke="#FFE600" stroke-width="15.2007" stroke-linecap="round" stroke-linejoin="round"/>
</g>
<g style="mix-blend-mode:color-dodge" filter="url(#filter2_f)">
<path d="M174.37 198.243V216.786C174.37 219.485 173.019 220.835 170.315 220.835H164.476C161.827 220.835 160.503 219.485 160.503 216.786V104.799C160.503 101.992 161.881 100.589 164.639 100.589H196.915C205.565 100.589 213.702 102.748 221.325 107.066C228.732 111.331 234.652 117.107 239.085 124.395C241.302 128.012 242.978 131.952 244.113 136.217C245.303 140.428 245.898 144.8 245.898 149.335C245.898 155.867 244.627 162.102 242.086 168.04C239.599 173.978 236.085 179.214 231.543 183.749C227.002 188.283 221.758 191.846 215.811 194.437C209.864 196.974 203.565 198.243 196.915 198.243H184.443M174.37 114.192V184.396H196.996C201.592 184.396 205.998 183.506 210.215 181.724C214.486 179.943 218.271 177.46 221.569 174.275C224.921 171.036 227.516 167.284 229.354 163.019C231.246 158.755 232.192 154.193 232.192 149.335C232.192 144.422 231.246 139.834 229.354 135.569C227.516 131.305 224.893 127.553 221.487 124.314C218.135 121.129 214.243 118.646 209.809 116.864C205.376 115.083 200.673 114.192 195.699 114.192H185.85M398.255 114.597V217.353C398.255 218.271 397.877 219.08 397.12 219.782C396.417 220.484 395.633 220.835 394.768 220.835H387.632C386.821 220.835 386.037 220.511 385.28 219.863C384.577 219.161 384.226 218.405 384.226 217.596V103.423C384.226 101.533 385.091 100.589 386.821 100.589H468.647C470.377 100.589 471.242 101.533 471.242 103.423V217.596C471.242 218.459 470.891 219.215 470.188 219.863C469.485 220.511 468.701 220.835 467.836 220.835H460.781C459.916 220.835 459.105 220.484 458.348 219.782C457.645 219.08 457.294 218.271 457.294 217.353V114.597H408.303M283.561 161.659L277.02 166.177V218.163C277.02 219.944 276.155 220.835 274.425 220.835H266.072C264.071 220.835 263.071 219.944 263.071 218.163V103.261C263.071 102.505 263.368 101.884 263.963 101.398C264.558 100.858 265.261 100.589 266.072 100.589H274.425C275.235 100.589 275.857 100.831 276.29 101.317C276.776 101.803 277.02 102.451 277.02 103.261V149.173L345.06 101.317C345.925 100.831 346.79 100.589 347.655 100.589H356.17C356.981 100.589 357.603 100.831 358.035 101.317C358.522 101.803 358.765 102.451 358.765 103.261V218.163C358.765 219.944 357.9 220.835 356.17 220.835H347.817C345.871 220.835 344.898 219.944 344.898 218.163V119.293L294.261 154.269M64.7327 210.151V218.163C64.7327 218.918 64.976 219.566 65.4625 220.106C66.0032 220.592 66.706 220.835 67.571 220.835H76.0862C77.8163 220.835 78.6813 219.944 78.6813 218.163V114.597H138.287C139.044 114.597 139.666 114.327 140.153 113.787C140.693 113.247 140.964 112.546 140.964 111.682V103.261C140.964 102.505 140.693 101.884 140.153 101.398C139.666 100.858 139.044 100.589 138.287 100.589H67.4089C65.6247 100.589 64.7327 101.479 64.7327 103.261V201.716M510.89 114.597V217.353C510.89 218.271 510.511 219.08 509.754 219.782C509.051 220.484 508.267 220.835 507.402 220.835H500.266C499.455 220.835 498.671 220.511 497.914 219.863C497.211 219.161 496.86 218.405 496.86 217.596V103.423C496.86 101.533 497.725 100.589 499.455 100.589H581.281C583.011 100.589 583.877 101.533 583.877 103.423V217.596C583.877 218.459 583.525 219.215 582.822 219.863C582.119 220.511 581.336 220.835 580.47 220.835H573.415C572.55 220.835 571.739 220.484 570.982 219.782C570.279 219.08 569.928 218.271 569.928 217.353V114.597H520.937" stroke="#FF0000" stroke-width="20" stroke-linecap="round" stroke-linejoin="round"/>
</g>
<g style="mix-blend-mode:multiply" opacity="0.2" filter="url(#filter3_f)">
<path d="M175.142 209.243V227.786C175.142 230.485 173.793 231.835 171.095 231.835H165.266C162.622 231.835 161.3 230.485 161.3 227.786V115.799C161.3 112.992 162.676 111.589 165.428 111.589H197.646C206.28 111.589 214.402 113.748 222.011 118.066C229.405 122.331 235.314 128.107 239.739 135.395C241.952 139.012 243.625 142.952 244.758 147.217C245.945 151.428 246.539 155.8 246.539 160.335C246.539 166.867 245.271 173.102 242.734 179.04C240.252 184.978 236.744 190.214 232.211 194.749C227.678 199.283 222.443 202.846 216.507 205.437C210.571 207.974 204.284 209.243 197.646 209.243H185.196M175.142 125.192V195.396H197.727C202.314 195.396 206.712 194.506 210.921 192.724C215.185 190.943 218.962 188.46 222.254 185.275C225.6 182.036 228.191 178.284 230.025 174.019C231.914 169.755 232.859 165.193 232.859 160.335C232.859 155.422 231.914 150.834 230.025 146.569C228.191 142.305 225.573 138.553 222.173 135.314C218.827 132.129 214.942 129.646 210.517 127.864C206.091 126.083 201.396 125.192 196.432 125.192H186.601M398.619 125.597V228.353C398.619 229.271 398.241 230.08 397.486 230.782C396.784 231.484 396.002 231.835 395.138 231.835H388.015C387.205 231.835 386.423 231.511 385.667 230.863C384.966 230.161 384.615 229.405 384.615 228.596V114.423C384.615 112.533 385.479 111.589 387.205 111.589H468.883C470.61 111.589 471.473 112.533 471.473 114.423V228.596C471.473 229.459 471.123 230.215 470.421 230.863C469.719 231.511 468.937 231.835 468.073 231.835H461.031C460.167 231.835 459.358 231.484 458.602 230.782C457.901 230.08 457.55 229.271 457.55 228.353V125.597H408.649M284.134 172.659L277.604 177.177V229.163C277.604 230.944 276.741 231.835 275.014 231.835H266.676C264.68 231.835 263.681 230.944 263.681 229.163V114.261C263.681 113.505 263.978 112.884 264.572 112.398C265.165 111.858 265.867 111.589 266.676 111.589H275.014C275.824 111.589 276.444 111.831 276.876 112.317C277.362 112.803 277.604 113.451 277.604 114.261V160.173L345.521 112.317C346.384 111.831 347.247 111.589 348.111 111.589H356.611C357.42 111.589 358.041 111.831 358.472 112.317C358.958 112.803 359.201 113.451 359.201 114.261V229.163C359.201 230.944 358.337 231.835 356.611 231.835H348.273C346.33 231.835 345.359 230.944 345.359 229.163V130.293L294.814 165.269M65.7041 221.151V229.163C65.7041 229.918 65.9469 230.566 66.4326 231.106C66.9723 231.592 67.6739 231.835 68.5373 231.835H77.037C78.7639 231.835 79.6273 230.944 79.6273 229.163V125.597H139.125C139.88 125.597 140.501 125.327 140.987 124.787C141.526 124.247 141.796 123.546 141.796 122.682V114.261C141.796 113.505 141.526 112.884 140.987 112.398C140.501 111.858 139.88 111.589 139.125 111.589H68.3754C66.5945 111.589 65.7041 112.479 65.7041 114.261V212.716M511.048 125.597V228.353C511.048 229.271 510.671 230.08 509.915 230.782C509.214 231.484 508.431 231.835 507.568 231.835H500.444C499.635 231.835 498.852 231.511 498.097 230.863C497.395 230.161 497.044 229.405 497.044 228.596V114.423C497.044 112.533 497.908 111.589 499.635 111.589H581.312C583.039 111.589 583.902 112.533 583.902 114.423V228.596C583.902 229.459 583.552 230.215 582.85 230.863C582.149 231.511 581.366 231.835 580.503 231.835H573.46C572.597 231.835 571.787 231.484 571.032 230.782C570.33 230.08 569.979 229.271 569.979 228.353V125.597H521.078" stroke="#0085FF" stroke-width="4.5602" stroke-linecap="round" stroke-linejoin="round"/>
</g>
<g style="mix-blend-mode:hard-light" filter="url(#filter4_dddii)">
<path d="M175.142 198.243V216.786C175.142 219.485 173.793 220.835 171.095 220.835H165.266C162.622 220.835 161.3 219.485 161.3 216.786V104.799C161.3 101.992 162.676 100.589 165.428 100.589H197.646C206.28 100.589 214.402 102.748 222.011 107.066C229.405 111.331 235.314 117.107 239.739 124.395C241.952 128.012 243.625 131.952 244.758 136.217C245.945 140.428 246.539 144.8 246.539 149.335C246.539 155.867 245.271 162.102 242.734 168.04C240.252 173.978 236.744 179.214 232.211 183.749C227.678 188.283 222.443 191.846 216.507 194.437C210.571 196.974 204.284 198.243 197.646 198.243H185.196M175.142 114.192V184.396H197.727C202.314 184.396 206.712 183.506 210.921 181.724C215.185 179.943 218.962 177.46 222.254 174.275C225.6 171.036 228.191 167.284 230.025 163.019C231.914 158.755 232.859 154.193 232.859 149.335C232.859 144.422 231.914 139.834 230.025 135.569C228.191 131.305 225.573 127.553 222.173 124.314C218.827 121.129 214.942 118.646 210.517 116.864C206.091 115.083 201.396 114.192 196.432 114.192H186.601M398.619 114.597V217.353C398.619 218.271 398.241 219.08 397.486 219.782C396.784 220.484 396.002 220.835 395.138 220.835H388.015C387.205 220.835 386.423 220.511 385.667 219.863C384.966 219.161 384.615 218.405 384.615 217.596V103.423C384.615 101.533 385.479 100.589 387.205 100.589H468.883C470.61 100.589 471.473 101.533 471.473 103.423V217.596C471.473 218.459 471.123 219.215 470.421 219.863C469.719 220.511 468.937 220.835 468.073 220.835H461.031C460.167 220.835 459.358 220.484 458.602 219.782C457.901 219.08 457.55 218.271 457.55 217.353V114.597H408.649M284.134 161.659L277.604 166.177V218.163C277.604 219.944 276.741 220.835 275.014 220.835H266.676C264.68 220.835 263.681 219.944 263.681 218.163V103.261C263.681 102.505 263.978 101.884 264.572 101.398C265.165 100.858 265.867 100.589 266.676 100.589H275.014C275.824 100.589 276.444 100.831 276.876 101.317C277.362 101.803 277.604 102.451 277.604 103.261V149.173L345.521 101.317C346.384 100.831 347.247 100.589 348.111 100.589H356.611C357.42 100.589 358.041 100.831 358.472 101.317C358.958 101.803 359.201 102.451 359.201 103.261V218.163C359.201 219.944 358.337 220.835 356.611 220.835H348.273C346.33 220.835 345.359 219.944 345.359 218.163V119.293L294.814 154.269M65.7041 210.151V218.163C65.7041 218.918 65.9469 219.566 66.4326 220.106C66.9723 220.592 67.6739 220.835 68.5373 220.835H77.037C78.7639 220.835 79.6273 219.944 79.6273 218.163V114.597H139.125C139.88 114.597 140.501 114.327 140.987 113.787C141.526 113.247 141.796 112.546 141.796 111.682V103.261C141.796 102.505 141.526 101.884 140.987 101.398C140.501 100.858 139.88 100.589 139.125 100.589H68.3754C66.5945 100.589 65.7041 101.479 65.7041 103.261V201.716M511.048 114.597V217.353C511.048 218.271 510.671 219.08 509.915 219.782C509.214 220.484 508.431 220.835 507.568 220.835H500.444C499.635 220.835 498.852 220.511 498.097 219.863C497.395 219.161 497.044 218.405 497.044 217.596V103.423C497.044 101.533 497.908 100.589 499.635 100.589H581.312C583.039 100.589 583.902 101.533 583.902 103.423V217.596C583.902 218.459 583.552 219.215 582.85 219.863C582.149 220.511 581.366 220.835 580.503 220.835H573.46C572.597 220.835 571.787 220.484 571.032 219.782C570.33 219.08 569.979 218.271 569.979 217.353V114.597H521.078" stroke="#FF0000" stroke-opacity="0.2" stroke-width="15.2007" stroke-linecap="round" stroke-linejoin="round"/>
</g>
<g filter="url(#filter5_f)">
<path d="M175.142 198.243V216.786C175.142 219.485 173.793 220.835 171.095 220.835H165.266C162.622 220.835 161.3 219.485 161.3 216.786V104.799C161.3 101.992 162.676 100.589 165.428 100.589H197.646C206.28 100.589 214.402 102.748 222.011 107.066C229.405 111.331 235.314 117.107 239.739 124.395C241.952 128.012 243.625 131.952 244.758 136.217C245.945 140.428 246.539 144.8 246.539 149.335C246.539 155.867 245.271 162.102 242.734 168.04C240.252 173.978 236.744 179.214 232.211 183.749C227.678 188.283 222.443 191.846 216.507 194.437C210.571 196.974 204.284 198.243 197.646 198.243H185.196M175.142 114.192V184.396H197.727C202.314 184.396 206.712 183.506 210.921 181.724C215.185 179.943 218.962 177.46 222.254 174.275C225.6 171.036 228.191 167.284 230.025 163.019C231.914 158.755 232.859 154.193 232.859 149.335C232.859 144.422 231.914 139.834 230.025 135.569C228.191 131.305 225.573 127.553 222.173 124.314C218.827 121.129 214.942 118.646 210.517 116.864C206.091 115.083 201.396 114.192 196.432 114.192H186.601M398.619 114.597V217.353C398.619 218.271 398.241 219.08 397.486 219.782C396.784 220.484 396.002 220.835 395.138 220.835H388.015C387.205 220.835 386.423 220.511 385.667 219.863C384.966 219.161 384.615 218.405 384.615 217.596V103.423C384.615 101.533 385.479 100.589 387.205 100.589H468.883C470.61 100.589 471.473 101.533 471.473 103.423V217.596C471.473 218.459 471.123 219.215 470.421 219.863C469.719 220.511 468.937 220.835 468.073 220.835H461.031C460.167 220.835 459.358 220.484 458.602 219.782C457.901 219.08 457.55 218.271 457.55 217.353V114.597H408.649M284.134 161.659L277.604 166.177V218.163C277.604 219.944 276.741 220.835 275.014 220.835H266.676C264.68 220.835 263.681 219.944 263.681 218.163V103.261C263.681 102.505 263.978 101.884 264.572 101.398C265.165 100.858 265.867 100.589 266.676 100.589H275.014C275.824 100.589 276.444 100.831 276.876 101.317C277.362 101.803 277.604 102.451 277.604 103.261V149.173L345.521 101.317C346.384 100.831 347.247 100.589 348.111 100.589H356.611C357.42 100.589 358.041 100.831 358.472 101.317C358.958 101.803 359.201 102.451 359.201 103.261V218.163C359.201 219.944 358.337 220.835 356.611 220.835H348.273C346.33 220.835 345.359 219.944 345.359 218.163V119.293L294.814 154.269M65.7041 210.151V218.163C65.7041 218.918 65.9469 219.566 66.4326 220.106C66.9723 220.592 67.6739 220.835 68.5373 220.835H77.037C78.7639 220.835 79.6273 219.944 79.6273 218.163V114.597H139.125C139.88 114.597 140.501 114.327 140.987 113.787C141.526 113.247 141.796 112.546 141.796 111.682V103.261C141.796 102.505 141.526 101.884 140.987 101.398C140.501 100.858 139.88 100.589 139.125 100.589H68.3754C66.5945 100.589 65.7041 101.479 65.7041 103.261V201.716M511.048 114.597V217.353C511.048 218.271 510.671 219.08 509.915 219.782C509.214 220.484 508.431 220.835 507.568 220.835H500.444C499.635 220.835 498.852 220.511 498.097 219.863C497.395 219.161 497.044 218.405 497.044 217.596V103.423C497.044 101.533 497.908 100.589 499.635 100.589H581.312C583.039 100.589 583.902 101.533 583.902 103.423V217.596C583.902 218.459 583.552 219.215 582.85 219.863C582.149 220.511 581.366 220.835 580.503 220.835H573.46C572.597 220.835 571.787 220.484 571.032 219.782C570.33 219.08 569.979 218.271 569.979 217.353V114.597H521.078" stroke="#FF9983" stroke-width="9.1204" stroke-linecap="round" stroke-linejoin="round"/>
</g>
<g filter="url(#filter6_f)">
<path d="M175.142 198.243V216.786C175.142 219.485 173.793 220.835 171.095 220.835H165.266C162.622 220.835 161.3 219.485 161.3 216.786V104.799C161.3 101.992 162.676 100.589 165.428 100.589H197.646C206.28 100.589 214.402 102.748 222.011 107.066C229.405 111.331 235.314 117.107 239.739 124.395C241.952 128.012 243.625 131.952 244.758 136.217C245.945 140.428 246.539 144.8 246.539 149.335C246.539 155.867 245.271 162.102 242.734 168.04C240.252 173.978 236.744 179.214 232.211 183.749C227.678 188.283 222.443 191.846 216.507 194.437C210.571 196.974 204.284 198.243 197.646 198.243H185.196M175.142 114.192V184.396H197.727C202.314 184.396 206.712 183.506 210.921 181.724C215.185 179.943 218.962 177.46 222.254 174.275C225.6 171.036 228.191 167.284 230.025 163.019C231.914 158.755 232.859 154.193 232.859 149.335C232.859 144.422 231.914 139.834 230.025 135.569C228.191 131.305 225.573 127.553 222.173 124.314C218.827 121.129 214.942 118.646 210.517 116.864C206.091 115.083 201.396 114.192 196.432 114.192H186.601M398.619 114.597V217.353C398.619 218.271 398.241 219.08 397.486 219.782C396.784 220.484 396.002 220.835 395.138 220.835H388.015C387.205 220.835 386.423 220.511 385.667 219.863C384.966 219.161 384.615 218.405 384.615 217.596V103.423C384.615 101.533 385.479 100.589 387.205 100.589H468.883C470.61 100.589 471.473 101.533 471.473 103.423V217.596C471.473 218.459 471.123 219.215 470.421 219.863C469.719 220.511 468.937 220.835 468.073 220.835H461.031C460.167 220.835 459.358 220.484 458.602 219.782C457.901 219.08 457.55 218.271 457.55 217.353V114.597H408.649M284.134 161.659L277.604 166.177V218.163C277.604 219.944 276.741 220.835 275.014 220.835H266.676C264.68 220.835 263.681 219.944 263.681 218.163V103.261C263.681 102.505 263.978 101.884 264.572 101.398C265.165 100.858 265.867 100.589 266.676 100.589H275.014C275.824 100.589 276.444 100.831 276.876 101.317C277.362 101.803 277.604 102.451 277.604 103.261V149.173L345.521 101.317C346.384 100.831 347.247 100.589 348.111 100.589H356.611C357.42 100.589 358.041 100.831 358.472 101.317C358.958 101.803 359.201 102.451 359.201 103.261V218.163C359.201 219.944 358.337 220.835 356.611 220.835H348.273C346.33 220.835 345.359 219.944 345.359 218.163V119.293L294.814 154.269M65.7041 210.151V218.163C65.7041 218.918 65.9469 219.566 66.4326 220.106C66.9723 220.592 67.6739 220.835 68.5373 220.835H77.037C78.7639 220.835 79.6273 219.944 79.6273 218.163V114.597H139.125C139.88 114.597 140.501 114.327 140.987 113.787C141.526 113.247 141.796 112.546 141.796 111.682V103.261C141.796 102.505 141.526 101.884 140.987 101.398C140.501 100.858 139.88 100.589 139.125 100.589H68.3754C66.5945 100.589 65.7041 101.479 65.7041 103.261V201.716M511.048 114.597V217.353C511.048 218.271 510.671 219.08 509.915 219.782C509.214 220.484 508.431 220.835 507.568 220.835H500.444C499.635 220.835 498.852 220.511 498.097 219.863C497.395 219.161 497.044 218.405 497.044 217.596V103.423C497.044 101.533 497.908 100.589 499.635 100.589H581.312C583.039 100.589 583.902 101.533 583.902 103.423V217.596C583.902 218.459 583.552 219.215 582.85 219.863C582.149 220.511 581.366 220.835 580.503 220.835H573.46C572.597 220.835 571.787 220.484 571.032 219.782C570.33 219.08 569.979 218.271 569.979 217.353V114.597H521.078" stroke="white" stroke-width="4.5602" stroke-linecap="round" stroke-linejoin="round"/>
</g>
</g>
<defs>
<filter id="filter0_f" x="-304.013" y="-273.013" width="1235.03" height="891.026" filterUnits="userSpaceOnUse" color-interpolation-filters="sRGB">
<feFlood flood-opacity="0" result="BackgroundImageFix"/>
<feBlend mode="normal" in="SourceGraphic" in2="BackgroundImageFix" result="shape"/>
<feGaussianBlur stdDeviation="152.007" result="effect1_foregroundBlur"/>
</filter>
<filter id="filter1_f" x="-18.871" y="16.9848" width="686.351" height="287.453" filterUnits="userSpaceOnUse" color-interpolation-filters="sRGB">
<feFlood flood-opacity="0" result="BackgroundImageFix"/>
<feBlend mode="normal" in="SourceGraphic" in2="BackgroundImageFix" result="shape"/>
<feGaussianBlur stdDeviation="38.0017" result="effect1_foregroundBlur"/>
</filter>
<filter id="filter2_f" x="31.9317" y="67.7875" width="584.746" height="185.848" filterUnits="userSpaceOnUse" color-interpolation-filters="sRGB">
<feFlood flood-opacity="0" result="BackgroundImageFix"/>
<feBlend mode="normal" in="SourceGraphic" in2="BackgroundImageFix" result="shape"/>
<feGaussianBlur stdDeviation="11.4005" result="effect1_foregroundBlur"/>
</filter>
<filter id="filter3_f" x="60.3839" y="106.268" width="528.839" height="130.887" filterUnits="userSpaceOnUse" color-interpolation-filters="sRGB">
<feFlood flood-opacity="0" result="BackgroundImageFix"/>
<feBlend mode="normal" in="SourceGraphic" in2="BackgroundImageFix" result="shape"/>
<feGaussianBlur stdDeviation="1.52007" result="effect1_foregroundBlur"/>
</filter>
<filter id="filter4_dddii" x="-33.1002" y="32.1855" width="715.807" height="317.855" filterUnits="userSpaceOnUse" color-interpolation-filters="sRGB">
<feFlood flood-opacity="0" result="BackgroundImageFix"/>
<feColorMatrix in="SourceAlpha" type="matrix" values="0 0 0 0 0 0 0 0 0 0 0 0 0 0 0 0 0 0 127 0"/>
<feOffset dy="15.2007"/>
<feGaussianBlur stdDeviation="6.08026"/>
<feColorMatrix type="matrix" values="0 0 0 0 0.15 0 0 0 0 0.000624999 0 0 0 0 0.000624999 0 0 0 0.7 0"/>
<feBlend mode="multiply" in2="BackgroundImageFix" result="effect1_dropShadow"/>
<feColorMatrix in="SourceAlpha" type="matrix" values="0 0 0 0 0 0 0 0 0 0 0 0 0 0 0 0 0 0 127 0"/>
<feOffset dy="30.4013"/>
<feGaussianBlur stdDeviation="15.2007"/>
<feColorMatrix type="matrix" values="0 0 0 0 0.45 0 0 0 0 0.0393375 0 0 0 0 0.013125 0 0 0 0.8 0"/>
<feBlend mode="multiply" in2="effect1_dropShadow" result="effect2_dropShadow"/>
<feColorMatrix in="SourceAlpha" type="matrix" values="0 0 0 0 0 0 0 0 0 0 0 0 0 0 0 0 0 0 127 0"/>
<feOffset dy="30.4013"/>
<feGaussianBlur stdDeviation="45.602"/>
<feColorMatrix type="matrix" values="0 0 0 0 0.528831 0 0 0 0 0.18901 0 0 0 0 0.795833 0 0 0 1 0"/>
<feBlend mode="color-dodge" in2="effect2_dropShadow" result="effect3_dropShadow"/>
<feBlend mode="normal" in="SourceGraphic" in2="effect3_dropShadow" result="shape"/>
<feColorMatrix in="SourceAlpha" type="matrix" values="0 0 0 0 0 0 0 0 0 0 0 0 0 0 0 0 0 0 127 0" result="hardAlpha"/>
<feOffset dx="-1.52007" dy="3.04013"/>
<feGaussianBlur stdDeviation="0.75"/>
<feComposite in2="hardAlpha" operator="arithmetic" k2="-1" k3="1"/>
<feColorMatrix type="matrix" values="0 0 0 0 1 0 0 0 0 1 0 0 0 0 1 0 0 0 0.5 0"/>
<feBlend mode="normal" in2="shape" result="effect4_innerShadow"/>
<feColorMatrix in="SourceAlpha" type="matrix" values="0 0 0 0 0 0 0 0 0 0 0 0 0 0 0 0 0 0 127 0" result="hardAlpha"/>
<feOffset dx="-1.52007" dy="-3.04013"/>
<feGaussianBlur stdDeviation="0.760033"/>
<feComposite in2="hardAlpha" operator="arithmetic" k2="-1" k3="1"/>
<feColorMatrix type="matrix" values="0 0 0 0 1 0 0 0 0 1 0 0 0 0 1 0 0 0 0.4 0"/>
<feBlend mode="normal" in2="effect4_innerShadow" result="effect5_innerShadow"/>
</filter>
<filter id="filter5_f" x="59.1438" y="94.0283" width="531.319" height="133.367" filterUnits="userSpaceOnUse" color-interpolation-filters="sRGB">
<feFlood flood-opacity="0" result="BackgroundImageFix"/>
<feBlend mode="normal" in="SourceGraphic" in2="BackgroundImageFix" result="shape"/>
<feGaussianBlur stdDeviation="1" result="effect1_foregroundBlur"/>
</filter>
<filter id="filter6_f" x="61.904" y="96.7883" width="525.799" height="127.847" filterUnits="userSpaceOnUse" color-interpolation-filters="sRGB">
<feFlood flood-opacity="0" result="BackgroundImageFix"/>
<feBlend mode="normal" in="SourceGraphic" in2="BackgroundImageFix" result="shape"/>
<feGaussianBlur stdDeviation="0.760033" result="effect1_foregroundBlur"/>
</filter>
<clipPath id="clip0">
<rect y="-23" width="656" height="390" rx="45.602" fill="white"/>
</clipPath>
</defs>
</svg>
