<svg viewBox="0 0 1007 772" fill="none" xmlns="http://www.w3.org/2000/svg">
  <g style="mix-blend-mode:color-dodge" opacity=".3" filter="url(#filter0_f)">
    <ellipse cx="503.5" cy="386.182" rx="198.5" ry="81.182" fill="#7B61FF"/>
  </g>
  <g style="mix-blend-mode:color-dodge" filter="url(#filter1_f)">
    <path d="M380.609 331.984c0-1.206 1.3-2.185 2.905-2.185h200.63c1.604 0 2.905.979 2.905 2.185v103.225c0 1.207-1.301 2.185-2.905 2.185h-200.63c-1.605 0-2.905-.978-2.905-2.185V331.984z" stroke="#730A03" stroke-opacity=".8" stroke-width="15.201" stroke-linecap="round" stroke-linejoin="round"/>
  </g>
  <g style="mix-blend-mode:color-dodge" filter="url(#filter2_f)">
    <path d="M380.609 331.661c0-1.207 1.3-2.186 2.905-2.186h200.63c1.604 0 2.905.979 2.905 2.186v103.224c0 1.207-1.301 2.185-2.905 2.185h-200.63c-1.605 0-2.905-.978-2.905-2.185V331.661z" fill="#513C3A"/>
    <path d="M380.609 331.661c0-1.207 1.3-2.186 2.905-2.186h200.63c1.604 0 2.905.979 2.905 2.186v103.224c0 1.207-1.301 2.185-2.905 2.185h-200.63c-1.605 0-2.905-.978-2.905-2.185V331.661z" stroke="#513C3A" stroke-width="20" stroke-linecap="round" stroke-linejoin="round"/>
  </g>
  <g style="mix-blend-mode:multiply" opacity=".2" filter="url(#filter3_f)">
    <path d="M380.855 338.025c0-1.206 1.3-2.185 2.905-2.185h200.63c1.604 0 2.905.979 2.905 2.185V441.25c0 1.207-1.301 2.185-2.905 2.185H383.76c-1.605 0-2.905-.978-2.905-2.185V338.025z" stroke="#0085FF" stroke-width="4.56" stroke-linecap="round" stroke-linejoin="round"/>
  </g>
  <g style="mix-blend-mode:hard-light" filter="url(#filter4_dddii)">
    <path d="M380.933 331.972c0-1.207 1.3-2.186 2.905-2.186h200.63c1.604 0 2.905.979 2.905 2.186v103.224c0 1.207-1.301 2.185-2.905 2.185h-200.63c-1.605 0-2.905-.978-2.905-2.185V331.972z" stroke="red" stroke-opacity=".2" stroke-width="15.201" stroke-linecap="round" stroke-linejoin="round"/>
  </g>
  <path fill="#000" d="M384 327h209v110H384z"/>
  <g filter="url(#filter5_f)">
    <path d="M380.803 332.023c0-1.207 1.301-2.185 2.905-2.185h200.63c1.605 0 2.905.978 2.905 2.185v103.225c0 1.207-1.3 2.185-2.905 2.185h-200.63c-1.604 0-2.905-.978-2.905-2.185V332.023z" stroke="#513C3A" stroke-width="9.12" stroke-linecap="round" stroke-linejoin="round"/>
  </g>
  <g filter="url(#filter6_f)">
    <path d="M380.803 332.024c0-1.207 1.301-2.186 2.905-2.186h200.63c1.605 0 2.905.979 2.905 2.186v103.224c0 1.207-1.3 2.185-2.905 2.185h-200.63c-1.604 0-2.905-.978-2.905-2.185V332.024z" stroke="#2C8DFE" stroke-width="4.56" stroke-linecap="round" stroke-linejoin="round"/>
  </g>
  <defs>
    <filter id="filter0_f" x=".987" y=".987" width="1005.03" height="770.391" filterUnits="userSpaceOnUse" color-interpolation-filters="sRGB">
      <feFlood flood-opacity="0" result="BackgroundImageFix"/>
      <feBlend in="SourceGraphic" in2="BackgroundImageFix" result="shape"/>
      <feGaussianBlur stdDeviation="152.007" result="effect1_foregroundBlur"/>
    </filter>
    <filter id="filter1_f" x="297.005" y="246.195" width="373.647" height="274.802" filterUnits="userSpaceOnUse" color-interpolation-filters="sRGB">
      <feFlood flood-opacity="0" result="BackgroundImageFix"/>
      <feBlend in="SourceGraphic" in2="BackgroundImageFix" result="shape"/>
      <feGaussianBlur stdDeviation="38.002" result="effect1_foregroundBlur"/>
    </filter>
    <filter id="filter2_f" x="347.808" y="296.674" width="272.042" height="173.197" filterUnits="userSpaceOnUse" color-interpolation-filters="sRGB">
      <feFlood flood-opacity="0" result="BackgroundImageFix"/>
      <feBlend in="SourceGraphic" in2="BackgroundImageFix" result="shape"/>
      <feGaussianBlur stdDeviation="11.4" result="effect1_foregroundBlur"/>
    </filter>
    <filter id="filter3_f" x="375.534" y="330.52" width="217.08" height="118.236" filterUnits="userSpaceOnUse" color-interpolation-filters="sRGB">
      <feFlood flood-opacity="0" result="BackgroundImageFix"/>
      <feBlend in="SourceGraphic" in2="BackgroundImageFix" result="shape"/>
      <feGaussianBlur stdDeviation="1.52" result="effect1_foregroundBlur"/>
    </filter>
    <filter id="filter4_dddii" x="282.129" y="261.383" width="404.049" height="305.204" filterUnits="userSpaceOnUse" color-interpolation-filters="sRGB">
      <feFlood flood-opacity="0" result="BackgroundImageFix"/>
      <feColorMatrix in="SourceAlpha" values="0 0 0 0 0 0 0 0 0 0 0 0 0 0 0 0 0 0 127 0"/>
      <feOffset dy="15.201"/>
      <feGaussianBlur stdDeviation="6.08"/>
      <feColorMatrix values="0 0 0 0 0.15 0 0 0 0 0.000624999 0 0 0 0 0.000624999 0 0 0 0.7 0"/>
      <feBlend mode="multiply" in2="BackgroundImageFix" result="effect1_dropShadow"/>
      <feColorMatrix in="SourceAlpha" values="0 0 0 0 0 0 0 0 0 0 0 0 0 0 0 0 0 0 127 0"/>
      <feOffset dy="30.401"/>
      <feGaussianBlur stdDeviation="15.201"/>
      <feColorMatrix values="0 0 0 0 0.45 0 0 0 0 0.0393375 0 0 0 0 0.013125 0 0 0 0.8 0"/>
      <feBlend mode="multiply" in2="effect1_dropShadow" result="effect2_dropShadow"/>
      <feColorMatrix in="SourceAlpha" values="0 0 0 0 0 0 0 0 0 0 0 0 0 0 0 0 0 0 127 0"/>
      <feOffset dy="30.401"/>
      <feGaussianBlur stdDeviation="45.602"/>
      <feColorMatrix values="0 0 0 0 0.528831 0 0 0 0 0.18901 0 0 0 0 0.795833 0 0 0 1 0"/>
      <feBlend mode="color-dodge" in2="effect2_dropShadow" result="effect3_dropShadow"/>
      <feBlend in="SourceGraphic" in2="effect3_dropShadow" result="shape"/>
      <feColorMatrix in="SourceAlpha" values="0 0 0 0 0 0 0 0 0 0 0 0 0 0 0 0 0 0 127 0" result="hardAlpha"/>
      <feOffset dx="-1.52" dy="3.04"/>
      <feGaussianBlur stdDeviation=".75"/>
      <feComposite in2="hardAlpha" operator="arithmetic" k2="-1" k3="1"/>
      <feColorMatrix values="0 0 0 0 1 0 0 0 0 1 0 0 0 0 1 0 0 0 0.5 0"/>
      <feBlend in2="shape" result="effect4_innerShadow"/>
      <feColorMatrix in="SourceAlpha" values="0 0 0 0 0 0 0 0 0 0 0 0 0 0 0 0 0 0 127 0" result="hardAlpha"/>
      <feOffset dx="-1.52" dy="-3.04"/>
      <feGaussianBlur stdDeviation=".76"/>
      <feComposite in2="hardAlpha" operator="arithmetic" k2="-1" k3="1"/>
      <feColorMatrix values="0 0 0 0 1 0 0 0 0 1 0 0 0 0 1 0 0 0 0.4 0"/>
      <feBlend in2="effect4_innerShadow" result="effect5_innerShadow"/>
    </filter>
    <filter id="filter5_f" x="374.243" y="323.278" width="219.56" height="120.715" filterUnits="userSpaceOnUse" color-interpolation-filters="sRGB">
      <feFlood flood-opacity="0" result="BackgroundImageFix"/>
      <feBlend in="SourceGraphic" in2="BackgroundImageFix" result="shape"/>
      <feGaussianBlur stdDeviation="1" result="effect1_foregroundBlur"/>
    </filter>
    <filter id="filter6_f" x="377.003" y="326.038" width="214.04" height="115.195" filterUnits="userSpaceOnUse" color-interpolation-filters="sRGB">
      <feFlood flood-opacity="0" result="BackgroundImageFix"/>
      <feBlend in="SourceGraphic" in2="BackgroundImageFix" result="shape"/>
      <feGaussianBlur stdDeviation=".76" result="effect1_foregroundBlur"/>
    </filter>
  </defs>
</svg>