<svg  viewBox="0 0 1045 490" fill="none" xmlns="http://www.w3.org/2000/svg">
  <g style="mix-blend-mode:color-dodge" opacity=".3" filter="url(#filter0_f)">
    <ellipse cx="527" cy="393.16" rx="196" ry="80.16" fill="#D038D3"/>
  </g>
  <g style="mix-blend-mode:color-dodge" filter="url(#filter1_f)" stroke="#FC58FF" stroke-width="15.201" stroke-linecap="round" stroke-linejoin="round">
    <path d="M344.996 410.513h-5.268v-18.371h-20.031v18.371h-5.24v-39.746h5.24v17.089h20.031v-17.089h5.268v39.746zM376.736 400.14h-16.648l-3.739 10.373h-5.404l15.174-39.746h4.585l15.202 39.746h-5.377l-3.793-10.373zm-15.065-4.313h13.509l-6.768-18.591-6.741 18.591zM418.519 370.767v39.746h-5.267v-16.461c-1.91.546-3.648.929-5.213 1.147-1.564.2-3.348.3-5.349.3-4.53 0-7.896-.983-10.098-2.948-2.201-1.966-3.329-4.977-3.384-9.036v-12.748h5.267v12.612c.019 2.766.646 4.759 1.883 5.978 1.256 1.219 3.366 1.829 6.332 1.829 3.457 0 6.978-.491 10.562-1.474v-18.945h5.267zM450.423 400.14h-16.648l-3.739 10.373h-5.403l15.174-39.746h4.585l15.201 39.746h-5.376l-3.794-10.373zm-15.065-4.313h13.509l-6.768-18.591-6.741 18.591zM488.85 375.08h-12.773v35.433h-5.213V375.08h-12.745v-4.313h30.731v4.313zM500.257 386.982h9.88c4.148.055 7.387 1.119 9.716 3.194 2.329 2.075 3.493 4.896 3.493 8.463 0 3.585-1.173 6.442-3.521 8.571-2.347 2.13-5.549 3.231-9.606 3.303h-15.202v-39.746h5.24v16.215zm0 4.313v14.933h9.58c2.602 0 4.621-.692 6.058-2.075 1.456-1.383 2.184-3.24 2.184-5.569 0-2.239-.701-4.004-2.102-5.296-1.382-1.292-3.357-1.956-5.922-1.993h-9.798zM568.377 375.08h-19.159v11.902h9.88c4.148.055 7.387 1.119 9.716 3.194 2.329 2.075 3.493 4.896 3.493 8.463 0 3.585-1.173 6.442-3.52 8.571-2.348 2.13-5.55 3.231-9.607 3.303h-15.229v-39.746h24.426v4.313zm-19.159 16.215v14.933h9.58c2.602 0 4.621-.692 6.059-2.075 1.455-1.383 2.183-3.24 2.183-5.569 0-2.239-.701-4.004-2.102-5.296-1.382-1.292-3.356-1.956-5.922-1.993h-9.798zM604.457 370.767h5.24v39.746h-5.24v-30.629l-19.568 30.629h-5.268v-39.746h5.268v30.629l19.568-30.629zM645.885 375.08h-12.772v35.433H627.9V375.08h-12.745v-4.313h30.73v4.313zM651.78 410.513v-39.746h12.991c4.312 0 7.551.891 9.716 2.675 2.183 1.783 3.275 4.422 3.275 7.917 0 1.856-.528 3.503-1.583 4.941-1.056 1.419-2.493 2.52-4.312 3.303 2.147.6 3.839 1.747 5.076 3.439 1.255 1.675 1.883 3.677 1.883 6.006 0 3.567-1.155 6.37-3.466 8.408-2.311 2.038-5.577 3.057-9.798 3.057H651.78zm5.24-18.59v14.305h8.652c2.438 0 4.357-.628 5.758-1.884 1.419-1.274 2.129-3.021 2.129-5.241 0-4.787-2.602-7.18-7.806-7.18h-8.733zm0-4.204h7.915c2.292 0 4.121-.573 5.485-1.72 1.383-1.146 2.074-2.702 2.074-4.668 0-2.184-.636-3.767-1.91-4.75-1.274-1.001-3.211-1.501-5.813-1.501h-7.751v12.639zM699.868 393.834l9.142-23.067h6.087l-14.056 33.113c-.946 2.111-1.828 3.612-2.647 4.504a8.47 8.47 0 01-2.893 2.02c-1.091.455-2.465.683-4.121.683-1.437 0-2.356-.082-2.756-.246l.163-4.149 2.484.109c1.91 0 3.33-.919 4.258-2.757l.682-1.42 1.037-2.429-13.537-29.428h5.868l10.289 23.067z"/>
  </g>
  <g style="mix-blend-mode:color-dodge" filter="url(#filter2_f)">
    <path d="M344.996 410.193h-5.268v-18.371h-20.031v18.371h-5.24v-39.746h5.24v17.089h20.031v-17.089h5.268v39.746zM376.736 399.82h-16.648l-3.739 10.373h-5.404l15.174-39.746h4.585l15.202 39.746h-5.377l-3.793-10.373zm-15.065-4.313h13.509l-6.768-18.591-6.741 18.591zM418.519 370.447v39.746h-5.267v-16.461c-1.91.546-3.648.929-5.213 1.147-1.564.2-3.348.3-5.349.3-4.53 0-7.896-.983-10.098-2.948-2.201-1.966-3.329-4.977-3.384-9.036v-12.748h5.267v12.612c.019 2.766.646 4.759 1.883 5.978 1.256 1.219 3.366 1.829 6.332 1.829 3.457 0 6.978-.491 10.562-1.474v-18.945h5.267zM450.423 399.82h-16.648l-3.739 10.373h-5.403l15.174-39.746h4.585l15.201 39.746h-5.376l-3.794-10.373zm-15.065-4.313h13.509l-6.768-18.591-6.741 18.591zM488.85 374.76h-12.773v35.433h-5.213V374.76h-12.745v-4.313h30.731v4.313zM500.257 386.662h9.88c4.148.055 7.387 1.119 9.716 3.194 2.329 2.075 3.493 4.896 3.493 8.463 0 3.585-1.173 6.442-3.521 8.571-2.347 2.13-5.549 3.231-9.606 3.303h-15.202v-39.746h5.24v16.215zm0 4.313v14.933h9.58c2.602 0 4.621-.692 6.058-2.075 1.456-1.383 2.184-3.24 2.184-5.569 0-2.239-.701-4.004-2.102-5.296-1.382-1.292-3.357-1.956-5.922-1.993h-9.798zM568.377 374.76h-19.159v11.902h9.88c4.148.055 7.387 1.119 9.716 3.194 2.329 2.075 3.493 4.896 3.493 8.463 0 3.585-1.173 6.442-3.52 8.571-2.348 2.13-5.55 3.231-9.607 3.303h-15.229v-39.746h24.426v4.313zm-19.159 16.215v14.933h9.58c2.602 0 4.621-.692 6.059-2.075 1.455-1.383 2.183-3.24 2.183-5.569 0-2.239-.701-4.004-2.102-5.296-1.382-1.292-3.356-1.956-5.922-1.993h-9.798zM604.457 370.447h5.24v39.746h-5.24v-30.629l-19.568 30.629h-5.268v-39.746h5.268v30.629l19.568-30.629zM645.885 374.76h-12.772v35.433H627.9V374.76h-12.745v-4.313h30.73v4.313zM651.78 410.193v-39.746h12.991c4.312 0 7.551.891 9.716 2.675 2.183 1.783 3.275 4.422 3.275 7.917 0 1.856-.528 3.503-1.583 4.941-1.055 1.419-2.493 2.52-4.312 3.303 2.147.6 3.839 1.747 5.076 3.439 1.255 1.675 1.883 3.677 1.883 6.006 0 3.567-1.155 6.37-3.466 8.408-2.311 2.038-5.577 3.057-9.798 3.057H651.78zm5.24-18.59v14.305h8.652c2.438 0 4.357-.628 5.758-1.884 1.419-1.274 2.129-3.021 2.129-5.241 0-4.787-2.602-7.18-7.806-7.18h-8.733zm0-4.204h7.915c2.292 0 4.121-.573 5.485-1.72 1.383-1.146 2.074-2.702 2.074-4.668 0-2.184-.636-3.767-1.91-4.75-1.274-1.001-3.211-1.501-5.813-1.501h-7.751v12.639zM699.868 393.514l9.143-23.067h6.086l-14.056 33.113c-.946 2.111-1.828 3.612-2.647 4.504a8.47 8.47 0 01-2.893 2.02c-1.091.455-2.465.683-4.121.683-1.437 0-2.356-.082-2.756-.246l.163-4.149 2.484.109c1.91 0 3.33-.919 4.258-2.757l.682-1.42 1.037-2.429-13.537-29.428h5.868l10.289 23.067z" fill="#0019F8"/>
    <path d="M344.996 410.193h-5.268v-18.371h-20.031v18.371h-5.24v-39.746h5.24v17.089h20.031v-17.089h5.268v39.746zM376.736 399.82h-16.648l-3.739 10.373h-5.404l15.174-39.746h4.585l15.202 39.746h-5.377l-3.793-10.373zm-15.065-4.313h13.509l-6.768-18.591-6.741 18.591zM418.519 370.447v39.746h-5.267v-16.461c-1.91.546-3.648.929-5.213 1.147-1.564.2-3.348.3-5.349.3-4.53 0-7.896-.983-10.098-2.948-2.201-1.966-3.329-4.977-3.384-9.036v-12.748h5.267v12.612c.019 2.766.646 4.759 1.883 5.978 1.256 1.219 3.366 1.829 6.332 1.829 3.457 0 6.978-.491 10.562-1.474v-18.945h5.267zM450.423 399.82h-16.648l-3.739 10.373h-5.403l15.174-39.746h4.585l15.201 39.746h-5.376l-3.794-10.373zm-15.065-4.313h13.509l-6.768-18.591-6.741 18.591zM488.85 374.76h-12.773v35.433h-5.213V374.76h-12.745v-4.313h30.731v4.313zM500.257 386.662h9.88c4.148.055 7.387 1.119 9.716 3.194 2.329 2.075 3.493 4.896 3.493 8.463 0 3.585-1.173 6.442-3.521 8.571-2.347 2.13-5.549 3.231-9.606 3.303h-15.202v-39.746h5.24v16.215zm0 4.313v14.933h9.58c2.602 0 4.621-.692 6.058-2.075 1.456-1.383 2.184-3.24 2.184-5.569 0-2.239-.701-4.004-2.102-5.296-1.382-1.292-3.357-1.956-5.922-1.993h-9.798zM568.377 374.76h-19.159v11.902h9.88c4.148.055 7.387 1.119 9.716 3.194 2.329 2.075 3.493 4.896 3.493 8.463 0 3.585-1.173 6.442-3.52 8.571-2.348 2.13-5.55 3.231-9.607 3.303h-15.229v-39.746h24.426v4.313zm-19.159 16.215v14.933h9.58c2.602 0 4.621-.692 6.059-2.075 1.455-1.383 2.183-3.24 2.183-5.569 0-2.239-.701-4.004-2.102-5.296-1.382-1.292-3.356-1.956-5.922-1.993h-9.798zM604.457 370.447h5.24v39.746h-5.24v-30.629l-19.568 30.629h-5.268v-39.746h5.268v30.629l19.568-30.629zM645.885 374.76h-12.772v35.433H627.9V374.76h-12.745v-4.313h30.73v4.313zM651.78 410.193v-39.746h12.991c4.312 0 7.551.891 9.716 2.675 2.183 1.783 3.275 4.422 3.275 7.917 0 1.856-.528 3.503-1.583 4.941-1.055 1.419-2.493 2.52-4.312 3.303 2.147.6 3.839 1.747 5.076 3.439 1.255 1.675 1.883 3.677 1.883 6.006 0 3.567-1.155 6.37-3.466 8.408-2.311 2.038-5.577 3.057-9.798 3.057H651.78zm5.24-18.59v14.305h8.652c2.438 0 4.357-.628 5.758-1.884 1.419-1.274 2.129-3.021 2.129-5.241 0-4.787-2.602-7.18-7.806-7.18h-8.733zm0-4.204h7.915c2.292 0 4.121-.573 5.485-1.72 1.383-1.146 2.074-2.702 2.074-4.668 0-2.184-.636-3.767-1.91-4.75-1.274-1.001-3.211-1.501-5.813-1.501h-7.751v12.639zM699.868 393.514l9.143-23.067h6.086l-14.056 33.113c-.946 2.111-1.828 3.612-2.647 4.504a8.47 8.47 0 01-2.893 2.02c-1.091.455-2.465.683-4.121.683-1.437 0-2.356-.082-2.756-.246l.163-4.149 2.484.109c1.91 0 3.33-.919 4.258-2.757l.682-1.42 1.037-2.429-13.537-29.428h5.868l10.289 23.067z" stroke="#0019F8" stroke-width="20" stroke-linecap="round" stroke-linejoin="round"/>
  </g>
  <g style="mix-blend-mode:multiply" opacity=".2" filter="url(#filter3_f)" stroke="#6F0758" stroke-opacity=".89" stroke-width="4.56" stroke-linecap="round" stroke-linejoin="round">
    <path d="M345.239 416.478h-5.268v-18.372h-20.032v18.372h-5.24v-39.746h5.24v17.089h20.032v-17.089h5.268v39.746zM376.979 406.105h-16.648l-3.739 10.373h-5.404l15.174-39.746h4.585l15.202 39.746h-5.377l-3.793-10.373zm-15.065-4.313h13.509l-6.768-18.591-6.741 18.591zM418.762 376.732v39.746h-5.267v-16.461c-1.911.546-3.648.928-5.213 1.147-1.565.2-3.348.3-5.349.3-4.53 0-7.896-.983-10.098-2.948-2.201-1.966-3.329-4.978-3.384-9.036v-12.748h5.267v12.612c.018 2.766.646 4.759 1.883 5.978 1.256 1.219 3.366 1.829 6.332 1.829 3.457 0 6.978-.491 10.562-1.474v-18.945h5.267zM450.666 406.105h-16.648l-3.739 10.373h-5.404l15.175-39.746h4.585l15.201 39.746h-5.377l-3.793-10.373zm-15.065-4.313h13.509l-6.768-18.591-6.741 18.591zM489.092 381.045H476.32v35.433h-5.213v-35.433h-12.745v-4.313h30.73v4.313zM500.5 392.947h9.88c4.148.055 7.387 1.119 9.716 3.194 2.329 2.075 3.493 4.895 3.493 8.462 0 3.586-1.174 6.443-3.521 8.572-2.347 2.13-5.549 3.231-9.606 3.303H495.26v-39.746h5.24v16.215zm0 4.313v14.932h9.58c2.601 0 4.621-.691 6.058-2.074 1.456-1.383 2.184-3.24 2.184-5.569 0-2.239-.701-4.004-2.102-5.296-1.382-1.292-3.357-1.956-5.922-1.993H500.5zM568.62 381.045h-19.159v11.902h9.88c4.148.055 7.387 1.119 9.716 3.194 2.329 2.075 3.493 4.895 3.493 8.462 0 3.586-1.173 6.443-3.521 8.572-2.347 2.13-5.549 3.231-9.606 3.303h-15.229v-39.746h24.426v4.313zm-19.159 16.215v14.932h9.58c2.602 0 4.621-.691 6.058-2.074 1.456-1.383 2.184-3.24 2.184-5.569 0-2.239-.701-4.004-2.102-5.296-1.382-1.292-3.357-1.956-5.922-1.993h-9.798zM604.7 376.732h5.239v39.746H604.7v-30.629l-19.569 30.629h-5.267v-39.746h5.267v30.629l19.569-30.629zM646.128 381.045h-12.772v35.433h-5.213v-35.433h-12.745v-4.313h30.73v4.313zM652.023 416.478v-39.746h12.991c4.312 0 7.55.891 9.716 2.675 2.183 1.783 3.275 4.422 3.275 7.916 0 1.857-.528 3.504-1.583 4.942-1.056 1.419-2.493 2.52-4.312 3.303 2.147.6 3.839 1.747 5.076 3.439 1.255 1.675 1.883 3.676 1.883 6.006 0 3.567-1.155 6.37-3.466 8.408-2.311 2.038-5.577 3.057-9.798 3.057h-13.782zm5.24-18.59v14.304h8.651c2.439 0 4.358-.627 5.759-1.883 1.419-1.274 2.129-3.021 2.129-5.241 0-4.787-2.602-7.18-7.806-7.18h-8.733zm0-4.204h7.915c2.292 0 4.121-.573 5.485-1.72 1.383-1.146 2.074-2.702 2.074-4.668 0-2.184-.636-3.767-1.91-4.75-1.274-1.001-3.211-1.501-5.813-1.501h-7.751v12.639zM700.111 399.799l9.142-23.067h6.086l-14.055 33.113c-.946 2.111-1.828 3.612-2.647 4.504a8.47 8.47 0 01-2.893 2.02c-1.092.455-2.465.683-4.121.683-1.437 0-2.356-.082-2.756-.246l.163-4.149 2.484.109c1.91 0 3.33-.919 4.257-2.757l.683-1.42 1.037-2.429-13.537-29.428h5.868l10.289 23.067z"/>
  </g>
  <g style="mix-blend-mode:hard-light" filter="url(#filter4_dddii)" stroke="#FF002E" stroke-opacity=".76" stroke-width="15.201" stroke-linecap="round" stroke-linejoin="round">
    <path d="M345.316 410.501h-5.268v-18.372h-20.031v18.372h-5.24v-39.747h5.24v17.089h20.031v-17.089h5.268v39.747zM377.056 400.127h-16.648l-3.739 10.374h-5.404l15.174-39.747h4.585l15.202 39.747h-5.377l-3.793-10.374zm-15.065-4.313H375.5l-6.768-18.59-6.741 18.59zM418.839 370.754v39.747h-5.267V394.04c-1.91.546-3.648.928-5.213 1.146-1.564.2-3.348.3-5.349.3-4.53 0-7.896-.982-10.098-2.948-2.201-1.965-3.329-4.977-3.384-9.036v-12.748h5.267v12.612c.019 2.766.646 4.759 1.883 5.978 1.256 1.22 3.366 1.829 6.332 1.829 3.457 0 6.978-.491 10.562-1.474v-18.945h5.267zM450.743 400.127h-16.648l-3.739 10.374h-5.403l15.174-39.747h4.585l15.201 39.747h-5.376l-3.794-10.374zm-15.065-4.313h13.509l-6.768-18.59-6.741 18.59zM489.17 375.067h-12.773v35.434h-5.213v-35.434h-12.745v-4.313h30.731v4.313zM500.577 386.969h9.88c4.148.055 7.387 1.12 9.716 3.194 2.329 2.075 3.493 4.896 3.493 8.463 0 3.585-1.173 6.442-3.521 8.572-2.347 2.129-5.549 3.23-9.606 3.303h-15.202v-39.747h5.24v16.215zm0 4.313v14.933h9.58c2.602 0 4.621-.692 6.058-2.075 1.456-1.383 2.184-3.239 2.184-5.569 0-2.238-.701-4.004-2.102-5.296-1.382-1.292-3.357-1.956-5.922-1.993h-9.798zM568.697 375.067h-19.159v11.902h9.88c4.148.055 7.387 1.12 9.716 3.194 2.329 2.075 3.493 4.896 3.493 8.463 0 3.585-1.173 6.442-3.52 8.572-2.348 2.129-5.55 3.23-9.607 3.303h-15.229v-39.747h24.426v4.313zm-19.159 16.215v14.933h9.58c2.602 0 4.621-.692 6.059-2.075 1.455-1.383 2.183-3.239 2.183-5.569 0-2.238-.701-4.004-2.102-5.296-1.382-1.292-3.356-1.956-5.922-1.993h-9.798zM604.777 370.754h5.24v39.747h-5.24v-30.629l-19.568 30.629h-5.268v-39.747h5.268v30.629l19.568-30.629zM646.205 375.067h-12.772v35.434h-5.213v-35.434h-12.745v-4.313h30.73v4.313zM652.1 410.501v-39.747h12.991c4.312 0 7.551.892 9.716 2.675 2.183 1.784 3.275 4.423 3.275 7.917 0 1.856-.528 3.503-1.583 4.941-1.056 1.419-2.493 2.52-4.312 3.303 2.147.6 3.839 1.747 5.076 3.44 1.255 1.674 1.883 3.676 1.883 6.005 0 3.567-1.155 6.37-3.466 8.408-2.311 2.038-5.577 3.058-9.798 3.058H652.1zm5.24-18.591v14.305h8.652c2.438 0 4.357-.628 5.758-1.884 1.419-1.274 2.129-3.021 2.129-5.241 0-4.787-2.602-7.18-7.806-7.18h-8.733zm0-4.204h7.915c2.292 0 4.121-.573 5.485-1.719 1.383-1.147 2.074-2.703 2.074-4.669 0-2.183-.636-3.767-1.91-4.749-1.274-1.001-3.211-1.502-5.813-1.502h-7.751v12.639zM700.188 393.821l9.142-23.067h6.087l-14.056 33.113c-.946 2.111-1.828 3.613-2.647 4.504a8.47 8.47 0 01-2.893 2.02c-1.091.455-2.465.683-4.121.683-1.437 0-2.356-.082-2.756-.246l.163-4.149 2.484.109c1.91 0 3.33-.919 4.257-2.757l.683-1.42 1.037-2.429-13.537-29.428h5.868l10.289 23.067z"/>
  </g>
  <g filter="url(#filter5_f)" stroke="#510131" stroke-width="9.12" stroke-linecap="round" stroke-linejoin="round">
    <path d="M345.188 410.552h-5.267V392.18h-20.032v18.372h-5.24v-39.747h5.24v17.089h20.032v-17.089h5.267v39.747zM376.928 400.178H360.28l-3.739 10.374h-5.404l15.175-39.747h4.585l15.201 39.747h-5.377l-3.793-10.374zm-15.065-4.313h13.509l-6.768-18.59-6.741 18.59zM418.711 370.805v39.747h-5.267v-16.461c-1.91.546-3.648.928-5.213 1.146-1.564.2-3.347.301-5.349.301-4.53 0-7.896-.983-10.098-2.949-2.201-1.965-3.329-4.977-3.384-9.036v-12.748h5.267v12.612c.019 2.766.646 4.759 1.884 5.978 1.255 1.22 3.366 1.829 6.331 1.829 3.457 0 6.978-.491 10.562-1.474v-18.945h5.267zM450.615 400.178h-16.648l-3.739 10.374h-5.403l15.174-39.747h4.585l15.201 39.747h-5.376l-3.794-10.374zm-15.065-4.313h13.51l-6.769-18.59-6.741 18.59zM489.042 375.118h-12.773v35.434h-5.212v-35.434h-12.746v-4.313h30.731v4.313zM500.45 387.02h9.879c4.148.055 7.387 1.12 9.716 3.194 2.329 2.075 3.493 4.896 3.493 8.463 0 3.585-1.173 6.442-3.52 8.572-2.348 2.129-5.55 3.23-9.607 3.303H495.21v-39.747h5.24v16.215zm0 4.314v14.932h9.579c2.602 0 4.621-.692 6.059-2.075 1.455-1.383 2.183-3.239 2.183-5.569 0-2.238-.701-4.003-2.102-5.296-1.382-1.292-3.356-1.956-5.922-1.992h-9.797zM568.569 375.118h-19.158v11.902h9.879c4.148.055 7.387 1.12 9.716 3.194 2.329 2.075 3.493 4.896 3.493 8.463 0 3.585-1.173 6.442-3.52 8.572-2.347 2.129-5.55 3.23-9.607 3.303h-15.229v-39.747h24.426v4.313zm-19.158 16.216v14.932h9.579c2.602 0 4.621-.692 6.059-2.075 1.455-1.383 2.183-3.239 2.183-5.569 0-2.238-.701-4.003-2.101-5.296-1.383-1.292-3.357-1.956-5.923-1.992h-9.797zM604.649 370.805h5.24v39.747h-5.24v-30.629l-19.568 30.629h-5.268v-39.747h5.268v30.629l19.568-30.629zM646.077 375.118h-12.772v35.434h-5.213v-35.434h-12.745v-4.313h30.73v4.313zM651.972 410.552v-39.747h12.991c4.312 0 7.551.892 9.716 2.675 2.183 1.784 3.275 4.423 3.275 7.917 0 1.856-.528 3.503-1.583 4.941-1.055 1.419-2.493 2.521-4.312 3.303 2.147.601 3.839 1.747 5.076 3.44 1.255 1.674 1.883 3.676 1.883 6.005 0 3.567-1.155 6.37-3.466 8.408-2.311 2.039-5.576 3.058-9.798 3.058h-13.782zm5.24-18.591v14.305h8.652c2.438 0 4.357-.628 5.758-1.884 1.419-1.274 2.129-3.021 2.129-5.241 0-4.786-2.602-7.18-7.806-7.18h-8.733zm0-4.204h7.915c2.292 0 4.121-.573 5.485-1.719 1.383-1.147 2.075-2.703 2.075-4.668 0-2.184-.637-3.768-1.911-4.75-1.273-1.001-3.211-1.502-5.813-1.502h-7.751v12.639zM700.06 393.872l9.143-23.067h6.086l-14.056 33.113c-.946 2.111-1.828 3.613-2.647 4.504a8.487 8.487 0 01-2.893 2.021c-1.091.455-2.465.682-4.121.682-1.437 0-2.356-.082-2.756-.246l.164-4.149 2.483.109c1.911 0 3.33-.919 4.258-2.757l.682-1.42 1.037-2.429-13.537-29.428h5.868l10.289 23.067z"/>
  </g>
  <g filter="url(#filter6_f)">
    <path d="M319.889 387.894v-17.089h-5.24v39.747h5.24V392.18h20.032v18.372h5.267v-39.747h-5.267v17.089H327m86.444 22.658h5.267v-39.747h-5.267v18.945c-3.584.983-7.105 1.475-10.562 1.475-2.965 0-5.076-.61-6.331-1.829-1.238-1.22-1.865-3.213-1.884-5.979v-12.612H389.4v12.749c.055 4.058 1.183 7.07 3.384 9.035 2.202 1.966 5.568 2.949 10.098 2.949 2.002 0 3.785-.1 5.349-.301 1.565-.218 3.303-.6 5.213-1.146v12.175m20.523-6.088l-3.739 10.374h-5.403l15.174-39.747h4.585l15.201 39.747h-5.376l-3.794-10.374H441.5m-5.95-4.313h13.51l-6.769-18.59-4.523 12.475m33.289-14.632h-12.746v-4.313h30.731v4.313h-12.773v35.434h-5.212V381m24.153 29.552h15.201c4.057-.073 7.259-1.174 9.607-3.303 2.347-2.13 3.52-4.987 3.52-8.572 0-3.567-1.164-6.388-3.493-8.463-2.329-2.074-5.568-3.139-9.716-3.193h-9.879v-16.216h-5.24V405.5m5.24-14.166h9.797c2.566.036 4.54.7 5.922 1.993 1.401 1.292 2.102 3.057 2.102 5.295 0 2.33-.728 4.186-2.183 5.569-1.438 1.383-3.457 2.075-6.059 2.075h-9.579v-2.075m43.693 6.361h15.229c4.057-.073 7.26-1.174 9.607-3.303 2.347-2.13 3.52-4.987 3.52-8.572 0-3.567-1.164-6.388-3.493-8.463-2.329-2.074-5.568-3.139-9.716-3.193h-9.879v-11.903h19.158v-4.313h-24.426v33.277m5.268 2.184h9.579c2.602 0 4.621-.692 6.059-2.075 1.455-1.383 2.183-3.239 2.183-5.569 0-2.238-.701-4.003-2.101-5.295-1.383-1.293-3.357-1.957-5.923-1.993h-9.797v10.1l.089 2.066m35.581 7.052h-5.268v-39.747h5.268v30.629l19.568-30.629h5.24v39.747h-5.24v-30.629L590 402.852m38.092-27.734h-12.745v-4.313h30.73v4.313h-12.772v35.434h-5.213V381.37m23.88 29.182h13.782c4.222 0 7.487-1.019 9.798-3.058 2.311-2.038 3.466-4.84 3.466-8.407 0-2.33-.628-4.332-1.883-6.006-1.237-1.693-2.929-2.839-5.076-3.44 1.819-.782 3.257-1.883 4.312-3.303 1.055-1.438 1.583-3.085 1.583-4.941 0-3.494-1.092-6.133-3.275-7.917-2.165-1.783-5.404-2.675-9.716-2.675h-12.991v35.461m5.24 0h8.652c2.438 0 4.357-.628 5.758-1.884 1.419-1.273 2.129-3.021 2.129-5.241 0-4.786-2.602-7.179-7.805-7.179h-8.734v10.89m0-15.094h7.915c2.292 0 4.121-.574 5.485-1.72 1.383-1.147 2.075-2.703 2.075-4.668 0-2.184-.637-3.767-1.911-4.75-1.274-1.001-3.211-1.502-5.813-1.502h-7.751V384m42.848 9.872l9.143-23.067h6.086l-14.056 33.113c-.946 2.111-1.828 3.613-2.647 4.505a8.484 8.484 0 01-2.893 2.02c-1.091.455-2.465.682-4.121.682-1.437 0-2.356-.082-2.756-.246l.164-4.149 2.483.109c1.911 0 3.33-.919 4.258-2.757l.682-1.419 1.037-2.43-13.537-29.428h5.868L696.995 387m-332.786 2.396l4.395-12.121 6.768 18.59h-13.509l1.188-3.276m0 7.589h-2.771l-3.739 10.374h-5.404l15.175-39.747h4.585l15.201 39.747h-5.377l-3.793-10.374H367.5" stroke="#fff" stroke-width="2" stroke-linecap="round" stroke-linejoin="round"/>
  </g>
  <g style="mix-blend-mode:color-dodge" opacity=".3" filter="url(#filter7_f)">
    <ellipse cx="522.5" cy="394" rx="217.5" ry="89" fill="#FE0707"/>
  </g>
  <g style="mix-blend-mode:color-dodge" filter="url(#filter8_f)">
    <path d="M283.825 347.421l-41.172 88.128h494.064l38.333-88.128H305.121" stroke="#FFE600" stroke-width="15.201" stroke-linecap="round" stroke-linejoin="round"/>
  </g>
  <g style="mix-blend-mode:color-dodge" filter="url(#filter9_f)">
    <path d="M283.825 347.421l-41.172 88.128h494.064l38.333-88.128H305.121" stroke="red" stroke-width="20" stroke-linecap="round" stroke-linejoin="round"/>
  </g>
  <g filter="url(#filter10_f)">
    <path d="M283.825 347.421l-41.172 88.128h494.064l38.333-88.128H305.121" stroke="#FF9983" stroke-width="9.12" stroke-linecap="round" stroke-linejoin="round"/>
  </g>
  <g filter="url(#filter11_f)">
    <path d="M283.825 347.421l-41.172 88.128h494.064l38.333-88.128H305.121" stroke="#fff" stroke-width="2" stroke-linecap="round" stroke-linejoin="round"/>
  </g>
  <defs>
    <filter id="filter0_f" x="26.987" y="8.987" width="1000.03" height="768.346" filterUnits="userSpaceOnUse" color-interpolation-filters="sRGB">
      <feFlood flood-opacity="0" result="BackgroundImageFix"/>
      <feBlend in="SourceGraphic" in2="BackgroundImageFix" result="shape"/>
      <feGaussianBlur stdDeviation="152.007" result="effect1_foregroundBlur"/>
    </filter>
    <filter id="filter1_f" x="230.853" y="287.163" width="567.847" height="207.527" filterUnits="userSpaceOnUse" color-interpolation-filters="sRGB">
      <feFlood flood-opacity="0" result="BackgroundImageFix"/>
      <feBlend in="SourceGraphic" in2="BackgroundImageFix" result="shape"/>
      <feGaussianBlur stdDeviation="38.002" result="effect1_foregroundBlur"/>
    </filter>
    <filter id="filter2_f" x="281.656" y="337.646" width="466.242" height="105.922" filterUnits="userSpaceOnUse" color-interpolation-filters="sRGB">
      <feFlood flood-opacity="0" result="BackgroundImageFix"/>
      <feBlend in="SourceGraphic" in2="BackgroundImageFix" result="shape"/>
      <feGaussianBlur stdDeviation="11.4" result="effect1_foregroundBlur"/>
    </filter>
    <filter id="filter3_f" x="309.379" y="371.411" width="411.28" height="50.961" filterUnits="userSpaceOnUse" color-interpolation-filters="sRGB">
      <feFlood flood-opacity="0" result="BackgroundImageFix"/>
      <feBlend in="SourceGraphic" in2="BackgroundImageFix" result="shape"/>
      <feGaussianBlur stdDeviation="1.52" result="effect1_foregroundBlur"/>
    </filter>
    <filter id="filter4_dddii" x="215.972" y="302.351" width="598.249" height="237.929" filterUnits="userSpaceOnUse" color-interpolation-filters="sRGB">
      <feFlood flood-opacity="0" result="BackgroundImageFix"/>
      <feColorMatrix in="SourceAlpha" values="0 0 0 0 0 0 0 0 0 0 0 0 0 0 0 0 0 0 127 0"/>
      <feOffset dy="15.201"/>
      <feGaussianBlur stdDeviation="6.08"/>
      <feColorMatrix values="0 0 0 0 0.15 0 0 0 0 0.000624999 0 0 0 0 0.000624999 0 0 0 0.7 0"/>
      <feBlend mode="multiply" in2="BackgroundImageFix" result="effect1_dropShadow"/>
      <feColorMatrix in="SourceAlpha" values="0 0 0 0 0 0 0 0 0 0 0 0 0 0 0 0 0 0 127 0"/>
      <feOffset dy="30.401"/>
      <feGaussianBlur stdDeviation="15.201"/>
      <feColorMatrix values="0 0 0 0 0.45 0 0 0 0 0.0393375 0 0 0 0 0.013125 0 0 0 0.8 0"/>
      <feBlend mode="multiply" in2="effect1_dropShadow" result="effect2_dropShadow"/>
      <feColorMatrix in="SourceAlpha" values="0 0 0 0 0 0 0 0 0 0 0 0 0 0 0 0 0 0 127 0"/>
      <feOffset dy="30.401"/>
      <feGaussianBlur stdDeviation="45.602"/>
      <feColorMatrix values="0 0 0 0 0.528831 0 0 0 0 0.18901 0 0 0 0 0.795833 0 0 0 1 0"/>
      <feBlend mode="color-dodge" in2="effect2_dropShadow" result="effect3_dropShadow"/>
      <feBlend in="SourceGraphic" in2="effect3_dropShadow" result="shape"/>
      <feColorMatrix in="SourceAlpha" values="0 0 0 0 0 0 0 0 0 0 0 0 0 0 0 0 0 0 127 0" result="hardAlpha"/>
      <feOffset dx="-1.52" dy="3.04"/>
      <feGaussianBlur stdDeviation=".75"/>
      <feComposite in2="hardAlpha" operator="arithmetic" k2="-1" k3="1"/>
      <feColorMatrix values="0 0 0 0 1 0 0 0 0 1 0 0 0 0 1 0 0 0 0.5 0"/>
      <feBlend in2="shape" result="effect4_innerShadow"/>
      <feColorMatrix in="SourceAlpha" values="0 0 0 0 0 0 0 0 0 0 0 0 0 0 0 0 0 0 127 0" result="hardAlpha"/>
      <feOffset dx="-1.52" dy="-3.04"/>
      <feGaussianBlur stdDeviation=".76"/>
      <feComposite in2="hardAlpha" operator="arithmetic" k2="-1" k3="1"/>
      <feColorMatrix values="0 0 0 0 1 0 0 0 0 1 0 0 0 0 1 0 0 0 0.4 0"/>
      <feBlend in2="effect4_innerShadow" result="effect5_innerShadow"/>
    </filter>
    <filter id="filter5_f" x="308.088" y="364.245" width="413.76" height="53.44" filterUnits="userSpaceOnUse" color-interpolation-filters="sRGB">
      <feFlood flood-opacity="0" result="BackgroundImageFix"/>
      <feBlend in="SourceGraphic" in2="BackgroundImageFix" result="shape"/>
      <feGaussianBlur stdDeviation="1" result="effect1_foregroundBlur"/>
    </filter>
    <filter id="filter6_f" x="312.129" y="368.285" width="405.68" height="45.36" filterUnits="userSpaceOnUse" color-interpolation-filters="sRGB">
      <feFlood flood-opacity="0" result="BackgroundImageFix"/>
      <feBlend in="SourceGraphic" in2="BackgroundImageFix" result="shape"/>
      <feGaussianBlur stdDeviation=".76" result="effect1_foregroundBlur"/>
    </filter>
    <filter id="filter7_f" x=".987" y=".987" width="1043.03" height="786.026" filterUnits="userSpaceOnUse" color-interpolation-filters="sRGB">
      <feFlood flood-opacity="0" result="BackgroundImageFix"/>
      <feBlend in="SourceGraphic" in2="BackgroundImageFix" result="shape"/>
      <feGaussianBlur stdDeviation="152.007" result="effect1_foregroundBlur"/>
    </filter>
    <filter id="filter8_f" x="159.049" y="263.816" width="699.604" height="255.337" filterUnits="userSpaceOnUse" color-interpolation-filters="sRGB">
      <feFlood flood-opacity="0" result="BackgroundImageFix"/>
      <feBlend in="SourceGraphic" in2="BackgroundImageFix" result="shape"/>
      <feGaussianBlur stdDeviation="38.002" result="effect1_foregroundBlur"/>
    </filter>
    <filter id="filter9_f" x="209.852" y="314.618" width="597.999" height="153.732" filterUnits="userSpaceOnUse" color-interpolation-filters="sRGB">
      <feFlood flood-opacity="0" result="BackgroundImageFix"/>
      <feBlend in="SourceGraphic" in2="BackgroundImageFix" result="shape"/>
      <feGaussianBlur stdDeviation="11.4" result="effect1_foregroundBlur"/>
    </filter>
    <filter id="filter10_f" x="236.093" y="340.86" width="545.517" height="101.249" filterUnits="userSpaceOnUse" color-interpolation-filters="sRGB">
      <feFlood flood-opacity="0" result="BackgroundImageFix"/>
      <feBlend in="SourceGraphic" in2="BackgroundImageFix" result="shape"/>
      <feGaussianBlur stdDeviation="1" result="effect1_foregroundBlur"/>
    </filter>
    <filter id="filter11_f" x="240.133" y="344.901" width="537.437" height="93.168" filterUnits="userSpaceOnUse" color-interpolation-filters="sRGB">
      <feFlood flood-opacity="0" result="BackgroundImageFix"/>
      <feBlend in="SourceGraphic" in2="BackgroundImageFix" result="shape"/>
      <feGaussianBlur stdDeviation=".76" result="effect1_foregroundBlur"/>
    </filter>
  </defs>
</svg>