<svg viewBox="0 0 71 69" fill="none" xmlns="http://www.w3.org/2000/svg">
<mask id="mask0" mask-type="alpha" maskUnits="userSpaceOnUse" x="29" y="0" width="18" height="18">
<path d="M37.8937 17.1794C42.6664 17.1794 46.5354 13.3337 46.5354 8.58971C46.5354 3.84575 42.6664 0 37.8937 0C33.121 0 29.252 3.84575 29.252 8.58971C29.252 13.3337 33.121 17.1794 37.8937 17.1794Z" fill="url(#paint0_radial)"/>
</mask>
<g mask="url(#mask0)">
<path d="M37.8937 17.1794C42.6664 17.1794 46.5354 13.3337 46.5354 8.58971C46.5354 3.84575 42.6664 0 37.8937 0C33.121 0 29.252 3.84575 29.252 8.58971C29.252 13.3337 33.121 17.1794 37.8937 17.1794Z" fill="url(#paint1_radial)"/>
<path opacity="0.5" d="M37.8937 17.1794C42.6664 17.1794 46.5354 13.3337 46.5354 8.58971C46.5354 3.84575 42.6664 0 37.8937 0C33.121 0 29.252 3.84575 29.252 8.58971C29.252 13.3337 33.121 17.1794 37.8937 17.1794Z" fill="url(#paint2_radial)"/>
<path d="M37.8937 17.1794C42.6664 17.1794 46.5354 13.3337 46.5354 8.58971C46.5354 3.84575 42.6664 0 37.8937 0C33.121 0 29.252 3.84575 29.252 8.58971C29.252 13.3337 33.121 17.1794 37.8937 17.1794Z" fill="url(#paint3_radial)"/>
</g>
<mask id="mask1" mask-type="alpha" maskUnits="userSpaceOnUse" x="51" y="10" width="18" height="18">
<path d="M60.0863 27.5032C64.859 27.5032 68.728 23.6575 68.728 18.9135C68.728 14.1695 64.859 10.3238 60.0863 10.3238C55.3136 10.3238 51.4446 14.1695 51.4446 18.9135C51.4446 23.6575 55.3136 27.5032 60.0863 27.5032Z" fill="url(#paint4_radial)"/>
</mask>
<g mask="url(#mask1)">
<path d="M60.0863 27.5032C64.859 27.5032 68.728 23.6575 68.728 18.9135C68.728 14.1695 64.859 10.3238 60.0863 10.3238C55.3136 10.3238 51.4446 14.1695 51.4446 18.9135C51.4446 23.6575 55.3136 27.5032 60.0863 27.5032Z" fill="url(#paint5_radial)"/>
<path opacity="0.5" d="M60.0863 27.5032C64.859 27.5032 68.728 23.6575 68.728 18.9135C68.728 14.1695 64.859 10.3238 60.0863 10.3238C55.3136 10.3238 51.4446 14.1695 51.4446 18.9135C51.4446 23.6575 55.3136 27.5032 60.0863 27.5032Z" fill="url(#paint6_radial)"/>
<path d="M60.0863 27.5032C64.859 27.5032 68.728 23.6575 68.728 18.9135C68.728 14.1695 64.859 10.3238 60.0863 10.3238C55.3136 10.3238 51.4446 14.1695 51.4446 18.9135C51.4446 23.6575 55.3136 27.5032 60.0863 27.5032Z" fill="url(#paint7_radial)"/>
</g>
<mask id="mask2" mask-type="alpha" maskUnits="userSpaceOnUse" x="43" y="48" width="19" height="18">
<path d="M52.54 65.4915C57.3127 65.4915 61.1817 61.6458 61.1817 56.9018C61.1817 52.1578 57.3127 48.3121 52.54 48.3121C47.7673 48.3121 43.8983 52.1578 43.8983 56.9018C43.8983 61.6458 47.7673 65.4915 52.54 65.4915Z" fill="url(#paint8_radial)"/>
</mask>
<g mask="url(#mask2)">
<path d="M52.54 65.4915C57.3127 65.4915 61.1817 61.6458 61.1817 56.9018C61.1817 52.1578 57.3127 48.3121 52.54 48.3121C47.7673 48.3121 43.8983 52.1578 43.8983 56.9018C43.8983 61.6458 47.7673 65.4915 52.54 65.4915Z" fill="url(#paint9_radial)"/>
<path opacity="0.5" d="M52.54 65.4915C57.3127 65.4915 61.1817 61.6458 61.1817 56.9018C61.1817 52.1578 57.3127 48.3121 52.54 48.3121C47.7673 48.3121 43.8983 52.1578 43.8983 56.9018C43.8983 61.6458 47.7673 65.4915 52.54 65.4915Z" fill="url(#paint10_radial)"/>
<path d="M52.54 65.4915C57.3127 65.4915 61.1817 61.6458 61.1817 56.9018C61.1817 52.1578 57.3127 48.3121 52.54 48.3121C47.7673 48.3121 43.8983 52.1578 43.8983 56.9018C43.8983 61.6458 47.7673 65.4915 52.54 65.4915Z" fill="url(#paint11_radial)"/>
</g>
<mask id="mask3" mask-type="alpha" maskUnits="userSpaceOnUse" x="61" y="23" width="9" height="8">
<path d="M65.2794 30.6891C67.3857 30.6891 69.0931 28.9919 69.0931 26.8983C69.0931 24.8047 67.3857 23.1075 65.2794 23.1075C63.1732 23.1075 61.4657 24.8047 61.4657 26.8983C61.4657 28.9919 63.1732 30.6891 65.2794 30.6891Z" fill="url(#paint12_radial)"/>
</mask>
<g mask="url(#mask3)">
<path d="M65.2794 30.6891C67.3857 30.6891 69.0931 28.9919 69.0931 26.8983C69.0931 24.8047 67.3857 23.1075 65.2794 23.1075C63.1732 23.1075 61.4657 24.8047 61.4657 26.8983C61.4657 28.9919 63.1732 30.6891 65.2794 30.6891Z" fill="url(#paint13_radial)"/>
<path opacity="0.5" d="M65.2794 30.6891C67.3857 30.6891 69.0931 28.9919 69.0931 26.8983C69.0931 24.8047 67.3857 23.1075 65.2794 23.1075C63.1732 23.1075 61.4657 24.8047 61.4657 26.8983C61.4657 28.9919 63.1732 30.6891 65.2794 30.6891Z" fill="url(#paint14_radial)"/>
<path d="M65.2794 30.6891C67.3857 30.6891 69.0931 28.9919 69.0931 26.8983C69.0931 24.8047 67.3857 23.1075 65.2794 23.1075C63.1732 23.1075 61.4657 24.8047 61.4657 26.8983C61.4657 28.9919 63.1732 30.6891 65.2794 30.6891Z" fill="url(#paint15_radial)"/>
</g>
<mask id="mask4" mask-type="alpha" maskUnits="userSpaceOnUse" x="9" y="8" width="18" height="18">
<path d="M18.0949 25.0836C22.8227 25.0836 26.6554 21.2739 26.6554 16.5745C26.6554 11.8751 22.8227 8.06546 18.0949 8.06546C13.367 8.06546 9.53429 11.8751 9.53429 16.5745C9.53429 21.2739 13.367 25.0836 18.0949 25.0836Z" fill="url(#paint16_radial)"/>
</mask>
<g mask="url(#mask4)">
<path d="M18.0949 25.0836C22.8227 25.0836 26.6554 21.2739 26.6554 16.5745C26.6554 11.8751 22.8227 8.06546 18.0949 8.06546C13.367 8.06546 9.53429 11.8751 9.53429 16.5745C9.53429 21.2739 13.367 25.0836 18.0949 25.0836Z" fill="url(#paint17_radial)"/>
<path opacity="0.5" d="M18.0949 25.0836C22.8227 25.0836 26.6554 21.2739 26.6554 16.5745C26.6554 11.8751 22.8227 8.06546 18.0949 8.06546C13.367 8.06546 9.53429 11.8751 9.53429 16.5745C9.53429 21.2739 13.367 25.0836 18.0949 25.0836Z" fill="url(#paint18_radial)"/>
<path d="M18.0949 25.0836C22.8227 25.0836 26.6554 21.2739 26.6554 16.5745C26.6554 11.8751 22.8227 8.06546 18.0949 8.06546C13.367 8.06546 9.53429 11.8751 9.53429 16.5745C9.53429 21.2739 13.367 25.0836 18.0949 25.0836Z" fill="url(#paint19_radial)"/>
</g>
<mask id="mask5" mask-type="alpha" maskUnits="userSpaceOnUse" x="0" y="24" width="19" height="20">
<path d="M9.49371 43.7148C14.7369 43.7148 18.9874 39.4899 18.9874 34.2782C18.9874 29.0665 14.7369 24.8416 9.49371 24.8416C4.25048 24.8416 0 29.0665 0 34.2782C0 39.4899 4.25048 43.7148 9.49371 43.7148Z" fill="url(#paint20_radial)"/>
</mask>
<g mask="url(#mask5)">
<path d="M9.49371 43.7148C14.7369 43.7148 18.9874 39.4899 18.9874 34.2782C18.9874 29.0665 14.7369 24.8416 9.49371 24.8416C4.25048 24.8416 0 29.0665 0 34.2782C0 39.4899 4.25048 43.7148 9.49371 43.7148Z" fill="url(#paint21_radial)"/>
<path opacity="0.5" d="M9.49371 43.7148C14.7369 43.7148 18.9874 39.4899 18.9874 34.2782C18.9874 29.0665 14.7369 24.8416 9.49371 24.8416C4.25048 24.8416 0 29.0665 0 34.2782C0 39.4899 4.25048 43.7148 9.49371 43.7148Z" fill="url(#paint22_radial)"/>
<path d="M9.49371 43.7148C14.7369 43.7148 18.9874 39.4899 18.9874 34.2782C18.9874 29.0665 14.7369 24.8416 9.49371 24.8416C4.25048 24.8416 0 29.0665 0 34.2782C0 39.4899 4.25048 43.7148 9.49371 43.7148Z" fill="url(#paint23_radial)"/>
</g>
<mask id="mask6" mask-type="alpha" maskUnits="userSpaceOnUse" x="23" y="54" width="15" height="16">
<path d="M30.5097 69.0403C34.6102 69.0403 37.9343 65.7362 37.9343 61.6604C37.9343 57.5846 34.6102 54.2805 30.5097 54.2805C26.4092 54.2805 23.0851 57.5846 23.0851 61.6604C23.0851 65.7362 26.4092 69.0403 30.5097 69.0403Z" fill="url(#paint24_radial)"/>
</mask>
<g mask="url(#mask6)">
<path d="M30.5097 69.0403C34.6102 69.0403 37.9343 65.7362 37.9343 61.6604C37.9343 57.5846 34.6102 54.2805 30.5097 54.2805C26.4092 54.2805 23.0851 57.5846 23.0851 61.6604C23.0851 65.7362 26.4092 69.0403 30.5097 69.0403Z" fill="url(#paint25_radial)"/>
<path opacity="0.5" d="M30.5097 69.0403C34.6102 69.0403 37.9343 65.7362 37.9343 61.6604C37.9343 57.5846 34.6102 54.2805 30.5097 54.2805C26.4092 54.2805 23.0851 57.5846 23.0851 61.6604C23.0851 65.7362 26.4092 69.0403 30.5097 69.0403Z" fill="url(#paint26_radial)"/>
<path d="M30.5097 69.0403C34.6102 69.0403 37.9343 65.7362 37.9343 61.6604C37.9343 57.5846 34.6102 54.2805 30.5097 54.2805C26.4092 54.2805 23.0851 57.5846 23.0851 61.6604C23.0851 65.7362 26.4092 69.0403 30.5097 69.0403Z" fill="url(#paint27_radial)"/>
</g>
<mask id="mask7" mask-type="alpha" maskUnits="userSpaceOnUse" x="9" y="6" width="58" height="57">
<path d="M37.8937 62.7089C53.6234 62.7089 66.3749 50.0342 66.3749 34.3992C66.3749 18.7641 53.6234 6.08942 37.8937 6.08942C22.164 6.08942 9.41257 18.7641 9.41257 34.3992C9.41257 50.0342 22.164 62.7089 37.8937 62.7089Z" fill="url(#paint28_radial)"/>
</mask>
<g mask="url(#mask7)">
<path d="M37.8937 62.7089C53.6234 62.7089 66.3749 50.0342 66.3749 34.3992C66.3749 18.7641 53.6234 6.08942 37.8937 6.08942C22.164 6.08942 9.41257 18.7641 9.41257 34.3992C9.41257 50.0342 22.164 62.7089 37.8937 62.7089Z" fill="url(#paint29_radial)"/>
<path opacity="0.5" d="M37.8937 62.7089C53.6234 62.7089 66.3749 50.0342 66.3749 34.3992C66.3749 18.7641 53.6234 6.08942 37.8937 6.08942C22.164 6.08942 9.41257 18.7641 9.41257 34.3992C9.41257 50.0342 22.164 62.7089 37.8937 62.7089Z" fill="url(#paint30_radial)"/>
<path d="M37.8937 62.7089C53.6234 62.7089 66.3749 50.0342 66.3749 34.3992C66.3749 18.7641 53.6234 6.08942 37.8937 6.08942C22.164 6.08942 9.41257 18.7641 9.41257 34.3992C9.41257 50.0342 22.164 62.7089 37.8937 62.7089Z" fill="url(#paint31_radial)"/>
</g>
<mask id="mask8" mask-type="alpha" maskUnits="userSpaceOnUse" x="0" y="34" width="19" height="20">
<path d="M9.49371 53.0707C14.7369 53.0707 18.9874 48.8458 18.9874 43.6341C18.9874 38.4224 14.7369 34.1975 9.49371 34.1975C4.25048 34.1975 0 38.4224 0 43.6341C0 48.8458 4.25048 53.0707 9.49371 53.0707Z" fill="url(#paint32_radial)"/>
</mask>
<g mask="url(#mask8)">
<path d="M9.49371 53.0707C14.7369 53.0707 18.9874 48.8458 18.9874 43.6341C18.9874 38.4224 14.7369 34.1975 9.49371 34.1975C4.25048 34.1975 0 38.4224 0 43.6341C0 48.8458 4.25048 53.0707 9.49371 53.0707Z" fill="url(#paint33_radial)"/>
<path opacity="0.5" d="M9.49371 53.0707C14.7369 53.0707 18.9874 48.8458 18.9874 43.6341C18.9874 38.4224 14.7369 34.1975 9.49371 34.1975C4.25048 34.1975 0 38.4224 0 43.6341C0 48.8458 4.25048 53.0707 9.49371 53.0707Z" fill="url(#paint34_radial)"/>
<path d="M9.49371 53.0707C14.7369 53.0707 18.9874 48.8458 18.9874 43.6341C18.9874 38.4224 14.7369 34.1975 9.49371 34.1975C4.25048 34.1975 0 38.4224 0 43.6341C0 48.8458 4.25048 53.0707 9.49371 53.0707Z" fill="url(#paint35_radial)"/>
</g>
<mask id="mask9" mask-type="alpha" maskUnits="userSpaceOnUse" x="16" y="48" width="14" height="14">
<path d="M22.8417 61.8217C26.4716 61.8217 29.4143 58.8968 29.4143 55.2887C29.4143 51.6806 26.4716 48.7557 22.8417 48.7557C19.2118 48.7557 16.2691 51.6806 16.2691 55.2887C16.2691 58.8968 19.2118 61.8217 22.8417 61.8217Z" fill="url(#paint36_radial)"/>
</mask>
<g mask="url(#mask9)">
<path d="M22.8417 61.8217C26.4716 61.8217 29.4143 58.8968 29.4143 55.2887C29.4143 51.6806 26.4716 48.7557 22.8417 48.7557C19.2118 48.7557 16.2691 51.6806 16.2691 55.2887C16.2691 58.8968 19.2118 61.8217 22.8417 61.8217Z" fill="url(#paint37_radial)"/>
<path opacity="0.5" d="M22.8417 61.8217C26.4716 61.8217 29.4143 58.8968 29.4143 55.2887C29.4143 51.6806 26.4716 48.7557 22.8417 48.7557C19.2118 48.7557 16.2691 51.6806 16.2691 55.2887C16.2691 58.8968 19.2118 61.8217 22.8417 61.8217Z" fill="url(#paint38_radial)"/>
<path d="M22.8417 61.8217C26.4716 61.8217 29.4143 58.8968 29.4143 55.2887C29.4143 51.6806 26.4716 48.7557 22.8417 48.7557C19.2118 48.7557 16.2691 51.6806 16.2691 55.2887C16.2691 58.8968 19.2118 61.8217 22.8417 61.8217Z" fill="url(#paint39_radial)"/>
</g>
<mask id="mask10" mask-type="alpha" maskUnits="userSpaceOnUse" x="5" y="24" width="33" height="32">
<path d="M21.868 55.8533C30.6739 55.8533 37.8126 48.7576 37.8126 40.0047C37.8126 31.2517 30.6739 24.156 21.868 24.156C13.0621 24.156 5.92342 31.2517 5.92342 40.0047C5.92342 48.7576 13.0621 55.8533 21.868 55.8533Z" fill="url(#paint40_radial)"/>
</mask>
<g mask="url(#mask10)">
<path d="M21.868 55.8533C30.6739 55.8533 37.8126 48.7576 37.8126 40.0047C37.8126 31.2517 30.6739 24.156 21.868 24.156C13.0621 24.156 5.92342 31.2517 5.92342 40.0047C5.92342 48.7576 13.0621 55.8533 21.868 55.8533Z" fill="url(#paint41_radial)"/>
<path opacity="0.5" d="M21.868 55.8533C30.6739 55.8533 37.8126 48.7576 37.8126 40.0047C37.8126 31.2517 30.6739 24.156 21.868 24.156C13.0621 24.156 5.92342 31.2517 5.92342 40.0047C5.92342 48.7576 13.0621 55.8533 21.868 55.8533Z" fill="url(#paint42_radial)"/>
<path d="M21.868 55.8533C30.6739 55.8533 37.8126 48.7576 37.8126 40.0047C37.8126 31.2517 30.6739 24.156 21.868 24.156C13.0621 24.156 5.92342 31.2517 5.92342 40.0047C5.92342 48.7576 13.0621 55.8533 21.868 55.8533Z" fill="url(#paint43_radial)"/>
</g>
<mask id="mask11" mask-type="alpha" maskUnits="userSpaceOnUse" x="28" y="17" width="18" height="18">
<path d="M36.9606 34.4395C41.6884 34.4395 45.5211 30.6299 45.5211 25.9305C45.5211 21.231 41.6884 17.4214 36.9606 17.4214C32.2327 17.4214 28.4 21.231 28.4 25.9305C28.4 30.6299 32.2327 34.4395 36.9606 34.4395Z" fill="url(#paint44_radial)"/>
</mask>
<g mask="url(#mask11)">
<path d="M36.9606 34.4395C41.6884 34.4395 45.5211 30.6299 45.5211 25.9305C45.5211 21.231 41.6884 17.4214 36.9606 17.4214C32.2327 17.4214 28.4 21.231 28.4 25.9305C28.4 30.6299 32.2327 34.4395 36.9606 34.4395Z" fill="url(#paint45_radial)"/>
<path opacity="0.5" d="M36.9606 34.4395C41.6884 34.4395 45.5211 30.6299 45.5211 25.9305C45.5211 21.231 41.6884 17.4214 36.9606 17.4214C32.2327 17.4214 28.4 21.231 28.4 25.9305C28.4 30.6299 32.2327 34.4395 36.9606 34.4395Z" fill="url(#paint46_radial)"/>
<path d="M36.9606 34.4395C41.6884 34.4395 45.5211 30.6299 45.5211 25.9305C45.5211 21.231 41.6884 17.4214 36.9606 17.4214C32.2327 17.4214 28.4 21.231 28.4 25.9305C28.4 30.6299 32.2327 34.4395 36.9606 34.4395Z" fill="url(#paint47_radial)"/>
</g>
<mask id="mask12" mask-type="alpha" maskUnits="userSpaceOnUse" x="53" y="35" width="18" height="18">
<path d="M62.4394 52.2642C67.1673 52.2642 71 48.4545 71 43.7551C71 39.0557 67.1673 35.246 62.4394 35.246C57.7116 35.246 53.8789 39.0557 53.8789 43.7551C53.8789 48.4545 57.7116 52.2642 62.4394 52.2642Z" fill="url(#paint48_radial)"/>
</mask>
<g mask="url(#mask12)">
<path d="M62.4394 52.2642C67.1673 52.2642 71 48.4545 71 43.7551C71 39.0557 67.1673 35.246 62.4394 35.246C57.7116 35.246 53.8789 39.0557 53.8789 43.7551C53.8789 48.4545 57.7116 52.2642 62.4394 52.2642Z" fill="url(#paint49_radial)"/>
<path opacity="0.5" d="M62.4394 52.2642C67.1673 52.2642 71 48.4545 71 43.7551C71 39.0557 67.1673 35.246 62.4394 35.246C57.7116 35.246 53.8789 39.0557 53.8789 43.7551C53.8789 48.4545 57.7116 52.2642 62.4394 52.2642Z" fill="url(#paint50_radial)"/>
<path d="M62.4394 52.2642C67.1673 52.2642 71 48.4545 71 43.7551C71 39.0557 67.1673 35.246 62.4394 35.246C57.7116 35.246 53.8789 39.0557 53.8789 43.7551C53.8789 48.4545 57.7116 52.2642 62.4394 52.2642Z" fill="url(#paint51_radial)"/>
</g>
<mask id="mask13" mask-type="alpha" maskUnits="userSpaceOnUse" x="34" y="29" width="11" height="11">
<path d="M39.8006 39.2385C42.4894 39.2385 44.6691 37.0718 44.6691 34.3992C44.6691 31.7265 42.4894 29.5599 39.8006 29.5599C37.1117 29.5599 34.932 31.7265 34.932 34.3992C34.932 37.0718 37.1117 39.2385 39.8006 39.2385Z" fill="url(#paint52_radial)"/>
</mask>
<g mask="url(#mask13)">
<path d="M39.8006 39.2385C42.4894 39.2385 44.6691 37.0718 44.6691 34.3992C44.6691 31.7265 42.4894 29.5599 39.8006 29.5599C37.1117 29.5599 34.932 31.7265 34.932 34.3992C34.932 37.0718 37.1117 39.2385 39.8006 39.2385Z" fill="url(#paint53_radial)"/>
<path opacity="0.5" d="M39.8006 39.2385C42.4894 39.2385 44.6691 37.0718 44.6691 34.3992C44.6691 31.7265 42.4894 29.5599 39.8006 29.5599C37.1117 29.5599 34.932 31.7265 34.932 34.3992C34.932 37.0718 37.1117 39.2385 39.8006 39.2385Z" fill="url(#paint54_radial)"/>
<path d="M39.8006 39.2385C42.4894 39.2385 44.6691 37.0718 44.6691 34.3992C44.6691 31.7265 42.4894 29.5599 39.8006 29.5599C37.1117 29.5599 34.932 31.7265 34.932 34.3992C34.932 37.0718 37.1117 39.2385 39.8006 39.2385Z" fill="url(#paint55_radial)"/>
</g>
<defs>
<radialGradient id="paint0_radial" cx="0" cy="0" r="1" gradientUnits="userSpaceOnUse" gradientTransform="translate(37.6115 8.95338) scale(9.10414 9.04936)">
<stop offset="0.75" stop-color="white"/>
<stop offset="0.8009" stop-color="#FCFCFC"/>
<stop offset="0.8417" stop-color="#F2F2F2"/>
<stop offset="0.8791" stop-color="#E1E1E1"/>
<stop offset="0.9144" stop-color="#C9C9C9"/>
<stop offset="0.9483" stop-color="#AAAAAA"/>
<stop offset="0.9806" stop-color="#858585"/>
<stop offset="1" stop-color="#6B6B6B"/>
</radialGradient>
<radialGradient id="paint1_radial" cx="0" cy="0" r="1" gradientUnits="userSpaceOnUse" gradientTransform="translate(39.7139 7.26726) scale(11.1364 11.0694)">
<stop offset="0.1818" stop-color="#202A12"/>
<stop offset="0.398" stop-color="#2D3A0F"/>
<stop offset="0.5981" stop-color="#3C4D0B"/>
<stop offset="0.6521" stop-color="#40530E"/>
<stop offset="0.7213" stop-color="#4A6315"/>
<stop offset="0.7988" stop-color="#5A7D21"/>
<stop offset="0.8823" stop-color="#72A133"/>
<stop offset="0.9697" stop-color="#90D049"/>
<stop offset="1" stop-color="#9BE251"/>
</radialGradient>
<radialGradient id="paint2_radial" cx="0" cy="0" r="1" gradientUnits="userSpaceOnUse" gradientTransform="translate(37.8982 8.59717) scale(8.64922 8.59717)">
<stop offset="0.5"/>
<stop offset="0.5853" stop-color="#020301"/>
<stop offset="0.6539" stop-color="#090D05"/>
<stop offset="0.7167" stop-color="#151E0B"/>
<stop offset="0.776" stop-color="#253613"/>
<stop offset="0.8328" stop-color="#3A551E"/>
<stop offset="0.8879" stop-color="#547B2C"/>
<stop offset="0.9414" stop-color="#73A73C"/>
<stop offset="0.9926" stop-color="#96DA4E"/>
<stop offset="1" stop-color="#9BE251"/>
</radialGradient>
<radialGradient id="paint3_radial" cx="0" cy="0" r="1" gradientUnits="userSpaceOnUse" gradientTransform="translate(36.5602 10.497) scale(10.7517 10.6871)">
<stop offset="0.5"/>
<stop offset="0.5853" stop-color="#020301"/>
<stop offset="0.6539" stop-color="#090D05"/>
<stop offset="0.7167" stop-color="#151E0B"/>
<stop offset="0.776" stop-color="#253613"/>
<stop offset="0.8328" stop-color="#3A551E"/>
<stop offset="0.8879" stop-color="#547B2C"/>
<stop offset="0.9414" stop-color="#73A73C"/>
<stop offset="0.9926" stop-color="#96DA4E"/>
<stop offset="1" stop-color="#9BE251"/>
</radialGradient>
<radialGradient id="paint4_radial" cx="0" cy="0" r="1" gradientUnits="userSpaceOnUse" gradientTransform="translate(59.7841 19.2696) scale(9.10415 9.04937)">
<stop offset="0.75" stop-color="white"/>
<stop offset="0.8009" stop-color="#FCFCFC"/>
<stop offset="0.8417" stop-color="#F2F2F2"/>
<stop offset="0.8791" stop-color="#E1E1E1"/>
<stop offset="0.9144" stop-color="#C9C9C9"/>
<stop offset="0.9483" stop-color="#AAAAAA"/>
<stop offset="0.9806" stop-color="#858585"/>
<stop offset="1" stop-color="#6B6B6B"/>
</radialGradient>
<radialGradient id="paint5_radial" cx="0" cy="0" r="1" gradientUnits="userSpaceOnUse" gradientTransform="translate(61.8865 17.5835) scale(11.1364 11.0694)">
<stop offset="0.1818" stop-color="#202A12"/>
<stop offset="0.398" stop-color="#2D3A0F"/>
<stop offset="0.5981" stop-color="#3C4D0B"/>
<stop offset="0.6521" stop-color="#40530E"/>
<stop offset="0.7213" stop-color="#4A6315"/>
<stop offset="0.7988" stop-color="#5A7D21"/>
<stop offset="0.8823" stop-color="#72A133"/>
<stop offset="0.9697" stop-color="#90D049"/>
<stop offset="1" stop-color="#9BE251"/>
</radialGradient>
<radialGradient id="paint6_radial" cx="0" cy="0" r="1" gradientUnits="userSpaceOnUse" gradientTransform="translate(60.0708 18.9134) scale(8.64922 8.59718)">
<stop offset="0.5"/>
<stop offset="0.5853" stop-color="#020301"/>
<stop offset="0.6539" stop-color="#090D05"/>
<stop offset="0.7167" stop-color="#151E0B"/>
<stop offset="0.776" stop-color="#253613"/>
<stop offset="0.8328" stop-color="#3A551E"/>
<stop offset="0.8879" stop-color="#547B2C"/>
<stop offset="0.9414" stop-color="#73A73C"/>
<stop offset="0.9926" stop-color="#96DA4E"/>
<stop offset="1" stop-color="#9BE251"/>
</radialGradient>
<radialGradient id="paint7_radial" cx="0" cy="0" r="1" gradientUnits="userSpaceOnUse" gradientTransform="translate(58.7328 20.8132) scale(10.7518 10.6871)">
<stop offset="0.5"/>
<stop offset="0.5853" stop-color="#020301"/>
<stop offset="0.6539" stop-color="#090D05"/>
<stop offset="0.7167" stop-color="#151E0B"/>
<stop offset="0.776" stop-color="#253613"/>
<stop offset="0.8328" stop-color="#3A551E"/>
<stop offset="0.8879" stop-color="#547B2C"/>
<stop offset="0.9414" stop-color="#73A73C"/>
<stop offset="0.9926" stop-color="#96DA4E"/>
<stop offset="1" stop-color="#9BE251"/>
</radialGradient>
<radialGradient id="paint8_radial" cx="0" cy="0" r="1" gradientUnits="userSpaceOnUse" gradientTransform="translate(52.236 57.252) scale(9.10415 9.04936)">
<stop offset="0.75" stop-color="white"/>
<stop offset="0.8009" stop-color="#FCFCFC"/>
<stop offset="0.8417" stop-color="#F2F2F2"/>
<stop offset="0.8791" stop-color="#E1E1E1"/>
<stop offset="0.9144" stop-color="#C9C9C9"/>
<stop offset="0.9483" stop-color="#AAAAAA"/>
<stop offset="0.9806" stop-color="#858585"/>
<stop offset="1" stop-color="#6B6B6B"/>
</radialGradient>
<radialGradient id="paint9_radial" cx="0" cy="0" r="1" gradientUnits="userSpaceOnUse" gradientTransform="translate(54.3384 55.5659) scale(11.1364 11.0694)">
<stop offset="0.1818" stop-color="#202A12"/>
<stop offset="0.398" stop-color="#2D3A0F"/>
<stop offset="0.5981" stop-color="#3C4D0B"/>
<stop offset="0.6521" stop-color="#40530E"/>
<stop offset="0.7213" stop-color="#4A6315"/>
<stop offset="0.7988" stop-color="#5A7D21"/>
<stop offset="0.8823" stop-color="#72A133"/>
<stop offset="0.9697" stop-color="#90D049"/>
<stop offset="1" stop-color="#9BE251"/>
</radialGradient>
<radialGradient id="paint10_radial" cx="0" cy="0" r="1" gradientUnits="userSpaceOnUse" gradientTransform="translate(52.5226 56.8958) scale(8.64918 8.59713)">
<stop offset="0.5"/>
<stop offset="0.5853" stop-color="#020301"/>
<stop offset="0.6539" stop-color="#090D05"/>
<stop offset="0.7167" stop-color="#151E0B"/>
<stop offset="0.776" stop-color="#253613"/>
<stop offset="0.8328" stop-color="#3A551E"/>
<stop offset="0.8879" stop-color="#547B2C"/>
<stop offset="0.9414" stop-color="#73A73C"/>
<stop offset="0.9926" stop-color="#96DA4E"/>
<stop offset="1" stop-color="#9BE251"/>
</radialGradient>
<radialGradient id="paint11_radial" cx="0" cy="0" r="1" gradientUnits="userSpaceOnUse" gradientTransform="translate(51.1847 58.7957) scale(10.7517 10.687)">
<stop offset="0.5"/>
<stop offset="0.5853" stop-color="#020301"/>
<stop offset="0.6539" stop-color="#090D05"/>
<stop offset="0.7167" stop-color="#151E0B"/>
<stop offset="0.776" stop-color="#253613"/>
<stop offset="0.8328" stop-color="#3A551E"/>
<stop offset="0.8879" stop-color="#547B2C"/>
<stop offset="0.9414" stop-color="#73A73C"/>
<stop offset="0.9926" stop-color="#96DA4E"/>
<stop offset="1" stop-color="#9BE251"/>
</radialGradient>
<radialGradient id="paint12_radial" cx="0" cy="0" r="1" gradientUnits="userSpaceOnUse" gradientTransform="translate(65.1337 27.042) scale(4.0143 3.99015)">
<stop offset="0.75" stop-color="white"/>
<stop offset="0.8009" stop-color="#FCFCFC"/>
<stop offset="0.8417" stop-color="#F2F2F2"/>
<stop offset="0.8791" stop-color="#E1E1E1"/>
<stop offset="0.9144" stop-color="#C9C9C9"/>
<stop offset="0.9483" stop-color="#AAAAAA"/>
<stop offset="0.9806" stop-color="#858585"/>
<stop offset="1" stop-color="#6B6B6B"/>
</radialGradient>
<radialGradient id="paint13_radial" cx="0" cy="0" r="1" gradientUnits="userSpaceOnUse" gradientTransform="translate(66.0607 26.2986) scale(4.91037 4.88082)">
<stop offset="0.1818" stop-color="#202A12"/>
<stop offset="0.398" stop-color="#2D3A0F"/>
<stop offset="0.5981" stop-color="#3C4D0B"/>
<stop offset="0.6521" stop-color="#40530E"/>
<stop offset="0.7213" stop-color="#4A6315"/>
<stop offset="0.7988" stop-color="#5A7D21"/>
<stop offset="0.8823" stop-color="#72A133"/>
<stop offset="0.9697" stop-color="#90D049"/>
<stop offset="1" stop-color="#9BE251"/>
</radialGradient>
<radialGradient id="paint14_radial" cx="0" cy="0" r="1" gradientUnits="userSpaceOnUse" gradientTransform="translate(65.2601 26.885) scale(3.81372 3.79077)">
<stop offset="0.5"/>
<stop offset="0.5853" stop-color="#020301"/>
<stop offset="0.6539" stop-color="#090D05"/>
<stop offset="0.7167" stop-color="#151E0B"/>
<stop offset="0.776" stop-color="#253613"/>
<stop offset="0.8328" stop-color="#3A551E"/>
<stop offset="0.8879" stop-color="#547B2C"/>
<stop offset="0.9414" stop-color="#73A73C"/>
<stop offset="0.9926" stop-color="#96DA4E"/>
<stop offset="1" stop-color="#9BE251"/>
</radialGradient>
<radialGradient id="paint15_radial" cx="0" cy="0" r="1" gradientUnits="userSpaceOnUse" gradientTransform="translate(64.6702 27.7227) scale(4.74078 4.71225)">
<stop offset="0.5"/>
<stop offset="0.5853" stop-color="#020301"/>
<stop offset="0.6539" stop-color="#090D05"/>
<stop offset="0.7167" stop-color="#151E0B"/>
<stop offset="0.776" stop-color="#253613"/>
<stop offset="0.8328" stop-color="#3A551E"/>
<stop offset="0.8879" stop-color="#547B2C"/>
<stop offset="0.9414" stop-color="#73A73C"/>
<stop offset="0.9926" stop-color="#96DA4E"/>
<stop offset="1" stop-color="#9BE251"/>
</radialGradient>
<radialGradient id="paint16_radial" cx="0" cy="0" r="1" gradientUnits="userSpaceOnUse" gradientTransform="translate(17.8003 16.9218) scale(9.02122 8.96694)">
<stop offset="0.75" stop-color="white"/>
<stop offset="0.8009" stop-color="#FCFCFC"/>
<stop offset="0.8417" stop-color="#F2F2F2"/>
<stop offset="0.8791" stop-color="#E1E1E1"/>
<stop offset="0.9144" stop-color="#C9C9C9"/>
<stop offset="0.9483" stop-color="#AAAAAA"/>
<stop offset="0.9806" stop-color="#858585"/>
<stop offset="1" stop-color="#6B6B6B"/>
</radialGradient>
<radialGradient id="paint17_radial" cx="0" cy="0" r="1" gradientUnits="userSpaceOnUse" gradientTransform="translate(19.8836 15.251) scale(11.0349 10.9685)">
<stop offset="0.1818" stop-color="#202A12"/>
<stop offset="0.398" stop-color="#2D3A0F"/>
<stop offset="0.5981" stop-color="#3C4D0B"/>
<stop offset="0.6521" stop-color="#40530E"/>
<stop offset="0.7213" stop-color="#4A6315"/>
<stop offset="0.7988" stop-color="#5A7D21"/>
<stop offset="0.8823" stop-color="#72A133"/>
<stop offset="0.9697" stop-color="#90D049"/>
<stop offset="1" stop-color="#9BE251"/>
</radialGradient>
<radialGradient id="paint18_radial" cx="0" cy="0" r="1" gradientUnits="userSpaceOnUse" gradientTransform="translate(18.0844 16.5688) scale(8.57043 8.51886)">
<stop offset="0.5"/>
<stop offset="0.5853" stop-color="#020301"/>
<stop offset="0.6539" stop-color="#090D05"/>
<stop offset="0.7167" stop-color="#151E0B"/>
<stop offset="0.776" stop-color="#253613"/>
<stop offset="0.8328" stop-color="#3A551E"/>
<stop offset="0.8879" stop-color="#547B2C"/>
<stop offset="0.9414" stop-color="#73A73C"/>
<stop offset="0.9926" stop-color="#96DA4E"/>
<stop offset="1" stop-color="#9BE251"/>
</radialGradient>
<radialGradient id="paint19_radial" cx="0" cy="0" r="1" gradientUnits="userSpaceOnUse" gradientTransform="translate(16.7586 18.4514) scale(10.6538 10.5897)">
<stop offset="0.5"/>
<stop offset="0.5853" stop-color="#020301"/>
<stop offset="0.6539" stop-color="#090D05"/>
<stop offset="0.7167" stop-color="#151E0B"/>
<stop offset="0.776" stop-color="#253613"/>
<stop offset="0.8328" stop-color="#3A551E"/>
<stop offset="0.8879" stop-color="#547B2C"/>
<stop offset="0.9414" stop-color="#73A73C"/>
<stop offset="0.9926" stop-color="#96DA4E"/>
<stop offset="1" stop-color="#9BE251"/>
</radialGradient>
<radialGradient id="paint20_radial" cx="0" cy="0" r="1" gradientUnits="userSpaceOnUse" gradientTransform="translate(9.1607 34.6607) scale(9.97315 9.91313)">
<stop offset="0.75" stop-color="white"/>
<stop offset="0.8009" stop-color="#FCFCFC"/>
<stop offset="0.8417" stop-color="#F2F2F2"/>
<stop offset="0.8791" stop-color="#E1E1E1"/>
<stop offset="0.9144" stop-color="#C9C9C9"/>
<stop offset="0.9483" stop-color="#AAAAAA"/>
<stop offset="0.9806" stop-color="#858585"/>
<stop offset="1" stop-color="#6B6B6B"/>
</radialGradient>
<radialGradient id="paint21_radial" cx="0" cy="0" r="1" gradientUnits="userSpaceOnUse" gradientTransform="translate(11.4639 32.8136) scale(12.1994 12.126)">
<stop offset="0.1818" stop-color="#202A12"/>
<stop offset="0.398" stop-color="#2D3A0F"/>
<stop offset="0.5981" stop-color="#3C4D0B"/>
<stop offset="0.6521" stop-color="#40530E"/>
<stop offset="0.7213" stop-color="#4A6315"/>
<stop offset="0.7988" stop-color="#5A7D21"/>
<stop offset="0.8823" stop-color="#72A133"/>
<stop offset="0.9697" stop-color="#90D049"/>
<stop offset="1" stop-color="#9BE251"/>
</radialGradient>
<radialGradient id="paint22_radial" cx="0" cy="0" r="1" gradientUnits="userSpaceOnUse" gradientTransform="translate(9.47477 34.2705) scale(9.47477 9.41775)">
<stop offset="0.5"/>
<stop offset="0.5853" stop-color="#020301"/>
<stop offset="0.6539" stop-color="#090D05"/>
<stop offset="0.7167" stop-color="#151E0B"/>
<stop offset="0.776" stop-color="#253613"/>
<stop offset="0.8328" stop-color="#3A551E"/>
<stop offset="0.8879" stop-color="#547B2C"/>
<stop offset="0.9414" stop-color="#73A73C"/>
<stop offset="0.9926" stop-color="#96DA4E"/>
<stop offset="1" stop-color="#9BE251"/>
</radialGradient>
<radialGradient id="paint23_radial" cx="0" cy="0" r="1" gradientUnits="userSpaceOnUse" gradientTransform="translate(8.00912 36.3517) scale(11.778 11.7071)">
<stop offset="0.5"/>
<stop offset="0.5853" stop-color="#020301"/>
<stop offset="0.6539" stop-color="#090D05"/>
<stop offset="0.7167" stop-color="#151E0B"/>
<stop offset="0.776" stop-color="#253613"/>
<stop offset="0.8328" stop-color="#3A551E"/>
<stop offset="0.8879" stop-color="#547B2C"/>
<stop offset="0.9414" stop-color="#73A73C"/>
<stop offset="0.9926" stop-color="#96DA4E"/>
<stop offset="1" stop-color="#9BE251"/>
</radialGradient>
<radialGradient id="paint24_radial" cx="0" cy="0" r="1" gradientUnits="userSpaceOnUse" gradientTransform="translate(30.2813 61.9488) scale(7.80066 7.75373)">
<stop offset="0.75" stop-color="white"/>
<stop offset="0.8009" stop-color="#FCFCFC"/>
<stop offset="0.8417" stop-color="#F2F2F2"/>
<stop offset="0.8791" stop-color="#E1E1E1"/>
<stop offset="0.9144" stop-color="#C9C9C9"/>
<stop offset="0.9483" stop-color="#AAAAAA"/>
<stop offset="0.9806" stop-color="#858585"/>
<stop offset="1" stop-color="#6B6B6B"/>
</radialGradient>
<radialGradient id="paint25_radial" cx="0" cy="0" r="1" gradientUnits="userSpaceOnUse" gradientTransform="translate(32.0827 60.5041) scale(9.54191 9.4845)">
<stop offset="0.1818" stop-color="#202A12"/>
<stop offset="0.398" stop-color="#2D3A0F"/>
<stop offset="0.5981" stop-color="#3C4D0B"/>
<stop offset="0.6521" stop-color="#40530E"/>
<stop offset="0.7213" stop-color="#4A6315"/>
<stop offset="0.7988" stop-color="#5A7D21"/>
<stop offset="0.8823" stop-color="#72A133"/>
<stop offset="0.9697" stop-color="#90D049"/>
<stop offset="1" stop-color="#9BE251"/>
</radialGradient>
<radialGradient id="paint26_radial" cx="0" cy="0" r="1" gradientUnits="userSpaceOnUse" gradientTransform="translate(30.5269 61.6436) scale(7.41081 7.36622)">
<stop offset="0.5"/>
<stop offset="0.5853" stop-color="#020301"/>
<stop offset="0.6539" stop-color="#090D05"/>
<stop offset="0.7167" stop-color="#151E0B"/>
<stop offset="0.776" stop-color="#253613"/>
<stop offset="0.8328" stop-color="#3A551E"/>
<stop offset="0.8879" stop-color="#547B2C"/>
<stop offset="0.9414" stop-color="#73A73C"/>
<stop offset="0.9926" stop-color="#96DA4E"/>
<stop offset="1" stop-color="#9BE251"/>
</radialGradient>
<radialGradient id="paint27_radial" cx="0" cy="0" r="1" gradientUnits="userSpaceOnUse" gradientTransform="translate(29.3806 63.2715) scale(9.21231 9.15688)">
<stop offset="0.5"/>
<stop offset="0.5853" stop-color="#020301"/>
<stop offset="0.6539" stop-color="#090D05"/>
<stop offset="0.7167" stop-color="#151E0B"/>
<stop offset="0.776" stop-color="#253613"/>
<stop offset="0.8328" stop-color="#3A551E"/>
<stop offset="0.8879" stop-color="#547B2C"/>
<stop offset="0.9414" stop-color="#73A73C"/>
<stop offset="0.9926" stop-color="#96DA4E"/>
<stop offset="1" stop-color="#9BE251"/>
</radialGradient>
<radialGradient id="paint28_radial" cx="0" cy="0" r="1" gradientUnits="userSpaceOnUse" gradientTransform="translate(36.9547 35.56) scale(29.9602 29.7799)">
<stop offset="0.75" stop-color="white"/>
<stop offset="0.8009" stop-color="#FCFCFC"/>
<stop offset="0.8417" stop-color="#F2F2F2"/>
<stop offset="0.8791" stop-color="#E1E1E1"/>
<stop offset="0.9144" stop-color="#C9C9C9"/>
<stop offset="0.9483" stop-color="#AAAAAA"/>
<stop offset="0.9806" stop-color="#858585"/>
<stop offset="1" stop-color="#6B6B6B"/>
</radialGradient>
<radialGradient id="paint29_radial" cx="0" cy="0" r="1" gradientUnits="userSpaceOnUse" gradientTransform="translate(43.8735 30.0112) scale(36.6479 36.4274)">
<stop offset="0.1818" stop-color="#202A12"/>
<stop offset="0.398" stop-color="#2D3A0F"/>
<stop offset="0.5981" stop-color="#3C4D0B"/>
<stop offset="0.6521" stop-color="#40530E"/>
<stop offset="0.7213" stop-color="#4A6315"/>
<stop offset="0.7988" stop-color="#5A7D21"/>
<stop offset="0.8823" stop-color="#72A133"/>
<stop offset="0.9697" stop-color="#90D049"/>
<stop offset="1" stop-color="#9BE251"/>
</radialGradient>
<radialGradient id="paint30_radial" cx="0" cy="0" r="1" gradientUnits="userSpaceOnUse" gradientTransform="translate(37.8982 34.3877) scale(28.463 28.2917)">
<stop offset="0.5"/>
<stop offset="0.5853" stop-color="#020301"/>
<stop offset="0.6539" stop-color="#090D05"/>
<stop offset="0.7167" stop-color="#151E0B"/>
<stop offset="0.776" stop-color="#253613"/>
<stop offset="0.8328" stop-color="#3A551E"/>
<stop offset="0.8879" stop-color="#547B2C"/>
<stop offset="0.9414" stop-color="#73A73C"/>
<stop offset="0.9926" stop-color="#96DA4E"/>
<stop offset="1" stop-color="#9BE251"/>
</radialGradient>
<radialGradient id="paint31_radial" cx="0" cy="0" r="1" gradientUnits="userSpaceOnUse" gradientTransform="translate(33.4952 40.6398) scale(35.3821 35.1692)">
<stop offset="0.5"/>
<stop offset="0.5853" stop-color="#020301"/>
<stop offset="0.6539" stop-color="#090D05"/>
<stop offset="0.7167" stop-color="#151E0B"/>
<stop offset="0.776" stop-color="#253613"/>
<stop offset="0.8328" stop-color="#3A551E"/>
<stop offset="0.8879" stop-color="#547B2C"/>
<stop offset="0.9414" stop-color="#73A73C"/>
<stop offset="0.9926" stop-color="#96DA4E"/>
<stop offset="1" stop-color="#9BE251"/>
</radialGradient>
<radialGradient id="paint32_radial" cx="0" cy="0" r="1" gradientUnits="userSpaceOnUse" gradientTransform="translate(9.1607 44.0391) scale(9.97315 9.91314)">
<stop offset="0.75" stop-color="white"/>
<stop offset="0.8009" stop-color="#FCFCFC"/>
<stop offset="0.8417" stop-color="#F2F2F2"/>
<stop offset="0.8791" stop-color="#E1E1E1"/>
<stop offset="0.9144" stop-color="#C9C9C9"/>
<stop offset="0.9483" stop-color="#AAAAAA"/>
<stop offset="0.9806" stop-color="#858585"/>
<stop offset="1" stop-color="#6B6B6B"/>
</radialGradient>
<radialGradient id="paint33_radial" cx="0" cy="0" r="1" gradientUnits="userSpaceOnUse" gradientTransform="translate(11.4639 42.192) scale(12.1994 12.126)">
<stop offset="0.1818" stop-color="#202A12"/>
<stop offset="0.398" stop-color="#2D3A0F"/>
<stop offset="0.5981" stop-color="#3C4D0B"/>
<stop offset="0.6521" stop-color="#40530E"/>
<stop offset="0.7213" stop-color="#4A6315"/>
<stop offset="0.7988" stop-color="#5A7D21"/>
<stop offset="0.8823" stop-color="#72A133"/>
<stop offset="0.9697" stop-color="#90D049"/>
<stop offset="1" stop-color="#9BE251"/>
</radialGradient>
<radialGradient id="paint34_radial" cx="0" cy="0" r="1" gradientUnits="userSpaceOnUse" gradientTransform="translate(9.47477 43.6488) scale(9.47477 9.41776)">
<stop offset="0.5"/>
<stop offset="0.5853" stop-color="#020301"/>
<stop offset="0.6539" stop-color="#090D05"/>
<stop offset="0.7167" stop-color="#151E0B"/>
<stop offset="0.776" stop-color="#253613"/>
<stop offset="0.8328" stop-color="#3A551E"/>
<stop offset="0.8879" stop-color="#547B2C"/>
<stop offset="0.9414" stop-color="#73A73C"/>
<stop offset="0.9926" stop-color="#96DA4E"/>
<stop offset="1" stop-color="#9BE251"/>
</radialGradient>
<radialGradient id="paint35_radial" cx="0" cy="0" r="1" gradientUnits="userSpaceOnUse" gradientTransform="translate(8.00912 45.7301) scale(11.778 11.7071)">
<stop offset="0.5"/>
<stop offset="0.5853" stop-color="#020301"/>
<stop offset="0.6539" stop-color="#090D05"/>
<stop offset="0.7167" stop-color="#151E0B"/>
<stop offset="0.776" stop-color="#253613"/>
<stop offset="0.8328" stop-color="#3A551E"/>
<stop offset="0.8879" stop-color="#547B2C"/>
<stop offset="0.9414" stop-color="#73A73C"/>
<stop offset="0.9926" stop-color="#96DA4E"/>
<stop offset="1" stop-color="#9BE251"/>
</radialGradient>
<radialGradient id="paint36_radial" cx="0" cy="0" r="1" gradientUnits="userSpaceOnUse" gradientTransform="translate(22.6141 55.5539) scale(6.90059 6.85906)">
<stop offset="0.75" stop-color="white"/>
<stop offset="0.8009" stop-color="#FCFCFC"/>
<stop offset="0.8417" stop-color="#F2F2F2"/>
<stop offset="0.8791" stop-color="#E1E1E1"/>
<stop offset="0.9144" stop-color="#C9C9C9"/>
<stop offset="0.9483" stop-color="#AAAAAA"/>
<stop offset="0.9806" stop-color="#858585"/>
<stop offset="1" stop-color="#6B6B6B"/>
</radialGradient>
<radialGradient id="paint37_radial" cx="0" cy="0" r="1" gradientUnits="userSpaceOnUse" gradientTransform="translate(24.2077 54.2759) scale(8.44096 8.39017)">
<stop offset="0.1818" stop-color="#202A12"/>
<stop offset="0.398" stop-color="#2D3A0F"/>
<stop offset="0.5981" stop-color="#3C4D0B"/>
<stop offset="0.6521" stop-color="#40530E"/>
<stop offset="0.7213" stop-color="#4A6315"/>
<stop offset="0.7988" stop-color="#5A7D21"/>
<stop offset="0.8823" stop-color="#72A133"/>
<stop offset="0.9697" stop-color="#90D049"/>
<stop offset="1" stop-color="#9BE251"/>
</radialGradient>
<radialGradient id="paint38_radial" cx="0" cy="0" r="1" gradientUnits="userSpaceOnUse" gradientTransform="translate(22.8314 55.2839) scale(6.55577 6.51632)">
<stop offset="0.5"/>
<stop offset="0.5853" stop-color="#020301"/>
<stop offset="0.6539" stop-color="#090D05"/>
<stop offset="0.7167" stop-color="#151E0B"/>
<stop offset="0.776" stop-color="#253613"/>
<stop offset="0.8328" stop-color="#3A551E"/>
<stop offset="0.8879" stop-color="#547B2C"/>
<stop offset="0.9414" stop-color="#73A73C"/>
<stop offset="0.9926" stop-color="#96DA4E"/>
<stop offset="1" stop-color="#9BE251"/>
</radialGradient>
<radialGradient id="paint39_radial" cx="0" cy="0" r="1" gradientUnits="userSpaceOnUse" gradientTransform="translate(21.8173 56.7239) scale(8.14942 8.10038)">
<stop offset="0.5"/>
<stop offset="0.5853" stop-color="#020301"/>
<stop offset="0.6539" stop-color="#090D05"/>
<stop offset="0.7167" stop-color="#151E0B"/>
<stop offset="0.776" stop-color="#253613"/>
<stop offset="0.8328" stop-color="#3A551E"/>
<stop offset="0.8879" stop-color="#547B2C"/>
<stop offset="0.9414" stop-color="#73A73C"/>
<stop offset="0.9926" stop-color="#96DA4E"/>
<stop offset="1" stop-color="#9BE251"/>
</radialGradient>
<radialGradient id="paint40_radial" cx="0" cy="0" r="1" gradientUnits="userSpaceOnUse" gradientTransform="translate(21.3293 40.6721) scale(16.801 16.6999)">
<stop offset="0.75" stop-color="white"/>
<stop offset="0.8009" stop-color="#FCFCFC"/>
<stop offset="0.8417" stop-color="#F2F2F2"/>
<stop offset="0.8791" stop-color="#E1E1E1"/>
<stop offset="0.9144" stop-color="#C9C9C9"/>
<stop offset="0.9483" stop-color="#AAAAAA"/>
<stop offset="0.9806" stop-color="#858585"/>
<stop offset="1" stop-color="#6B6B6B"/>
</radialGradient>
<radialGradient id="paint41_radial" cx="0" cy="0" r="1" gradientUnits="userSpaceOnUse" gradientTransform="translate(25.2093 37.5605) scale(20.5514 20.4277)">
<stop offset="0.1818" stop-color="#202A12"/>
<stop offset="0.398" stop-color="#2D3A0F"/>
<stop offset="0.5981" stop-color="#3C4D0B"/>
<stop offset="0.6521" stop-color="#40530E"/>
<stop offset="0.7213" stop-color="#4A6315"/>
<stop offset="0.7988" stop-color="#5A7D21"/>
<stop offset="0.8823" stop-color="#72A133"/>
<stop offset="0.9697" stop-color="#90D049"/>
<stop offset="1" stop-color="#9BE251"/>
</radialGradient>
<radialGradient id="paint42_radial" cx="0" cy="0" r="1" gradientUnits="userSpaceOnUse" gradientTransform="translate(21.8584 40.0147) scale(15.9614 15.8654)">
<stop offset="0.5"/>
<stop offset="0.5853" stop-color="#020301"/>
<stop offset="0.6539" stop-color="#090D05"/>
<stop offset="0.7167" stop-color="#151E0B"/>
<stop offset="0.776" stop-color="#253613"/>
<stop offset="0.8328" stop-color="#3A551E"/>
<stop offset="0.8879" stop-color="#547B2C"/>
<stop offset="0.9414" stop-color="#73A73C"/>
<stop offset="0.9926" stop-color="#96DA4E"/>
<stop offset="1" stop-color="#9BE251"/>
</radialGradient>
<radialGradient id="paint43_radial" cx="0" cy="0" r="1" gradientUnits="userSpaceOnUse" gradientTransform="translate(19.3893 43.5208) scale(19.8415 19.7221)">
<stop offset="0.5"/>
<stop offset="0.5853" stop-color="#020301"/>
<stop offset="0.6539" stop-color="#090D05"/>
<stop offset="0.7167" stop-color="#151E0B"/>
<stop offset="0.776" stop-color="#253613"/>
<stop offset="0.8328" stop-color="#3A551E"/>
<stop offset="0.8879" stop-color="#547B2C"/>
<stop offset="0.9414" stop-color="#73A73C"/>
<stop offset="0.9926" stop-color="#96DA4E"/>
<stop offset="1" stop-color="#9BE251"/>
</radialGradient>
<radialGradient id="paint44_radial" cx="0" cy="0" r="1" gradientUnits="userSpaceOnUse" gradientTransform="translate(36.6706 26.3001) scale(9.02122 8.96693)">
<stop offset="0.75" stop-color="white"/>
<stop offset="0.8009" stop-color="#FCFCFC"/>
<stop offset="0.8417" stop-color="#F2F2F2"/>
<stop offset="0.8791" stop-color="#E1E1E1"/>
<stop offset="0.9144" stop-color="#C9C9C9"/>
<stop offset="0.9483" stop-color="#AAAAAA"/>
<stop offset="0.9806" stop-color="#858585"/>
<stop offset="1" stop-color="#6B6B6B"/>
</radialGradient>
<radialGradient id="paint45_radial" cx="0" cy="0" r="1" gradientUnits="userSpaceOnUse" gradientTransform="translate(38.7539 24.6294) scale(11.0349 10.9685)">
<stop offset="0.1818" stop-color="#202A12"/>
<stop offset="0.398" stop-color="#2D3A0F"/>
<stop offset="0.5981" stop-color="#3C4D0B"/>
<stop offset="0.6521" stop-color="#40530E"/>
<stop offset="0.7213" stop-color="#4A6315"/>
<stop offset="0.7988" stop-color="#5A7D21"/>
<stop offset="0.8823" stop-color="#72A133"/>
<stop offset="0.9697" stop-color="#90D049"/>
<stop offset="1" stop-color="#9BE251"/>
</radialGradient>
<radialGradient id="paint46_radial" cx="0" cy="0" r="1" gradientUnits="userSpaceOnUse" gradientTransform="translate(36.9547 25.9471) scale(8.57043 8.51886)">
<stop offset="0.5"/>
<stop offset="0.5853" stop-color="#020301"/>
<stop offset="0.6539" stop-color="#090D05"/>
<stop offset="0.7167" stop-color="#151E0B"/>
<stop offset="0.776" stop-color="#253613"/>
<stop offset="0.8328" stop-color="#3A551E"/>
<stop offset="0.8879" stop-color="#547B2C"/>
<stop offset="0.9414" stop-color="#73A73C"/>
<stop offset="0.9926" stop-color="#96DA4E"/>
<stop offset="1" stop-color="#9BE251"/>
</radialGradient>
<radialGradient id="paint47_radial" cx="0" cy="0" r="1" gradientUnits="userSpaceOnUse" gradientTransform="translate(35.6289 27.8297) scale(10.6538 10.5897)">
<stop offset="0.5"/>
<stop offset="0.5853" stop-color="#020301"/>
<stop offset="0.6539" stop-color="#090D05"/>
<stop offset="0.7167" stop-color="#151E0B"/>
<stop offset="0.776" stop-color="#253613"/>
<stop offset="0.8328" stop-color="#3A551E"/>
<stop offset="0.8879" stop-color="#547B2C"/>
<stop offset="0.9414" stop-color="#73A73C"/>
<stop offset="0.9926" stop-color="#96DA4E"/>
<stop offset="1" stop-color="#9BE251"/>
</radialGradient>
<radialGradient id="paint48_radial" cx="0" cy="0" r="1" gradientUnits="userSpaceOnUse" gradientTransform="translate(62.1455 44.1191) scale(9.02121 8.96693)">
<stop offset="0.75" stop-color="white"/>
<stop offset="0.8009" stop-color="#FCFCFC"/>
<stop offset="0.8417" stop-color="#F2F2F2"/>
<stop offset="0.8791" stop-color="#E1E1E1"/>
<stop offset="0.9144" stop-color="#C9C9C9"/>
<stop offset="0.9483" stop-color="#AAAAAA"/>
<stop offset="0.9806" stop-color="#858585"/>
<stop offset="1" stop-color="#6B6B6B"/>
</radialGradient>
<radialGradient id="paint49_radial" cx="0" cy="0" r="1" gradientUnits="userSpaceOnUse" gradientTransform="translate(64.2288 42.4483) scale(11.0349 10.9685)">
<stop offset="0.1818" stop-color="#202A12"/>
<stop offset="0.398" stop-color="#2D3A0F"/>
<stop offset="0.5981" stop-color="#3C4D0B"/>
<stop offset="0.6521" stop-color="#40530E"/>
<stop offset="0.7213" stop-color="#4A6315"/>
<stop offset="0.7988" stop-color="#5A7D21"/>
<stop offset="0.8823" stop-color="#72A133"/>
<stop offset="0.9697" stop-color="#90D049"/>
<stop offset="1" stop-color="#9BE251"/>
</radialGradient>
<radialGradient id="paint50_radial" cx="0" cy="0" r="1" gradientUnits="userSpaceOnUse" gradientTransform="translate(62.4296 43.7661) scale(8.57042 8.51886)">
<stop offset="0.5"/>
<stop offset="0.5853" stop-color="#020301"/>
<stop offset="0.6539" stop-color="#090D05"/>
<stop offset="0.7167" stop-color="#151E0B"/>
<stop offset="0.776" stop-color="#253613"/>
<stop offset="0.8328" stop-color="#3A551E"/>
<stop offset="0.8879" stop-color="#547B2C"/>
<stop offset="0.9414" stop-color="#73A73C"/>
<stop offset="0.9926" stop-color="#96DA4E"/>
<stop offset="1" stop-color="#9BE251"/>
</radialGradient>
<radialGradient id="paint51_radial" cx="0" cy="0" r="1" gradientUnits="userSpaceOnUse" gradientTransform="translate(61.1038 45.6486) scale(10.6538 10.5897)">
<stop offset="0.5"/>
<stop offset="0.5853" stop-color="#020301"/>
<stop offset="0.6539" stop-color="#090D05"/>
<stop offset="0.7167" stop-color="#151E0B"/>
<stop offset="0.776" stop-color="#253613"/>
<stop offset="0.8328" stop-color="#3A551E"/>
<stop offset="0.8879" stop-color="#547B2C"/>
<stop offset="0.9414" stop-color="#73A73C"/>
<stop offset="0.9926" stop-color="#96DA4E"/>
<stop offset="1" stop-color="#9BE251"/>
</radialGradient>
<radialGradient id="paint52_radial" cx="0" cy="0" r="1" gradientUnits="userSpaceOnUse" gradientTransform="translate(39.6236 34.5885) scale(5.13107 5.10019)">
<stop offset="0.75" stop-color="white"/>
<stop offset="0.8009" stop-color="#FCFCFC"/>
<stop offset="0.8417" stop-color="#F2F2F2"/>
<stop offset="0.8791" stop-color="#E1E1E1"/>
<stop offset="0.9144" stop-color="#C9C9C9"/>
<stop offset="0.9483" stop-color="#AAAAAA"/>
<stop offset="0.9806" stop-color="#858585"/>
<stop offset="1" stop-color="#6B6B6B"/>
</radialGradient>
<radialGradient id="paint53_radial" cx="0" cy="0" r="1" gradientUnits="userSpaceOnUse" gradientTransform="translate(40.8086 33.6382) scale(6.27644 6.23867)">
<stop offset="0.1818" stop-color="#202A12"/>
<stop offset="0.398" stop-color="#2D3A0F"/>
<stop offset="0.5981" stop-color="#3C4D0B"/>
<stop offset="0.6521" stop-color="#40530E"/>
<stop offset="0.7213" stop-color="#4A6315"/>
<stop offset="0.7988" stop-color="#5A7D21"/>
<stop offset="0.8823" stop-color="#72A133"/>
<stop offset="0.9697" stop-color="#90D049"/>
<stop offset="1" stop-color="#9BE251"/>
</radialGradient>
<radialGradient id="paint54_radial" cx="0" cy="0" r="1" gradientUnits="userSpaceOnUse" gradientTransform="translate(39.7852 34.3877) scale(4.87466 4.84533)">
<stop offset="0.5"/>
<stop offset="0.5853" stop-color="#020301"/>
<stop offset="0.6539" stop-color="#090D05"/>
<stop offset="0.7167" stop-color="#151E0B"/>
<stop offset="0.776" stop-color="#253613"/>
<stop offset="0.8328" stop-color="#3A551E"/>
<stop offset="0.8879" stop-color="#547B2C"/>
<stop offset="0.9414" stop-color="#73A73C"/>
<stop offset="0.9926" stop-color="#96DA4E"/>
<stop offset="1" stop-color="#9BE251"/>
</radialGradient>
<radialGradient id="paint55_radial" cx="0" cy="0" r="1" gradientUnits="userSpaceOnUse" gradientTransform="translate(39.0311 35.4585) scale(6.05963 6.02317)">
<stop offset="0.5"/>
<stop offset="0.5853" stop-color="#020301"/>
<stop offset="0.6539" stop-color="#090D05"/>
<stop offset="0.7167" stop-color="#151E0B"/>
<stop offset="0.776" stop-color="#253613"/>
<stop offset="0.8328" stop-color="#3A551E"/>
<stop offset="0.8879" stop-color="#547B2C"/>
<stop offset="0.9414" stop-color="#73A73C"/>
<stop offset="0.9926" stop-color="#96DA4E"/>
<stop offset="1" stop-color="#9BE251"/>
</radialGradient>
</defs>
</svg>
