<svg width="430" height="263" viewBox="0 0 430 263" fill="none" xmlns="http://www.w3.org/2000/svg">
  <g style="mix-blend-mode:color-dodge" filter="url(#filter0_f)">
    <path d="M116.52 65.6v121.615c0 .952-.317 1.746-.952 2.381-.635.635-1.428.952-2.381.952h-9.808a3.117 3.117 0 01-2.286-.952c-.634-.635-.952-1.429-.952-2.381V65.599H58.527c-2.222 0-3.333-1.206-3.333-3.619v-9.713c0-.953.285-1.715.857-2.286.634-.572 1.46-.857 2.476-.857h99.417c.953 0 1.746.254 2.381.762.635.508 1.016 1.301 1.143 2.38v9.715c0 1.079-.318 1.968-.952 2.666-.572.635-1.429.952-2.572.952h-31.321m97.151 10.095c7.808 0 15.204 1.492 22.188 4.476 7.047 2.984 13.205 7.143 18.474 12.476 5.269 5.333 9.396 11.524 12.38 18.571 2.983 6.984 4.475 14.317 4.475 21.999 0 5.334-.698 10.508-2.095 15.524-1.333 4.952-3.301 9.555-5.904 13.809-5.206 8.571-12.157 15.333-20.855 20.285-8.888 5.143-18.442 7.714-28.663 7.714h-37.901c-3.238 0-4.857-1.651-4.857-4.952V53.886c0-3.175 1.556-4.762 4.666-4.762h6.857c3.174 0 4.761 1.587 4.761 4.761v21.81m25.045 98.854c5.777 0 11.269-1.048 16.475-3.143 5.205-2.095 9.808-5.048 13.808-8.857 3.999-3.809 7.078-8.222 9.237-13.238 2.222-5.015 3.333-10.38 3.333-16.095 0-5.714-1.111-11.079-3.333-16.094-2.159-5.079-5.206-9.524-9.142-13.333a41.305 41.305 0 00-13.332-8.667 39.439 39.439 0 00-15.522-3.142H197.3v82.569M311.955 67.465V52.266c0-.952-.318-1.714-.953-2.285-.635-.572-1.428-.857-2.38-.857h-10.095c-.952 0-1.714.285-2.285.857-.508.571-.762 1.333-.762 2.285v135.139c0 2.096 1.016 3.143 3.047 3.143h10.095c2.222 0 3.333-1.047 3.333-3.143V84.6" stroke="#00E0FF" stroke-width="8.425" stroke-linecap="round" stroke-linejoin="round"/>
  </g>
  <g style="mix-blend-mode:color-dodge" filter="url(#filter1_f)">
    <path d="M116.52 65.22v121.615c0 .952-.317 1.746-.952 2.381-.635.634-1.428.952-2.381.952h-9.808c-.889 0-1.651-.318-2.286-.952-.634-.635-.952-1.429-.952-2.381V65.219H58.527c-2.222 0-3.333-1.206-3.333-3.619v-9.714c0-.952.285-1.714.857-2.286.634-.57 1.46-.857 2.476-.857h99.417c.953 0 1.746.254 2.381.762.635.508 1.016 1.302 1.143 2.381V61.6c0 1.08-.318 1.968-.952 2.667-.572.635-1.429.952-2.572.952h-31.321m97.151 10.095c7.808 0 15.204 1.492 22.188 4.476 7.047 2.984 13.205 7.143 18.474 12.476 5.269 5.333 9.396 11.523 12.38 18.571 2.983 6.984 4.475 14.317 4.475 21.999 0 5.333-.698 10.508-2.095 15.524-1.333 4.952-3.301 9.555-5.904 13.809-5.206 8.571-12.157 15.333-20.855 20.285-8.888 5.143-18.442 7.714-28.663 7.714h-37.901c-3.238 0-4.857-1.651-4.857-4.952V53.506c0-3.175 1.556-4.763 4.666-4.763h6.857c3.174 0 4.761 1.588 4.761 4.762v21.809m25.045 98.854c5.777 0 11.269-1.047 16.475-3.142 5.205-2.096 9.808-5.048 13.808-8.857 3.999-3.81 7.078-8.222 9.237-13.238 2.222-5.016 3.333-10.381 3.333-16.095 0-5.714-1.111-11.079-3.333-16.095-2.159-5.079-5.206-9.523-9.142-13.333a41.313 41.313 0 00-13.332-8.666 39.44 39.44 0 00-15.522-3.143H197.3v82.569M311.955 67.085V51.886c0-.952-.318-1.714-.953-2.286-.635-.57-1.428-.857-2.38-.857h-10.095c-.952 0-1.714.286-2.285.857-.508.572-.762 1.334-.762 2.286v135.139c0 2.095 1.016 3.143 3.047 3.143h10.095c2.222 0 3.333-1.048 3.333-3.143V84.22" stroke="#0094FF" stroke-width="11.086" stroke-linecap="round" stroke-linejoin="round"/>
  </g>
  <g style="mix-blend-mode:multiply" opacity=".2" filter="url(#filter2_f)">
    <path d="M116.809 72.693v121.615c0 .953-.317 1.746-.952 2.381-.635.635-1.428.952-2.381.952h-9.808a3.117 3.117 0 01-2.286-.952c-.635-.635-.952-1.428-.952-2.381V72.693H58.815c-2.221 0-3.332-1.207-3.332-3.62V59.36c0-.953.285-1.715.857-2.286.634-.571 1.46-.857 2.475-.857h99.418c.953 0 1.746.254 2.381.762.635.508 1.016 1.301 1.143 2.38v9.715c0 1.079-.318 1.968-.953 2.666-.571.635-1.428.953-2.571.953h-31.321m97.151 10.094c7.808 0 15.204 1.493 22.188 4.477 7.046 2.984 13.205 7.142 18.474 12.475 5.269 5.334 9.396 11.524 12.379 18.571 2.984 6.984 4.476 14.317 4.476 22 0 5.333-.698 10.507-2.095 15.523-1.333 4.952-3.301 9.555-5.904 13.809-5.206 8.571-12.157 15.333-20.855 20.285-8.888 5.143-18.442 7.714-28.663 7.714h-37.901c-3.238 0-4.857-1.65-4.857-4.952V60.979c0-3.175 1.556-4.762 4.666-4.762h6.857c3.174 0 4.761 1.587 4.761 4.762v21.808m25.045 98.855c5.777 0 11.269-1.048 16.475-3.143 5.205-2.095 9.808-5.047 13.808-8.857 3.999-3.809 7.078-8.222 9.237-13.238 2.222-5.015 3.333-10.38 3.333-16.094s-1.111-11.079-3.333-16.095c-2.159-5.079-5.206-9.524-9.142-13.333a41.293 41.293 0 00-13.332-8.666 39.425 39.425 0 00-15.522-3.143H197.589v82.569M312.243 74.559v-15.2c0-.952-.317-1.714-.952-2.285-.635-.571-1.428-.857-2.381-.857h-10.094c-.952 0-1.714.286-2.285.857-.508.571-.762 1.333-.762 2.286v135.139c0 2.095 1.016 3.142 3.047 3.142h10.094c2.222 0 3.333-1.047 3.333-3.142V91.694" stroke="#0085FF" stroke-width="2.528" stroke-linecap="round" stroke-linejoin="round"/>
  </g>
  <g style="mix-blend-mode:hard-light" filter="url(#filter3_dddii)">
    <path d="M116.901 65.584V187.2c0 .952-.317 1.746-.952 2.381-.635.634-1.429.952-2.381.952h-9.809c-.888 0-1.65-.318-2.285-.952-.635-.635-.952-1.429-.952-2.381V65.584H58.907c-2.222 0-3.333-1.206-3.333-3.619v-9.714c0-.952.286-1.714.857-2.285.635-.572 1.46-.858 2.476-.858h99.418c.952 0 1.746.254 2.381.762.635.508 1.016 1.302 1.142 2.381v9.714c0 1.08-.317 1.968-.952 2.667-.571.635-1.428.952-2.571.952h-31.321m97.15 10.095c7.809 0 15.205 1.492 22.188 4.476 7.047 2.984 13.205 7.143 18.475 12.476 5.269 5.333 9.395 11.523 12.379 18.571 2.984 6.984 4.476 14.317 4.476 21.999 0 5.333-.698 10.508-2.095 15.524-1.333 4.952-3.301 9.555-5.904 13.809-5.206 8.571-12.158 15.333-20.855 20.285-8.888 5.143-18.443 7.714-28.664 7.714h-37.9c-3.238 0-4.857-1.651-4.857-4.952V53.871c0-3.175 1.555-4.763 4.666-4.763h6.857c3.174 0 4.761 1.588 4.761 4.762v21.81m25.045 98.853c5.777 0 11.268-1.047 16.474-3.142 5.206-2.096 9.809-5.048 13.808-8.857 4-3.81 7.079-8.222 9.237-13.238 2.222-5.016 3.333-10.381 3.333-16.095 0-5.714-1.111-11.079-3.333-16.095-2.158-5.079-5.205-9.523-9.141-13.332a41.307 41.307 0 00-13.332-8.667 39.44 39.44 0 00-15.523-3.143h-26.568v82.569M312.335 67.45V52.251c0-.952-.317-1.714-.952-2.285-.635-.572-1.428-.858-2.381-.858h-10.094c-.952 0-1.714.286-2.285.858-.508.57-.762 1.333-.762 2.285V187.39c0 2.095 1.016 3.143 3.047 3.143h10.094c2.222 0 3.333-1.048 3.333-3.143V84.585" stroke="#00B2FF" stroke-opacity=".2" stroke-width="8.425" stroke-linecap="round" stroke-linejoin="round"/>
  </g>
  <g filter="url(#filter4_f)">
    <path d="M116.749 65.645v121.616c0 .952-.318 1.746-.952 2.381-.635.635-1.429.952-2.381.952h-9.809c-.888 0-1.65-.317-2.285-.952-.635-.635-.952-1.429-.952-2.381V65.645H58.755c-2.222 0-3.333-1.206-3.333-3.619v-9.714c0-.952.286-1.714.857-2.285.635-.572 1.46-.857 2.476-.857h99.418c.952 0 1.746.254 2.381.761.635.508 1.015 1.302 1.142 2.381v9.714c0 1.08-.317 1.969-.952 2.667-.571.635-1.428.952-2.571.952h-31.321m97.15 10.095c7.809 0 15.205 1.492 22.188 4.476 7.047 2.984 13.205 7.143 18.474 12.476 5.27 5.333 9.396 11.524 12.38 18.571 2.984 6.984 4.476 14.317 4.476 21.999 0 5.334-.699 10.508-2.095 15.524-1.333 4.952-3.301 9.555-5.904 13.809-5.206 8.571-12.158 15.333-20.855 20.285-8.888 5.143-18.443 7.714-28.664 7.714h-37.9c-3.238 0-4.857-1.651-4.857-4.952V53.932c0-3.175 1.555-4.762 4.666-4.762h6.856c3.175 0 4.762 1.587 4.762 4.761v21.81m25.045 98.854c5.777 0 11.268-1.048 16.474-3.143 5.206-2.095 9.809-5.048 13.808-8.857 4-3.809 7.079-8.222 9.237-13.238 2.222-5.016 3.333-10.38 3.333-16.095 0-5.714-1.111-11.079-3.333-16.094-2.158-5.08-5.205-9.524-9.142-13.333a41.291 41.291 0 00-13.331-8.667 39.44 39.44 0 00-15.523-3.143h-26.568v82.57M312.183 67.511V52.312c0-.952-.317-1.714-.952-2.285-.635-.572-1.429-.857-2.381-.857h-10.094c-.952 0-1.714.285-2.285.857-.508.571-.762 1.333-.762 2.285v135.139c0 2.096 1.015 3.143 3.047 3.143h10.094c2.222 0 3.333-1.047 3.333-3.143V84.646" stroke="#00D1FF" stroke-width="5.055" stroke-linecap="round" stroke-linejoin="round"/>
  </g>
  <g filter="url(#filter5_f)">
    <path d="M116.749 65.645v121.616c0 .952-.318 1.746-.952 2.381-.635.635-1.429.952-2.381.952h-9.809c-.888 0-1.65-.317-2.285-.952-.635-.635-.952-1.429-.952-2.381V65.645H58.755c-2.222 0-3.333-1.206-3.333-3.619v-9.714c0-.952.286-1.714.857-2.285.635-.572 1.46-.857 2.476-.857h99.418c.952 0 1.746.254 2.381.761.635.508 1.015 1.302 1.142 2.381v9.714c0 1.08-.317 1.969-.952 2.667-.571.635-1.428.952-2.571.952h-31.321m97.15 10.095c7.809 0 15.205 1.492 22.188 4.476 7.047 2.984 13.205 7.143 18.474 12.476 5.27 5.333 9.396 11.524 12.38 18.571 2.984 6.984 4.476 14.317 4.476 21.999 0 5.334-.699 10.508-2.095 15.524-1.333 4.952-3.301 9.555-5.904 13.809-5.206 8.571-12.158 15.333-20.855 20.285-8.888 5.143-18.443 7.714-28.664 7.714h-37.9c-3.238 0-4.857-1.651-4.857-4.952V53.932c0-3.175 1.555-4.762 4.666-4.762h6.856c3.175 0 4.762 1.587 4.762 4.761v21.81m25.045 98.854c5.777 0 11.268-1.048 16.474-3.143 5.206-2.095 9.809-5.048 13.808-8.857 4-3.809 7.079-8.222 9.237-13.238 2.222-5.016 3.333-10.38 3.333-16.095 0-5.714-1.111-11.079-3.333-16.094-2.158-5.08-5.205-9.524-9.142-13.333a41.291 41.291 0 00-13.331-8.667 39.44 39.44 0 00-15.523-3.143h-26.568v82.57M312.183 67.511V52.312c0-.952-.317-1.714-.952-2.285-.635-.572-1.429-.857-2.381-.857h-10.094c-.952 0-1.714.285-2.285.857-.508.571-.762 1.333-.762 2.285v135.139c0 2.096 1.015 3.143 3.047 3.143h10.094c2.222 0 3.333-1.047 3.333-3.143V84.646" stroke="#fff" stroke-width="2.528" stroke-linecap="round" stroke-linejoin="round"/>
  </g>
  <defs>
    <filter id="filter0_f" x="8.854" y="2.784" width="349.441" height="234.105" filterUnits="userSpaceOnUse" color-interpolation-filters="sRGB">
      <feFlood flood-opacity="0" result="BackgroundImageFix"/>
      <feBlend in="SourceGraphic" in2="BackgroundImageFix" result="shape"/>
      <feGaussianBlur stdDeviation="21.064" result="effect1_foregroundBlur"/>
    </filter>
    <filter id="filter1_f" x="37.013" y="30.562" width="293.123" height="177.787" filterUnits="userSpaceOnUse" color-interpolation-filters="sRGB">
      <feFlood flood-opacity="0" result="BackgroundImageFix"/>
      <feBlend in="SourceGraphic" in2="BackgroundImageFix" result="shape"/>
      <feGaussianBlur stdDeviation="6.319" result="effect1_foregroundBlur"/>
    </filter>
    <filter id="filter2_f" x="52.534" y="53.268" width="262.659" height="147.322" filterUnits="userSpaceOnUse" color-interpolation-filters="sRGB">
      <feFlood flood-opacity="0" result="BackgroundImageFix"/>
      <feBlend in="SourceGraphic" in2="BackgroundImageFix" result="shape"/>
      <feGaussianBlur stdDeviation=".843" result="effect1_foregroundBlur"/>
    </filter>
    <filter id="filter3_dddii" x=".809" y="11.194" width="366.292" height="250.955" filterUnits="userSpaceOnUse" color-interpolation-filters="sRGB">
      <feFlood flood-opacity="0" result="BackgroundImageFix"/>
      <feColorMatrix in="SourceAlpha" values="0 0 0 0 0 0 0 0 0 0 0 0 0 0 0 0 0 0 127 0"/>
      <feOffset dy="8.425"/>
      <feGaussianBlur stdDeviation="3.37"/>
      <feColorMatrix values="0 0 0 0 0.15 0 0 0 0 0.000624999 0 0 0 0 0.000624999 0 0 0 0.7 0"/>
      <feBlend mode="multiply" in2="BackgroundImageFix" result="effect1_dropShadow"/>
      <feColorMatrix in="SourceAlpha" values="0 0 0 0 0 0 0 0 0 0 0 0 0 0 0 0 0 0 127 0"/>
      <feOffset dy="16.851"/>
      <feGaussianBlur stdDeviation="8.425"/>
      <feColorMatrix values="0 0 0 0 0.45 0 0 0 0 0.0393375 0 0 0 0 0.013125 0 0 0 0.8 0"/>
      <feBlend mode="multiply" in2="effect1_dropShadow" result="effect2_dropShadow"/>
      <feColorMatrix in="SourceAlpha" values="0 0 0 0 0 0 0 0 0 0 0 0 0 0 0 0 0 0 127 0"/>
      <feOffset dy="16.851"/>
      <feGaussianBlur stdDeviation="25.276"/>
      <feColorMatrix values="0 0 0 0 0.528831 0 0 0 0 0.18901 0 0 0 0 0.795833 0 0 0 1 0"/>
      <feBlend mode="color-dodge" in2="effect2_dropShadow" result="effect3_dropShadow"/>
      <feBlend in="SourceGraphic" in2="effect3_dropShadow" result="shape"/>
      <feColorMatrix in="SourceAlpha" values="0 0 0 0 0 0 0 0 0 0 0 0 0 0 0 0 0 0 127 0" result="hardAlpha"/>
      <feOffset dx="-.843" dy="1.685"/>
      <feGaussianBlur stdDeviation=".421"/>
      <feComposite in2="hardAlpha" operator="arithmetic" k2="-1" k3="1"/>
      <feColorMatrix values="0 0 0 0 1 0 0 0 0 1 0 0 0 0 1 0 0 0 0.5 0"/>
      <feBlend in2="shape" result="effect4_innerShadow"/>
      <feColorMatrix in="SourceAlpha" values="0 0 0 0 0 0 0 0 0 0 0 0 0 0 0 0 0 0 127 0" result="hardAlpha"/>
      <feOffset dx="-.843" dy="-1.685"/>
      <feGaussianBlur stdDeviation=".421"/>
      <feComposite in2="hardAlpha" operator="arithmetic" k2="-1" k3="1"/>
      <feColorMatrix values="0 0 0 0 1 0 0 0 0 1 0 0 0 0 1 0 0 0 0.4 0"/>
      <feBlend in2="effect4_innerShadow" result="effect5_innerShadow"/>
    </filter>
    <filter id="filter4_f" x="50.895" y="44.642" width="265.816" height="150.48" filterUnits="userSpaceOnUse" color-interpolation-filters="sRGB">
      <feFlood flood-opacity="0" result="BackgroundImageFix"/>
      <feBlend in="SourceGraphic" in2="BackgroundImageFix" result="shape"/>
      <feGaussianBlur stdDeviation="1" result="effect1_foregroundBlur"/>
    </filter>
    <filter id="filter5_f" x="53.316" y="47.063" width="260.974" height="145.637" filterUnits="userSpaceOnUse" color-interpolation-filters="sRGB">
      <feFlood flood-opacity="0" result="BackgroundImageFix"/>
      <feBlend in="SourceGraphic" in2="BackgroundImageFix" result="shape"/>
      <feGaussianBlur stdDeviation=".421" result="effect1_foregroundBlur"/>
    </filter>
  </defs>
</svg>