<svg width="656" height="367" fill="none" xmlns="http://www.w3.org/2000/svg"><g clip-path="url(#clip0)"><g style="mix-blend-mode:screen" opacity=".3" filter="url(#filter0_f)"><ellipse cx="313.5" cy="172.5" rx="313.5" ry="141.5" fill="#FE0707"/></g><g style="mix-blend-mode:color-dodge" filter="url(#filter1_f)"><path d="M174.37 198.243v18.543c0 2.699-1.351 4.049-4.055 4.049h-5.839c-2.649 0-3.973-1.35-3.973-4.049V104.799c0-2.807 1.378-4.21 4.136-4.21h32.276c8.65 0 16.787 2.159 24.41 6.477 7.407 4.265 13.327 10.041 17.76 17.329 2.217 3.617 3.893 7.557 5.028 11.822 1.19 4.211 1.785 8.583 1.785 13.118 0 6.532-1.271 12.767-3.812 18.705a48.417 48.417 0 01-10.543 15.709c-4.541 4.534-9.785 8.097-15.732 10.688-5.947 2.537-12.246 3.806-18.896 3.806h-12.472m-10.073-84.051v70.204h22.626c4.596 0 9.002-.89 13.219-2.672a36.315 36.315 0 0011.354-7.449 34.482 34.482 0 007.785-11.256c1.892-4.264 2.838-8.826 2.838-13.684 0-4.913-.946-9.501-2.838-13.766-1.838-4.264-4.461-8.016-7.867-11.255-3.352-3.185-7.244-5.668-11.678-7.45-4.433-1.781-9.136-2.672-14.11-2.672h-9.849m212.405.405v102.756c0 .918-.378 1.727-1.135 2.429-.703.702-1.487 1.053-2.352 1.053h-7.136c-.811 0-1.595-.324-2.352-.972-.703-.702-1.054-1.458-1.054-2.267V103.423c0-1.89.865-2.834 2.595-2.834h81.826c1.73 0 2.595.944 2.595 2.834v114.173c0 .863-.351 1.619-1.054 2.267-.703.648-1.487.972-2.352.972h-7.055c-.865 0-1.676-.351-2.433-1.053-.703-.702-1.054-1.511-1.054-2.429V114.597h-48.991m-124.742 47.062l-6.541 4.518v51.986c0 1.781-.865 2.672-2.595 2.672h-8.353c-2.001 0-3.001-.891-3.001-2.672V103.261c0-.756.297-1.377.892-1.863a3.034 3.034 0 012.109-.809h8.353c.81 0 1.432.242 1.865.728.486.486.73 1.134.73 1.944v45.912l68.04-47.856c.865-.486 1.73-.728 2.595-.728h8.515c.811 0 1.433.242 1.865.728.487.486.73 1.134.73 1.944v114.902c0 1.781-.865 2.672-2.595 2.672h-8.353c-1.946 0-2.919-.891-2.919-2.672v-98.87l-50.637 34.976M64.733 210.151v8.012c0 .755.243 1.403.73 1.943.54.486 1.243.729 2.108.729h8.515c1.73 0 2.595-.891 2.595-2.672V114.597h59.606c.757 0 1.379-.27 1.866-.81.54-.54.811-1.241.811-2.105v-8.421c0-.756-.271-1.377-.811-1.863-.487-.54-1.109-.809-1.866-.809H67.409c-1.784 0-2.676.89-2.676 2.672v98.455m446.157-87.119v102.756c0 .918-.379 1.727-1.136 2.429-.703.702-1.487 1.053-2.352 1.053h-7.136c-.811 0-1.595-.324-2.352-.972-.703-.702-1.054-1.458-1.054-2.267V103.423c0-1.89.865-2.834 2.595-2.834h81.826c1.73 0 2.596.944 2.596 2.834v114.173c0 .863-.352 1.619-1.055 2.267-.703.648-1.486.972-2.352.972h-7.055c-.865 0-1.676-.351-2.433-1.053-.703-.702-1.054-1.511-1.054-2.429V114.597h-48.991" stroke="#FFE600" stroke-width="15.201" stroke-linecap="round" stroke-linejoin="round"/></g><g style="mix-blend-mode:color-dodge" filter="url(#filter2_f)"><path d="M174.37 198.243v18.543c0 2.699-1.351 4.049-4.055 4.049h-5.839c-2.649 0-3.973-1.35-3.973-4.049V104.799c0-2.807 1.378-4.21 4.136-4.21h32.276c8.65 0 16.787 2.159 24.41 6.477 7.407 4.265 13.327 10.041 17.76 17.329 2.217 3.617 3.893 7.557 5.028 11.822 1.19 4.211 1.785 8.583 1.785 13.118 0 6.532-1.271 12.767-3.812 18.705a48.417 48.417 0 01-10.543 15.709c-4.541 4.534-9.785 8.097-15.732 10.688-5.947 2.537-12.246 3.806-18.896 3.806h-12.472m-10.073-84.051v70.204h22.626c4.596 0 9.002-.89 13.219-2.672a36.315 36.315 0 0011.354-7.449 34.482 34.482 0 007.785-11.256c1.892-4.264 2.838-8.826 2.838-13.684 0-4.913-.946-9.501-2.838-13.766-1.838-4.264-4.461-8.016-7.867-11.255-3.352-3.185-7.244-5.668-11.678-7.45-4.433-1.781-9.136-2.672-14.11-2.672h-9.849m212.405.405v102.756c0 .918-.378 1.727-1.135 2.429-.703.702-1.487 1.053-2.352 1.053h-7.136c-.811 0-1.595-.324-2.352-.972-.703-.702-1.054-1.458-1.054-2.267V103.423c0-1.89.865-2.834 2.595-2.834h81.826c1.73 0 2.595.944 2.595 2.834v114.173c0 .863-.351 1.619-1.054 2.267-.703.648-1.487.972-2.352.972h-7.055c-.865 0-1.676-.351-2.433-1.053-.703-.702-1.054-1.511-1.054-2.429V114.597h-48.991m-124.742 47.062l-6.541 4.518v51.986c0 1.781-.865 2.672-2.595 2.672h-8.353c-2.001 0-3.001-.891-3.001-2.672V103.261c0-.756.297-1.377.892-1.863a3.034 3.034 0 012.109-.809h8.353c.81 0 1.432.242 1.865.728.486.486.73 1.134.73 1.944v45.912l68.04-47.856c.865-.486 1.73-.728 2.595-.728h8.515c.811 0 1.433.242 1.865.728.487.486.73 1.134.73 1.944v114.902c0 1.781-.865 2.672-2.595 2.672h-8.353c-1.946 0-2.919-.891-2.919-2.672v-98.87l-50.637 34.976M64.733 210.151v8.012c0 .755.243 1.403.73 1.943.54.486 1.243.729 2.108.729h8.515c1.73 0 2.595-.891 2.595-2.672V114.597h59.606c.757 0 1.379-.27 1.866-.81.54-.54.811-1.241.811-2.105v-8.421c0-.756-.271-1.377-.811-1.863-.487-.54-1.109-.809-1.866-.809H67.409c-1.784 0-2.676.89-2.676 2.672v98.455m446.157-87.119v102.756c0 .918-.379 1.727-1.136 2.429-.703.702-1.487 1.053-2.352 1.053h-7.136c-.811 0-1.595-.324-2.352-.972-.703-.702-1.054-1.458-1.054-2.267V103.423c0-1.89.865-2.834 2.595-2.834h81.826c1.73 0 2.596.944 2.596 2.834v114.173c0 .863-.352 1.619-1.055 2.267-.703.648-1.486.972-2.352.972h-7.055c-.865 0-1.676-.351-2.433-1.053-.703-.702-1.054-1.511-1.054-2.429V114.597h-48.991" stroke="red" stroke-width="20" stroke-linecap="round" stroke-linejoin="round"/></g><g style="mix-blend-mode:multiply" opacity=".2" filter="url(#filter3_f)"><path d="M175.142 209.243v18.543c0 2.699-1.349 4.049-4.047 4.049h-5.829c-2.644 0-3.966-1.35-3.966-4.049V115.799c0-2.807 1.376-4.21 4.128-4.21h32.218c8.634 0 16.756 2.159 24.365 6.477 7.394 4.265 13.303 10.041 17.728 17.329 2.213 3.617 3.886 7.557 5.019 11.822 1.187 4.211 1.781 8.583 1.781 13.118 0 6.532-1.268 12.767-3.805 18.705a48.424 48.424 0 01-10.523 15.709c-4.533 4.534-9.768 8.097-15.704 10.688-5.936 2.537-12.223 3.806-18.861 3.806h-12.45m-10.054-84.051v70.204h22.585c4.587 0 8.985-.89 13.194-2.672a36.233 36.233 0 0011.333-7.449 34.473 34.473 0 007.771-11.256c1.889-4.264 2.834-8.826 2.834-13.684 0-4.913-.945-9.501-2.834-13.766-1.834-4.264-4.452-8.016-7.852-11.255-3.346-3.185-7.231-5.668-11.656-7.45-4.426-1.781-9.121-2.672-14.085-2.672h-9.831m212.018.405v102.756c0 .918-.378 1.727-1.133 2.429-.702.702-1.484 1.053-2.348 1.053h-7.123c-.81 0-1.592-.324-2.348-.972-.701-.702-1.052-1.458-1.052-2.267V114.423c0-1.89.864-2.834 2.59-2.834h81.678c1.727 0 2.59.944 2.59 2.834v114.173c0 .863-.35 1.619-1.052 2.267-.702.648-1.484.972-2.348.972h-7.042c-.864 0-1.673-.351-2.429-1.053-.701-.702-1.052-1.511-1.052-2.429V125.597h-48.901m-124.515 47.062l-6.53 4.518v51.986c0 1.781-.863 2.672-2.59 2.672h-8.338c-1.996 0-2.995-.891-2.995-2.672V114.261c0-.756.297-1.377.891-1.863a3.022 3.022 0 012.104-.809h8.338c.81 0 1.43.242 1.862.728.486.486.728 1.134.728 1.944v45.912l67.917-47.856c.863-.486 1.726-.728 2.59-.728h8.5c.809 0 1.43.242 1.861.728.486.486.729 1.134.729 1.944v114.902c0 1.781-.864 2.672-2.59 2.672h-8.338c-1.943 0-2.914-.891-2.914-2.672v-98.87l-50.545 34.976m-229.11 55.882v8.012c0 .755.243 1.403.729 1.943.54.486 1.24.729 2.104.729h8.5c1.727 0 2.59-.891 2.59-2.672V125.597h59.498c.755 0 1.376-.27 1.862-.81.539-.54.809-1.241.809-2.105v-8.421c0-.756-.27-1.377-.809-1.863-.486-.54-1.107-.809-1.862-.809h-70.75c-1.78 0-2.67.89-2.67 2.672v98.455m445.343-87.119v102.756c0 .918-.377 1.727-1.133 2.429-.701.702-1.484 1.053-2.347 1.053h-7.124c-.809 0-1.592-.324-2.347-.972-.702-.702-1.053-1.458-1.053-2.267V114.423c0-1.89.864-2.834 2.591-2.834h81.677c1.727 0 2.59.944 2.59 2.834v114.173c0 .863-.35 1.619-1.052 2.267-.701.648-1.484.972-2.347.972h-7.043c-.863 0-1.673-.351-2.428-1.053-.702-.702-1.053-1.511-1.053-2.429V125.597h-48.901" stroke="#0085FF" stroke-width="4.56" stroke-linecap="round" stroke-linejoin="round"/></g><g style="mix-blend-mode:hard-light" filter="url(#filter4_dddii)"><path d="M175.142 198.243v18.543c0 2.699-1.349 4.049-4.047 4.049h-5.829c-2.644 0-3.966-1.35-3.966-4.049V104.799c0-2.807 1.376-4.21 4.128-4.21h32.218c8.634 0 16.756 2.159 24.365 6.477 7.394 4.265 13.303 10.041 17.728 17.329 2.213 3.617 3.886 7.557 5.019 11.822 1.187 4.211 1.781 8.583 1.781 13.118 0 6.532-1.268 12.767-3.805 18.705a48.424 48.424 0 01-10.523 15.709c-4.533 4.534-9.768 8.097-15.704 10.688-5.936 2.537-12.223 3.806-18.861 3.806h-12.45m-10.054-84.051v70.204h22.585c4.587 0 8.985-.89 13.194-2.672a36.233 36.233 0 0011.333-7.449 34.473 34.473 0 007.771-11.256c1.889-4.264 2.834-8.826 2.834-13.684 0-4.913-.945-9.501-2.834-13.766-1.834-4.264-4.452-8.016-7.852-11.255-3.346-3.185-7.231-5.668-11.656-7.45-4.426-1.781-9.121-2.672-14.085-2.672h-9.831m212.018.405v102.756c0 .918-.378 1.727-1.133 2.429-.702.702-1.484 1.053-2.348 1.053h-7.123c-.81 0-1.592-.324-2.348-.972-.701-.702-1.052-1.458-1.052-2.267V103.423c0-1.89.864-2.834 2.59-2.834h81.678c1.727 0 2.59.944 2.59 2.834v114.173c0 .863-.35 1.619-1.052 2.267-.702.648-1.484.972-2.348.972h-7.042c-.864 0-1.673-.351-2.429-1.053-.701-.702-1.052-1.511-1.052-2.429V114.597h-48.901m-124.515 47.062l-6.53 4.518v51.986c0 1.781-.863 2.672-2.59 2.672h-8.338c-1.996 0-2.995-.891-2.995-2.672V103.261c0-.756.297-1.377.891-1.863a3.022 3.022 0 012.104-.809h8.338c.81 0 1.43.242 1.862.728.486.486.728 1.134.728 1.944v45.912l67.917-47.856c.863-.486 1.726-.728 2.59-.728h8.5c.809 0 1.43.242 1.861.728.486.486.729 1.134.729 1.944v114.902c0 1.781-.864 2.672-2.59 2.672h-8.338c-1.943 0-2.914-.891-2.914-2.672v-98.87l-50.545 34.976m-229.11 55.882v8.012c0 .755.243 1.403.729 1.943.54.486 1.24.729 2.104.729h8.5c1.727 0 2.59-.891 2.59-2.672V114.597h59.498c.755 0 1.376-.27 1.862-.81.539-.54.809-1.241.809-2.105v-8.421c0-.756-.27-1.377-.809-1.863-.486-.54-1.107-.809-1.862-.809h-70.75c-1.78 0-2.67.89-2.67 2.672v98.455m445.343-87.119v102.756c0 .918-.377 1.727-1.133 2.429-.701.702-1.484 1.053-2.347 1.053h-7.124c-.809 0-1.592-.324-2.347-.972-.702-.702-1.053-1.458-1.053-2.267V103.423c0-1.89.864-2.834 2.591-2.834h81.677c1.727 0 2.59.944 2.59 2.834v114.173c0 .863-.35 1.619-1.052 2.267-.701.648-1.484.972-2.347.972h-7.043c-.863 0-1.673-.351-2.428-1.053-.702-.702-1.053-1.511-1.053-2.429V114.597h-48.901" stroke="red" stroke-opacity=".2" stroke-width="15.201" stroke-linecap="round" stroke-linejoin="round"/></g><g filter="url(#filter5_f)"><path d="M175.142 198.243v18.543c0 2.699-1.349 4.049-4.047 4.049h-5.829c-2.644 0-3.966-1.35-3.966-4.049V104.799c0-2.807 1.376-4.21 4.128-4.21h32.218c8.634 0 16.756 2.159 24.365 6.477 7.394 4.265 13.303 10.041 17.728 17.329 2.213 3.617 3.886 7.557 5.019 11.822 1.187 4.211 1.781 8.583 1.781 13.118 0 6.532-1.268 12.767-3.805 18.705a48.424 48.424 0 01-10.523 15.709c-4.533 4.534-9.768 8.097-15.704 10.688-5.936 2.537-12.223 3.806-18.861 3.806h-12.45m-10.054-84.051v70.204h22.585c4.587 0 8.985-.89 13.194-2.672a36.233 36.233 0 0011.333-7.449 34.473 34.473 0 007.771-11.256c1.889-4.264 2.834-8.826 2.834-13.684 0-4.913-.945-9.501-2.834-13.766-1.834-4.264-4.452-8.016-7.852-11.255-3.346-3.185-7.231-5.668-11.656-7.45-4.426-1.781-9.121-2.672-14.085-2.672h-9.831m212.018.405v102.756c0 .918-.378 1.727-1.133 2.429-.702.702-1.484 1.053-2.348 1.053h-7.123c-.81 0-1.592-.324-2.348-.972-.701-.702-1.052-1.458-1.052-2.267V103.423c0-1.89.864-2.834 2.59-2.834h81.678c1.727 0 2.59.944 2.59 2.834v114.173c0 .863-.35 1.619-1.052 2.267-.702.648-1.484.972-2.348.972h-7.042c-.864 0-1.673-.351-2.429-1.053-.701-.702-1.052-1.511-1.052-2.429V114.597h-48.901m-124.515 47.062l-6.53 4.518v51.986c0 1.781-.863 2.672-2.59 2.672h-8.338c-1.996 0-2.995-.891-2.995-2.672V103.261c0-.756.297-1.377.891-1.863a3.022 3.022 0 012.104-.809h8.338c.81 0 1.43.242 1.862.728.486.486.728 1.134.728 1.944v45.912l67.917-47.856c.863-.486 1.726-.728 2.59-.728h8.5c.809 0 1.43.242 1.861.728.486.486.729 1.134.729 1.944v114.902c0 1.781-.864 2.672-2.59 2.672h-8.338c-1.943 0-2.914-.891-2.914-2.672v-98.87l-50.545 34.976m-229.11 55.882v8.012c0 .755.243 1.403.729 1.943.54.486 1.24.729 2.104.729h8.5c1.727 0 2.59-.891 2.59-2.672V114.597h59.498c.755 0 1.376-.27 1.862-.81.539-.54.809-1.241.809-2.105v-8.421c0-.756-.27-1.377-.809-1.863-.486-.54-1.107-.809-1.862-.809h-70.75c-1.78 0-2.67.89-2.67 2.672v98.455m445.343-87.119v102.756c0 .918-.377 1.727-1.133 2.429-.701.702-1.484 1.053-2.347 1.053h-7.124c-.809 0-1.592-.324-2.347-.972-.702-.702-1.053-1.458-1.053-2.267V103.423c0-1.89.864-2.834 2.591-2.834h81.677c1.727 0 2.59.944 2.59 2.834v114.173c0 .863-.35 1.619-1.052 2.267-.701.648-1.484.972-2.347.972h-7.043c-.863 0-1.673-.351-2.428-1.053-.702-.702-1.053-1.511-1.053-2.429V114.597h-48.901" stroke="#FF9983" stroke-width="9.12" stroke-linecap="round" stroke-linejoin="round"/></g><g filter="url(#filter6_f)"><path d="M175.142 198.243v18.543c0 2.699-1.349 4.049-4.047 4.049h-5.829c-2.644 0-3.966-1.35-3.966-4.049V104.799c0-2.807 1.376-4.21 4.128-4.21h32.218c8.634 0 16.756 2.159 24.365 6.477 7.394 4.265 13.303 10.041 17.728 17.329 2.213 3.617 3.886 7.557 5.019 11.822 1.187 4.211 1.781 8.583 1.781 13.118 0 6.532-1.268 12.767-3.805 18.705a48.424 48.424 0 01-10.523 15.709c-4.533 4.534-9.768 8.097-15.704 10.688-5.936 2.537-12.223 3.806-18.861 3.806h-12.45m-10.054-84.051v70.204h22.585c4.587 0 8.985-.89 13.194-2.672a36.233 36.233 0 0011.333-7.449 34.473 34.473 0 007.771-11.256c1.889-4.264 2.834-8.826 2.834-13.684 0-4.913-.945-9.501-2.834-13.766-1.834-4.264-4.452-8.016-7.852-11.255-3.346-3.185-7.231-5.668-11.656-7.45-4.426-1.781-9.121-2.672-14.085-2.672h-9.831m212.018.405v102.756c0 .918-.378 1.727-1.133 2.429-.702.702-1.484 1.053-2.348 1.053h-7.123c-.81 0-1.592-.324-2.348-.972-.701-.702-1.052-1.458-1.052-2.267V103.423c0-1.89.864-2.834 2.59-2.834h81.678c1.727 0 2.59.944 2.59 2.834v114.173c0 .863-.35 1.619-1.052 2.267-.702.648-1.484.972-2.348.972h-7.042c-.864 0-1.673-.351-2.429-1.053-.701-.702-1.052-1.511-1.052-2.429V114.597h-48.901m-124.515 47.062l-6.53 4.518v51.986c0 1.781-.863 2.672-2.59 2.672h-8.338c-1.996 0-2.995-.891-2.995-2.672V103.261c0-.756.297-1.377.891-1.863a3.022 3.022 0 012.104-.809h8.338c.81 0 1.43.242 1.862.728.486.486.728 1.134.728 1.944v45.912l67.917-47.856c.863-.486 1.726-.728 2.59-.728h8.5c.809 0 1.43.242 1.861.728.486.486.729 1.134.729 1.944v114.902c0 1.781-.864 2.672-2.59 2.672h-8.338c-1.943 0-2.914-.891-2.914-2.672v-98.87l-50.545 34.976m-229.11 55.882v8.012c0 .755.243 1.403.729 1.943.54.486 1.24.729 2.104.729h8.5c1.727 0 2.59-.891 2.59-2.672V114.597h59.498c.755 0 1.376-.27 1.862-.81.539-.54.809-1.241.809-2.105v-8.421c0-.756-.27-1.377-.809-1.863-.486-.54-1.107-.809-1.862-.809h-70.75c-1.78 0-2.67.89-2.67 2.672v98.455m445.343-87.119v102.756c0 .918-.377 1.727-1.133 2.429-.701.702-1.484 1.053-2.347 1.053h-7.124c-.809 0-1.592-.324-2.347-.972-.702-.702-1.053-1.458-1.053-2.267V103.423c0-1.89.864-2.834 2.591-2.834h81.677c1.727 0 2.59.944 2.59 2.834v114.173c0 .863-.35 1.619-1.052 2.267-.701.648-1.484.972-2.347.972h-7.043c-.863 0-1.673-.351-2.428-1.053-.702-.702-1.053-1.511-1.053-2.429V114.597h-48.901" stroke="#fff" stroke-width="4.56" stroke-linecap="round" stroke-linejoin="round"/></g></g><defs><filter id="filter0_f" x="-304.013" y="-273.013" width="1235.03" height="891.026" filterUnits="userSpaceOnUse" color-interpolation-filters="sRGB"><feFlood flood-opacity="0" result="BackgroundImageFix"/><feBlend in="SourceGraphic" in2="BackgroundImageFix" result="shape"/><feGaussianBlur stdDeviation="152.007" result="effect1_foregroundBlur"/></filter><filter id="filter1_f" x="-18.871" y="16.985" width="686.351" height="287.453" filterUnits="userSpaceOnUse" color-interpolation-filters="sRGB"><feFlood flood-opacity="0" result="BackgroundImageFix"/><feBlend in="SourceGraphic" in2="BackgroundImageFix" result="shape"/><feGaussianBlur stdDeviation="38.002" result="effect1_foregroundBlur"/></filter><filter id="filter2_f" x="31.932" y="67.787" width="584.746" height="185.848" filterUnits="userSpaceOnUse" color-interpolation-filters="sRGB"><feFlood flood-opacity="0" result="BackgroundImageFix"/><feBlend in="SourceGraphic" in2="BackgroundImageFix" result="shape"/><feGaussianBlur stdDeviation="11.4" result="effect1_foregroundBlur"/></filter><filter id="filter3_f" x="60.384" y="106.268" width="528.839" height="130.887" filterUnits="userSpaceOnUse" color-interpolation-filters="sRGB"><feFlood flood-opacity="0" result="BackgroundImageFix"/><feBlend in="SourceGraphic" in2="BackgroundImageFix" result="shape"/><feGaussianBlur stdDeviation="1.52" result="effect1_foregroundBlur"/></filter><filter id="filter4_dddii" x="-33.1" y="32.185" width="715.807" height="317.855" filterUnits="userSpaceOnUse" color-interpolation-filters="sRGB"><feFlood flood-opacity="0" result="BackgroundImageFix"/><feColorMatrix in="SourceAlpha" values="0 0 0 0 0 0 0 0 0 0 0 0 0 0 0 0 0 0 127 0"/><feOffset dy="15.201"/><feGaussianBlur stdDeviation="6.08"/><feColorMatrix values="0 0 0 0 0.15 0 0 0 0 0.000624999 0 0 0 0 0.000624999 0 0 0 0.7 0"/><feBlend mode="multiply" in2="BackgroundImageFix" result="effect1_dropShadow"/><feColorMatrix in="SourceAlpha" values="0 0 0 0 0 0 0 0 0 0 0 0 0 0 0 0 0 0 127 0"/><feOffset dy="30.401"/><feGaussianBlur stdDeviation="15.201"/><feColorMatrix values="0 0 0 0 0.45 0 0 0 0 0.0393375 0 0 0 0 0.013125 0 0 0 0.8 0"/><feBlend mode="multiply" in2="effect1_dropShadow" result="effect2_dropShadow"/><feColorMatrix in="SourceAlpha" values="0 0 0 0 0 0 0 0 0 0 0 0 0 0 0 0 0 0 127 0"/><feOffset dy="30.401"/><feGaussianBlur stdDeviation="45.602"/><feColorMatrix values="0 0 0 0 0.528831 0 0 0 0 0.18901 0 0 0 0 0.795833 0 0 0 1 0"/><feBlend mode="color-dodge" in2="effect2_dropShadow" result="effect3_dropShadow"/><feBlend in="SourceGraphic" in2="effect3_dropShadow" result="shape"/><feColorMatrix in="SourceAlpha" values="0 0 0 0 0 0 0 0 0 0 0 0 0 0 0 0 0 0 127 0" result="hardAlpha"/><feOffset dx="-1.52" dy="3.04"/><feGaussianBlur stdDeviation=".75"/><feComposite in2="hardAlpha" operator="arithmetic" k2="-1" k3="1"/><feColorMatrix values="0 0 0 0 1 0 0 0 0 1 0 0 0 0 1 0 0 0 0.5 0"/><feBlend in2="shape" result="effect4_innerShadow"/><feColorMatrix in="SourceAlpha" values="0 0 0 0 0 0 0 0 0 0 0 0 0 0 0 0 0 0 127 0" result="hardAlpha"/><feOffset dx="-1.52" dy="-3.04"/><feGaussianBlur stdDeviation=".76"/><feComposite in2="hardAlpha" operator="arithmetic" k2="-1" k3="1"/><feColorMatrix values="0 0 0 0 1 0 0 0 0 1 0 0 0 0 1 0 0 0 0.4 0"/><feBlend in2="effect4_innerShadow" result="effect5_innerShadow"/></filter><filter id="filter5_f" x="59.144" y="94.028" width="531.319" height="133.367" filterUnits="userSpaceOnUse" color-interpolation-filters="sRGB"><feFlood flood-opacity="0" result="BackgroundImageFix"/><feBlend in="SourceGraphic" in2="BackgroundImageFix" result="shape"/><feGaussianBlur stdDeviation="1" result="effect1_foregroundBlur"/></filter><filter id="filter6_f" x="61.904" y="96.788" width="525.799" height="127.847" filterUnits="userSpaceOnUse" color-interpolation-filters="sRGB"><feFlood flood-opacity="0" result="BackgroundImageFix"/><feBlend in="SourceGraphic" in2="BackgroundImageFix" result="shape"/><feGaussianBlur stdDeviation=".76" result="effect1_foregroundBlur"/></filter><clipPath id="clip0"><rect y="-23" width="656" height="390" rx="45.602" fill="#fff"/></clipPath></defs></svg>