<svg width="71" height="69" fill="none" xmlns="http://www.w3.org/2000/svg"><mask id="a" maskUnits="userSpaceOnUse" x="29" y="0" width="18" height="18"><path d="M37.894 17.18c4.772 0 8.641-3.846 8.641-8.59S42.666 0 37.894 0c-4.773 0-8.642 3.846-8.642 8.59s3.869 8.59 8.642 8.59z" fill="url(#paint0_radial)"/></mask><g mask="url(#a)"><path d="M37.894 17.18c4.772 0 8.641-3.846 8.641-8.59S42.666 0 37.894 0c-4.773 0-8.642 3.846-8.642 8.59s3.869 8.59 8.642 8.59z" fill="url(#paint1_radial)"/><path opacity=".5" d="M37.894 17.18c4.772 0 8.641-3.846 8.641-8.59S42.666 0 37.894 0c-4.773 0-8.642 3.846-8.642 8.59s3.869 8.59 8.642 8.59z" fill="url(#paint2_radial)"/><path d="M37.894 17.18c4.772 0 8.641-3.846 8.641-8.59S42.666 0 37.894 0c-4.773 0-8.642 3.846-8.642 8.59s3.869 8.59 8.642 8.59z" fill="url(#paint3_radial)"/></g><mask id="b" maskUnits="userSpaceOnUse" x="51" y="10" width="18" height="18"><path d="M60.086 27.503c4.773 0 8.642-3.846 8.642-8.59s-3.869-8.59-8.642-8.59c-4.772 0-8.641 3.846-8.641 8.59s3.869 8.59 8.641 8.59z" fill="url(#paint4_radial)"/></mask><g mask="url(#b)"><path d="M60.086 27.503c4.773 0 8.642-3.846 8.642-8.59s-3.869-8.59-8.642-8.59c-4.772 0-8.641 3.846-8.641 8.59s3.869 8.59 8.641 8.59z" fill="url(#paint5_radial)"/><path opacity=".5" d="M60.086 27.503c4.773 0 8.642-3.846 8.642-8.59s-3.869-8.59-8.642-8.59c-4.772 0-8.641 3.846-8.641 8.59s3.869 8.59 8.641 8.59z" fill="url(#paint6_radial)"/><path d="M60.086 27.503c4.773 0 8.642-3.846 8.642-8.59s-3.869-8.59-8.642-8.59c-4.772 0-8.641 3.846-8.641 8.59s3.869 8.59 8.641 8.59z" fill="url(#paint7_radial)"/></g><mask id="c" maskUnits="userSpaceOnUse" x="43" y="48" width="19" height="18"><path d="M52.54 65.492c4.773 0 8.642-3.846 8.642-8.59s-3.87-8.59-8.642-8.59c-4.773 0-8.642 3.846-8.642 8.59s3.87 8.59 8.642 8.59z" fill="url(#paint8_radial)"/></mask><g mask="url(#c)"><path d="M52.54 65.492c4.773 0 8.642-3.846 8.642-8.59s-3.87-8.59-8.642-8.59c-4.773 0-8.642 3.846-8.642 8.59s3.87 8.59 8.642 8.59z" fill="url(#paint9_radial)"/><path opacity=".5" d="M52.54 65.492c4.773 0 8.642-3.846 8.642-8.59s-3.87-8.59-8.642-8.59c-4.773 0-8.642 3.846-8.642 8.59s3.87 8.59 8.642 8.59z" fill="url(#paint10_radial)"/><path d="M52.54 65.492c4.773 0 8.642-3.846 8.642-8.59s-3.87-8.59-8.642-8.59c-4.773 0-8.642 3.846-8.642 8.59s3.87 8.59 8.642 8.59z" fill="url(#paint11_radial)"/></g><mask id="d" maskUnits="userSpaceOnUse" x="61" y="23" width="9" height="8"><path d="M65.28 30.69c2.106 0 3.813-1.698 3.813-3.792 0-2.093-1.707-3.79-3.814-3.79-2.106 0-3.813 1.697-3.813 3.79 0 2.094 1.707 3.791 3.813 3.791z" fill="url(#paint12_radial)"/></mask><g mask="url(#d)"><path d="M65.28 30.69c2.106 0 3.813-1.698 3.813-3.792 0-2.093-1.707-3.79-3.814-3.79-2.106 0-3.813 1.697-3.813 3.79 0 2.094 1.707 3.791 3.813 3.791z" fill="url(#paint13_radial)"/><path opacity=".5" d="M65.28 30.69c2.106 0 3.813-1.698 3.813-3.792 0-2.093-1.707-3.79-3.814-3.79-2.106 0-3.813 1.697-3.813 3.79 0 2.094 1.707 3.791 3.813 3.791z" fill="url(#paint14_radial)"/><path d="M65.28 30.69c2.106 0 3.813-1.698 3.813-3.792 0-2.093-1.707-3.79-3.814-3.79-2.106 0-3.813 1.697-3.813 3.79 0 2.094 1.707 3.791 3.813 3.791z" fill="url(#paint15_radial)"/></g><mask id="e" maskUnits="userSpaceOnUse" x="9" y="8" width="18" height="18"><path d="M18.095 25.084c4.728 0 8.56-3.81 8.56-8.51 0-4.699-3.832-8.509-8.56-8.509-4.728 0-8.56 3.81-8.56 8.51 0 4.699 3.832 8.509 8.56 8.509z" fill="url(#paint16_radial)"/></mask><g mask="url(#e)"><path d="M18.095 25.084c4.728 0 8.56-3.81 8.56-8.51 0-4.699-3.832-8.509-8.56-8.509-4.728 0-8.56 3.81-8.56 8.51 0 4.699 3.832 8.509 8.56 8.509z" fill="url(#paint17_radial)"/><path opacity=".5" d="M18.095 25.084c4.728 0 8.56-3.81 8.56-8.51 0-4.699-3.832-8.509-8.56-8.509-4.728 0-8.56 3.81-8.56 8.51 0 4.699 3.832 8.509 8.56 8.509z" fill="url(#paint18_radial)"/><path d="M18.095 25.084c4.728 0 8.56-3.81 8.56-8.51 0-4.699-3.832-8.509-8.56-8.509-4.728 0-8.56 3.81-8.56 8.51 0 4.699 3.832 8.509 8.56 8.509z" fill="url(#paint19_radial)"/></g><mask id="f" maskUnits="userSpaceOnUse" x="0" y="24" width="19" height="20"><path d="M9.494 43.715c5.243 0 9.493-4.225 9.493-9.437 0-5.211-4.25-9.436-9.493-9.436C4.25 24.842 0 29.067 0 34.278c0 5.212 4.25 9.437 9.494 9.437z" fill="url(#paint20_radial)"/></mask><g mask="url(#f)"><path d="M9.494 43.715c5.243 0 9.493-4.225 9.493-9.437 0-5.211-4.25-9.436-9.493-9.436C4.25 24.842 0 29.067 0 34.278c0 5.212 4.25 9.437 9.494 9.437z" fill="url(#paint21_radial)"/><path opacity=".5" d="M9.494 43.715c5.243 0 9.493-4.225 9.493-9.437 0-5.211-4.25-9.436-9.493-9.436C4.25 24.842 0 29.067 0 34.278c0 5.212 4.25 9.437 9.494 9.437z" fill="url(#paint22_radial)"/><path d="M9.494 43.715c5.243 0 9.493-4.225 9.493-9.437 0-5.211-4.25-9.436-9.493-9.436C4.25 24.842 0 29.067 0 34.278c0 5.212 4.25 9.437 9.494 9.437z" fill="url(#paint23_radial)"/></g><mask id="g" maskUnits="userSpaceOnUse" x="23" y="54" width="15" height="16"><path d="M30.51 69.04c4.1 0 7.424-3.304 7.424-7.38 0-4.075-3.324-7.38-7.424-7.38-4.1 0-7.425 3.305-7.425 7.38 0 4.076 3.324 7.38 7.425 7.38z" fill="url(#paint24_radial)"/></mask><g mask="url(#g)"><path d="M30.51 69.04c4.1 0 7.424-3.304 7.424-7.38 0-4.075-3.324-7.38-7.424-7.38-4.1 0-7.425 3.305-7.425 7.38 0 4.076 3.324 7.38 7.425 7.38z" fill="url(#paint25_radial)"/><path opacity=".5" d="M30.51 69.04c4.1 0 7.424-3.304 7.424-7.38 0-4.075-3.324-7.38-7.424-7.38-4.1 0-7.425 3.305-7.425 7.38 0 4.076 3.324 7.38 7.425 7.38z" fill="url(#paint26_radial)"/><path d="M30.51 69.04c4.1 0 7.424-3.304 7.424-7.38 0-4.075-3.324-7.38-7.424-7.38-4.1 0-7.425 3.305-7.425 7.38 0 4.076 3.324 7.38 7.425 7.38z" fill="url(#paint27_radial)"/></g><mask id="h" maskUnits="userSpaceOnUse" x="9" y="6" width="58" height="57"><path d="M37.894 62.709c15.73 0 28.48-12.675 28.48-28.31 0-15.635-12.75-28.31-28.48-28.31S9.413 18.764 9.413 34.4c0 15.635 12.751 28.31 28.48 28.31z" fill="url(#paint28_radial)"/></mask><g mask="url(#h)"><path d="M37.894 62.709c15.73 0 28.48-12.675 28.48-28.31 0-15.635-12.75-28.31-28.48-28.31S9.413 18.764 9.413 34.4c0 15.635 12.751 28.31 28.48 28.31z" fill="url(#paint29_radial)"/><path opacity=".5" d="M37.894 62.709c15.73 0 28.48-12.675 28.48-28.31 0-15.635-12.75-28.31-28.48-28.31S9.413 18.764 9.413 34.4c0 15.635 12.751 28.31 28.48 28.31z" fill="url(#paint30_radial)"/><path d="M37.894 62.709c15.73 0 28.48-12.675 28.48-28.31 0-15.635-12.75-28.31-28.48-28.31S9.413 18.764 9.413 34.4c0 15.635 12.751 28.31 28.48 28.31z" fill="url(#paint31_radial)"/></g><mask id="i" maskUnits="userSpaceOnUse" x="0" y="34" width="19" height="20"><path d="M9.494 53.07c5.243 0 9.493-4.224 9.493-9.436s-4.25-9.437-9.493-9.437C4.25 34.197 0 38.422 0 43.634s4.25 9.437 9.494 9.437z" fill="url(#paint32_radial)"/></mask><g mask="url(#i)"><path d="M9.494 53.07c5.243 0 9.493-4.224 9.493-9.436s-4.25-9.437-9.493-9.437C4.25 34.197 0 38.422 0 43.634s4.25 9.437 9.494 9.437z" fill="url(#paint33_radial)"/><path opacity=".5" d="M9.494 53.07c5.243 0 9.493-4.224 9.493-9.436s-4.25-9.437-9.493-9.437C4.25 34.197 0 38.422 0 43.634s4.25 9.437 9.494 9.437z" fill="url(#paint34_radial)"/><path d="M9.494 53.07c5.243 0 9.493-4.224 9.493-9.436s-4.25-9.437-9.493-9.437C4.25 34.197 0 38.422 0 43.634s4.25 9.437 9.494 9.437z" fill="url(#paint35_radial)"/></g><mask id="j" maskUnits="userSpaceOnUse" x="16" y="48" width="14" height="14"><path d="M22.842 61.822c3.63 0 6.572-2.925 6.572-6.533 0-3.608-2.942-6.533-6.572-6.533s-6.573 2.925-6.573 6.533c0 3.608 2.943 6.533 6.573 6.533z" fill="url(#paint36_radial)"/></mask><g mask="url(#j)"><path d="M22.842 61.822c3.63 0 6.572-2.925 6.572-6.533 0-3.608-2.942-6.533-6.572-6.533s-6.573 2.925-6.573 6.533c0 3.608 2.943 6.533 6.573 6.533z" fill="url(#paint37_radial)"/><path opacity=".5" d="M22.842 61.822c3.63 0 6.572-2.925 6.572-6.533 0-3.608-2.942-6.533-6.572-6.533s-6.573 2.925-6.573 6.533c0 3.608 2.943 6.533 6.573 6.533z" fill="url(#paint38_radial)"/><path d="M22.842 61.822c3.63 0 6.572-2.925 6.572-6.533 0-3.608-2.942-6.533-6.572-6.533s-6.573 2.925-6.573 6.533c0 3.608 2.943 6.533 6.573 6.533z" fill="url(#paint39_radial)"/></g><mask id="k" maskUnits="userSpaceOnUse" x="5" y="24" width="33" height="32"><path d="M21.868 55.853c8.806 0 15.945-7.095 15.945-15.848s-7.14-15.849-15.945-15.849c-8.806 0-15.945 7.096-15.945 15.849s7.14 15.848 15.945 15.848z" fill="url(#paint40_radial)"/></mask><g mask="url(#k)"><path d="M21.868 55.853c8.806 0 15.945-7.095 15.945-15.848s-7.14-15.849-15.945-15.849c-8.806 0-15.945 7.096-15.945 15.849s7.14 15.848 15.945 15.848z" fill="url(#paint41_radial)"/><path opacity=".5" d="M21.868 55.853c8.806 0 15.945-7.095 15.945-15.848s-7.14-15.849-15.945-15.849c-8.806 0-15.945 7.096-15.945 15.849s7.14 15.848 15.945 15.848z" fill="url(#paint42_radial)"/><path d="M21.868 55.853c8.806 0 15.945-7.095 15.945-15.848s-7.14-15.849-15.945-15.849c-8.806 0-15.945 7.096-15.945 15.849s7.14 15.848 15.945 15.848z" fill="url(#paint43_radial)"/></g><mask id="l" maskUnits="userSpaceOnUse" x="28" y="17" width="18" height="18"><path d="M36.96 34.44c4.728 0 8.561-3.81 8.561-8.51 0-4.699-3.833-8.509-8.56-8.509-4.728 0-8.561 3.81-8.561 8.51 0 4.699 3.833 8.509 8.56 8.509z" fill="url(#paint44_radial)"/></mask><g mask="url(#l)"><path d="M36.96 34.44c4.728 0 8.561-3.81 8.561-8.51 0-4.699-3.833-8.509-8.56-8.509-4.728 0-8.561 3.81-8.561 8.51 0 4.699 3.833 8.509 8.56 8.509z" fill="url(#paint45_radial)"/><path opacity=".5" d="M36.96 34.44c4.728 0 8.561-3.81 8.561-8.51 0-4.699-3.833-8.509-8.56-8.509-4.728 0-8.561 3.81-8.561 8.51 0 4.699 3.833 8.509 8.56 8.509z" fill="url(#paint46_radial)"/><path d="M36.96 34.44c4.728 0 8.561-3.81 8.561-8.51 0-4.699-3.833-8.509-8.56-8.509-4.728 0-8.561 3.81-8.561 8.51 0 4.699 3.833 8.509 8.56 8.509z" fill="url(#paint47_radial)"/></g><mask id="m" maskUnits="userSpaceOnUse" x="53" y="35" width="18" height="18"><path d="M62.44 52.264c4.727 0 8.56-3.81 8.56-8.509 0-4.7-3.833-8.509-8.56-8.509-4.728 0-8.561 3.81-8.561 8.51 0 4.699 3.833 8.508 8.56 8.508z" fill="url(#paint48_radial)"/></mask><g mask="url(#m)"><path d="M62.44 52.264c4.727 0 8.56-3.81 8.56-8.509 0-4.7-3.833-8.509-8.56-8.509-4.728 0-8.561 3.81-8.561 8.51 0 4.699 3.833 8.508 8.56 8.508z" fill="url(#paint49_radial)"/><path opacity=".5" d="M62.44 52.264c4.727 0 8.56-3.81 8.56-8.509 0-4.7-3.833-8.509-8.56-8.509-4.728 0-8.561 3.81-8.561 8.51 0 4.699 3.833 8.508 8.56 8.508z" fill="url(#paint50_radial)"/><path d="M62.44 52.264c4.727 0 8.56-3.81 8.56-8.509 0-4.7-3.833-8.509-8.56-8.509-4.728 0-8.561 3.81-8.561 8.51 0 4.699 3.833 8.508 8.56 8.508z" fill="url(#paint51_radial)"/></g><mask id="n" maskUnits="userSpaceOnUse" x="34" y="29" width="11" height="11"><path d="M39.8 39.239c2.69 0 4.87-2.167 4.87-4.84 0-2.672-2.18-4.84-4.87-4.84-2.688 0-4.868 2.168-4.868 4.84 0 2.673 2.18 4.84 4.869 4.84z" fill="url(#paint52_radial)"/></mask><g mask="url(#n)"><path d="M39.8 39.239c2.69 0 4.87-2.167 4.87-4.84 0-2.672-2.18-4.84-4.87-4.84-2.688 0-4.868 2.168-4.868 4.84 0 2.673 2.18 4.84 4.869 4.84z" fill="url(#paint53_radial)"/><path opacity=".5" d="M39.8 39.239c2.69 0 4.87-2.167 4.87-4.84 0-2.672-2.18-4.84-4.87-4.84-2.688 0-4.868 2.168-4.868 4.84 0 2.673 2.18 4.84 4.869 4.84z" fill="url(#paint54_radial)"/><path d="M39.8 39.239c2.69 0 4.87-2.167 4.87-4.84 0-2.672-2.18-4.84-4.87-4.84-2.688 0-4.868 2.168-4.868 4.84 0 2.673 2.18 4.84 4.869 4.84z" fill="url(#paint55_radial)"/></g><defs><radialGradient id="paint1_radial" cx="0" cy="0" r="1" gradientUnits="userSpaceOnUse" gradientTransform="matrix(11.1364 0 0 11.0694 39.714 7.267)"><stop offset=".182" stop-color="#202A12"/><stop offset=".398" stop-color="#2D3A0F"/><stop offset=".598" stop-color="#3C4D0B"/><stop offset=".652" stop-color="#40530E"/><stop offset=".721" stop-color="#4A6315"/><stop offset=".799" stop-color="#5A7D21"/><stop offset=".882" stop-color="#72A133"/><stop offset=".97" stop-color="#90D049"/><stop offset="1" stop-color="#9BE251"/></radialGradient><radialGradient id="paint28_radial" cx="0" cy="0" r="1" gradientUnits="userSpaceOnUse" gradientTransform="matrix(29.9602 0 0 29.7799 36.955 35.56)"><stop offset=".75" stop-color="#fff"/><stop offset=".801" stop-color="#FCFCFC"/><stop offset=".842" stop-color="#F2F2F2"/><stop offset=".879" stop-color="#E1E1E1"/><stop offset=".914" stop-color="#C9C9C9"/><stop offset=".948" stop-color="#AAA"/><stop offset=".981" stop-color="#858585"/><stop offset="1" stop-color="#6B6B6B"/></radialGradient><radialGradient id="paint2_radial" cx="0" cy="0" r="1" gradientUnits="userSpaceOnUse" gradientTransform="matrix(8.64922 0 0 8.59717 37.898 8.597)"><stop offset=".5"/><stop offset=".585" stop-color="#020301"/><stop offset=".654" stop-color="#090D05"/><stop offset=".717" stop-color="#151E0B"/><stop offset=".776" stop-color="#253613"/><stop offset=".833" stop-color="#3A551E"/><stop offset=".888" stop-color="#547B2C"/><stop offset=".941" stop-color="#73A73C"/><stop offset=".993" stop-color="#96DA4E"/><stop offset="1" stop-color="#9BE251"/></radialGradient><radialGradient id="paint3_radial" cx="0" cy="0" r="1" gradientUnits="userSpaceOnUse" gradientTransform="matrix(10.7517 0 0 10.6871 36.56 10.497)"><stop offset=".5"/><stop offset=".585" stop-color="#020301"/><stop offset=".654" stop-color="#090D05"/><stop offset=".717" stop-color="#151E0B"/><stop offset=".776" stop-color="#253613"/><stop offset=".833" stop-color="#3A551E"/><stop offset=".888" stop-color="#547B2C"/><stop offset=".941" stop-color="#73A73C"/><stop offset=".993" stop-color="#96DA4E"/><stop offset="1" stop-color="#9BE251"/></radialGradient><radialGradient id="paint4_radial" cx="0" cy="0" r="1" gradientUnits="userSpaceOnUse" gradientTransform="matrix(9.10415 0 0 9.04937 59.784 19.27)"><stop offset=".75" stop-color="#fff"/><stop offset=".801" stop-color="#FCFCFC"/><stop offset=".842" stop-color="#F2F2F2"/><stop offset=".879" stop-color="#E1E1E1"/><stop offset=".914" stop-color="#C9C9C9"/><stop offset=".948" stop-color="#AAA"/><stop offset=".981" stop-color="#858585"/><stop offset="1" stop-color="#6B6B6B"/></radialGradient><radialGradient id="paint5_radial" cx="0" cy="0" r="1" gradientUnits="userSpaceOnUse" gradientTransform="matrix(11.1364 0 0 11.0694 61.886 17.584)"><stop offset=".182" stop-color="#202A12"/><stop offset=".398" stop-color="#2D3A0F"/><stop offset=".598" stop-color="#3C4D0B"/><stop offset=".652" stop-color="#40530E"/><stop offset=".721" stop-color="#4A6315"/><stop offset=".799" stop-color="#5A7D21"/><stop offset=".882" stop-color="#72A133"/><stop offset=".97" stop-color="#90D049"/><stop offset="1" stop-color="#9BE251"/></radialGradient><radialGradient id="paint6_radial" cx="0" cy="0" r="1" gradientUnits="userSpaceOnUse" gradientTransform="matrix(8.64922 0 0 8.59718 60.07 18.913)"><stop offset=".5"/><stop offset=".585" stop-color="#020301"/><stop offset=".654" stop-color="#090D05"/><stop offset=".717" stop-color="#151E0B"/><stop offset=".776" stop-color="#253613"/><stop offset=".833" stop-color="#3A551E"/><stop offset=".888" stop-color="#547B2C"/><stop offset=".941" stop-color="#73A73C"/><stop offset=".993" stop-color="#96DA4E"/><stop offset="1" stop-color="#9BE251"/></radialGradient><radialGradient id="paint7_radial" cx="0" cy="0" r="1" gradientUnits="userSpaceOnUse" gradientTransform="matrix(10.7518 0 0 10.6871 58.733 20.813)"><stop offset=".5"/><stop offset=".585" stop-color="#020301"/><stop offset=".654" stop-color="#090D05"/><stop offset=".717" stop-color="#151E0B"/><stop offset=".776" stop-color="#253613"/><stop offset=".833" stop-color="#3A551E"/><stop offset=".888" stop-color="#547B2C"/><stop offset=".941" stop-color="#73A73C"/><stop offset=".993" stop-color="#96DA4E"/><stop offset="1" stop-color="#9BE251"/></radialGradient><radialGradient id="paint8_radial" cx="0" cy="0" r="1" gradientUnits="userSpaceOnUse" gradientTransform="matrix(9.10415 0 0 9.04936 52.236 57.252)"><stop offset=".75" stop-color="#fff"/><stop offset=".801" stop-color="#FCFCFC"/><stop offset=".842" stop-color="#F2F2F2"/><stop offset=".879" stop-color="#E1E1E1"/><stop offset=".914" stop-color="#C9C9C9"/><stop offset=".948" stop-color="#AAA"/><stop offset=".981" stop-color="#858585"/><stop offset="1" stop-color="#6B6B6B"/></radialGradient><radialGradient id="paint9_radial" cx="0" cy="0" r="1" gradientUnits="userSpaceOnUse" gradientTransform="matrix(11.1364 0 0 11.0694 54.338 55.566)"><stop offset=".182" stop-color="#202A12"/><stop offset=".398" stop-color="#2D3A0F"/><stop offset=".598" stop-color="#3C4D0B"/><stop offset=".652" stop-color="#40530E"/><stop offset=".721" stop-color="#4A6315"/><stop offset=".799" stop-color="#5A7D21"/><stop offset=".882" stop-color="#72A133"/><stop offset=".97" stop-color="#90D049"/><stop offset="1" stop-color="#9BE251"/></radialGradient><radialGradient id="paint10_radial" cx="0" cy="0" r="1" gradientUnits="userSpaceOnUse" gradientTransform="matrix(8.64918 0 0 8.59713 52.523 56.896)"><stop offset=".5"/><stop offset=".585" stop-color="#020301"/><stop offset=".654" stop-color="#090D05"/><stop offset=".717" stop-color="#151E0B"/><stop offset=".776" stop-color="#253613"/><stop offset=".833" stop-color="#3A551E"/><stop offset=".888" stop-color="#547B2C"/><stop offset=".941" stop-color="#73A73C"/><stop offset=".993" stop-color="#96DA4E"/><stop offset="1" stop-color="#9BE251"/></radialGradient><radialGradient id="paint11_radial" cx="0" cy="0" r="1" gradientUnits="userSpaceOnUse" gradientTransform="matrix(10.7517 0 0 10.687 51.185 58.796)"><stop offset=".5"/><stop offset=".585" stop-color="#020301"/><stop offset=".654" stop-color="#090D05"/><stop offset=".717" stop-color="#151E0B"/><stop offset=".776" stop-color="#253613"/><stop offset=".833" stop-color="#3A551E"/><stop offset=".888" stop-color="#547B2C"/><stop offset=".941" stop-color="#73A73C"/><stop offset=".993" stop-color="#96DA4E"/><stop offset="1" stop-color="#9BE251"/></radialGradient><radialGradient id="paint12_radial" cx="0" cy="0" r="1" gradientUnits="userSpaceOnUse" gradientTransform="matrix(4.0143 0 0 3.99015 65.134 27.042)"><stop offset=".75" stop-color="#fff"/><stop offset=".801" stop-color="#FCFCFC"/><stop offset=".842" stop-color="#F2F2F2"/><stop offset=".879" stop-color="#E1E1E1"/><stop offset=".914" stop-color="#C9C9C9"/><stop offset=".948" stop-color="#AAA"/><stop offset=".981" stop-color="#858585"/><stop offset="1" stop-color="#6B6B6B"/></radialGradient><radialGradient id="paint13_radial" cx="0" cy="0" r="1" gradientUnits="userSpaceOnUse" gradientTransform="matrix(4.91037 0 0 4.88082 66.06 26.299)"><stop offset=".182" stop-color="#202A12"/><stop offset=".398" stop-color="#2D3A0F"/><stop offset=".598" stop-color="#3C4D0B"/><stop offset=".652" stop-color="#40530E"/><stop offset=".721" stop-color="#4A6315"/><stop offset=".799" stop-color="#5A7D21"/><stop offset=".882" stop-color="#72A133"/><stop offset=".97" stop-color="#90D049"/><stop offset="1" stop-color="#9BE251"/></radialGradient><radialGradient id="paint14_radial" cx="0" cy="0" r="1" gradientUnits="userSpaceOnUse" gradientTransform="matrix(3.81372 0 0 3.79077 65.26 26.885)"><stop offset=".5"/><stop offset=".585" stop-color="#020301"/><stop offset=".654" stop-color="#090D05"/><stop offset=".717" stop-color="#151E0B"/><stop offset=".776" stop-color="#253613"/><stop offset=".833" stop-color="#3A551E"/><stop offset=".888" stop-color="#547B2C"/><stop offset=".941" stop-color="#73A73C"/><stop offset=".993" stop-color="#96DA4E"/><stop offset="1" stop-color="#9BE251"/></radialGradient><radialGradient id="paint15_radial" cx="0" cy="0" r="1" gradientUnits="userSpaceOnUse" gradientTransform="matrix(4.74078 0 0 4.71225 64.67 27.723)"><stop offset=".5"/><stop offset=".585" stop-color="#020301"/><stop offset=".654" stop-color="#090D05"/><stop offset=".717" stop-color="#151E0B"/><stop offset=".776" stop-color="#253613"/><stop offset=".833" stop-color="#3A551E"/><stop offset=".888" stop-color="#547B2C"/><stop offset=".941" stop-color="#73A73C"/><stop offset=".993" stop-color="#96DA4E"/><stop offset="1" stop-color="#9BE251"/></radialGradient><radialGradient id="paint16_radial" cx="0" cy="0" r="1" gradientUnits="userSpaceOnUse" gradientTransform="matrix(9.02122 0 0 8.96694 17.8 16.922)"><stop offset=".75" stop-color="#fff"/><stop offset=".801" stop-color="#FCFCFC"/><stop offset=".842" stop-color="#F2F2F2"/><stop offset=".879" stop-color="#E1E1E1"/><stop offset=".914" stop-color="#C9C9C9"/><stop offset=".948" stop-color="#AAA"/><stop offset=".981" stop-color="#858585"/><stop offset="1" stop-color="#6B6B6B"/></radialGradient><radialGradient id="paint17_radial" cx="0" cy="0" r="1" gradientUnits="userSpaceOnUse" gradientTransform="matrix(11.0349 0 0 10.9685 19.884 15.251)"><stop offset=".182" stop-color="#202A12"/><stop offset=".398" stop-color="#2D3A0F"/><stop offset=".598" stop-color="#3C4D0B"/><stop offset=".652" stop-color="#40530E"/><stop offset=".721" stop-color="#4A6315"/><stop offset=".799" stop-color="#5A7D21"/><stop offset=".882" stop-color="#72A133"/><stop offset=".97" stop-color="#90D049"/><stop offset="1" stop-color="#9BE251"/></radialGradient><radialGradient id="paint18_radial" cx="0" cy="0" r="1" gradientUnits="userSpaceOnUse" gradientTransform="matrix(8.57043 0 0 8.51886 18.084 16.569)"><stop offset=".5"/><stop offset=".585" stop-color="#020301"/><stop offset=".654" stop-color="#090D05"/><stop offset=".717" stop-color="#151E0B"/><stop offset=".776" stop-color="#253613"/><stop offset=".833" stop-color="#3A551E"/><stop offset=".888" stop-color="#547B2C"/><stop offset=".941" stop-color="#73A73C"/><stop offset=".993" stop-color="#96DA4E"/><stop offset="1" stop-color="#9BE251"/></radialGradient><radialGradient id="paint19_radial" cx="0" cy="0" r="1" gradientUnits="userSpaceOnUse" gradientTransform="matrix(10.6538 0 0 10.5897 16.759 18.451)"><stop offset=".5"/><stop offset=".585" stop-color="#020301"/><stop offset=".654" stop-color="#090D05"/><stop offset=".717" stop-color="#151E0B"/><stop offset=".776" stop-color="#253613"/><stop offset=".833" stop-color="#3A551E"/><stop offset=".888" stop-color="#547B2C"/><stop offset=".941" stop-color="#73A73C"/><stop offset=".993" stop-color="#96DA4E"/><stop offset="1" stop-color="#9BE251"/></radialGradient><radialGradient id="paint20_radial" cx="0" cy="0" r="1" gradientUnits="userSpaceOnUse" gradientTransform="matrix(9.97315 0 0 9.91313 9.16 34.66)"><stop offset=".75" stop-color="#fff"/><stop offset=".801" stop-color="#FCFCFC"/><stop offset=".842" stop-color="#F2F2F2"/><stop offset=".879" stop-color="#E1E1E1"/><stop offset=".914" stop-color="#C9C9C9"/><stop offset=".948" stop-color="#AAA"/><stop offset=".981" stop-color="#858585"/><stop offset="1" stop-color="#6B6B6B"/></radialGradient><radialGradient id="paint21_radial" cx="0" cy="0" r="1" gradientUnits="userSpaceOnUse" gradientTransform="matrix(12.1994 0 0 12.126 11.464 32.814)"><stop offset=".182" stop-color="#202A12"/><stop offset=".398" stop-color="#2D3A0F"/><stop offset=".598" stop-color="#3C4D0B"/><stop offset=".652" stop-color="#40530E"/><stop offset=".721" stop-color="#4A6315"/><stop offset=".799" stop-color="#5A7D21"/><stop offset=".882" stop-color="#72A133"/><stop offset=".97" stop-color="#90D049"/><stop offset="1" stop-color="#9BE251"/></radialGradient><radialGradient id="paint22_radial" cx="0" cy="0" r="1" gradientUnits="userSpaceOnUse" gradientTransform="matrix(9.47477 0 0 9.41775 9.475 34.27)"><stop offset=".5"/><stop offset=".585" stop-color="#020301"/><stop offset=".654" stop-color="#090D05"/><stop offset=".717" stop-color="#151E0B"/><stop offset=".776" stop-color="#253613"/><stop offset=".833" stop-color="#3A551E"/><stop offset=".888" stop-color="#547B2C"/><stop offset=".941" stop-color="#73A73C"/><stop offset=".993" stop-color="#96DA4E"/><stop offset="1" stop-color="#9BE251"/></radialGradient><radialGradient id="paint23_radial" cx="0" cy="0" r="1" gradientUnits="userSpaceOnUse" gradientTransform="matrix(11.778 0 0 11.7071 8.01 36.352)"><stop offset=".5"/><stop offset=".585" stop-color="#020301"/><stop offset=".654" stop-color="#090D05"/><stop offset=".717" stop-color="#151E0B"/><stop offset=".776" stop-color="#253613"/><stop offset=".833" stop-color="#3A551E"/><stop offset=".888" stop-color="#547B2C"/><stop offset=".941" stop-color="#73A73C"/><stop offset=".993" stop-color="#96DA4E"/><stop offset="1" stop-color="#9BE251"/></radialGradient><radialGradient id="paint24_radial" cx="0" cy="0" r="1" gradientUnits="userSpaceOnUse" gradientTransform="matrix(7.80066 0 0 7.75373 30.281 61.949)"><stop offset=".75" stop-color="#fff"/><stop offset=".801" stop-color="#FCFCFC"/><stop offset=".842" stop-color="#F2F2F2"/><stop offset=".879" stop-color="#E1E1E1"/><stop offset=".914" stop-color="#C9C9C9"/><stop offset=".948" stop-color="#AAA"/><stop offset=".981" stop-color="#858585"/><stop offset="1" stop-color="#6B6B6B"/></radialGradient><radialGradient id="paint25_radial" cx="0" cy="0" r="1" gradientUnits="userSpaceOnUse" gradientTransform="matrix(9.54191 0 0 9.4845 32.083 60.504)"><stop offset=".182" stop-color="#202A12"/><stop offset=".398" stop-color="#2D3A0F"/><stop offset=".598" stop-color="#3C4D0B"/><stop offset=".652" stop-color="#40530E"/><stop offset=".721" stop-color="#4A6315"/><stop offset=".799" stop-color="#5A7D21"/><stop offset=".882" stop-color="#72A133"/><stop offset=".97" stop-color="#90D049"/><stop offset="1" stop-color="#9BE251"/></radialGradient><radialGradient id="paint26_radial" cx="0" cy="0" r="1" gradientUnits="userSpaceOnUse" gradientTransform="matrix(7.41081 0 0 7.36622 30.527 61.644)"><stop offset=".5"/><stop offset=".585" stop-color="#020301"/><stop offset=".654" stop-color="#090D05"/><stop offset=".717" stop-color="#151E0B"/><stop offset=".776" stop-color="#253613"/><stop offset=".833" stop-color="#3A551E"/><stop offset=".888" stop-color="#547B2C"/><stop offset=".941" stop-color="#73A73C"/><stop offset=".993" stop-color="#96DA4E"/><stop offset="1" stop-color="#9BE251"/></radialGradient><radialGradient id="paint27_radial" cx="0" cy="0" r="1" gradientUnits="userSpaceOnUse" gradientTransform="matrix(9.21231 0 0 9.15688 29.38 63.272)"><stop offset=".5"/><stop offset=".585" stop-color="#020301"/><stop offset=".654" stop-color="#090D05"/><stop offset=".717" stop-color="#151E0B"/><stop offset=".776" stop-color="#253613"/><stop offset=".833" stop-color="#3A551E"/><stop offset=".888" stop-color="#547B2C"/><stop offset=".941" stop-color="#73A73C"/><stop offset=".993" stop-color="#96DA4E"/><stop offset="1" stop-color="#9BE251"/></radialGradient><radialGradient id="paint0_radial" cx="0" cy="0" r="1" gradientUnits="userSpaceOnUse" gradientTransform="matrix(9.10414 0 0 9.04936 37.611 8.953)"><stop offset=".75" stop-color="#fff"/><stop offset=".801" stop-color="#FCFCFC"/><stop offset=".842" stop-color="#F2F2F2"/><stop offset=".879" stop-color="#E1E1E1"/><stop offset=".914" stop-color="#C9C9C9"/><stop offset=".948" stop-color="#AAA"/><stop offset=".981" stop-color="#858585"/><stop offset="1" stop-color="#6B6B6B"/></radialGradient><radialGradient id="paint29_radial" cx="0" cy="0" r="1" gradientUnits="userSpaceOnUse" gradientTransform="matrix(36.6479 0 0 36.4274 43.873 30.011)"><stop offset=".182" stop-color="#202A12"/><stop offset=".398" stop-color="#2D3A0F"/><stop offset=".598" stop-color="#3C4D0B"/><stop offset=".652" stop-color="#40530E"/><stop offset=".721" stop-color="#4A6315"/><stop offset=".799" stop-color="#5A7D21"/><stop offset=".882" stop-color="#72A133"/><stop offset=".97" stop-color="#90D049"/><stop offset="1" stop-color="#9BE251"/></radialGradient><radialGradient id="paint30_radial" cx="0" cy="0" r="1" gradientUnits="userSpaceOnUse" gradientTransform="matrix(28.463 0 0 28.2917 37.898 34.388)"><stop offset=".5"/><stop offset=".585" stop-color="#020301"/><stop offset=".654" stop-color="#090D05"/><stop offset=".717" stop-color="#151E0B"/><stop offset=".776" stop-color="#253613"/><stop offset=".833" stop-color="#3A551E"/><stop offset=".888" stop-color="#547B2C"/><stop offset=".941" stop-color="#73A73C"/><stop offset=".993" stop-color="#96DA4E"/><stop offset="1" stop-color="#9BE251"/></radialGradient><radialGradient id="paint31_radial" cx="0" cy="0" r="1" gradientUnits="userSpaceOnUse" gradientTransform="matrix(35.3821 0 0 35.1692 33.495 40.64)"><stop offset=".5"/><stop offset=".585" stop-color="#020301"/><stop offset=".654" stop-color="#090D05"/><stop offset=".717" stop-color="#151E0B"/><stop offset=".776" stop-color="#253613"/><stop offset=".833" stop-color="#3A551E"/><stop offset=".888" stop-color="#547B2C"/><stop offset=".941" stop-color="#73A73C"/><stop offset=".993" stop-color="#96DA4E"/><stop offset="1" stop-color="#9BE251"/></radialGradient><radialGradient id="paint32_radial" cx="0" cy="0" r="1" gradientUnits="userSpaceOnUse" gradientTransform="matrix(9.97315 0 0 9.91314 9.16 44.04)"><stop offset=".75" stop-color="#fff"/><stop offset=".801" stop-color="#FCFCFC"/><stop offset=".842" stop-color="#F2F2F2"/><stop offset=".879" stop-color="#E1E1E1"/><stop offset=".914" stop-color="#C9C9C9"/><stop offset=".948" stop-color="#AAA"/><stop offset=".981" stop-color="#858585"/><stop offset="1" stop-color="#6B6B6B"/></radialGradient><radialGradient id="paint33_radial" cx="0" cy="0" r="1" gradientUnits="userSpaceOnUse" gradientTransform="matrix(12.1994 0 0 12.126 11.464 42.192)"><stop offset=".182" stop-color="#202A12"/><stop offset=".398" stop-color="#2D3A0F"/><stop offset=".598" stop-color="#3C4D0B"/><stop offset=".652" stop-color="#40530E"/><stop offset=".721" stop-color="#4A6315"/><stop offset=".799" stop-color="#5A7D21"/><stop offset=".882" stop-color="#72A133"/><stop offset=".97" stop-color="#90D049"/><stop offset="1" stop-color="#9BE251"/></radialGradient><radialGradient id="paint34_radial" cx="0" cy="0" r="1" gradientUnits="userSpaceOnUse" gradientTransform="matrix(9.47477 0 0 9.41776 9.475 43.649)"><stop offset=".5"/><stop offset=".585" stop-color="#020301"/><stop offset=".654" stop-color="#090D05"/><stop offset=".717" stop-color="#151E0B"/><stop offset=".776" stop-color="#253613"/><stop offset=".833" stop-color="#3A551E"/><stop offset=".888" stop-color="#547B2C"/><stop offset=".941" stop-color="#73A73C"/><stop offset=".993" stop-color="#96DA4E"/><stop offset="1" stop-color="#9BE251"/></radialGradient><radialGradient id="paint35_radial" cx="0" cy="0" r="1" gradientUnits="userSpaceOnUse" gradientTransform="matrix(11.778 0 0 11.7071 8.01 45.73)"><stop offset=".5"/><stop offset=".585" stop-color="#020301"/><stop offset=".654" stop-color="#090D05"/><stop offset=".717" stop-color="#151E0B"/><stop offset=".776" stop-color="#253613"/><stop offset=".833" stop-color="#3A551E"/><stop offset=".888" stop-color="#547B2C"/><stop offset=".941" stop-color="#73A73C"/><stop offset=".993" stop-color="#96DA4E"/><stop offset="1" stop-color="#9BE251"/></radialGradient><radialGradient id="paint36_radial" cx="0" cy="0" r="1" gradientUnits="userSpaceOnUse" gradientTransform="matrix(6.90059 0 0 6.85906 22.614 55.554)"><stop offset=".75" stop-color="#fff"/><stop offset=".801" stop-color="#FCFCFC"/><stop offset=".842" stop-color="#F2F2F2"/><stop offset=".879" stop-color="#E1E1E1"/><stop offset=".914" stop-color="#C9C9C9"/><stop offset=".948" stop-color="#AAA"/><stop offset=".981" stop-color="#858585"/><stop offset="1" stop-color="#6B6B6B"/></radialGradient><radialGradient id="paint37_radial" cx="0" cy="0" r="1" gradientUnits="userSpaceOnUse" gradientTransform="matrix(8.44096 0 0 8.39017 24.208 54.276)"><stop offset=".182" stop-color="#202A12"/><stop offset=".398" stop-color="#2D3A0F"/><stop offset=".598" stop-color="#3C4D0B"/><stop offset=".652" stop-color="#40530E"/><stop offset=".721" stop-color="#4A6315"/><stop offset=".799" stop-color="#5A7D21"/><stop offset=".882" stop-color="#72A133"/><stop offset=".97" stop-color="#90D049"/><stop offset="1" stop-color="#9BE251"/></radialGradient><radialGradient id="paint38_radial" cx="0" cy="0" r="1" gradientUnits="userSpaceOnUse" gradientTransform="matrix(6.55577 0 0 6.51632 22.831 55.284)"><stop offset=".5"/><stop offset=".585" stop-color="#020301"/><stop offset=".654" stop-color="#090D05"/><stop offset=".717" stop-color="#151E0B"/><stop offset=".776" stop-color="#253613"/><stop offset=".833" stop-color="#3A551E"/><stop offset=".888" stop-color="#547B2C"/><stop offset=".941" stop-color="#73A73C"/><stop offset=".993" stop-color="#96DA4E"/><stop offset="1" stop-color="#9BE251"/></radialGradient><radialGradient id="paint39_radial" cx="0" cy="0" r="1" gradientUnits="userSpaceOnUse" gradientTransform="matrix(8.14942 0 0 8.10038 21.817 56.724)"><stop offset=".5"/><stop offset=".585" stop-color="#020301"/><stop offset=".654" stop-color="#090D05"/><stop offset=".717" stop-color="#151E0B"/><stop offset=".776" stop-color="#253613"/><stop offset=".833" stop-color="#3A551E"/><stop offset=".888" stop-color="#547B2C"/><stop offset=".941" stop-color="#73A73C"/><stop offset=".993" stop-color="#96DA4E"/><stop offset="1" stop-color="#9BE251"/></radialGradient><radialGradient id="paint40_radial" cx="0" cy="0" r="1" gradientUnits="userSpaceOnUse" gradientTransform="matrix(16.801 0 0 16.6999 21.33 40.672)"><stop offset=".75" stop-color="#fff"/><stop offset=".801" stop-color="#FCFCFC"/><stop offset=".842" stop-color="#F2F2F2"/><stop offset=".879" stop-color="#E1E1E1"/><stop offset=".914" stop-color="#C9C9C9"/><stop offset=".948" stop-color="#AAA"/><stop offset=".981" stop-color="#858585"/><stop offset="1" stop-color="#6B6B6B"/></radialGradient><radialGradient id="paint41_radial" cx="0" cy="0" r="1" gradientUnits="userSpaceOnUse" gradientTransform="matrix(20.5514 0 0 20.4277 25.21 37.56)"><stop offset=".182" stop-color="#202A12"/><stop offset=".398" stop-color="#2D3A0F"/><stop offset=".598" stop-color="#3C4D0B"/><stop offset=".652" stop-color="#40530E"/><stop offset=".721" stop-color="#4A6315"/><stop offset=".799" stop-color="#5A7D21"/><stop offset=".882" stop-color="#72A133"/><stop offset=".97" stop-color="#90D049"/><stop offset="1" stop-color="#9BE251"/></radialGradient><radialGradient id="paint42_radial" cx="0" cy="0" r="1" gradientUnits="userSpaceOnUse" gradientTransform="matrix(15.9614 0 0 15.8654 21.858 40.015)"><stop offset=".5"/><stop offset=".585" stop-color="#020301"/><stop offset=".654" stop-color="#090D05"/><stop offset=".717" stop-color="#151E0B"/><stop offset=".776" stop-color="#253613"/><stop offset=".833" stop-color="#3A551E"/><stop offset=".888" stop-color="#547B2C"/><stop offset=".941" stop-color="#73A73C"/><stop offset=".993" stop-color="#96DA4E"/><stop offset="1" stop-color="#9BE251"/></radialGradient><radialGradient id="paint43_radial" cx="0" cy="0" r="1" gradientUnits="userSpaceOnUse" gradientTransform="matrix(19.8415 0 0 19.7221 19.39 43.52)"><stop offset=".5"/><stop offset=".585" stop-color="#020301"/><stop offset=".654" stop-color="#090D05"/><stop offset=".717" stop-color="#151E0B"/><stop offset=".776" stop-color="#253613"/><stop offset=".833" stop-color="#3A551E"/><stop offset=".888" stop-color="#547B2C"/><stop offset=".941" stop-color="#73A73C"/><stop offset=".993" stop-color="#96DA4E"/><stop offset="1" stop-color="#9BE251"/></radialGradient><radialGradient id="paint44_radial" cx="0" cy="0" r="1" gradientUnits="userSpaceOnUse" gradientTransform="matrix(9.02122 0 0 8.96693 36.67 26.3)"><stop offset=".75" stop-color="#fff"/><stop offset=".801" stop-color="#FCFCFC"/><stop offset=".842" stop-color="#F2F2F2"/><stop offset=".879" stop-color="#E1E1E1"/><stop offset=".914" stop-color="#C9C9C9"/><stop offset=".948" stop-color="#AAA"/><stop offset=".981" stop-color="#858585"/><stop offset="1" stop-color="#6B6B6B"/></radialGradient><radialGradient id="paint45_radial" cx="0" cy="0" r="1" gradientUnits="userSpaceOnUse" gradientTransform="matrix(11.0349 0 0 10.9685 38.754 24.63)"><stop offset=".182" stop-color="#202A12"/><stop offset=".398" stop-color="#2D3A0F"/><stop offset=".598" stop-color="#3C4D0B"/><stop offset=".652" stop-color="#40530E"/><stop offset=".721" stop-color="#4A6315"/><stop offset=".799" stop-color="#5A7D21"/><stop offset=".882" stop-color="#72A133"/><stop offset=".97" stop-color="#90D049"/><stop offset="1" stop-color="#9BE251"/></radialGradient><radialGradient id="paint46_radial" cx="0" cy="0" r="1" gradientUnits="userSpaceOnUse" gradientTransform="matrix(8.57043 0 0 8.51886 36.955 25.947)"><stop offset=".5"/><stop offset=".585" stop-color="#020301"/><stop offset=".654" stop-color="#090D05"/><stop offset=".717" stop-color="#151E0B"/><stop offset=".776" stop-color="#253613"/><stop offset=".833" stop-color="#3A551E"/><stop offset=".888" stop-color="#547B2C"/><stop offset=".941" stop-color="#73A73C"/><stop offset=".993" stop-color="#96DA4E"/><stop offset="1" stop-color="#9BE251"/></radialGradient><radialGradient id="paint47_radial" cx="0" cy="0" r="1" gradientUnits="userSpaceOnUse" gradientTransform="matrix(10.6538 0 0 10.5897 35.629 27.83)"><stop offset=".5"/><stop offset=".585" stop-color="#020301"/><stop offset=".654" stop-color="#090D05"/><stop offset=".717" stop-color="#151E0B"/><stop offset=".776" stop-color="#253613"/><stop offset=".833" stop-color="#3A551E"/><stop offset=".888" stop-color="#547B2C"/><stop offset=".941" stop-color="#73A73C"/><stop offset=".993" stop-color="#96DA4E"/><stop offset="1" stop-color="#9BE251"/></radialGradient><radialGradient id="paint48_radial" cx="0" cy="0" r="1" gradientUnits="userSpaceOnUse" gradientTransform="matrix(9.02121 0 0 8.96693 62.145 44.12)"><stop offset=".75" stop-color="#fff"/><stop offset=".801" stop-color="#FCFCFC"/><stop offset=".842" stop-color="#F2F2F2"/><stop offset=".879" stop-color="#E1E1E1"/><stop offset=".914" stop-color="#C9C9C9"/><stop offset=".948" stop-color="#AAA"/><stop offset=".981" stop-color="#858585"/><stop offset="1" stop-color="#6B6B6B"/></radialGradient><radialGradient id="paint49_radial" cx="0" cy="0" r="1" gradientUnits="userSpaceOnUse" gradientTransform="matrix(11.0349 0 0 10.9685 64.229 42.448)"><stop offset=".182" stop-color="#202A12"/><stop offset=".398" stop-color="#2D3A0F"/><stop offset=".598" stop-color="#3C4D0B"/><stop offset=".652" stop-color="#40530E"/><stop offset=".721" stop-color="#4A6315"/><stop offset=".799" stop-color="#5A7D21"/><stop offset=".882" stop-color="#72A133"/><stop offset=".97" stop-color="#90D049"/><stop offset="1" stop-color="#9BE251"/></radialGradient><radialGradient id="paint50_radial" cx="0" cy="0" r="1" gradientUnits="userSpaceOnUse" gradientTransform="matrix(8.57042 0 0 8.51886 62.43 43.766)"><stop offset=".5"/><stop offset=".585" stop-color="#020301"/><stop offset=".654" stop-color="#090D05"/><stop offset=".717" stop-color="#151E0B"/><stop offset=".776" stop-color="#253613"/><stop offset=".833" stop-color="#3A551E"/><stop offset=".888" stop-color="#547B2C"/><stop offset=".941" stop-color="#73A73C"/><stop offset=".993" stop-color="#96DA4E"/><stop offset="1" stop-color="#9BE251"/></radialGradient><radialGradient id="paint51_radial" cx="0" cy="0" r="1" gradientUnits="userSpaceOnUse" gradientTransform="matrix(10.6538 0 0 10.5897 61.104 45.649)"><stop offset=".5"/><stop offset=".585" stop-color="#020301"/><stop offset=".654" stop-color="#090D05"/><stop offset=".717" stop-color="#151E0B"/><stop offset=".776" stop-color="#253613"/><stop offset=".833" stop-color="#3A551E"/><stop offset=".888" stop-color="#547B2C"/><stop offset=".941" stop-color="#73A73C"/><stop offset=".993" stop-color="#96DA4E"/><stop offset="1" stop-color="#9BE251"/></radialGradient><radialGradient id="paint52_radial" cx="0" cy="0" r="1" gradientUnits="userSpaceOnUse" gradientTransform="matrix(5.13107 0 0 5.10019 39.624 34.589)"><stop offset=".75" stop-color="#fff"/><stop offset=".801" stop-color="#FCFCFC"/><stop offset=".842" stop-color="#F2F2F2"/><stop offset=".879" stop-color="#E1E1E1"/><stop offset=".914" stop-color="#C9C9C9"/><stop offset=".948" stop-color="#AAA"/><stop offset=".981" stop-color="#858585"/><stop offset="1" stop-color="#6B6B6B"/></radialGradient><radialGradient id="paint53_radial" cx="0" cy="0" r="1" gradientUnits="userSpaceOnUse" gradientTransform="matrix(6.27644 0 0 6.23867 40.809 33.638)"><stop offset=".182" stop-color="#202A12"/><stop offset=".398" stop-color="#2D3A0F"/><stop offset=".598" stop-color="#3C4D0B"/><stop offset=".652" stop-color="#40530E"/><stop offset=".721" stop-color="#4A6315"/><stop offset=".799" stop-color="#5A7D21"/><stop offset=".882" stop-color="#72A133"/><stop offset=".97" stop-color="#90D049"/><stop offset="1" stop-color="#9BE251"/></radialGradient><radialGradient id="paint54_radial" cx="0" cy="0" r="1" gradientUnits="userSpaceOnUse" gradientTransform="matrix(4.87466 0 0 4.84533 39.785 34.388)"><stop offset=".5"/><stop offset=".585" stop-color="#020301"/><stop offset=".654" stop-color="#090D05"/><stop offset=".717" stop-color="#151E0B"/><stop offset=".776" stop-color="#253613"/><stop offset=".833" stop-color="#3A551E"/><stop offset=".888" stop-color="#547B2C"/><stop offset=".941" stop-color="#73A73C"/><stop offset=".993" stop-color="#96DA4E"/><stop offset="1" stop-color="#9BE251"/></radialGradient><radialGradient id="paint55_radial" cx="0" cy="0" r="1" gradientUnits="userSpaceOnUse" gradientTransform="matrix(6.05963 0 0 6.02317 39.031 35.459)"><stop offset=".5"/><stop offset=".585" stop-color="#020301"/><stop offset=".654" stop-color="#090D05"/><stop offset=".717" stop-color="#151E0B"/><stop offset=".776" stop-color="#253613"/><stop offset=".833" stop-color="#3A551E"/><stop offset=".888" stop-color="#547B2C"/><stop offset=".941" stop-color="#73A73C"/><stop offset=".993" stop-color="#96DA4E"/><stop offset="1" stop-color="#9BE251"/></radialGradient></defs></svg>