<svg width="768" height="534" fill="none" xmlns="http://www.w3.org/2000/svg"><g style="mix-blend-mode:lighten" opacity=".6" filter="url(#filter0_f)"><ellipse cx="208.5" cy="123.5" rx="145.5" ry="97.5" fill="#2C8DFE"/></g><g style="mix-blend-mode:color-dodge" filter="url(#filter1_f)"><path d="M67.57 97.879v70.924c0 .556-.186 1.019-.556 1.389-.37.37-.833.555-1.388.555h-5.72c-.519 0-.963-.185-1.333-.555-.37-.37-.556-.833-.556-1.389V97.879H33.748c-1.296 0-1.943-.704-1.943-2.11v-5.666c0-.555.166-1 .5-1.333.37-.333.85-.5 1.443-.5h57.98c.555 0 1.018.148 1.388.445.37.296.592.759.666 1.388v5.665c0 .63-.185 1.148-.555 1.555-.333.37-.833.556-1.5.556H73.462m56.657 5.887c4.554 0 8.867.87 12.94 2.61 4.11 1.741 7.701 4.166 10.774 7.276 3.073 3.11 5.479 6.721 7.22 10.83 1.74 4.073 2.61 8.35 2.61 12.83 0 3.11-.408 6.128-1.222 9.053a30.586 30.586 0 01-3.443 8.054c-3.036 4.998-7.09 8.942-12.163 11.83-5.183 2.999-10.755 4.498-16.716 4.498h-22.103c-1.888 0-2.832-.962-2.832-2.888V91.047c0-1.85.907-2.777 2.721-2.777h3.999c1.851 0 2.776.926 2.776 2.777v12.719m14.606 57.651c3.369 0 6.572-.611 9.608-1.833a25.212 25.212 0 008.052-5.165 23.248 23.248 0 005.387-7.72c1.296-2.926 1.944-6.054 1.944-9.387 0-3.332-.648-6.461-1.944-9.386a23.485 23.485 0 00-5.331-7.776 24.09 24.09 0 00-7.775-5.054 22.997 22.997 0 00-9.052-1.833h-15.496v48.154m66.865-62.45v-8.864c0-.555-.185-1-.555-1.333-.37-.333-.833-.5-1.389-.5h-5.886c-.556 0-1 .167-1.333.5-.296.334-.444.778-.444 1.333v78.812c0 1.221.592 1.832 1.777 1.832h5.886c1.296 0 1.944-.611 1.944-1.832V108.96" stroke="#00E0FF" stroke-width="8.425" stroke-linecap="round" stroke-linejoin="round"/></g><g style="mix-blend-mode:color-dodge" filter="url(#filter2_f)"><path d="M67.57 97.657v70.925c0 .555-.186 1.018-.556 1.388-.37.37-.833.556-1.388.556h-5.72a1.82 1.82 0 01-1.333-.556c-.37-.37-.556-.833-.556-1.388V97.657H33.748c-1.296 0-1.943-.703-1.943-2.11V89.88c0-.555.166-1 .5-1.333.37-.333.85-.5 1.443-.5h57.98c.555 0 1.018.149 1.388.445.37.296.592.759.666 1.388v5.665c0 .63-.185 1.148-.555 1.556-.333.37-.833.555-1.5.555H73.462m56.657 5.887c4.554 0 8.867.87 12.94 2.611 4.11 1.74 7.701 4.165 10.774 7.275 3.073 3.111 5.479 6.721 7.22 10.831 1.74 4.073 2.61 8.349 2.61 12.829 0 3.111-.408 6.128-1.222 9.053a30.572 30.572 0 01-3.443 8.054c-3.036 4.998-7.09 8.942-12.163 11.83-5.183 2.999-10.755 4.499-16.716 4.499h-22.103c-1.888 0-2.832-.963-2.832-2.889v-76.81c0-1.852.907-2.777 2.721-2.777h3.999c1.851 0 2.776.925 2.776 2.777v12.718m14.606 57.651c3.369 0 6.572-.611 9.608-1.833a25.212 25.212 0 008.052-5.165 23.248 23.248 0 005.387-7.72c1.296-2.925 1.944-6.054 1.944-9.387 0-3.332-.648-6.461-1.944-9.386a23.47 23.47 0 00-5.331-7.775 24.076 24.076 0 00-7.775-5.055 23.014 23.014 0 00-9.052-1.832h-15.496v48.153m66.865-62.45v-8.864c0-.555-.185-1-.555-1.333-.37-.333-.833-.5-1.389-.5h-5.886c-.556 0-1 .167-1.333.5-.296.334-.444.778-.444 1.333v78.812c0 1.222.592 1.833 1.777 1.833h5.886c1.296 0 1.944-.611 1.944-1.833v-59.955" stroke="#0094FF" stroke-width="11.086" stroke-linecap="round" stroke-linejoin="round"/></g><g style="mix-blend-mode:multiply" opacity=".2" filter="url(#filter3_f)"><path d="M67.738 102.015v70.925c0 .555-.185 1.018-.555 1.389-.37.37-.834.555-1.389.555h-5.72c-.518 0-.963-.185-1.333-.555-.37-.371-.555-.834-.555-1.389v-70.925h-24.27c-1.295 0-1.943-.703-1.943-2.11V94.24c0-.556.167-1 .5-1.333.37-.333.851-.5 1.444-.5h57.979c.555 0 1.018.148 1.388.444.37.296.593.76.667 1.389v5.665c0 .629-.185 1.148-.556 1.555-.333.37-.833.555-1.5.555H73.63m56.657 5.888c4.554 0 8.867.87 12.939 2.61 4.11 1.74 7.701 4.166 10.774 7.276 3.073 3.11 5.48 6.72 7.22 10.83 1.74 4.073 2.61 8.35 2.61 12.83 0 3.11-.407 6.128-1.222 9.053a30.546 30.546 0 01-3.443 8.053c-3.036 4.999-7.09 8.942-12.162 11.83-5.183 2.999-10.756 4.499-16.716 4.499h-22.104c-1.888 0-2.832-.963-2.832-2.888V95.184c0-1.851.907-2.777 2.721-2.777h3.999c1.851 0 2.777.926 2.777 2.777v12.719m14.606 57.65c3.369 0 6.571-.611 9.607-1.833a25.193 25.193 0 008.053-5.165 23.267 23.267 0 005.387-7.72c1.296-2.925 1.944-6.054 1.944-9.386 0-3.333-.648-6.461-1.944-9.386a23.492 23.492 0 00-5.332-7.776 24.074 24.074 0 00-7.775-5.054 22.993 22.993 0 00-9.052-1.833h-15.494v48.153m66.865-62.449V94.24c0-.556-.185-1-.556-1.333-.37-.333-.833-.5-1.388-.5h-5.887c-.555 0-1 .167-1.333.5-.296.333-.444.777-.444 1.333v78.811c0 1.222.592 1.833 1.777 1.833h5.887c1.296 0 1.944-.611 1.944-1.833v-59.954" stroke="#0085FF" stroke-width="2.528" stroke-linecap="round" stroke-linejoin="round"/></g><g style="mix-blend-mode:hard-light" filter="url(#filter4_dddii)"><path d="M67.791 97.87v70.925c0 .555-.185 1.018-.555 1.388-.37.37-.833.555-1.388.555h-5.72c-.519 0-.963-.185-1.333-.555-.37-.37-.556-.833-.556-1.388V97.87H33.97c-1.296 0-1.944-.704-1.944-2.11v-5.666c0-.555.167-1 .5-1.333.37-.333.852-.5 1.444-.5h57.98c.555 0 1.018.149 1.388.445.37.296.592.759.666 1.388v5.665c0 .63-.185 1.148-.555 1.555-.333.37-.833.556-1.5.556H73.683m56.657 5.887c4.554 0 8.867.87 12.94 2.611 4.11 1.74 7.701 4.165 10.774 7.275 3.073 3.111 5.479 6.721 7.22 10.831 1.74 4.073 2.61 8.349 2.61 12.829 0 3.111-.408 6.128-1.222 9.053a30.586 30.586 0 01-3.443 8.054c-3.036 4.998-7.09 8.942-12.163 11.83-5.183 2.999-10.755 4.498-16.716 4.498h-22.103c-1.888 0-2.832-.962-2.832-2.888V91.039c0-1.852.907-2.778 2.721-2.778h3.998c1.852 0 2.777.926 2.777 2.778v12.718m14.606 57.651c3.369 0 6.572-.611 9.608-1.833a25.212 25.212 0 008.052-5.165 23.248 23.248 0 005.387-7.72c1.296-2.926 1.944-6.054 1.944-9.387 0-3.332-.648-6.461-1.944-9.386a23.5 23.5 0 00-5.331-7.776 24.09 24.09 0 00-7.775-5.054 22.997 22.997 0 00-9.052-1.833h-15.495v48.154m66.865-62.45v-8.864c0-.555-.185-1-.555-1.333-.37-.333-.833-.5-1.389-.5h-5.886c-.556 0-1 .167-1.333.5-.296.334-.444.778-.444 1.333v78.812c0 1.221.592 1.832 1.777 1.832h5.886c1.296 0 1.944-.611 1.944-1.832v-59.955" stroke="#00B2FF" stroke-opacity=".2" stroke-width="8.425" stroke-linecap="round" stroke-linejoin="round"/></g><g filter="url(#filter5_f)"><path d="M67.703 97.906v70.924c0 .556-.185 1.018-.556 1.389-.37.37-.833.555-1.388.555h-5.72c-.519 0-.963-.185-1.333-.555-.37-.371-.555-.833-.555-1.389V97.905H33.88c-1.295 0-1.943-.703-1.943-2.11V90.13c0-.555.166-1 .5-1.333.37-.333.851-.5 1.444-.5H91.86c.555 0 1.018.148 1.388.444.37.297.593.76.666 1.389v5.665c0 .63-.185 1.148-.555 1.555-.333.37-.833.556-1.5.556H73.596m56.656 5.887c4.554 0 8.868.87 12.94 2.61 4.11 1.74 7.701 4.166 10.774 7.276 3.073 3.11 5.48 6.72 7.22 10.83 1.74 4.073 2.61 8.35 2.61 12.83 0 3.11-.407 6.128-1.222 9.053a30.532 30.532 0 01-3.443 8.053c-3.036 4.999-7.09 8.942-12.162 11.83-5.184 2.999-10.756 4.499-16.717 4.499h-22.103c-1.888 0-2.832-.963-2.832-2.888V91.074c0-1.851.907-2.777 2.721-2.777h3.999c1.851 0 2.777.926 2.777 2.777v12.719m14.605 57.65c3.37 0 6.572-.611 9.608-1.832a25.213 25.213 0 008.053-5.166 23.267 23.267 0 005.387-7.72c1.296-2.925 1.943-6.054 1.943-9.386 0-3.332-.647-6.461-1.943-9.386a23.503 23.503 0 00-5.332-7.776 24.09 24.09 0 00-7.775-5.054 22.997 22.997 0 00-9.052-1.833h-15.494v48.153m66.864-62.45V90.13c0-.555-.185-1-.555-1.333-.37-.333-.833-.5-1.388-.5h-5.887c-.555 0-1 .167-1.333.5-.296.333-.444.778-.444 1.333v78.811c0 1.222.592 1.833 1.777 1.833h5.887c1.296 0 1.943-.611 1.943-1.833v-59.954" stroke="#00D1FF" stroke-width="5.055" stroke-linecap="round" stroke-linejoin="round"/></g><g filter="url(#filter6_f)"><path d="M67.703 97.906v70.924c0 .556-.185 1.018-.556 1.389-.37.37-.833.555-1.388.555h-5.72c-.519 0-.963-.185-1.333-.555-.37-.371-.555-.833-.555-1.389V97.905H33.88c-1.295 0-1.943-.703-1.943-2.11V90.13c0-.555.166-1 .5-1.333.37-.333.851-.5 1.444-.5H91.86c.555 0 1.018.148 1.388.444.37.297.593.76.666 1.389v5.665c0 .63-.185 1.148-.555 1.555-.333.37-.833.556-1.5.556H73.596m56.656 5.887c4.554 0 8.868.87 12.94 2.61 4.11 1.74 7.701 4.166 10.774 7.276 3.073 3.11 5.48 6.72 7.22 10.83 1.74 4.073 2.61 8.35 2.61 12.83 0 3.11-.407 6.128-1.222 9.053a30.532 30.532 0 01-3.443 8.053c-3.036 4.999-7.09 8.942-12.162 11.83-5.184 2.999-10.756 4.499-16.717 4.499h-22.103c-1.888 0-2.832-.963-2.832-2.888V91.074c0-1.851.907-2.777 2.721-2.777h3.999c1.851 0 2.777.926 2.777 2.777v12.719m14.605 57.65c3.37 0 6.572-.611 9.608-1.832a25.213 25.213 0 008.053-5.166 23.267 23.267 0 005.387-7.72c1.296-2.925 1.943-6.054 1.943-9.386 0-3.332-.647-6.461-1.943-9.386a23.503 23.503 0 00-5.332-7.776 24.09 24.09 0 00-7.775-5.054 22.997 22.997 0 00-9.052-1.833h-15.494v48.153m66.864-62.45V90.13c0-.555-.185-1-.555-1.333-.37-.333-.833-.5-1.388-.5h-5.887c-.555 0-1 .167-1.333.5-.296.333-.444.778-.444 1.333v78.811c0 1.222.592 1.833 1.777 1.833h5.887c1.296 0 1.943-.611 1.943-1.833v-59.954" stroke="#fff" stroke-width="2.528" stroke-linecap="round" stroke-linejoin="round"/></g><g style="mix-blend-mode:color-dodge" filter="url(#filter7_f)"><path d="M284.093 139.767l14.376-20.126-7.393-12.732 20.536-25.054-13.143-31.626-14.376 31.626m-4.928 10.268l-9.858 22.179 7.393 10.679-22.589 36.143 11.5 7.804-17.251 28.34 32.858-30.804-8.625-11.911 4.107-4.518m6.133-79.031a60.978 60.978 0 00-5.391-.238c-17.107 0-32.551 7.133-43.525 18.592m83.456-3.456c9.788 8.67 16.742 20.474 19.293 33.844m-34.067 66.282a60.017 60.017 0 01-25.157 5.49c-2.364 0-4.696-.137-6.988-.401m-23.56-7.91c-17.802-10.495-29.748-29.883-29.748-52.065 0-1.615.063-3.215.187-4.798m2.815-16.664l-7.11-19.2h9.141l18.107 52.512L258.48 90.48h9.184l-23.617 63.662h-7.435l-14.433-38.977m118.594 52.184c0-3.027-.68-5.659-2.038-7.895-1.332-2.236-3.397-4.186-6.196-5.85-2.772-1.69-6.631-3.231-11.576-4.622-4.919-1.391-8.411-2.918-10.476-4.582-2.038-1.691-3.057-3.75-3.057-6.177 0-3.027 1.073-5.386 3.22-7.077 2.174-1.718 5.19-2.577 9.049-2.577 4.158 0 7.378 1.036 9.661 3.109 2.282 2.045 3.424 4.868 3.424 8.468h7.867c0-3.3-.884-6.341-2.65-9.122-1.739-2.782-4.212-4.964-7.419-6.546-3.179-1.581-6.807-2.372-10.883-2.372-5.978 0-10.842 1.541-14.593 4.622-3.722 3.055-5.584 6.927-5.584 11.618 0 4.145 1.522 7.636 4.565 10.472 3.071 2.809 7.962 5.182 14.675 7.118 5.353 1.555 9.049 3.136 11.087 4.745 2.038 1.582 3.057 3.832 3.057 6.75s-1.101 5.223-3.302 6.914c-2.201 1.69-5.367 2.536-9.497 2.536-4.43 0-7.976-1.037-10.639-3.109-2.636-2.1-3.954-4.95-3.954-8.55h-7.867c0 3.464.951 6.559 2.853 9.286 1.93 2.727 4.661 4.882 8.193 6.464 3.533 1.554 7.338 2.331 11.414 2.331 6.277 0 11.291-1.445 15.041-4.336" stroke="#FB37FF" stroke-width="8.425" stroke-linecap="round" stroke-linejoin="round"/></g><g style="mix-blend-mode:color-dodge" filter="url(#filter8_f)"><path d="M284.093 139.539l14.376-20.125-7.393-12.732 20.536-25.055-13.143-31.625-14.376 31.625m-4.928 10.269l-9.858 22.179 7.393 10.678-22.589 36.144 11.5 7.803-17.251 28.34 32.858-30.804-8.625-11.911 4.107-4.518m6.133-79.031a61.016 61.016 0 00-5.391-.238c-17.107 0-32.551 7.134-43.525 18.593m83.456-3.457c9.788 8.67 16.742 20.475 19.293 33.845M302.599 185.8c-7.657 3.525-16.178 5.49-25.157 5.49-2.364 0-4.696-.136-6.988-.401m-23.56-7.909c-17.802-10.495-29.748-29.884-29.748-52.066 0-1.615.063-3.215.187-4.798m2.815-16.664l-7.11-19.2h9.141l18.107 52.513 18.194-52.512h9.184l-23.617 63.661h-7.435l-14.433-38.976m118.594 52.184c0-3.027-.68-5.659-2.038-7.895-1.332-2.237-3.397-4.186-6.196-5.85-2.772-1.691-6.631-3.232-11.576-4.623-4.919-1.39-8.411-2.918-10.476-4.581-2.038-1.691-3.057-3.75-3.057-6.177 0-3.027 1.073-5.386 3.22-7.077 2.174-1.718 5.19-2.577 9.049-2.577 4.158 0 7.378 1.036 9.661 3.109 2.282 2.045 3.424 4.868 3.424 8.467h7.867c0-3.299-.884-6.34-2.65-9.122-1.739-2.782-4.212-4.963-7.419-6.545-3.179-1.582-6.807-2.373-10.883-2.373-5.978 0-10.842 1.541-14.593 4.623-3.722 3.054-5.584 6.927-5.584 11.617 0 4.146 1.522 7.637 4.565 10.473 3.071 2.809 7.962 5.181 14.675 7.118 5.353 1.554 9.049 3.136 11.087 4.745 2.038 1.582 3.057 3.832 3.057 6.75s-1.101 5.222-3.302 6.913c-2.201 1.691-5.367 2.536-9.497 2.536-4.43 0-7.976-1.036-10.639-3.109-2.636-2.1-3.954-4.95-3.954-8.549h-7.867c0 3.463.951 6.558 2.853 9.286 1.93 2.727 4.661 4.881 8.193 6.463 3.533 1.554 7.338 2.332 11.414 2.332 6.277 0 11.291-1.446 15.041-4.336" stroke="#FF00B8" stroke-width="11.086" stroke-linecap="round" stroke-linejoin="round"/></g><g style="mix-blend-mode:multiply" opacity=".2" filter="url(#filter9_f)"><path d="M284.266 144.01l14.375-20.125-7.393-12.732 20.536-25.054-13.143-31.626-14.375 31.626m-4.929 10.268l-9.857 22.179 7.393 10.678-22.59 36.144 11.501 7.804-17.251 28.339 32.858-30.804-8.625-11.911 4.107-4.518m6.132-79.03a60.994 60.994 0 00-5.39-.239c-17.108 0-32.551 7.134-43.525 18.593m83.456-3.457c9.788 8.67 16.742 20.475 19.292 33.845m-34.067 66.281c-7.656 3.525-16.177 5.49-25.156 5.49-2.364 0-4.696-.136-6.988-.401m-23.56-7.909c-17.802-10.495-29.749-29.884-29.749-52.066 0-1.615.064-3.215.188-4.798m2.815-16.664l-7.11-19.2h9.141l18.107 52.513 18.194-52.512h9.184l-23.617 63.662h-7.435l-14.433-38.977m118.594 52.184c0-3.027-.68-5.659-2.038-7.895-1.332-2.237-3.397-4.186-6.196-5.85-2.772-1.691-6.631-3.232-11.576-4.623-4.919-1.39-8.411-2.918-10.476-4.581-2.038-1.691-3.057-3.75-3.057-6.177 0-3.027 1.073-5.386 3.22-7.077 2.174-1.718 5.19-2.577 9.049-2.577 4.158 0 7.378 1.036 9.66 3.109 2.283 2.045 3.424 4.868 3.424 8.467h7.867c0-3.299-.883-6.34-2.649-9.122-1.739-2.782-4.212-4.963-7.419-6.545-3.179-1.582-6.807-2.373-10.883-2.373-5.978 0-10.843 1.541-14.593 4.623-3.723 3.054-5.584 6.927-5.584 11.618 0 4.145 1.522 7.636 4.565 10.472 3.071 2.809 7.962 5.181 14.674 7.118 5.354 1.554 9.049 3.136 11.088 4.745 2.038 1.582 3.057 3.832 3.057 6.75s-1.101 5.222-3.302 6.913c-2.201 1.691-5.367 2.536-9.497 2.536-4.43 0-7.976-1.036-10.639-3.109-2.636-2.1-3.954-4.949-3.954-8.549h-7.867c0 3.463.951 6.559 2.853 9.286 1.93 2.727 4.661 4.881 8.193 6.463 3.533 1.555 7.337 2.332 11.414 2.332 6.277 0 11.291-1.446 15.041-4.336" stroke="#FA00FF" stroke-width="2.528" stroke-linecap="round" stroke-linejoin="round"/></g><g style="mix-blend-mode:hard-light" filter="url(#filter10_dddii)"><path d="M284.321 139.758l14.375-20.126-7.393-12.732 20.536-25.054-13.143-31.626-14.375 31.626m-4.929 10.268l-9.857 22.179 7.393 10.679-22.59 36.143 11.501 7.804-17.251 28.34 32.858-30.804-8.625-11.911 4.107-4.518m6.132-79.032a61.01 61.01 0 00-5.39-.238c-17.108 0-32.551 7.134-43.525 18.593m83.456-3.456c9.788 8.669 16.742 20.474 19.292 33.844m-34.067 66.282c-7.656 3.524-16.177 5.49-25.156 5.49-2.364 0-4.696-.137-6.988-.402m-23.56-7.909c-17.802-10.495-29.749-29.883-29.749-52.066 0-1.614.064-3.215.188-4.798m2.815-16.663l-7.11-19.2h9.141l18.107 52.512 18.194-52.512h9.184l-23.617 63.662h-7.435l-14.433-38.977m118.594 52.184c0-3.027-.68-5.659-2.039-7.895-1.331-2.236-3.396-4.186-6.195-5.85-2.772-1.691-6.631-3.231-11.577-4.622-4.918-1.391-8.41-2.918-10.475-4.582-2.038-1.691-3.057-3.75-3.057-6.177 0-3.027 1.073-5.386 3.22-7.077 2.174-1.718 5.19-2.577 9.049-2.577 4.157 0 7.378 1.036 9.66 3.109 2.283 2.045 3.424 4.868 3.424 8.468h7.867c0-3.3-.883-6.341-2.649-9.123-1.739-2.781-4.212-4.963-7.419-6.545-3.179-1.582-6.807-2.372-10.883-2.372-5.979 0-10.843 1.54-14.593 4.622-3.723 3.055-5.584 6.927-5.584 11.618 0 4.145 1.522 7.636 4.565 10.472 3.071 2.809 7.962 5.182 14.674 7.118 5.354 1.555 9.049 3.136 11.087 4.745 2.039 1.582 3.058 3.832 3.058 6.75s-1.101 5.223-3.302 6.913c-2.201 1.691-5.367 2.537-9.498 2.537-4.429 0-7.975-1.037-10.638-3.109-2.636-2.1-3.954-4.95-3.954-8.55h-7.867c0 3.464.951 6.559 2.853 9.286 1.929 2.727 4.661 4.882 8.193 6.463 3.533 1.555 7.337 2.332 11.413 2.332 6.278 0 11.291-1.445 15.041-4.336" stroke="#FA00FF" stroke-opacity=".2" stroke-width="8.425" stroke-linecap="round" stroke-linejoin="round"/></g><g filter="url(#filter11_f)"><path d="M284.23 139.794l14.375-20.125-7.393-12.732 20.536-25.055-13.143-31.625-14.375 31.625m-4.929 10.268l-9.857 22.18 7.393 10.678-22.59 36.144 11.501 7.803-17.251 28.34 32.858-30.804-8.625-11.911 4.107-4.518m6.132-79.031a61.01 61.01 0 00-5.39-.238c-17.108 0-32.551 7.134-43.525 18.593m83.456-3.456c9.788 8.669 16.742 20.474 19.292 33.844m-34.067 66.281c-7.656 3.525-16.177 5.49-25.156 5.49-2.364 0-4.696-.136-6.988-.401m-23.56-7.909c-17.802-10.495-29.749-29.884-29.749-52.066 0-1.615.064-3.215.188-4.798m2.815-16.664l-7.11-19.2h9.141l18.107 52.513 18.194-52.512h9.184l-23.617 63.661h-7.435l-14.433-38.976m118.594 52.184c0-3.027-.68-5.659-2.039-7.895-1.331-2.237-3.396-4.187-6.195-5.85-2.772-1.691-6.631-3.232-11.577-4.623-4.918-1.39-8.41-2.918-10.475-4.581-2.038-1.691-3.057-3.75-3.057-6.177 0-3.027 1.073-5.386 3.22-7.077 2.174-1.718 5.19-2.577 9.049-2.577 4.157 0 7.378 1.036 9.66 3.109 2.283 2.045 3.424 4.868 3.424 8.467h7.867c0-3.299-.883-6.34-2.649-9.122-1.739-2.782-4.212-4.963-7.419-6.545-3.179-1.582-6.807-2.373-10.883-2.373-5.979 0-10.843 1.541-14.593 4.623-3.723 3.054-5.584 6.927-5.584 11.617 0 4.146 1.522 7.637 4.565 10.473 3.071 2.809 7.962 5.181 14.674 7.118 5.354 1.554 9.049 3.136 11.087 4.745 2.039 1.582 3.058 3.832 3.058 6.75s-1.101 5.222-3.302 6.913c-2.201 1.691-5.367 2.536-9.498 2.536-4.429 0-7.975-1.036-10.638-3.109-2.636-2.1-3.954-4.95-3.954-8.549h-7.867c0 3.463.951 6.558 2.853 9.286 1.929 2.727 4.661 4.881 8.193 6.463 3.533 1.554 7.337 2.332 11.413 2.332 6.278 0 11.291-1.446 15.041-4.336" stroke="#FF347D" stroke-width="5.055" stroke-linecap="round" stroke-linejoin="round"/></g><g filter="url(#filter12_f)"><path d="M284.23 139.794l14.375-20.125-7.393-12.732 20.536-25.055-13.143-31.625-14.375 31.625m-4.929 10.268l-9.857 22.18 7.393 10.678-22.59 36.144 11.501 7.803-17.251 28.34 32.858-30.804-8.625-11.911 4.107-4.518m6.132-79.031a61.01 61.01 0 00-5.39-.238c-17.108 0-32.551 7.134-43.525 18.593m83.456-3.456c9.788 8.669 16.742 20.474 19.292 33.844m-34.067 66.281c-7.656 3.525-16.177 5.49-25.156 5.49-2.364 0-4.696-.136-6.988-.401m-23.56-7.909c-17.802-10.495-29.749-29.884-29.749-52.066 0-1.615.064-3.215.188-4.798m2.815-16.664l-7.11-19.2h9.141l18.107 52.513 18.194-52.512h9.184l-23.617 63.661h-7.435l-14.433-38.976m118.594 52.184c0-3.027-.68-5.659-2.039-7.895-1.331-2.237-3.396-4.187-6.195-5.85-2.772-1.691-6.631-3.232-11.577-4.623-4.918-1.39-8.41-2.918-10.475-4.581-2.038-1.691-3.057-3.75-3.057-6.177 0-3.027 1.073-5.386 3.22-7.077 2.174-1.718 5.19-2.577 9.049-2.577 4.157 0 7.378 1.036 9.66 3.109 2.283 2.045 3.424 4.868 3.424 8.467h7.867c0-3.299-.883-6.34-2.649-9.122-1.739-2.782-4.212-4.963-7.419-6.545-3.179-1.582-6.807-2.373-10.883-2.373-5.979 0-10.843 1.541-14.593 4.623-3.723 3.054-5.584 6.927-5.584 11.617 0 4.146 1.522 7.637 4.565 10.473 3.071 2.809 7.962 5.181 14.674 7.118 5.354 1.554 9.049 3.136 11.087 4.745 2.039 1.582 3.058 3.832 3.058 6.75s-1.101 5.222-3.302 6.913c-2.201 1.691-5.367 2.536-9.498 2.536-4.429 0-7.975-1.036-10.638-3.109-2.636-2.1-3.954-4.95-3.954-8.549h-7.867c0 3.463.951 6.558 2.853 9.286 1.929 2.727 4.661 4.881 8.193 6.463 3.533 1.554 7.337 2.332 11.413 2.332 6.278 0 11.291-1.446 15.041-4.336" stroke="#fff" stroke-width="2.528" stroke-linecap="round" stroke-linejoin="round"/></g><g style="mix-blend-mode:screen" opacity=".3" filter="url(#filter13_f)"><ellipse cx="544.5" cy="137" rx="203.5" ry="92" fill="#FE0707"/></g><g style="mix-blend-mode:color-dodge" filter="url(#filter14_f)"><path d="M454.297 154.032v11.976c0 1.743-.877 2.614-2.63 2.614h-3.786c-1.718 0-2.577-.871-2.577-2.614V93.683c0-1.813.894-2.72 2.682-2.72h20.93c5.609 0 10.885 1.395 15.829 4.184 4.803 2.754 8.641 6.485 11.516 11.191 1.438 2.336 2.524 4.881 3.261 7.635a30.916 30.916 0 011.157 8.472c0 4.219-.824 8.246-2.472 12.081a31.268 31.268 0 01-6.836 10.145 32.905 32.905 0 01-10.202 6.903c-3.857 1.639-7.941 2.458-12.253 2.458h-8.088m-6.531-54.283v45.34h14.671c2.98 0 5.838-.575 8.572-1.725a23.56 23.56 0 007.362-4.812 22.25 22.25 0 005.049-7.269c1.227-2.754 1.84-5.7 1.84-8.838 0-3.172-.613-6.136-1.84-8.89a21.902 21.902 0 00-5.101-7.269c-2.174-2.057-4.698-3.661-7.573-4.811-2.875-1.151-5.925-1.726-9.15-1.726h-6.386m137.734.262v66.363c0 .592-.245 1.115-.736 1.569-.456.453-.964.679-1.525.679h-4.628c-.526 0-1.034-.209-1.525-.627-.455-.453-.683-.941-.683-1.464V92.794c0-1.22.561-1.83 1.682-1.83h53.061c1.122 0 1.683.61 1.683 1.83v73.737c0 .557-.228 1.045-.684 1.464-.456.418-.964.627-1.525.627h-4.575c-.561 0-1.087-.226-1.578-.679-.455-.454-.683-.977-.683-1.569v-66.363h-31.768m-80.89 30.394l-4.241 2.918v33.574c0 1.15-.561 1.725-1.683 1.725h-5.416c-1.298 0-1.946-.575-1.946-1.725V92.689c0-.488.193-.889.578-1.203a1.974 1.974 0 011.368-.523h5.416c.526 0 .929.157 1.21.471.315.314.473.732.473 1.255v29.652l44.121-30.907c.56-.314 1.121-.47 1.682-.47h5.522c.526 0 .929.156 1.209.47.316.314.474.732.474 1.255v74.208c0 1.15-.561 1.725-1.683 1.725h-5.417c-1.262 0-1.893-.575-1.893-1.725v-63.853l-32.835 22.588m-148.838 36.09v5.175c0 .488.158.906.473 1.255.351.313.807.47 1.367.47h5.522c1.122 0 1.683-.575 1.683-1.725v-66.886h38.652c.49 0 .894-.175 1.209-.523.351-.35.526-.802.526-1.36v-5.439c0-.488-.175-.889-.526-1.203-.315-.348-.719-.523-1.209-.523h-45.962c-1.157 0-1.735.576-1.735 1.726v63.586m289.311-56.264v66.363c0 .592-.245 1.115-.736 1.569-.456.453-.964.679-1.525.679h-4.628c-.526 0-1.034-.209-1.525-.627-.456-.453-.683-.941-.683-1.464V92.794c0-1.22.561-1.83 1.682-1.83h53.061c1.122 0 1.683.61 1.683 1.83v73.737c0 .557-.228 1.045-.684 1.464-.456.418-.964.627-1.525.627h-4.575c-.561 0-1.087-.226-1.578-.679-.455-.454-.683-.977-.683-1.569v-66.363h-31.768" stroke="#FFE600" stroke-width="15.201" stroke-linecap="round" stroke-linejoin="round"/></g><g style="mix-blend-mode:color-dodge" filter="url(#filter15_f)"><path d="M454.297 154.032v11.976c0 1.743-.877 2.614-2.63 2.614h-3.786c-1.718 0-2.577-.871-2.577-2.614V93.683c0-1.813.894-2.72 2.682-2.72h20.93c5.609 0 10.885 1.395 15.829 4.184 4.803 2.754 8.641 6.485 11.516 11.191 1.438 2.336 2.524 4.881 3.261 7.635a30.916 30.916 0 011.157 8.472c0 4.219-.824 8.246-2.472 12.081a31.268 31.268 0 01-6.836 10.145 32.905 32.905 0 01-10.202 6.903c-3.857 1.639-7.941 2.458-12.253 2.458h-8.088m-6.531-54.283v45.34h14.671c2.98 0 5.838-.575 8.572-1.725a23.56 23.56 0 007.362-4.812 22.25 22.25 0 005.049-7.269c1.227-2.754 1.84-5.7 1.84-8.838 0-3.172-.613-6.136-1.84-8.89a21.902 21.902 0 00-5.101-7.269c-2.174-2.057-4.698-3.661-7.573-4.811-2.875-1.151-5.925-1.726-9.15-1.726h-6.386m137.734.262v66.363c0 .592-.245 1.115-.736 1.569-.456.453-.964.679-1.525.679h-4.628c-.526 0-1.034-.209-1.525-.627-.455-.453-.683-.941-.683-1.464V92.794c0-1.22.561-1.83 1.682-1.83h53.061c1.122 0 1.683.61 1.683 1.83v73.737c0 .557-.228 1.045-.684 1.464-.456.418-.964.627-1.525.627h-4.575c-.561 0-1.087-.226-1.578-.679-.455-.454-.683-.977-.683-1.569v-66.363h-31.768m-80.89 30.394l-4.241 2.918v33.574c0 1.15-.561 1.725-1.683 1.725h-5.416c-1.298 0-1.946-.575-1.946-1.725V92.689c0-.488.193-.889.578-1.203a1.974 1.974 0 011.368-.523h5.416c.526 0 .929.157 1.21.471.315.314.473.732.473 1.255v29.652l44.121-30.907c.56-.314 1.121-.47 1.682-.47h5.522c.526 0 .929.156 1.209.47.316.314.474.732.474 1.255v74.208c0 1.15-.561 1.725-1.683 1.725h-5.417c-1.262 0-1.893-.575-1.893-1.725v-63.853l-32.835 22.588m-148.838 36.09v5.175c0 .488.158.906.473 1.255.351.313.807.47 1.367.47h5.522c1.122 0 1.683-.575 1.683-1.725v-66.886h38.652c.49 0 .894-.175 1.209-.523.351-.35.526-.802.526-1.36v-5.439c0-.488-.175-.889-.526-1.203-.315-.348-.719-.523-1.209-.523h-45.962c-1.157 0-1.735.576-1.735 1.726v63.586m289.311-56.264v66.363c0 .592-.245 1.115-.736 1.569-.456.453-.964.679-1.525.679h-4.628c-.526 0-1.034-.209-1.525-.627-.456-.453-.683-.941-.683-1.464V92.794c0-1.22.561-1.83 1.682-1.83h53.061c1.122 0 1.683.61 1.683 1.83v73.737c0 .557-.228 1.045-.684 1.464-.456.418-.964.627-1.525.627h-4.575c-.561 0-1.087-.226-1.578-.679-.455-.454-.683-.977-.683-1.569v-66.363h-31.768" stroke="red" stroke-width="20" stroke-linecap="round" stroke-linejoin="round"/></g><g style="mix-blend-mode:multiply" opacity=".2" filter="url(#filter16_f)"><path d="M454.297 161.032v11.976c0 1.743-.877 2.614-2.63 2.614h-3.786c-1.718 0-2.577-.871-2.577-2.614v-72.325c0-1.813.894-2.72 2.682-2.72h20.93c5.609 0 10.885 1.395 15.829 4.184 4.803 2.754 8.641 6.485 11.516 11.191 1.438 2.336 2.524 4.881 3.261 7.635a30.916 30.916 0 011.157 8.472c0 4.219-.824 8.246-2.472 12.081a31.268 31.268 0 01-6.836 10.145 32.905 32.905 0 01-10.202 6.903c-3.857 1.639-7.941 2.458-12.253 2.458h-8.088m-6.531-54.283v45.34h14.671c2.98 0 5.838-.575 8.572-1.725a23.56 23.56 0 007.362-4.812 22.25 22.25 0 005.049-7.269c1.227-2.754 1.84-5.7 1.84-8.838 0-3.172-.613-6.136-1.84-8.89a21.902 21.902 0 00-5.101-7.269c-2.174-2.057-4.698-3.661-7.573-4.811-2.875-1.151-5.925-1.726-9.15-1.726h-6.386m137.734.262v66.363c0 .592-.245 1.115-.736 1.569-.456.453-.964.679-1.525.679h-4.628c-.526 0-1.034-.209-1.525-.627-.455-.453-.683-.941-.683-1.464V99.794c0-1.22.561-1.83 1.682-1.83h53.061c1.122 0 1.683.61 1.683 1.83v73.737c0 .557-.228 1.045-.684 1.464-.456.418-.964.627-1.525.627h-4.575c-.561 0-1.087-.226-1.578-.679-.455-.454-.683-.977-.683-1.569v-66.363h-31.768m-80.89 30.394l-4.241 2.918v33.574c0 1.15-.561 1.725-1.683 1.725h-5.416c-1.298 0-1.946-.575-1.946-1.725V99.689c0-.488.193-.889.578-1.203a1.974 1.974 0 011.368-.523h5.416c.526 0 .929.157 1.21.471.315.314.473.732.473 1.255v29.652l44.121-30.907c.56-.314 1.121-.47 1.682-.47h5.522c.526 0 .929.156 1.209.47.316.314.474.732.474 1.255v74.208c0 1.15-.561 1.725-1.683 1.725h-5.417c-1.262 0-1.893-.575-1.893-1.725v-63.853l-32.835 22.588m-148.838 36.09v5.175c0 .488.158.906.473 1.255.351.313.807.47 1.367.47h5.522c1.122 0 1.683-.575 1.683-1.725v-66.886h38.652c.49 0 .894-.175 1.209-.523.351-.349.526-.802.526-1.36v-5.439c0-.488-.175-.889-.526-1.203-.315-.348-.719-.523-1.209-.523h-45.962c-1.157 0-1.735.576-1.735 1.726v63.586m289.311-56.264v66.363c0 .592-.245 1.115-.736 1.569-.456.453-.964.679-1.525.679h-4.628c-.526 0-1.034-.209-1.525-.627-.456-.453-.683-.941-.683-1.464V99.794c0-1.22.561-1.83 1.682-1.83h53.061c1.122 0 1.683.61 1.683 1.83v73.737c0 .557-.228 1.045-.684 1.464-.456.418-.964.627-1.525.627h-4.575c-.561 0-1.087-.226-1.578-.679-.455-.454-.683-.977-.683-1.569v-66.363h-31.768" stroke="#0085FF" stroke-width="4.56" stroke-linecap="round" stroke-linejoin="round"/></g><g style="mix-blend-mode:hard-light" filter="url(#filter17_dddii)"><path d="M454.297 154.032v11.976c0 1.743-.877 2.614-2.63 2.614h-3.786c-1.718 0-2.577-.871-2.577-2.614V93.683c0-1.813.894-2.72 2.682-2.72h20.93c5.609 0 10.885 1.395 15.829 4.184 4.803 2.754 8.641 6.485 11.516 11.191 1.438 2.336 2.524 4.881 3.261 7.635a30.916 30.916 0 011.157 8.472c0 4.219-.824 8.246-2.472 12.081a31.268 31.268 0 01-6.836 10.145 32.905 32.905 0 01-10.202 6.903c-3.857 1.639-7.941 2.458-12.253 2.458h-8.088m-6.531-54.283v45.34h14.671c2.98 0 5.838-.575 8.572-1.725a23.56 23.56 0 007.362-4.812 22.25 22.25 0 005.049-7.269c1.227-2.754 1.84-5.7 1.84-8.838 0-3.172-.613-6.136-1.84-8.89a21.902 21.902 0 00-5.101-7.269c-2.174-2.057-4.698-3.661-7.573-4.811-2.875-1.151-5.925-1.726-9.15-1.726h-6.386m137.734.262v66.363c0 .592-.245 1.115-.736 1.569-.456.453-.964.679-1.525.679h-4.628c-.526 0-1.034-.209-1.525-.627-.455-.453-.683-.941-.683-1.464V92.794c0-1.22.561-1.83 1.682-1.83h53.061c1.122 0 1.683.61 1.683 1.83v73.737c0 .557-.228 1.045-.684 1.464-.456.418-.964.627-1.525.627h-4.575c-.561 0-1.087-.226-1.578-.679-.455-.454-.683-.977-.683-1.569v-66.363h-31.768m-80.89 30.394l-4.241 2.918v33.574c0 1.15-.561 1.725-1.683 1.725h-5.416c-1.298 0-1.946-.575-1.946-1.725V92.689c0-.488.193-.889.578-1.203a1.974 1.974 0 011.368-.523h5.416c.526 0 .929.157 1.21.471.315.314.473.732.473 1.255v29.652l44.121-30.907c.56-.314 1.121-.47 1.682-.47h5.522c.526 0 .929.156 1.209.47.316.314.474.732.474 1.255v74.208c0 1.15-.561 1.725-1.683 1.725h-5.417c-1.262 0-1.893-.575-1.893-1.725v-63.853l-32.835 22.588m-148.838 36.09v5.175c0 .488.158.906.473 1.255.351.313.807.47 1.367.47h5.522c1.122 0 1.683-.575 1.683-1.725v-66.886h38.652c.49 0 .894-.175 1.209-.523.351-.35.526-.802.526-1.36v-5.439c0-.488-.175-.889-.526-1.203-.315-.348-.719-.523-1.209-.523h-45.962c-1.157 0-1.735.576-1.735 1.726v63.586m289.311-56.264v66.363c0 .592-.245 1.115-.736 1.569-.456.453-.964.679-1.525.679h-4.628c-.526 0-1.034-.209-1.525-.627-.456-.453-.683-.941-.683-1.464V92.794c0-1.22.561-1.83 1.682-1.83h53.061c1.122 0 1.683.61 1.683 1.83v73.737c0 .557-.228 1.045-.684 1.464-.456.418-.964.627-1.525.627h-4.575c-.561 0-1.087-.226-1.578-.679-.455-.454-.683-.977-.683-1.569v-66.363h-31.768" stroke="red" stroke-opacity=".2" stroke-width="15.201" stroke-linecap="round" stroke-linejoin="round"/></g><g filter="url(#filter18_f)"><path d="M454.297 154.032v11.976c0 1.743-.877 2.614-2.63 2.614h-3.786c-1.718 0-2.577-.871-2.577-2.614V93.683c0-1.813.894-2.72 2.682-2.72h20.93c5.609 0 10.885 1.395 15.829 4.184 4.803 2.754 8.641 6.485 11.516 11.191 1.438 2.336 2.524 4.881 3.261 7.635a30.916 30.916 0 011.157 8.472c0 4.219-.824 8.246-2.472 12.081a31.268 31.268 0 01-6.836 10.145 32.905 32.905 0 01-10.202 6.903c-3.857 1.639-7.941 2.458-12.253 2.458h-8.088m-6.531-54.283v45.34h14.671c2.98 0 5.838-.575 8.572-1.725a23.56 23.56 0 007.362-4.812 22.25 22.25 0 005.049-7.269c1.227-2.754 1.84-5.7 1.84-8.838 0-3.172-.613-6.136-1.84-8.89a21.902 21.902 0 00-5.101-7.269c-2.174-2.057-4.698-3.661-7.573-4.811-2.875-1.151-5.925-1.726-9.15-1.726h-6.386m137.734.262v66.363c0 .592-.245 1.115-.736 1.569-.456.453-.964.679-1.525.679h-4.628c-.526 0-1.034-.209-1.525-.627-.455-.453-.683-.941-.683-1.464V92.794c0-1.22.561-1.83 1.682-1.83h53.061c1.122 0 1.683.61 1.683 1.83v73.737c0 .557-.228 1.045-.684 1.464-.456.418-.964.627-1.525.627h-4.575c-.561 0-1.087-.226-1.578-.679-.455-.454-.683-.977-.683-1.569v-66.363h-31.768m-80.89 30.394l-4.241 2.918v33.574c0 1.15-.561 1.725-1.683 1.725h-5.416c-1.298 0-1.946-.575-1.946-1.725V92.689c0-.488.193-.889.578-1.203a1.974 1.974 0 011.368-.523h5.416c.526 0 .929.157 1.21.471.315.314.473.732.473 1.255v29.652l44.121-30.907c.56-.314 1.121-.47 1.682-.47h5.522c.526 0 .929.156 1.209.47.316.314.474.732.474 1.255v74.208c0 1.15-.561 1.725-1.683 1.725h-5.417c-1.262 0-1.893-.575-1.893-1.725v-63.853l-32.835 22.588m-148.838 36.09v5.175c0 .488.158.906.473 1.255.351.313.807.47 1.367.47h5.522c1.122 0 1.683-.575 1.683-1.725v-66.886h38.652c.49 0 .894-.175 1.209-.523.351-.35.526-.802.526-1.36v-5.439c0-.488-.175-.889-.526-1.203-.315-.348-.719-.523-1.209-.523h-45.962c-1.157 0-1.735.576-1.735 1.726v63.586m289.311-56.264v66.363c0 .592-.245 1.115-.736 1.569-.456.453-.964.679-1.525.679h-4.628c-.526 0-1.034-.209-1.525-.627-.456-.453-.683-.941-.683-1.464V92.794c0-1.22.561-1.83 1.682-1.83h53.061c1.122 0 1.683.61 1.683 1.83v73.737c0 .557-.228 1.045-.684 1.464-.456.418-.964.627-1.525.627h-4.575c-.561 0-1.087-.226-1.578-.679-.455-.454-.683-.977-.683-1.569v-66.363h-31.768" stroke="#FF9983" stroke-width="9.12" stroke-linecap="round" stroke-linejoin="round"/></g><g filter="url(#filter19_f)"><path d="M454.297 154.032v11.976c0 1.743-.877 2.614-2.63 2.614h-3.786c-1.718 0-2.577-.871-2.577-2.614V93.683c0-1.813.894-2.72 2.682-2.72h20.93c5.609 0 10.885 1.395 15.829 4.184 4.803 2.754 8.641 6.485 11.516 11.191 1.438 2.336 2.524 4.881 3.261 7.635a30.916 30.916 0 011.157 8.472c0 4.219-.824 8.246-2.472 12.081a31.268 31.268 0 01-6.836 10.145 32.905 32.905 0 01-10.202 6.903c-3.857 1.639-7.941 2.458-12.253 2.458h-8.088m-6.531-54.283v45.34h14.671c2.98 0 5.838-.575 8.572-1.725a23.56 23.56 0 007.362-4.812 22.25 22.25 0 005.049-7.269c1.227-2.754 1.84-5.7 1.84-8.838 0-3.172-.613-6.136-1.84-8.89a21.902 21.902 0 00-5.101-7.269c-2.174-2.057-4.698-3.661-7.573-4.811-2.875-1.151-5.925-1.726-9.15-1.726h-6.386m137.734.262v66.363c0 .592-.245 1.115-.736 1.569-.456.453-.964.679-1.525.679h-4.628c-.526 0-1.034-.209-1.525-.627-.455-.453-.683-.941-.683-1.464V92.794c0-1.22.561-1.83 1.682-1.83h53.061c1.122 0 1.683.61 1.683 1.83v73.737c0 .557-.228 1.045-.684 1.464-.456.418-.964.627-1.525.627h-4.575c-.561 0-1.087-.226-1.578-.679-.455-.454-.683-.977-.683-1.569v-66.363h-31.768m-80.89 30.394l-4.241 2.918v33.574c0 1.15-.561 1.725-1.683 1.725h-5.416c-1.298 0-1.946-.575-1.946-1.725V92.689c0-.488.193-.889.578-1.203a1.974 1.974 0 011.368-.523h5.416c.526 0 .929.157 1.21.471.315.314.473.732.473 1.255v29.652l44.121-30.907c.56-.314 1.121-.47 1.682-.47h5.522c.526 0 .929.156 1.209.47.316.314.474.732.474 1.255v74.208c0 1.15-.561 1.725-1.683 1.725h-5.417c-1.262 0-1.893-.575-1.893-1.725v-63.853l-32.835 22.588m-148.838 36.09v5.175c0 .488.158.906.473 1.255.351.313.807.47 1.367.47h5.522c1.122 0 1.683-.575 1.683-1.725v-66.886h38.652c.49 0 .894-.175 1.209-.523.351-.35.526-.802.526-1.36v-5.439c0-.488-.175-.889-.526-1.203-.315-.348-.719-.523-1.209-.523h-45.962c-1.157 0-1.735.576-1.735 1.726v63.586m289.311-56.264v66.363c0 .592-.245 1.115-.736 1.569-.456.453-.964.679-1.525.679h-4.628c-.526 0-1.034-.209-1.525-.627-.456-.453-.683-.941-.683-1.464V92.794c0-1.22.561-1.83 1.682-1.83h53.061c1.122 0 1.683.61 1.683 1.83v73.737c0 .557-.228 1.045-.684 1.464-.456.418-.964.627-1.525.627h-4.575c-.561 0-1.087-.226-1.578-.679-.455-.454-.683-.977-.683-1.569v-66.363h-31.768" stroke="#fff" stroke-width="4.56" stroke-linecap="round" stroke-linejoin="round"/></g><defs><filter id="filter1_f" x="-14.536" y="41.93" width="242.42" height="175.157" filterUnits="userSpaceOnUse" color-interpolation-filters="sRGB"><feFlood flood-opacity="0" result="BackgroundImageFix"/><feBlend in="SourceGraphic" in2="BackgroundImageFix" result="shape"/><feGaussianBlur stdDeviation="21.064" result="effect1_foregroundBlur"/></filter><filter id="filter10_dddii" x="158.501" y="12.306" width="237.265" height="256.569" filterUnits="userSpaceOnUse" color-interpolation-filters="sRGB"><feFlood flood-opacity="0" result="BackgroundImageFix"/><feColorMatrix in="SourceAlpha" values="0 0 0 0 0 0 0 0 0 0 0 0 0 0 0 0 0 0 127 0"/><feOffset dy="8.425"/><feGaussianBlur stdDeviation="3.37"/><feColorMatrix values="0 0 0 0 0.195571 0 0 0 0 0.000885412 0 0 0 0 0.2125 0 0 0 0.7 0"/><feBlend mode="multiply" in2="BackgroundImageFix" result="effect1_dropShadow"/><feColorMatrix in="SourceAlpha" values="0 0 0 0 0 0 0 0 0 0 0 0 0 0 0 0 0 0 127 0"/><feOffset dy="16.851"/><feGaussianBlur stdDeviation="8.425"/><feColorMatrix values="0 0 0 0 0.541667 0 0 0 0 0.0609375 0 0 0 0 0.349375 0 0 0 0.8 0"/><feBlend mode="multiply" in2="effect1_dropShadow" result="effect2_dropShadow"/><feColorMatrix in="SourceAlpha" values="0 0 0 0 0 0 0 0 0 0 0 0 0 0 0 0 0 0 127 0"/><feOffset dy="16.851"/><feGaussianBlur stdDeviation="25.276"/><feColorMatrix values="0 0 0 0 0.788 0 0 0 0 0.2 0 0 0 0 0.8 0 0 0 1 0"/><feBlend mode="color-burn" in2="effect2_dropShadow" result="effect3_dropShadow"/><feBlend in="SourceGraphic" in2="effect3_dropShadow" result="shape"/><feColorMatrix in="SourceAlpha" values="0 0 0 0 0 0 0 0 0 0 0 0 0 0 0 0 0 0 127 0" result="hardAlpha"/><feOffset dx="-.843" dy="1.685"/><feGaussianBlur stdDeviation=".421"/><feComposite in2="hardAlpha" operator="arithmetic" k2="-1" k3="1"/><feColorMatrix values="0 0 0 0 1 0 0 0 0 1 0 0 0 0 1 0 0 0 0.5 0"/><feBlend in2="shape" result="effect4_innerShadow"/><feColorMatrix in="SourceAlpha" values="0 0 0 0 0 0 0 0 0 0 0 0 0 0 0 0 0 0 127 0" result="hardAlpha"/><feOffset dx="-.843" dy="-1.685"/><feGaussianBlur stdDeviation=".421"/><feComposite in2="hardAlpha" operator="arithmetic" k2="-1" k3="1"/><feColorMatrix values="0 0 0 0 1 0 0 0 0 1 0 0 0 0 1 0 0 0 0.4 0"/><feBlend in2="effect4_innerShadow" result="effect5_innerShadow"/></filter><filter id="filter2_f" x="13.623" y="69.868" width="186.102" height="118.839" filterUnits="userSpaceOnUse" color-interpolation-filters="sRGB"><feFlood flood-opacity="0" result="BackgroundImageFix"/><feBlend in="SourceGraphic" in2="BackgroundImageFix" result="shape"/><feGaussianBlur stdDeviation="6.319" result="effect1_foregroundBlur"/></filter><filter id="filter3_f" x="29.024" y="89.458" width="155.638" height="88.375" filterUnits="userSpaceOnUse" color-interpolation-filters="sRGB"><feFlood flood-opacity="0" result="BackgroundImageFix"/><feBlend in="SourceGraphic" in2="BackgroundImageFix" result="shape"/><feGaussianBlur stdDeviation=".843" result="effect1_foregroundBlur"/></filter><filter id="filter4_dddii" x="-22.739" y="50.347" width="259.271" height="192.008" filterUnits="userSpaceOnUse" color-interpolation-filters="sRGB"><feFlood flood-opacity="0" result="BackgroundImageFix"/><feColorMatrix in="SourceAlpha" values="0 0 0 0 0 0 0 0 0 0 0 0 0 0 0 0 0 0 127 0"/><feOffset dy="8.425"/><feGaussianBlur stdDeviation="3.37"/><feColorMatrix values="0 0 0 0 0.15 0 0 0 0 0.000624999 0 0 0 0 0.000624999 0 0 0 0.7 0"/><feBlend mode="multiply" in2="BackgroundImageFix" result="effect1_dropShadow"/><feColorMatrix in="SourceAlpha" values="0 0 0 0 0 0 0 0 0 0 0 0 0 0 0 0 0 0 127 0"/><feOffset dy="16.851"/><feGaussianBlur stdDeviation="8.425"/><feColorMatrix values="0 0 0 0 0.45 0 0 0 0 0.0393375 0 0 0 0 0.013125 0 0 0 0.8 0"/><feBlend mode="multiply" in2="effect1_dropShadow" result="effect2_dropShadow"/><feColorMatrix in="SourceAlpha" values="0 0 0 0 0 0 0 0 0 0 0 0 0 0 0 0 0 0 127 0"/><feOffset dy="16.851"/><feGaussianBlur stdDeviation="25.276"/><feColorMatrix values="0 0 0 0 0.528831 0 0 0 0 0.18901 0 0 0 0 0.795833 0 0 0 1 0"/><feBlend mode="color-dodge" in2="effect2_dropShadow" result="effect3_dropShadow"/><feBlend in="SourceGraphic" in2="effect3_dropShadow" result="shape"/><feColorMatrix in="SourceAlpha" values="0 0 0 0 0 0 0 0 0 0 0 0 0 0 0 0 0 0 127 0" result="hardAlpha"/><feOffset dx="-.843" dy="1.685"/><feGaussianBlur stdDeviation=".421"/><feComposite in2="hardAlpha" operator="arithmetic" k2="-1" k3="1"/><feColorMatrix values="0 0 0 0 1 0 0 0 0 1 0 0 0 0 1 0 0 0 0.5 0"/><feBlend in2="shape" result="effect4_innerShadow"/><feColorMatrix in="SourceAlpha" values="0 0 0 0 0 0 0 0 0 0 0 0 0 0 0 0 0 0 127 0" result="hardAlpha"/><feOffset dx="-.843" dy="-1.685"/><feGaussianBlur stdDeviation=".421"/><feComposite in2="hardAlpha" operator="arithmetic" k2="-1" k3="1"/><feColorMatrix values="0 0 0 0 1 0 0 0 0 1 0 0 0 0 1 0 0 0 0.4 0"/><feBlend in2="effect4_innerShadow" result="effect5_innerShadow"/></filter><filter id="filter5_f" x="27.41" y="83.769" width="158.795" height="91.532" filterUnits="userSpaceOnUse" color-interpolation-filters="sRGB"><feFlood flood-opacity="0" result="BackgroundImageFix"/><feBlend in="SourceGraphic" in2="BackgroundImageFix" result="shape"/><feGaussianBlur stdDeviation="1" result="effect1_foregroundBlur"/></filter><filter id="filter6_f" x="29.831" y="86.191" width="153.952" height="86.69" filterUnits="userSpaceOnUse" color-interpolation-filters="sRGB"><feFlood flood-opacity="0" result="BackgroundImageFix"/><feBlend in="SourceGraphic" in2="BackgroundImageFix" result="shape"/><feGaussianBlur stdDeviation=".421" result="effect1_foregroundBlur"/></filter><filter id="filter7_f" x="166.698" y="3.889" width="220.414" height="239.718" filterUnits="userSpaceOnUse" color-interpolation-filters="sRGB"><feFlood flood-opacity="0" result="BackgroundImageFix"/><feBlend in="SourceGraphic" in2="BackgroundImageFix" result="shape"/><feGaussianBlur stdDeviation="21.064" result="effect1_foregroundBlur"/></filter><filter id="filter8_f" x="194.857" y="31.821" width="164.096" height="183.4" filterUnits="userSpaceOnUse" color-interpolation-filters="sRGB"><feFlood flood-opacity="0" result="BackgroundImageFix"/><feBlend in="SourceGraphic" in2="BackgroundImageFix" result="shape"/><feGaussianBlur stdDeviation="6.319" result="effect1_foregroundBlur"/></filter><filter id="filter9_f" x="210.262" y="51.524" width="133.632" height="152.936" filterUnits="userSpaceOnUse" color-interpolation-filters="sRGB"><feFlood flood-opacity="0" result="BackgroundImageFix"/><feBlend in="SourceGraphic" in2="BackgroundImageFix" result="shape"/><feGaussianBlur stdDeviation=".843" result="effect1_foregroundBlur"/></filter><filter id="filter0_f" x="-100.194" y="-137.194" width="617.387" height="521.387" filterUnits="userSpaceOnUse" color-interpolation-filters="sRGB"><feFlood flood-opacity="0" result="BackgroundImageFix"/><feBlend in="SourceGraphic" in2="BackgroundImageFix" result="shape"/><feGaussianBlur stdDeviation="81.597" result="effect1_foregroundBlur"/></filter><filter id="filter11_f" x="208.647" y="45.729" width="136.79" height="156.094" filterUnits="userSpaceOnUse" color-interpolation-filters="sRGB"><feFlood flood-opacity="0" result="BackgroundImageFix"/><feBlend in="SourceGraphic" in2="BackgroundImageFix" result="shape"/><feGaussianBlur stdDeviation="1" result="effect1_foregroundBlur"/></filter><filter id="filter12_f" x="211.069" y="48.151" width="131.947" height="151.251" filterUnits="userSpaceOnUse" color-interpolation-filters="sRGB"><feFlood flood-opacity="0" result="BackgroundImageFix"/><feBlend in="SourceGraphic" in2="BackgroundImageFix" result="shape"/><feGaussianBlur stdDeviation=".421" result="effect1_foregroundBlur"/></filter><filter id="filter13_f" x="36.987" y="-259.013" width="1015.03" height="792.026" filterUnits="userSpaceOnUse" color-interpolation-filters="sRGB"><feFlood flood-opacity="0" result="BackgroundImageFix"/><feBlend in="SourceGraphic" in2="BackgroundImageFix" result="shape"/><feGaussianBlur stdDeviation="152.007" result="effect1_foregroundBlur"/></filter><filter id="filter14_f" x="299.598" y="7.36" width="503.847" height="244.866" filterUnits="userSpaceOnUse" color-interpolation-filters="sRGB"><feFlood flood-opacity="0" result="BackgroundImageFix"/><feBlend in="SourceGraphic" in2="BackgroundImageFix" result="shape"/><feGaussianBlur stdDeviation="38.002" result="effect1_foregroundBlur"/></filter><filter id="filter15_f" x="350.401" y="58.162" width="402.242" height="143.261" filterUnits="userSpaceOnUse" color-interpolation-filters="sRGB"><feFlood flood-opacity="0" result="BackgroundImageFix"/><feBlend in="SourceGraphic" in2="BackgroundImageFix" result="shape"/><feGaussianBlur stdDeviation="11.4" result="effect1_foregroundBlur"/></filter><filter id="filter16_f" x="377.882" y="92.643" width="347.28" height="88.299" filterUnits="userSpaceOnUse" color-interpolation-filters="sRGB"><feFlood flood-opacity="0" result="BackgroundImageFix"/><feBlend in="SourceGraphic" in2="BackgroundImageFix" result="shape"/><feGaussianBlur stdDeviation="1.52" result="effect1_foregroundBlur"/></filter><filter id="filter17_dddii" x="284.398" y="22.56" width="534.248" height="275.268" filterUnits="userSpaceOnUse" color-interpolation-filters="sRGB"><feFlood flood-opacity="0" result="BackgroundImageFix"/><feColorMatrix in="SourceAlpha" values="0 0 0 0 0 0 0 0 0 0 0 0 0 0 0 0 0 0 127 0"/><feOffset dy="15.201"/><feGaussianBlur stdDeviation="6.08"/><feColorMatrix values="0 0 0 0 0.15 0 0 0 0 0.000624999 0 0 0 0 0.000624999 0 0 0 0.7 0"/><feBlend mode="multiply" in2="BackgroundImageFix" result="effect1_dropShadow"/><feColorMatrix in="SourceAlpha" values="0 0 0 0 0 0 0 0 0 0 0 0 0 0 0 0 0 0 127 0"/><feOffset dy="30.401"/><feGaussianBlur stdDeviation="15.201"/><feColorMatrix values="0 0 0 0 0.45 0 0 0 0 0.0393375 0 0 0 0 0.013125 0 0 0 0.8 0"/><feBlend mode="multiply" in2="effect1_dropShadow" result="effect2_dropShadow"/><feColorMatrix in="SourceAlpha" values="0 0 0 0 0 0 0 0 0 0 0 0 0 0 0 0 0 0 127 0"/><feOffset dy="30.401"/><feGaussianBlur stdDeviation="45.602"/><feColorMatrix values="0 0 0 0 0.528831 0 0 0 0 0.18901 0 0 0 0 0.795833 0 0 0 1 0"/><feBlend mode="color-dodge" in2="effect2_dropShadow" result="effect3_dropShadow"/><feBlend in="SourceGraphic" in2="effect3_dropShadow" result="shape"/><feColorMatrix in="SourceAlpha" values="0 0 0 0 0 0 0 0 0 0 0 0 0 0 0 0 0 0 127 0" result="hardAlpha"/><feOffset dx="-1.52" dy="3.04"/><feGaussianBlur stdDeviation=".75"/><feComposite in2="hardAlpha" operator="arithmetic" k2="-1" k3="1"/><feColorMatrix values="0 0 0 0 1 0 0 0 0 1 0 0 0 0 1 0 0 0 0.5 0"/><feBlend in2="shape" result="effect4_innerShadow"/><feColorMatrix in="SourceAlpha" values="0 0 0 0 0 0 0 0 0 0 0 0 0 0 0 0 0 0 127 0" result="hardAlpha"/><feOffset dx="-1.52" dy="-3.04"/><feGaussianBlur stdDeviation=".76"/><feComposite in2="hardAlpha" operator="arithmetic" k2="-1" k3="1"/><feColorMatrix values="0 0 0 0 1 0 0 0 0 1 0 0 0 0 1 0 0 0 0.4 0"/><feBlend in2="effect4_innerShadow" result="effect5_innerShadow"/></filter><filter id="filter18_f" x="376.642" y="84.403" width="349.76" height="90.779" filterUnits="userSpaceOnUse" color-interpolation-filters="sRGB"><feFlood flood-opacity="0" result="BackgroundImageFix"/><feBlend in="SourceGraphic" in2="BackgroundImageFix" result="shape"/><feGaussianBlur stdDeviation="1" result="effect1_foregroundBlur"/></filter><filter id="filter19_f" x="379.402" y="87.163" width="344.24" height="85.259" filterUnits="userSpaceOnUse" color-interpolation-filters="sRGB"><feFlood flood-opacity="0" result="BackgroundImageFix"/><feBlend in="SourceGraphic" in2="BackgroundImageFix" result="shape"/><feGaussianBlur stdDeviation=".76" result="effect1_foregroundBlur"/></filter></defs></svg>