<svg width="768" height="534" viewBox="0 0 768 534" fill="none" xmlns="http://www.w3.org/2000/svg">
<g style="mix-blend-mode:lighten" opacity="0.6" filter="url(#filter0_f)">
<ellipse cx="208.5" cy="123.5" rx="145.5" ry="97.5" fill="#2C8DFE"/>
</g>
<g style="mix-blend-mode:color-dodge" filter="url(#filter1_f)">
<path d="M67.5695 97.8788V168.803C67.5695 169.359 67.3843 169.822 67.0141 170.192C66.6439 170.562 66.1811 170.747 65.6257 170.747H59.9055C59.3872 170.747 58.9429 170.562 58.5727 170.192C58.2024 169.822 58.0173 169.359 58.0173 168.803V97.8788H33.7483C32.4524 97.8788 31.8045 97.1753 31.8045 95.7683V90.1032C31.8045 89.5478 31.9711 89.1035 32.3043 88.7702C32.6746 88.437 33.1559 88.2704 33.7483 88.2704H91.7275C92.2828 88.2704 92.7456 88.4185 93.1158 88.7147C93.4861 89.0109 93.7082 89.4737 93.7823 90.1032V95.7683C93.7823 96.3977 93.5972 96.9161 93.2269 97.3234C92.8937 97.6937 92.3939 97.8788 91.7275 97.8788H73.4614M130.118 103.766C134.672 103.766 138.985 104.636 143.058 106.376C147.168 108.117 150.759 110.542 153.832 113.652C156.905 116.762 159.311 120.373 161.052 124.482C162.792 128.555 163.662 132.832 163.662 137.312C163.662 140.422 163.254 143.44 162.44 146.365C161.662 149.253 160.515 151.938 158.997 154.419C155.961 159.417 151.907 163.361 146.834 166.249C141.651 169.248 136.079 170.747 130.118 170.747H108.015C106.127 170.747 105.183 169.785 105.183 167.859V91.0474C105.183 89.1961 106.09 88.2704 107.904 88.2704H111.903C113.754 88.2704 114.679 89.1961 114.679 91.0474V103.766M129.285 161.417C132.654 161.417 135.857 160.806 138.893 159.584C141.929 158.362 144.613 156.64 146.945 154.419C149.278 152.197 151.074 149.624 152.332 146.699C153.628 143.773 154.276 140.645 154.276 137.312C154.276 133.98 153.628 130.851 152.332 127.926C151.074 124.964 149.297 122.372 147.001 120.15C144.743 117.966 142.151 116.281 139.226 115.096C136.338 113.874 133.321 113.263 130.174 113.263H118.777H114.679V161.417M181.544 98.9671V90.1032C181.544 89.5478 181.359 89.1035 180.989 88.7702C180.619 88.437 180.156 88.2704 179.6 88.2704H173.714C173.158 88.2704 172.714 88.437 172.381 88.7702C172.085 89.1035 171.937 89.5478 171.937 90.1032V168.915C171.937 170.136 172.529 170.747 173.714 170.747H179.6C180.896 170.747 181.544 170.136 181.544 168.915V108.96" stroke="#00E0FF" stroke-width="8.42546" stroke-linecap="round" stroke-linejoin="round"/>
</g>
<g style="mix-blend-mode:color-dodge" filter="url(#filter2_f)">
<path d="M67.5695 97.657V168.582C67.5695 169.137 67.3843 169.6 67.0141 169.97C66.6439 170.34 66.1811 170.526 65.6257 170.526H59.9055C59.3872 170.526 58.9429 170.34 58.5727 169.97C58.2024 169.6 58.0173 169.137 58.0173 168.582V97.657H33.7483C32.4524 97.657 31.8045 96.9535 31.8045 95.5465V89.8814C31.8045 89.326 31.9711 88.8817 32.3043 88.5484C32.6746 88.2152 33.1559 88.0486 33.7483 88.0486H91.7275C92.2828 88.0486 92.7456 88.1967 93.1158 88.4929C93.4861 88.7891 93.7082 89.2519 93.7823 89.8814V95.5465C93.7823 96.1759 93.5972 96.6943 93.2269 97.1016C92.8937 97.4719 92.3939 97.657 91.7275 97.657H73.4614M130.118 103.544C134.672 103.544 138.985 104.414 143.058 106.155C147.168 107.895 150.759 110.32 153.832 113.43C156.905 116.541 159.311 120.151 161.052 124.261C162.792 128.334 163.662 132.61 163.662 137.09C163.662 140.201 163.254 143.218 162.44 146.143C161.662 149.032 160.515 151.716 158.997 154.197C155.961 159.195 151.907 163.139 146.834 166.027C141.651 169.026 136.079 170.526 130.118 170.526H108.015C106.127 170.526 105.183 169.563 105.183 167.637V90.8256C105.183 88.9743 106.09 88.0486 107.904 88.0486H111.903C113.754 88.0486 114.679 88.9743 114.679 90.8256V103.544M129.285 161.195C132.654 161.195 135.857 160.584 138.893 159.362C141.929 158.14 144.613 156.418 146.945 154.197C149.278 151.975 151.074 149.402 152.332 146.477C153.628 143.552 154.276 140.423 154.276 137.09C154.276 133.758 153.628 130.629 152.332 127.704C151.074 124.742 149.297 122.15 147.001 119.929C144.743 117.744 142.151 116.059 139.226 114.874C136.338 113.653 133.321 113.042 130.174 113.042H118.777H114.679V161.195M181.544 98.7453V89.8814C181.544 89.326 181.359 88.8817 180.989 88.5484C180.619 88.2152 180.156 88.0486 179.6 88.0486H173.714C173.158 88.0486 172.714 88.2152 172.381 88.5484C172.085 88.8817 171.937 89.326 171.937 89.8814V168.693C171.937 169.915 172.529 170.526 173.714 170.526H179.6C180.896 170.526 181.544 169.915 181.544 168.693V108.738" stroke="#0094FF" stroke-width="11.0856" stroke-linecap="round" stroke-linejoin="round"/>
</g>
<g style="mix-blend-mode:multiply" opacity="0.2" filter="url(#filter3_f)">
<path d="M67.7379 102.015V172.94C67.7379 173.495 67.5528 173.958 67.1826 174.329C66.8123 174.699 66.3495 174.884 65.7942 174.884H60.074C59.5557 174.884 59.1114 174.699 58.7411 174.329C58.3709 173.958 58.1858 173.495 58.1858 172.94V102.015H33.9167C32.6209 102.015 31.973 101.312 31.973 99.9049V94.2398C31.973 93.6844 32.1396 93.2401 32.4728 92.9068C32.843 92.5736 33.3243 92.407 33.9167 92.407H91.8959C92.4513 92.407 92.9141 92.5551 93.2843 92.8513C93.6545 93.1475 93.8767 93.6103 93.9507 94.2398V99.9049C93.9507 100.534 93.7656 101.053 93.3954 101.46C93.0622 101.83 92.5623 102.015 91.8959 102.015H73.6299M130.287 107.903C134.841 107.903 139.154 108.773 143.226 110.513C147.336 112.253 150.927 114.679 154 117.789C157.073 120.899 159.48 124.509 161.22 128.619C162.96 132.692 163.83 136.969 163.83 141.449C163.83 144.559 163.423 147.577 162.608 150.502C161.831 153.39 160.683 156.074 159.165 158.555C156.129 163.554 152.075 167.497 147.003 170.385C141.82 173.384 136.247 174.884 130.287 174.884H108.183C106.295 174.884 105.351 173.921 105.351 171.996V95.184C105.351 93.3326 106.258 92.407 108.072 92.407H112.071C113.922 92.407 114.848 93.3326 114.848 95.184V107.903M129.454 165.553C132.823 165.553 136.025 164.942 139.061 163.72C142.097 162.499 144.781 160.777 147.114 158.555C149.446 156.334 151.242 153.76 152.501 150.835C153.797 147.91 154.445 144.781 154.445 141.449C154.445 138.116 153.797 134.988 152.501 132.063C151.242 129.1 149.465 126.509 147.169 124.287C144.911 122.102 142.319 120.418 139.394 119.233C136.507 118.011 133.489 117.4 130.342 117.4H118.946H114.848V165.553M181.713 103.104V94.2398C181.713 93.6844 181.528 93.2401 181.157 92.9068C180.787 92.5736 180.324 92.407 179.769 92.407H173.882C173.327 92.407 172.882 92.5736 172.549 92.9068C172.253 93.2401 172.105 93.6844 172.105 94.2398V173.051C172.105 174.273 172.697 174.884 173.882 174.884H179.769C181.065 174.884 181.713 174.273 181.713 173.051V113.097" stroke="#0085FF" stroke-width="2.52764" stroke-linecap="round" stroke-linejoin="round"/>
</g>
<g style="mix-blend-mode:hard-light" filter="url(#filter4_dddii)">
<path d="M67.7914 97.8699V168.795C67.7914 169.35 67.6063 169.813 67.2361 170.183C66.8658 170.553 66.403 170.738 65.8477 170.738H60.1275C59.6092 170.738 59.1649 170.553 58.7947 170.183C58.4244 169.813 58.2393 169.35 58.2393 168.795V97.8699H33.9702C32.6744 97.8699 32.0265 97.1664 32.0265 95.7594V90.0943C32.0265 89.5389 32.1931 89.0946 32.5263 88.7613C32.8965 88.4281 33.3779 88.2615 33.9702 88.2615H91.9494C92.5048 88.2615 92.9676 88.4096 93.3378 88.7058C93.7081 89.002 93.9302 89.4648 94.0043 90.0943V95.7594C94.0043 96.3888 93.8191 96.9072 93.4489 97.3145C93.1157 97.6848 92.6159 97.8699 91.9494 97.8699H73.6834M130.34 103.757C134.894 103.757 139.207 104.627 143.28 106.368C147.39 108.108 150.981 110.533 154.054 113.643C157.127 116.754 159.533 120.364 161.274 124.474C163.014 128.547 163.884 132.823 163.884 137.303C163.884 140.414 163.476 143.431 162.662 146.356C161.884 149.244 160.737 151.929 159.219 154.41C156.183 159.408 152.129 163.352 147.056 166.24C141.873 169.239 136.301 170.738 130.34 170.738H108.237C106.349 170.738 105.405 169.776 105.405 167.85V91.0385C105.405 89.1871 106.312 88.2615 108.126 88.2615H112.124C113.976 88.2615 114.901 89.1871 114.901 91.0385V103.757M129.507 161.408C132.876 161.408 136.079 160.797 139.115 159.575C142.151 158.353 144.835 156.631 147.167 154.41C149.5 152.188 151.296 149.615 152.554 146.69C153.85 143.764 154.498 140.636 154.498 137.303C154.498 133.971 153.85 130.842 152.554 127.917C151.296 124.955 149.518 122.363 147.223 120.141C144.965 117.957 142.373 116.272 139.448 115.087C136.56 113.865 133.543 113.254 130.396 113.254H118.999H114.901V161.408M181.766 98.9581V90.0943C181.766 89.5389 181.581 89.0946 181.211 88.7613C180.841 88.4281 180.378 88.2615 179.822 88.2615H173.936C173.38 88.2615 172.936 88.4281 172.603 88.7613C172.307 89.0946 172.159 89.5389 172.159 90.0943V168.906C172.159 170.127 172.751 170.738 173.936 170.738H179.822C181.118 170.738 181.766 170.127 181.766 168.906V108.951" stroke="#00B2FF" stroke-opacity="0.2" stroke-width="8.42546" stroke-linecap="round" stroke-linejoin="round"/>
</g>
<g filter="url(#filter5_f)">
<path d="M67.7027 97.9055V168.83C67.7027 169.386 67.5176 169.848 67.1473 170.219C66.7771 170.589 66.3143 170.774 65.7589 170.774H60.0388C59.5204 170.774 59.0762 170.589 58.7059 170.219C58.3357 169.848 58.1506 169.386 58.1506 168.83V97.9055H33.8815C32.5857 97.9055 31.9377 97.202 31.9377 95.795V90.1299C31.9377 89.5745 32.1044 89.1302 32.4376 88.797C32.8078 88.4637 33.2891 88.2971 33.8815 88.2971H91.8607C92.4161 88.2971 92.8789 88.4452 93.2491 88.7414C93.6193 89.0376 93.8415 89.5005 93.9155 90.1299V95.795C93.9155 96.4245 93.7304 96.9428 93.3602 97.3501C93.0269 97.7204 92.5271 97.9055 91.8607 97.9055H73.5947M130.251 103.793C134.805 103.793 139.119 104.663 143.191 106.403C147.301 108.143 150.892 110.569 153.965 113.679C157.038 116.789 159.445 120.399 161.185 124.509C162.925 128.582 163.795 132.859 163.795 137.339C163.795 140.449 163.388 143.467 162.573 146.392C161.796 149.28 160.648 151.965 159.13 154.445C156.094 159.444 152.04 163.387 146.968 166.275C141.784 169.274 136.212 170.774 130.251 170.774H108.148C106.26 170.774 105.316 169.811 105.316 167.886V91.0741C105.316 89.2228 106.223 88.2971 108.037 88.2971H112.036C113.887 88.2971 114.813 89.2228 114.813 91.0741V103.793M129.418 161.443C132.788 161.443 135.99 160.832 139.026 159.611C142.062 158.389 144.746 156.667 147.079 154.445C149.411 152.224 151.207 149.65 152.466 146.725C153.762 143.8 154.409 140.671 154.409 137.339C154.409 134.007 153.762 130.878 152.466 127.953C151.207 124.991 149.43 122.399 147.134 120.177C144.876 117.993 142.284 116.308 139.359 115.123C136.471 113.901 133.454 113.29 130.307 113.29H118.911H114.813V161.443M181.677 98.9938V90.1299C181.677 89.5745 181.492 89.1302 181.122 88.797C180.752 88.4637 180.289 88.2971 179.734 88.2971H173.847C173.292 88.2971 172.847 88.4637 172.514 88.797C172.218 89.1302 172.07 89.5745 172.07 90.1299V168.941C172.07 170.163 172.662 170.774 173.847 170.774H179.734C181.03 170.774 181.677 170.163 181.677 168.941V108.987" stroke="#00D1FF" stroke-width="5.05528" stroke-linecap="round" stroke-linejoin="round"/>
</g>
<g filter="url(#filter6_f)">
<path d="M67.7027 97.9055V168.83C67.7027 169.386 67.5176 169.848 67.1473 170.219C66.7771 170.589 66.3143 170.774 65.7589 170.774H60.0388C59.5204 170.774 59.0762 170.589 58.7059 170.219C58.3357 169.848 58.1506 169.386 58.1506 168.83V97.9055H33.8815C32.5857 97.9055 31.9377 97.202 31.9377 95.795V90.1299C31.9377 89.5745 32.1044 89.1302 32.4376 88.797C32.8078 88.4637 33.2891 88.2971 33.8815 88.2971H91.8607C92.4161 88.2971 92.8789 88.4452 93.2491 88.7414C93.6193 89.0376 93.8415 89.5005 93.9155 90.1299V95.795C93.9155 96.4245 93.7304 96.9428 93.3602 97.3501C93.0269 97.7204 92.5271 97.9055 91.8607 97.9055H73.5947M130.251 103.793C134.805 103.793 139.119 104.663 143.191 106.403C147.301 108.143 150.892 110.569 153.965 113.679C157.038 116.789 159.445 120.399 161.185 124.509C162.925 128.582 163.795 132.859 163.795 137.339C163.795 140.449 163.388 143.467 162.573 146.392C161.796 149.28 160.648 151.965 159.13 154.445C156.094 159.444 152.04 163.387 146.968 166.275C141.784 169.274 136.212 170.774 130.251 170.774H108.148C106.26 170.774 105.316 169.811 105.316 167.886V91.0741C105.316 89.2228 106.223 88.2971 108.037 88.2971H112.036C113.887 88.2971 114.813 89.2228 114.813 91.0741V103.793M129.418 161.443C132.788 161.443 135.99 160.832 139.026 159.611C142.062 158.389 144.746 156.667 147.079 154.445C149.411 152.224 151.207 149.65 152.466 146.725C153.762 143.8 154.409 140.671 154.409 137.339C154.409 134.007 153.762 130.878 152.466 127.953C151.207 124.991 149.43 122.399 147.134 120.177C144.876 117.993 142.284 116.308 139.359 115.123C136.471 113.901 133.454 113.29 130.307 113.29H118.911H114.813V161.443M181.677 98.9938V90.1299C181.677 89.5745 181.492 89.1302 181.122 88.797C180.752 88.4637 180.289 88.2971 179.734 88.2971H173.847C173.292 88.2971 172.847 88.4637 172.514 88.797C172.218 89.1302 172.07 89.5745 172.07 90.1299V168.941C172.07 170.163 172.662 170.774 173.847 170.774H179.734C181.03 170.774 181.677 170.163 181.677 168.941V108.987" stroke="white" stroke-width="2.52764" stroke-linecap="round" stroke-linejoin="round"/>
</g>
<g style="mix-blend-mode:color-dodge" filter="url(#filter7_f)">
<path d="M284.093 139.767L298.469 119.641L291.076 106.909L311.612 81.855L298.469 50.2295L284.093 81.855M279.165 92.1231L269.307 114.302L276.7 124.981L254.111 161.124L265.611 168.928L248.36 197.268L281.218 166.464L272.593 154.553L276.7 150.035M282.833 71.0036C281.057 70.846 279.259 70.7656 277.442 70.7656C260.335 70.7656 244.891 77.8994 233.917 89.3582M317.373 85.902C327.161 94.5712 334.115 106.376 336.666 119.746M302.599 186.028C294.942 189.552 286.421 191.518 277.442 191.518C275.078 191.518 272.746 191.381 270.454 191.117M246.894 183.207C229.092 172.712 217.146 153.324 217.146 131.142C217.146 129.527 217.209 127.927 217.333 126.344M220.148 109.68L213.038 90.4802H222.179L240.286 142.992L258.48 90.4802H267.664L244.047 154.142H236.612L222.179 115.165M340.773 167.349C340.773 164.322 340.093 161.69 338.735 159.454C337.403 157.218 335.338 155.268 332.539 153.604C329.767 151.914 325.908 150.373 320.963 148.982C316.044 147.591 312.552 146.064 310.487 144.4C308.449 142.709 307.43 140.65 307.43 138.223C307.43 135.196 308.503 132.837 310.65 131.146C312.824 129.428 315.84 128.569 319.699 128.569C323.857 128.569 327.077 129.605 329.36 131.678C331.642 133.723 332.784 136.546 332.784 140.146H340.651C340.651 136.846 339.767 133.805 338.001 131.024C336.262 128.242 333.789 126.06 330.582 124.478C327.403 122.897 323.775 122.106 319.699 122.106C313.721 122.106 308.857 123.647 305.106 126.728C301.384 129.783 299.522 133.655 299.522 138.346C299.522 142.491 301.044 145.982 304.087 148.818C307.158 151.627 312.049 154 318.762 155.936C324.115 157.491 327.811 159.072 329.849 160.681C331.887 162.263 332.906 164.513 332.906 167.431C332.906 170.349 331.805 172.654 329.604 174.345C327.403 176.035 324.237 176.881 320.107 176.881C315.677 176.881 312.131 175.844 309.468 173.772C306.832 171.672 305.514 168.822 305.514 165.222H297.647C297.647 168.686 298.598 171.781 300.5 174.508C302.43 177.235 305.161 179.39 308.693 180.972C312.226 182.526 316.031 183.303 320.107 183.303C326.384 183.303 331.398 181.858 335.148 178.967" stroke="#FB37FF" stroke-width="8.42546" stroke-linecap="round" stroke-linejoin="round"/>
</g>
<g style="mix-blend-mode:color-dodge" filter="url(#filter8_f)">
<path d="M284.093 139.539L298.469 119.414L291.076 106.682L311.612 81.6275L298.469 50.002L284.093 81.6275M279.165 91.8955L269.307 114.075L276.7 124.753L254.111 160.897L265.611 168.7L248.36 197.04L281.218 166.236L272.593 154.325L276.7 149.807M282.833 70.776C281.057 70.6185 279.259 70.538 277.442 70.538C260.335 70.538 244.891 77.6719 233.917 89.1307M317.373 85.6745C327.161 94.3437 334.115 106.149 336.666 119.519M302.599 185.8C294.942 189.325 286.421 191.29 277.442 191.29C275.078 191.29 272.746 191.154 270.454 190.889M246.894 182.98C229.092 172.485 217.146 153.096 217.146 130.914C217.146 129.299 217.209 127.699 217.333 126.116M220.148 109.452L213.038 90.2527H222.179L240.286 142.765L258.48 90.2527H267.664L244.047 153.914H236.612L222.179 114.938M340.773 167.122C340.773 164.095 340.093 161.463 338.735 159.227C337.403 156.99 335.338 155.041 332.539 153.377C329.767 151.686 325.908 150.145 320.963 148.754C316.044 147.364 312.552 145.836 310.487 144.173C308.449 142.482 307.43 140.423 307.43 137.996C307.43 134.969 308.503 132.61 310.65 130.919C312.824 129.201 315.84 128.342 319.699 128.342C323.857 128.342 327.077 129.378 329.36 131.451C331.642 133.496 332.784 136.319 332.784 139.918H340.651C340.651 136.619 339.767 133.578 338.001 130.796C336.262 128.014 333.789 125.833 330.582 124.251C327.403 122.669 323.775 121.878 319.699 121.878C313.721 121.878 308.857 123.419 305.106 126.501C301.384 129.555 299.522 133.428 299.522 138.118C299.522 142.264 301.044 145.755 304.087 148.591C307.158 151.4 312.049 153.772 318.762 155.709C324.115 157.263 327.811 158.845 329.849 160.454C331.887 162.036 332.906 164.286 332.906 167.204C332.906 170.122 331.805 172.426 329.604 174.117C327.403 175.808 324.237 176.653 320.107 176.653C315.677 176.653 312.131 175.617 309.468 173.544C306.832 171.444 305.514 168.594 305.514 164.995H297.647C297.647 168.458 298.598 171.553 300.5 174.281C302.43 177.008 305.161 179.162 308.693 180.744C312.226 182.298 316.031 183.076 320.107 183.076C326.384 183.076 331.398 181.63 335.148 178.74" stroke="#FF00B8" stroke-width="11.0856" stroke-linecap="round" stroke-linejoin="round"/>
</g>
<g style="mix-blend-mode:multiply" opacity="0.2" filter="url(#filter9_f)">
<path d="M284.266 144.01L298.641 123.885L291.248 111.153L311.784 86.0986L298.641 54.473L284.266 86.0986M279.337 96.3666L269.48 118.546L276.873 129.224L254.283 165.368L265.784 173.172L248.533 201.511L281.391 170.707L272.766 158.796L276.873 154.278M283.005 75.2471C281.23 75.0896 279.431 75.0091 277.615 75.0091C260.507 75.0091 245.064 82.1429 234.09 93.6017M317.546 90.1455C327.334 98.8147 334.288 110.62 336.838 123.99M302.771 190.271C295.115 193.796 286.594 195.761 277.615 195.761C275.251 195.761 272.919 195.625 270.627 195.36M247.067 187.451C229.265 176.956 217.318 157.567 217.318 135.385C217.318 133.77 217.382 132.17 217.506 130.587M220.321 113.923L213.211 94.7237H222.352L240.459 147.236L258.653 94.7237H267.837L244.22 158.386H236.785L222.352 119.409M340.946 171.593C340.946 168.566 340.266 165.934 338.908 163.698C337.576 161.461 335.511 159.512 332.712 157.848C329.94 156.157 326.081 154.616 321.136 153.225C316.217 151.835 312.725 150.307 310.66 148.644C308.622 146.953 307.603 144.894 307.603 142.467C307.603 139.44 308.676 137.081 310.823 135.39C312.997 133.672 316.013 132.813 319.872 132.813C324.03 132.813 327.25 133.849 329.532 135.922C331.815 137.967 332.956 140.79 332.956 144.389H340.823C340.823 141.09 339.94 138.049 338.174 135.267C336.435 132.485 333.962 130.304 330.755 128.722C327.576 127.14 323.948 126.349 319.872 126.349C313.894 126.349 309.029 127.89 305.279 130.972C301.556 134.026 299.695 137.899 299.695 142.59C299.695 146.735 301.217 150.226 304.26 153.062C307.331 155.871 312.222 158.243 318.934 160.18C324.288 161.734 327.983 163.316 330.022 164.925C332.06 166.507 333.079 168.757 333.079 171.675C333.079 174.593 331.978 176.897 329.777 178.588C327.576 180.279 324.41 181.124 320.28 181.124C315.85 181.124 312.304 180.088 309.641 178.015C307.005 175.915 305.687 173.066 305.687 169.466H297.82C297.82 172.929 298.771 176.025 300.673 178.752C302.603 181.479 305.334 183.633 308.866 185.215C312.399 186.77 316.203 187.547 320.28 187.547C326.557 187.547 331.571 186.101 335.321 183.211" stroke="#FA00FF" stroke-width="2.52764" stroke-linecap="round" stroke-linejoin="round"/>
</g>
<g style="mix-blend-mode:hard-light" filter="url(#filter10_dddii)">
<path d="M284.321 139.758L298.696 119.632L291.303 106.9L311.839 81.8459L298.696 50.2203L284.321 81.8459M279.392 92.1139L269.535 114.293L276.928 124.972L254.338 161.115L265.839 168.919L248.588 197.259L281.446 166.455L272.821 154.544L276.928 150.026M283.06 70.9944C281.284 70.8369 279.486 70.7564 277.67 70.7564C260.562 70.7564 245.119 77.8902 234.145 89.349M317.601 85.8929C327.389 94.562 334.343 106.367 336.893 119.737M302.826 186.019C295.17 189.543 286.649 191.509 277.67 191.509C275.306 191.509 272.974 191.372 270.682 191.107M247.122 183.198C229.32 172.703 217.373 153.315 217.373 131.132C217.373 129.518 217.437 127.917 217.561 126.334M220.376 109.671L213.266 90.471H222.407L240.514 142.983L258.708 90.471H267.892L244.275 154.133H236.84L222.407 115.156M341.001 167.34C341.001 164.313 340.321 161.681 338.962 159.445C337.631 157.209 335.566 155.259 332.767 153.595C329.995 151.904 326.136 150.364 321.19 148.973C316.272 147.582 312.78 146.055 310.715 144.391C308.677 142.7 307.658 140.641 307.658 138.214C307.658 135.187 308.731 132.828 310.878 131.137C313.052 129.419 316.068 128.56 319.927 128.56C324.084 128.56 327.305 129.596 329.587 131.669C331.87 133.714 333.011 136.537 333.011 140.137H340.878C340.878 136.837 339.995 133.796 338.229 131.014C336.49 128.233 334.017 126.051 330.81 124.469C327.631 122.887 324.003 122.097 319.927 122.097C313.948 122.097 309.084 123.637 305.334 126.719C301.611 129.774 299.75 133.646 299.75 138.337C299.75 142.482 301.272 145.973 304.315 148.809C307.386 151.618 312.277 153.991 318.989 155.927C324.343 157.482 328.038 159.063 330.076 160.672C332.115 162.254 333.134 164.504 333.134 167.422C333.134 170.34 332.033 172.645 329.832 174.335C327.631 176.026 324.465 176.872 320.334 176.872C315.905 176.872 312.359 175.835 309.696 173.763C307.06 171.663 305.742 168.813 305.742 165.213H297.875C297.875 168.677 298.826 171.772 300.728 174.499C302.657 177.226 305.389 179.381 308.921 180.962C312.454 182.517 316.258 183.294 320.334 183.294C326.612 183.294 331.625 181.849 335.375 178.958" stroke="#FA00FF" stroke-opacity="0.2" stroke-width="8.42546" stroke-linecap="round" stroke-linejoin="round"/>
</g>
<g filter="url(#filter11_f)">
<path d="M284.23 139.794L298.605 119.669L291.212 106.937L311.748 81.8825L298.605 50.257L284.23 81.8825M279.301 92.1505L269.444 114.33L276.837 125.008L254.247 161.152L265.748 168.955L248.497 197.295L281.355 166.491L272.73 154.58L276.837 150.062M282.969 71.031C281.193 70.8735 279.395 70.793 277.579 70.793C260.471 70.793 245.028 77.9269 234.054 89.3857M317.51 85.9295C327.298 94.5987 334.252 106.404 336.802 119.774M302.735 186.055C295.079 189.58 286.558 191.545 277.579 191.545C275.215 191.545 272.883 191.409 270.591 191.144M247.031 183.235C229.229 172.74 217.282 153.351 217.282 131.169C217.282 129.554 217.346 127.954 217.47 126.371M220.285 109.707L213.175 90.5077H222.316L240.423 143.02L258.617 90.5077H267.801L244.184 154.169H236.749L222.316 115.193M340.91 167.377C340.91 164.35 340.23 161.718 338.871 159.482C337.54 157.245 335.475 155.295 332.676 153.632C329.904 151.941 326.045 150.4 321.099 149.009C316.181 147.619 312.689 146.091 310.624 144.428C308.586 142.737 307.567 140.678 307.567 138.251C307.567 135.224 308.64 132.865 310.787 131.174C312.961 129.456 315.977 128.597 319.836 128.597C323.993 128.597 327.214 129.633 329.496 131.706C331.779 133.751 332.92 136.574 332.92 140.173H340.787C340.787 136.874 339.904 133.833 338.138 131.051C336.399 128.269 333.926 126.088 330.719 124.506C327.54 122.924 323.912 122.133 319.836 122.133C313.857 122.133 308.993 123.674 305.243 126.756C301.52 129.81 299.659 133.683 299.659 138.373C299.659 142.519 301.181 146.01 304.224 148.846C307.295 151.655 312.186 154.027 318.898 155.964C324.252 157.518 327.947 159.1 329.985 160.709C332.024 162.291 333.043 164.541 333.043 167.459C333.043 170.377 331.942 172.681 329.741 174.372C327.54 176.063 324.374 176.908 320.243 176.908C315.814 176.908 312.268 175.872 309.605 173.799C306.969 171.699 305.651 168.849 305.651 165.25H297.784C297.784 168.713 298.735 171.808 300.637 174.536C302.566 177.263 305.298 179.417 308.83 180.999C312.363 182.553 316.167 183.331 320.243 183.331C326.521 183.331 331.534 181.885 335.284 178.995" stroke="#FF347D" stroke-width="5.05528" stroke-linecap="round" stroke-linejoin="round"/>
</g>
<g filter="url(#filter12_f)">
<path d="M284.23 139.794L298.605 119.669L291.212 106.937L311.748 81.8825L298.605 50.257L284.23 81.8825M279.301 92.1505L269.444 114.33L276.837 125.008L254.247 161.152L265.748 168.955L248.497 197.295L281.355 166.491L272.73 154.58L276.837 150.062M282.969 71.031C281.193 70.8735 279.395 70.793 277.579 70.793C260.471 70.793 245.028 77.9269 234.054 89.3857M317.51 85.9295C327.298 94.5987 334.252 106.404 336.802 119.774M302.735 186.055C295.079 189.58 286.558 191.545 277.579 191.545C275.215 191.545 272.883 191.409 270.591 191.144M247.031 183.235C229.229 172.74 217.282 153.351 217.282 131.169C217.282 129.554 217.346 127.954 217.47 126.371M220.285 109.707L213.175 90.5077H222.316L240.423 143.02L258.617 90.5077H267.801L244.184 154.169H236.749L222.316 115.193M340.91 167.377C340.91 164.35 340.23 161.718 338.871 159.482C337.54 157.245 335.475 155.295 332.676 153.632C329.904 151.941 326.045 150.4 321.099 149.009C316.181 147.619 312.689 146.091 310.624 144.428C308.586 142.737 307.567 140.678 307.567 138.251C307.567 135.224 308.64 132.865 310.787 131.174C312.961 129.456 315.977 128.597 319.836 128.597C323.993 128.597 327.214 129.633 329.496 131.706C331.779 133.751 332.92 136.574 332.92 140.173H340.787C340.787 136.874 339.904 133.833 338.138 131.051C336.399 128.269 333.926 126.088 330.719 124.506C327.54 122.924 323.912 122.133 319.836 122.133C313.857 122.133 308.993 123.674 305.243 126.756C301.52 129.81 299.659 133.683 299.659 138.373C299.659 142.519 301.181 146.01 304.224 148.846C307.295 151.655 312.186 154.027 318.898 155.964C324.252 157.518 327.947 159.1 329.985 160.709C332.024 162.291 333.043 164.541 333.043 167.459C333.043 170.377 331.942 172.681 329.741 174.372C327.54 176.063 324.374 176.908 320.243 176.908C315.814 176.908 312.268 175.872 309.605 173.799C306.969 171.699 305.651 168.849 305.651 165.25H297.784C297.784 168.713 298.735 171.808 300.637 174.536C302.566 177.263 305.298 179.417 308.83 180.999C312.363 182.553 316.167 183.331 320.243 183.331C326.521 183.331 331.534 181.885 335.284 178.995" stroke="white" stroke-width="2.52764" stroke-linecap="round" stroke-linejoin="round"/>
</g>
<g style="mix-blend-mode:screen" opacity="0.3" filter="url(#filter13_f)">
<ellipse cx="544.5" cy="137" rx="203.5" ry="92" fill="#FE0707"/>
</g>
<g style="mix-blend-mode:color-dodge" filter="url(#filter14_f)">
<path d="M454.297 154.032V166.008C454.297 167.751 453.42 168.622 451.667 168.622H447.881C446.163 168.622 445.304 167.751 445.304 166.008V93.6827C445.304 91.8698 446.198 90.9634 447.986 90.9634H468.916C474.525 90.9634 479.801 92.3579 484.745 95.147C489.548 97.9013 493.386 101.632 496.261 106.338C497.699 108.674 498.785 111.219 499.522 113.973C500.293 116.693 500.679 119.517 500.679 122.445C500.679 126.664 499.855 130.691 498.207 134.526C496.594 138.361 494.316 141.742 491.371 144.671C488.426 147.6 485.025 149.901 481.169 151.574C477.312 153.213 473.228 154.032 468.916 154.032H460.828M454.297 99.749V145.089H468.968C471.948 145.089 474.806 144.514 477.54 143.364C480.31 142.213 482.764 140.609 484.902 138.552C487.076 136.461 488.759 134.038 489.951 131.283C491.178 128.529 491.791 125.583 491.791 122.445C491.791 119.273 491.178 116.309 489.951 113.555C488.759 110.801 487.059 108.378 484.85 106.286C482.676 104.229 480.152 102.625 477.277 101.475C474.402 100.324 471.352 99.749 468.127 99.749H461.741M599.475 100.011V166.374C599.475 166.966 599.23 167.489 598.739 167.943C598.283 168.396 597.775 168.622 597.214 168.622H592.586C592.06 168.622 591.552 168.413 591.061 167.995C590.606 167.542 590.378 167.054 590.378 166.531V92.7937C590.378 91.5735 590.939 90.9634 592.06 90.9634H645.121C646.243 90.9634 646.804 91.5735 646.804 92.7937V166.531C646.804 167.088 646.576 167.576 646.12 167.995C645.664 168.413 645.156 168.622 644.595 168.622H640.02C639.459 168.622 638.933 168.396 638.442 167.943C637.987 167.489 637.759 166.966 637.759 166.374V100.011H605.991M525.101 130.405L520.86 133.323V166.897C520.86 168.047 520.299 168.622 519.177 168.622H513.761C512.463 168.622 511.815 168.047 511.815 166.897V92.6891C511.815 92.201 512.008 91.8001 512.393 91.4863C512.779 91.1377 513.235 90.9634 513.761 90.9634H519.177C519.703 90.9634 520.106 91.1203 520.387 91.434C520.702 91.7478 520.86 92.1662 520.86 92.6891V122.341L564.981 91.434C565.541 91.1203 566.102 90.9634 566.663 90.9634H572.185C572.711 90.9634 573.114 91.1203 573.394 91.434C573.71 91.7478 573.868 92.1662 573.868 92.6891V166.897C573.868 168.047 573.307 168.622 572.185 168.622H566.768C565.506 168.622 564.875 168.047 564.875 166.897V103.044L532.04 125.632M383.202 161.722V166.897C383.202 167.385 383.36 167.803 383.675 168.152C384.026 168.465 384.482 168.622 385.042 168.622H390.564C391.686 168.622 392.247 168.047 392.247 166.897V100.011H430.899C431.389 100.011 431.793 99.8362 432.108 99.4876C432.459 99.1389 432.634 98.6857 432.634 98.1279V92.6891C432.634 92.201 432.459 91.8001 432.108 91.4863C431.793 91.1377 431.389 90.9634 430.899 90.9634H384.937C383.78 90.9634 383.202 91.5386 383.202 92.6891V156.275M672.513 100.011V166.374C672.513 166.966 672.268 167.489 671.777 167.943C671.321 168.396 670.813 168.622 670.252 168.622H665.624C665.098 168.622 664.59 168.413 664.099 167.995C663.643 167.542 663.416 167.054 663.416 166.531V92.7937C663.416 91.5735 663.977 90.9634 665.098 90.9634H718.159C719.281 90.9634 719.842 91.5735 719.842 92.7937V166.531C719.842 167.088 719.614 167.576 719.158 167.995C718.702 168.413 718.194 168.622 717.633 168.622H713.058C712.497 168.622 711.971 168.396 711.48 167.943C711.025 167.489 710.797 166.966 710.797 166.374V100.011H679.029" stroke="#FFE600" stroke-width="15.2007" stroke-linecap="round" stroke-linejoin="round"/>
</g>
<g style="mix-blend-mode:color-dodge" filter="url(#filter15_f)">
<path d="M454.297 154.032V166.008C454.297 167.751 453.42 168.622 451.667 168.622H447.881C446.163 168.622 445.304 167.751 445.304 166.008V93.6827C445.304 91.8698 446.198 90.9634 447.986 90.9634H468.916C474.525 90.9634 479.801 92.3579 484.745 95.147C489.548 97.9013 493.386 101.632 496.261 106.338C497.699 108.674 498.785 111.219 499.522 113.973C500.293 116.693 500.679 119.517 500.679 122.445C500.679 126.664 499.855 130.691 498.207 134.526C496.594 138.361 494.316 141.742 491.371 144.671C488.426 147.6 485.025 149.901 481.169 151.574C477.312 153.213 473.228 154.032 468.916 154.032H460.828M454.297 99.749V145.089H468.968C471.948 145.089 474.806 144.514 477.54 143.364C480.31 142.213 482.764 140.609 484.902 138.552C487.076 136.461 488.759 134.038 489.951 131.283C491.178 128.529 491.791 125.583 491.791 122.445C491.791 119.273 491.178 116.309 489.951 113.555C488.759 110.801 487.059 108.378 484.85 106.286C482.676 104.229 480.152 102.625 477.277 101.475C474.402 100.324 471.352 99.749 468.127 99.749H461.741M599.475 100.011V166.374C599.475 166.966 599.23 167.489 598.739 167.943C598.283 168.396 597.775 168.622 597.214 168.622H592.586C592.06 168.622 591.552 168.413 591.061 167.995C590.606 167.542 590.378 167.054 590.378 166.531V92.7937C590.378 91.5735 590.939 90.9634 592.06 90.9634H645.121C646.243 90.9634 646.804 91.5735 646.804 92.7937V166.531C646.804 167.088 646.576 167.576 646.12 167.995C645.664 168.413 645.156 168.622 644.595 168.622H640.02C639.459 168.622 638.933 168.396 638.442 167.943C637.987 167.489 637.759 166.966 637.759 166.374V100.011H605.991M525.101 130.405L520.86 133.323V166.897C520.86 168.047 520.299 168.622 519.177 168.622H513.761C512.463 168.622 511.815 168.047 511.815 166.897V92.6891C511.815 92.201 512.008 91.8001 512.393 91.4863C512.779 91.1377 513.235 90.9634 513.761 90.9634H519.177C519.703 90.9634 520.106 91.1203 520.387 91.434C520.702 91.7478 520.86 92.1662 520.86 92.6891V122.341L564.981 91.434C565.541 91.1203 566.102 90.9634 566.663 90.9634H572.185C572.711 90.9634 573.114 91.1203 573.394 91.434C573.71 91.7478 573.868 92.1662 573.868 92.6891V166.897C573.868 168.047 573.307 168.622 572.185 168.622H566.768C565.506 168.622 564.875 168.047 564.875 166.897V103.044L532.04 125.632M383.202 161.722V166.897C383.202 167.385 383.36 167.803 383.675 168.152C384.026 168.465 384.482 168.622 385.042 168.622H390.564C391.686 168.622 392.247 168.047 392.247 166.897V100.011H430.899C431.389 100.011 431.793 99.8362 432.108 99.4876C432.459 99.1389 432.634 98.6857 432.634 98.1279V92.6891C432.634 92.201 432.459 91.8001 432.108 91.4863C431.793 91.1377 431.389 90.9634 430.899 90.9634H384.937C383.78 90.9634 383.202 91.5386 383.202 92.6891V156.275M672.513 100.011V166.374C672.513 166.966 672.268 167.489 671.777 167.943C671.321 168.396 670.813 168.622 670.252 168.622H665.624C665.098 168.622 664.59 168.413 664.099 167.995C663.643 167.542 663.416 167.054 663.416 166.531V92.7937C663.416 91.5735 663.977 90.9634 665.098 90.9634H718.159C719.281 90.9634 719.842 91.5735 719.842 92.7937V166.531C719.842 167.088 719.614 167.576 719.158 167.995C718.702 168.413 718.194 168.622 717.633 168.622H713.058C712.497 168.622 711.971 168.396 711.48 167.943C711.025 167.489 710.797 166.966 710.797 166.374V100.011H679.029" stroke="#FF0000" stroke-width="20" stroke-linecap="round" stroke-linejoin="round"/>
</g>
<g style="mix-blend-mode:multiply" opacity="0.2" filter="url(#filter16_f)">
<path d="M454.297 161.032V173.008C454.297 174.751 453.42 175.622 451.667 175.622H447.881C446.163 175.622 445.304 174.751 445.304 173.008V100.683C445.304 98.8698 446.198 97.9634 447.986 97.9634H468.916C474.525 97.9634 479.801 99.3579 484.745 102.147C489.548 104.901 493.386 108.632 496.261 113.338C497.699 115.674 498.785 118.219 499.522 120.973C500.293 123.693 500.679 126.517 500.679 129.445C500.679 133.664 499.855 137.691 498.207 141.526C496.594 145.361 494.316 148.742 491.371 151.671C488.426 154.6 485.025 156.901 481.169 158.574C477.312 160.213 473.228 161.032 468.916 161.032H460.828M454.297 106.749V152.089H468.968C471.948 152.089 474.806 151.514 477.54 150.364C480.31 149.213 482.764 147.609 484.902 145.552C487.076 143.461 488.759 141.038 489.951 138.283C491.178 135.529 491.791 132.583 491.791 129.445C491.791 126.273 491.178 123.309 489.951 120.555C488.759 117.801 487.059 115.378 484.85 113.286C482.676 111.229 480.152 109.625 477.277 108.475C474.402 107.324 471.352 106.749 468.127 106.749H461.741M599.475 107.011V173.374C599.475 173.966 599.23 174.489 598.739 174.943C598.283 175.396 597.775 175.622 597.214 175.622H592.586C592.06 175.622 591.552 175.413 591.061 174.995C590.606 174.542 590.378 174.054 590.378 173.531V99.7937C590.378 98.5735 590.939 97.9634 592.06 97.9634H645.121C646.243 97.9634 646.804 98.5735 646.804 99.7937V173.531C646.804 174.088 646.576 174.576 646.12 174.995C645.664 175.413 645.156 175.622 644.595 175.622H640.02C639.459 175.622 638.933 175.396 638.442 174.943C637.987 174.489 637.759 173.966 637.759 173.374V107.011H605.991M525.101 137.405L520.86 140.323V173.897C520.86 175.047 520.299 175.622 519.177 175.622H513.761C512.463 175.622 511.815 175.047 511.815 173.897V99.6891C511.815 99.201 512.008 98.8001 512.393 98.4863C512.779 98.1377 513.235 97.9634 513.761 97.9634H519.177C519.703 97.9634 520.106 98.1203 520.387 98.434C520.702 98.7478 520.86 99.1662 520.86 99.6891V129.341L564.981 98.434C565.541 98.1203 566.102 97.9634 566.663 97.9634H572.185C572.711 97.9634 573.114 98.1203 573.394 98.434C573.71 98.7478 573.868 99.1662 573.868 99.6891V173.897C573.868 175.047 573.307 175.622 572.185 175.622H566.768C565.506 175.622 564.875 175.047 564.875 173.897V110.044L532.04 132.632M383.202 168.722V173.897C383.202 174.385 383.36 174.803 383.675 175.152C384.026 175.465 384.482 175.622 385.042 175.622H390.564C391.686 175.622 392.247 175.047 392.247 173.897V107.011H430.899C431.389 107.011 431.793 106.836 432.108 106.488C432.459 106.139 432.634 105.686 432.634 105.128V99.6891C432.634 99.201 432.459 98.8001 432.108 98.4863C431.793 98.1377 431.389 97.9634 430.899 97.9634H384.937C383.78 97.9634 383.202 98.5386 383.202 99.6891V163.275M672.513 107.011V173.374C672.513 173.966 672.268 174.489 671.777 174.943C671.321 175.396 670.813 175.622 670.252 175.622H665.624C665.098 175.622 664.59 175.413 664.099 174.995C663.643 174.542 663.416 174.054 663.416 173.531V99.7937C663.416 98.5735 663.977 97.9634 665.098 97.9634H718.159C719.281 97.9634 719.842 98.5735 719.842 99.7937V173.531C719.842 174.088 719.614 174.576 719.158 174.995C718.702 175.413 718.194 175.622 717.633 175.622H713.058C712.497 175.622 711.971 175.396 711.48 174.943C711.025 174.489 710.797 173.966 710.797 173.374V107.011H679.029" stroke="#0085FF" stroke-width="4.5602" stroke-linecap="round" stroke-linejoin="round"/>
</g>
<g style="mix-blend-mode:hard-light" filter="url(#filter17_dddii)">
<path d="M454.297 154.032V166.008C454.297 167.751 453.42 168.622 451.667 168.622H447.881C446.163 168.622 445.304 167.751 445.304 166.008V93.6827C445.304 91.8698 446.198 90.9634 447.986 90.9634H468.916C474.525 90.9634 479.801 92.3579 484.745 95.147C489.548 97.9013 493.386 101.632 496.261 106.338C497.699 108.674 498.785 111.219 499.522 113.973C500.293 116.693 500.679 119.517 500.679 122.445C500.679 126.664 499.855 130.691 498.207 134.526C496.594 138.361 494.316 141.742 491.371 144.671C488.426 147.6 485.025 149.901 481.169 151.574C477.312 153.213 473.228 154.032 468.916 154.032H460.828M454.297 99.749V145.089H468.968C471.948 145.089 474.806 144.514 477.54 143.364C480.31 142.213 482.764 140.609 484.902 138.552C487.076 136.461 488.759 134.038 489.951 131.283C491.178 128.529 491.791 125.583 491.791 122.445C491.791 119.273 491.178 116.309 489.951 113.555C488.759 110.801 487.059 108.378 484.85 106.286C482.676 104.229 480.152 102.625 477.277 101.475C474.402 100.324 471.352 99.749 468.127 99.749H461.741M599.475 100.011V166.374C599.475 166.966 599.23 167.489 598.739 167.943C598.283 168.396 597.775 168.622 597.214 168.622H592.586C592.06 168.622 591.552 168.413 591.061 167.995C590.606 167.542 590.378 167.054 590.378 166.531V92.7937C590.378 91.5735 590.939 90.9634 592.06 90.9634H645.121C646.243 90.9634 646.804 91.5735 646.804 92.7937V166.531C646.804 167.088 646.576 167.576 646.12 167.995C645.664 168.413 645.156 168.622 644.595 168.622H640.02C639.459 168.622 638.933 168.396 638.442 167.943C637.987 167.489 637.759 166.966 637.759 166.374V100.011H605.991M525.101 130.405L520.86 133.323V166.897C520.86 168.047 520.299 168.622 519.177 168.622H513.761C512.463 168.622 511.815 168.047 511.815 166.897V92.6891C511.815 92.201 512.008 91.8001 512.393 91.4863C512.779 91.1377 513.235 90.9634 513.761 90.9634H519.177C519.703 90.9634 520.106 91.1203 520.387 91.434C520.702 91.7478 520.86 92.1662 520.86 92.6891V122.341L564.981 91.434C565.541 91.1203 566.102 90.9634 566.663 90.9634H572.185C572.711 90.9634 573.114 91.1203 573.394 91.434C573.71 91.7478 573.868 92.1662 573.868 92.6891V166.897C573.868 168.047 573.307 168.622 572.185 168.622H566.768C565.506 168.622 564.875 168.047 564.875 166.897V103.044L532.04 125.632M383.202 161.722V166.897C383.202 167.385 383.36 167.803 383.675 168.152C384.026 168.465 384.482 168.622 385.042 168.622H390.564C391.686 168.622 392.247 168.047 392.247 166.897V100.011H430.899C431.389 100.011 431.793 99.8362 432.108 99.4876C432.459 99.1389 432.634 98.6857 432.634 98.1279V92.6891C432.634 92.201 432.459 91.8001 432.108 91.4863C431.793 91.1377 431.389 90.9634 430.899 90.9634H384.937C383.78 90.9634 383.202 91.5386 383.202 92.6891V156.275M672.513 100.011V166.374C672.513 166.966 672.268 167.489 671.777 167.943C671.321 168.396 670.813 168.622 670.252 168.622H665.624C665.098 168.622 664.59 168.413 664.099 167.995C663.643 167.542 663.416 167.054 663.416 166.531V92.7937C663.416 91.5735 663.977 90.9634 665.098 90.9634H718.159C719.281 90.9634 719.842 91.5735 719.842 92.7937V166.531C719.842 167.088 719.614 167.576 719.158 167.995C718.702 168.413 718.194 168.622 717.633 168.622H713.058C712.497 168.622 711.971 168.396 711.48 167.943C711.025 167.489 710.797 166.966 710.797 166.374V100.011H679.029" stroke="#FF0000" stroke-opacity="0.2" stroke-width="15.2007" stroke-linecap="round" stroke-linejoin="round"/>
</g>
<g filter="url(#filter18_f)">
<path d="M454.297 154.032V166.008C454.297 167.751 453.42 168.622 451.667 168.622H447.881C446.163 168.622 445.304 167.751 445.304 166.008V93.6827C445.304 91.8698 446.198 90.9634 447.986 90.9634H468.916C474.525 90.9634 479.801 92.3579 484.745 95.147C489.548 97.9013 493.386 101.632 496.261 106.338C497.699 108.674 498.785 111.219 499.522 113.973C500.293 116.693 500.679 119.517 500.679 122.445C500.679 126.664 499.855 130.691 498.207 134.526C496.594 138.361 494.316 141.742 491.371 144.671C488.426 147.6 485.025 149.901 481.169 151.574C477.312 153.213 473.228 154.032 468.916 154.032H460.828M454.297 99.749V145.089H468.968C471.948 145.089 474.806 144.514 477.54 143.364C480.31 142.213 482.764 140.609 484.902 138.552C487.076 136.461 488.759 134.038 489.951 131.283C491.178 128.529 491.791 125.583 491.791 122.445C491.791 119.273 491.178 116.309 489.951 113.555C488.759 110.801 487.059 108.378 484.85 106.286C482.676 104.229 480.152 102.625 477.277 101.475C474.402 100.324 471.352 99.749 468.127 99.749H461.741M599.475 100.011V166.374C599.475 166.966 599.23 167.489 598.739 167.943C598.283 168.396 597.775 168.622 597.214 168.622H592.586C592.06 168.622 591.552 168.413 591.061 167.995C590.606 167.542 590.378 167.054 590.378 166.531V92.7937C590.378 91.5735 590.939 90.9634 592.06 90.9634H645.121C646.243 90.9634 646.804 91.5735 646.804 92.7937V166.531C646.804 167.088 646.576 167.576 646.12 167.995C645.664 168.413 645.156 168.622 644.595 168.622H640.02C639.459 168.622 638.933 168.396 638.442 167.943C637.987 167.489 637.759 166.966 637.759 166.374V100.011H605.991M525.101 130.405L520.86 133.323V166.897C520.86 168.047 520.299 168.622 519.177 168.622H513.761C512.463 168.622 511.815 168.047 511.815 166.897V92.6891C511.815 92.201 512.008 91.8001 512.393 91.4863C512.779 91.1377 513.235 90.9634 513.761 90.9634H519.177C519.703 90.9634 520.106 91.1203 520.387 91.434C520.702 91.7478 520.86 92.1662 520.86 92.6891V122.341L564.981 91.434C565.541 91.1203 566.102 90.9634 566.663 90.9634H572.185C572.711 90.9634 573.114 91.1203 573.394 91.434C573.71 91.7478 573.868 92.1662 573.868 92.6891V166.897C573.868 168.047 573.307 168.622 572.185 168.622H566.768C565.506 168.622 564.875 168.047 564.875 166.897V103.044L532.04 125.632M383.202 161.722V166.897C383.202 167.385 383.36 167.803 383.675 168.152C384.026 168.465 384.482 168.622 385.042 168.622H390.564C391.686 168.622 392.247 168.047 392.247 166.897V100.011H430.899C431.389 100.011 431.793 99.8362 432.108 99.4876C432.459 99.1389 432.634 98.6857 432.634 98.1279V92.6891C432.634 92.201 432.459 91.8001 432.108 91.4863C431.793 91.1377 431.389 90.9634 430.899 90.9634H384.937C383.78 90.9634 383.202 91.5386 383.202 92.6891V156.275M672.513 100.011V166.374C672.513 166.966 672.268 167.489 671.777 167.943C671.321 168.396 670.813 168.622 670.252 168.622H665.624C665.098 168.622 664.59 168.413 664.099 167.995C663.643 167.542 663.416 167.054 663.416 166.531V92.7937C663.416 91.5735 663.977 90.9634 665.098 90.9634H718.159C719.281 90.9634 719.842 91.5735 719.842 92.7937V166.531C719.842 167.088 719.614 167.576 719.158 167.995C718.702 168.413 718.194 168.622 717.633 168.622H713.058C712.497 168.622 711.971 168.396 711.48 167.943C711.025 167.489 710.797 166.966 710.797 166.374V100.011H679.029" stroke="#FF9983" stroke-width="9.1204" stroke-linecap="round" stroke-linejoin="round"/>
</g>
<g filter="url(#filter19_f)">
<path d="M454.297 154.032V166.008C454.297 167.751 453.42 168.622 451.667 168.622H447.881C446.163 168.622 445.304 167.751 445.304 166.008V93.6827C445.304 91.8698 446.198 90.9634 447.986 90.9634H468.916C474.525 90.9634 479.801 92.3579 484.745 95.147C489.548 97.9013 493.386 101.632 496.261 106.338C497.699 108.674 498.785 111.219 499.522 113.973C500.293 116.693 500.679 119.517 500.679 122.445C500.679 126.664 499.855 130.691 498.207 134.526C496.594 138.361 494.316 141.742 491.371 144.671C488.426 147.6 485.025 149.901 481.169 151.574C477.312 153.213 473.228 154.032 468.916 154.032H460.828M454.297 99.749V145.089H468.968C471.948 145.089 474.806 144.514 477.54 143.364C480.31 142.213 482.764 140.609 484.902 138.552C487.076 136.461 488.759 134.038 489.951 131.283C491.178 128.529 491.791 125.583 491.791 122.445C491.791 119.273 491.178 116.309 489.951 113.555C488.759 110.801 487.059 108.378 484.85 106.286C482.676 104.229 480.152 102.625 477.277 101.475C474.402 100.324 471.352 99.749 468.127 99.749H461.741M599.475 100.011V166.374C599.475 166.966 599.23 167.489 598.739 167.943C598.283 168.396 597.775 168.622 597.214 168.622H592.586C592.06 168.622 591.552 168.413 591.061 167.995C590.606 167.542 590.378 167.054 590.378 166.531V92.7937C590.378 91.5735 590.939 90.9634 592.06 90.9634H645.121C646.243 90.9634 646.804 91.5735 646.804 92.7937V166.531C646.804 167.088 646.576 167.576 646.12 167.995C645.664 168.413 645.156 168.622 644.595 168.622H640.02C639.459 168.622 638.933 168.396 638.442 167.943C637.987 167.489 637.759 166.966 637.759 166.374V100.011H605.991M525.101 130.405L520.86 133.323V166.897C520.86 168.047 520.299 168.622 519.177 168.622H513.761C512.463 168.622 511.815 168.047 511.815 166.897V92.6891C511.815 92.201 512.008 91.8001 512.393 91.4863C512.779 91.1377 513.235 90.9634 513.761 90.9634H519.177C519.703 90.9634 520.106 91.1203 520.387 91.434C520.702 91.7478 520.86 92.1662 520.86 92.6891V122.341L564.981 91.434C565.541 91.1203 566.102 90.9634 566.663 90.9634H572.185C572.711 90.9634 573.114 91.1203 573.394 91.434C573.71 91.7478 573.868 92.1662 573.868 92.6891V166.897C573.868 168.047 573.307 168.622 572.185 168.622H566.768C565.506 168.622 564.875 168.047 564.875 166.897V103.044L532.04 125.632M383.202 161.722V166.897C383.202 167.385 383.36 167.803 383.675 168.152C384.026 168.465 384.482 168.622 385.042 168.622H390.564C391.686 168.622 392.247 168.047 392.247 166.897V100.011H430.899C431.389 100.011 431.793 99.8362 432.108 99.4876C432.459 99.1389 432.634 98.6857 432.634 98.1279V92.6891C432.634 92.201 432.459 91.8001 432.108 91.4863C431.793 91.1377 431.389 90.9634 430.899 90.9634H384.937C383.78 90.9634 383.202 91.5386 383.202 92.6891V156.275M672.513 100.011V166.374C672.513 166.966 672.268 167.489 671.777 167.943C671.321 168.396 670.813 168.622 670.252 168.622H665.624C665.098 168.622 664.59 168.413 664.099 167.995C663.643 167.542 663.416 167.054 663.416 166.531V92.7937C663.416 91.5735 663.977 90.9634 665.098 90.9634H718.159C719.281 90.9634 719.842 91.5735 719.842 92.7937V166.531C719.842 167.088 719.614 167.576 719.158 167.995C718.702 168.413 718.194 168.622 717.633 168.622H713.058C712.497 168.622 711.971 168.396 711.48 167.943C711.025 167.489 710.797 166.966 710.797 166.374V100.011H679.029" stroke="white" stroke-width="4.5602" stroke-linecap="round" stroke-linejoin="round"/>
</g>
<defs>
<filter id="filter0_f" x="-100.194" y="-137.194" width="617.387" height="521.387" filterUnits="userSpaceOnUse" color-interpolation-filters="sRGB">
<feFlood flood-opacity="0" result="BackgroundImageFix"/>
<feBlend mode="normal" in="SourceGraphic" in2="BackgroundImageFix" result="shape"/>
<feGaussianBlur stdDeviation="81.5968" result="effect1_foregroundBlur"/>
</filter>
<filter id="filter1_f" x="-14.5355" y="41.9303" width="242.42" height="175.157" filterUnits="userSpaceOnUse" color-interpolation-filters="sRGB">
<feFlood flood-opacity="0" result="BackgroundImageFix"/>
<feBlend mode="normal" in="SourceGraphic" in2="BackgroundImageFix" result="shape"/>
<feGaussianBlur stdDeviation="21.0636" result="effect1_foregroundBlur"/>
</filter>
<filter id="filter2_f" x="13.6235" y="69.8675" width="186.102" height="118.839" filterUnits="userSpaceOnUse" color-interpolation-filters="sRGB">
<feFlood flood-opacity="0" result="BackgroundImageFix"/>
<feBlend mode="normal" in="SourceGraphic" in2="BackgroundImageFix" result="shape"/>
<feGaussianBlur stdDeviation="6.31909" result="effect1_foregroundBlur"/>
</filter>
<filter id="filter3_f" x="29.0241" y="89.4581" width="155.638" height="88.3748" filterUnits="userSpaceOnUse" color-interpolation-filters="sRGB">
<feFlood flood-opacity="0" result="BackgroundImageFix"/>
<feBlend mode="normal" in="SourceGraphic" in2="BackgroundImageFix" result="shape"/>
<feGaussianBlur stdDeviation="0.842546" result="effect1_foregroundBlur"/>
</filter>
<filter id="filter4_dddii" x="-22.739" y="50.3469" width="259.271" height="192.008" filterUnits="userSpaceOnUse" color-interpolation-filters="sRGB">
<feFlood flood-opacity="0" result="BackgroundImageFix"/>
<feColorMatrix in="SourceAlpha" type="matrix" values="0 0 0 0 0 0 0 0 0 0 0 0 0 0 0 0 0 0 127 0"/>
<feOffset dy="8.42546"/>
<feGaussianBlur stdDeviation="3.37018"/>
<feColorMatrix type="matrix" values="0 0 0 0 0.15 0 0 0 0 0.000624999 0 0 0 0 0.000624999 0 0 0 0.7 0"/>
<feBlend mode="multiply" in2="BackgroundImageFix" result="effect1_dropShadow"/>
<feColorMatrix in="SourceAlpha" type="matrix" values="0 0 0 0 0 0 0 0 0 0 0 0 0 0 0 0 0 0 127 0"/>
<feOffset dy="16.8509"/>
<feGaussianBlur stdDeviation="8.42546"/>
<feColorMatrix type="matrix" values="0 0 0 0 0.45 0 0 0 0 0.0393375 0 0 0 0 0.013125 0 0 0 0.8 0"/>
<feBlend mode="multiply" in2="effect1_dropShadow" result="effect2_dropShadow"/>
<feColorMatrix in="SourceAlpha" type="matrix" values="0 0 0 0 0 0 0 0 0 0 0 0 0 0 0 0 0 0 127 0"/>
<feOffset dy="16.8509"/>
<feGaussianBlur stdDeviation="25.2764"/>
<feColorMatrix type="matrix" values="0 0 0 0 0.528831 0 0 0 0 0.18901 0 0 0 0 0.795833 0 0 0 1 0"/>
<feBlend mode="color-dodge" in2="effect2_dropShadow" result="effect3_dropShadow"/>
<feBlend mode="normal" in="SourceGraphic" in2="effect3_dropShadow" result="shape"/>
<feColorMatrix in="SourceAlpha" type="matrix" values="0 0 0 0 0 0 0 0 0 0 0 0 0 0 0 0 0 0 127 0" result="hardAlpha"/>
<feOffset dx="-0.842546" dy="1.68509"/>
<feGaussianBlur stdDeviation="0.421273"/>
<feComposite in2="hardAlpha" operator="arithmetic" k2="-1" k3="1"/>
<feColorMatrix type="matrix" values="0 0 0 0 1 0 0 0 0 1 0 0 0 0 1 0 0 0 0.5 0"/>
<feBlend mode="normal" in2="shape" result="effect4_innerShadow"/>
<feColorMatrix in="SourceAlpha" type="matrix" values="0 0 0 0 0 0 0 0 0 0 0 0 0 0 0 0 0 0 127 0" result="hardAlpha"/>
<feOffset dx="-0.842546" dy="-1.68509"/>
<feGaussianBlur stdDeviation="0.421273"/>
<feComposite in2="hardAlpha" operator="arithmetic" k2="-1" k3="1"/>
<feColorMatrix type="matrix" values="0 0 0 0 1 0 0 0 0 1 0 0 0 0 1 0 0 0 0.4 0"/>
<feBlend mode="normal" in2="effect4_innerShadow" result="effect5_innerShadow"/>
</filter>
<filter id="filter5_f" x="27.4101" y="83.7695" width="158.795" height="91.5322" filterUnits="userSpaceOnUse" color-interpolation-filters="sRGB">
<feFlood flood-opacity="0" result="BackgroundImageFix"/>
<feBlend mode="normal" in="SourceGraphic" in2="BackgroundImageFix" result="shape"/>
<feGaussianBlur stdDeviation="1" result="effect1_foregroundBlur"/>
</filter>
<filter id="filter6_f" x="29.8314" y="86.1908" width="153.952" height="86.6897" filterUnits="userSpaceOnUse" color-interpolation-filters="sRGB">
<feFlood flood-opacity="0" result="BackgroundImageFix"/>
<feBlend mode="normal" in="SourceGraphic" in2="BackgroundImageFix" result="shape"/>
<feGaussianBlur stdDeviation="0.421273" result="effect1_foregroundBlur"/>
</filter>
<filter id="filter7_f" x="166.698" y="3.88943" width="220.414" height="239.718" filterUnits="userSpaceOnUse" color-interpolation-filters="sRGB">
<feFlood flood-opacity="0" result="BackgroundImageFix"/>
<feBlend mode="normal" in="SourceGraphic" in2="BackgroundImageFix" result="shape"/>
<feGaussianBlur stdDeviation="21.0636" result="effect1_foregroundBlur"/>
</filter>
<filter id="filter8_f" x="194.857" y="31.8209" width="164.096" height="183.4" filterUnits="userSpaceOnUse" color-interpolation-filters="sRGB">
<feFlood flood-opacity="0" result="BackgroundImageFix"/>
<feBlend mode="normal" in="SourceGraphic" in2="BackgroundImageFix" result="shape"/>
<feGaussianBlur stdDeviation="6.31909" result="effect1_foregroundBlur"/>
</filter>
<filter id="filter9_f" x="210.262" y="51.5241" width="133.632" height="152.936" filterUnits="userSpaceOnUse" color-interpolation-filters="sRGB">
<feFlood flood-opacity="0" result="BackgroundImageFix"/>
<feBlend mode="normal" in="SourceGraphic" in2="BackgroundImageFix" result="shape"/>
<feGaussianBlur stdDeviation="0.842546" result="effect1_foregroundBlur"/>
</filter>
<filter id="filter10_dddii" x="158.501" y="12.3057" width="237.265" height="256.569" filterUnits="userSpaceOnUse" color-interpolation-filters="sRGB">
<feFlood flood-opacity="0" result="BackgroundImageFix"/>
<feColorMatrix in="SourceAlpha" type="matrix" values="0 0 0 0 0 0 0 0 0 0 0 0 0 0 0 0 0 0 127 0"/>
<feOffset dy="8.42546"/>
<feGaussianBlur stdDeviation="3.37018"/>
<feColorMatrix type="matrix" values="0 0 0 0 0.195571 0 0 0 0 0.000885412 0 0 0 0 0.2125 0 0 0 0.7 0"/>
<feBlend mode="multiply" in2="BackgroundImageFix" result="effect1_dropShadow"/>
<feColorMatrix in="SourceAlpha" type="matrix" values="0 0 0 0 0 0 0 0 0 0 0 0 0 0 0 0 0 0 127 0"/>
<feOffset dy="16.8509"/>
<feGaussianBlur stdDeviation="8.42546"/>
<feColorMatrix type="matrix" values="0 0 0 0 0.541667 0 0 0 0 0.0609375 0 0 0 0 0.349375 0 0 0 0.8 0"/>
<feBlend mode="multiply" in2="effect1_dropShadow" result="effect2_dropShadow"/>
<feColorMatrix in="SourceAlpha" type="matrix" values="0 0 0 0 0 0 0 0 0 0 0 0 0 0 0 0 0 0 127 0"/>
<feOffset dy="16.8509"/>
<feGaussianBlur stdDeviation="25.2764"/>
<feColorMatrix type="matrix" values="0 0 0 0 0.788 0 0 0 0 0.2 0 0 0 0 0.8 0 0 0 1 0"/>
<feBlend mode="color-burn" in2="effect2_dropShadow" result="effect3_dropShadow"/>
<feBlend mode="normal" in="SourceGraphic" in2="effect3_dropShadow" result="shape"/>
<feColorMatrix in="SourceAlpha" type="matrix" values="0 0 0 0 0 0 0 0 0 0 0 0 0 0 0 0 0 0 127 0" result="hardAlpha"/>
<feOffset dx="-0.842546" dy="1.68509"/>
<feGaussianBlur stdDeviation="0.421273"/>
<feComposite in2="hardAlpha" operator="arithmetic" k2="-1" k3="1"/>
<feColorMatrix type="matrix" values="0 0 0 0 1 0 0 0 0 1 0 0 0 0 1 0 0 0 0.5 0"/>
<feBlend mode="normal" in2="shape" result="effect4_innerShadow"/>
<feColorMatrix in="SourceAlpha" type="matrix" values="0 0 0 0 0 0 0 0 0 0 0 0 0 0 0 0 0 0 127 0" result="hardAlpha"/>
<feOffset dx="-0.842546" dy="-1.68509"/>
<feGaussianBlur stdDeviation="0.421273"/>
<feComposite in2="hardAlpha" operator="arithmetic" k2="-1" k3="1"/>
<feColorMatrix type="matrix" values="0 0 0 0 1 0 0 0 0 1 0 0 0 0 1 0 0 0 0.4 0"/>
<feBlend mode="normal" in2="effect4_innerShadow" result="effect5_innerShadow"/>
</filter>
<filter id="filter11_f" x="208.647" y="45.7294" width="136.79" height="156.094" filterUnits="userSpaceOnUse" color-interpolation-filters="sRGB">
<feFlood flood-opacity="0" result="BackgroundImageFix"/>
<feBlend mode="normal" in="SourceGraphic" in2="BackgroundImageFix" result="shape"/>
<feGaussianBlur stdDeviation="1" result="effect1_foregroundBlur"/>
</filter>
<filter id="filter12_f" x="211.069" y="48.1506" width="131.947" height="151.251" filterUnits="userSpaceOnUse" color-interpolation-filters="sRGB">
<feFlood flood-opacity="0" result="BackgroundImageFix"/>
<feBlend mode="normal" in="SourceGraphic" in2="BackgroundImageFix" result="shape"/>
<feGaussianBlur stdDeviation="0.421273" result="effect1_foregroundBlur"/>
</filter>
<filter id="filter13_f" x="36.9868" y="-259.013" width="1015.03" height="792.026" filterUnits="userSpaceOnUse" color-interpolation-filters="sRGB">
<feFlood flood-opacity="0" result="BackgroundImageFix"/>
<feBlend mode="normal" in="SourceGraphic" in2="BackgroundImageFix" result="shape"/>
<feGaussianBlur stdDeviation="152.007" result="effect1_foregroundBlur"/>
</filter>
<filter id="filter14_f" x="299.598" y="7.35973" width="503.847" height="244.866" filterUnits="userSpaceOnUse" color-interpolation-filters="sRGB">
<feFlood flood-opacity="0" result="BackgroundImageFix"/>
<feBlend mode="normal" in="SourceGraphic" in2="BackgroundImageFix" result="shape"/>
<feGaussianBlur stdDeviation="38.0017" result="effect1_foregroundBlur"/>
</filter>
<filter id="filter15_f" x="350.401" y="58.1624" width="402.242" height="143.261" filterUnits="userSpaceOnUse" color-interpolation-filters="sRGB">
<feFlood flood-opacity="0" result="BackgroundImageFix"/>
<feBlend mode="normal" in="SourceGraphic" in2="BackgroundImageFix" result="shape"/>
<feGaussianBlur stdDeviation="11.4005" result="effect1_foregroundBlur"/>
</filter>
<filter id="filter16_f" x="377.882" y="92.6431" width="347.28" height="88.2995" filterUnits="userSpaceOnUse" color-interpolation-filters="sRGB">
<feFlood flood-opacity="0" result="BackgroundImageFix"/>
<feBlend mode="normal" in="SourceGraphic" in2="BackgroundImageFix" result="shape"/>
<feGaussianBlur stdDeviation="1.52007" result="effect1_foregroundBlur"/>
</filter>
<filter id="filter17_dddii" x="284.398" y="22.5604" width="534.248" height="275.268" filterUnits="userSpaceOnUse" color-interpolation-filters="sRGB">
<feFlood flood-opacity="0" result="BackgroundImageFix"/>
<feColorMatrix in="SourceAlpha" type="matrix" values="0 0 0 0 0 0 0 0 0 0 0 0 0 0 0 0 0 0 127 0"/>
<feOffset dy="15.2007"/>
<feGaussianBlur stdDeviation="6.08026"/>
<feColorMatrix type="matrix" values="0 0 0 0 0.15 0 0 0 0 0.000624999 0 0 0 0 0.000624999 0 0 0 0.7 0"/>
<feBlend mode="multiply" in2="BackgroundImageFix" result="effect1_dropShadow"/>
<feColorMatrix in="SourceAlpha" type="matrix" values="0 0 0 0 0 0 0 0 0 0 0 0 0 0 0 0 0 0 127 0"/>
<feOffset dy="30.4013"/>
<feGaussianBlur stdDeviation="15.2007"/>
<feColorMatrix type="matrix" values="0 0 0 0 0.45 0 0 0 0 0.0393375 0 0 0 0 0.013125 0 0 0 0.8 0"/>
<feBlend mode="multiply" in2="effect1_dropShadow" result="effect2_dropShadow"/>
<feColorMatrix in="SourceAlpha" type="matrix" values="0 0 0 0 0 0 0 0 0 0 0 0 0 0 0 0 0 0 127 0"/>
<feOffset dy="30.4013"/>
<feGaussianBlur stdDeviation="45.602"/>
<feColorMatrix type="matrix" values="0 0 0 0 0.528831 0 0 0 0 0.18901 0 0 0 0 0.795833 0 0 0 1 0"/>
<feBlend mode="color-dodge" in2="effect2_dropShadow" result="effect3_dropShadow"/>
<feBlend mode="normal" in="SourceGraphic" in2="effect3_dropShadow" result="shape"/>
<feColorMatrix in="SourceAlpha" type="matrix" values="0 0 0 0 0 0 0 0 0 0 0 0 0 0 0 0 0 0 127 0" result="hardAlpha"/>
<feOffset dx="-1.52007" dy="3.04013"/>
<feGaussianBlur stdDeviation="0.75"/>
<feComposite in2="hardAlpha" operator="arithmetic" k2="-1" k3="1"/>
<feColorMatrix type="matrix" values="0 0 0 0 1 0 0 0 0 1 0 0 0 0 1 0 0 0 0.5 0"/>
<feBlend mode="normal" in2="shape" result="effect4_innerShadow"/>
<feColorMatrix in="SourceAlpha" type="matrix" values="0 0 0 0 0 0 0 0 0 0 0 0 0 0 0 0 0 0 127 0" result="hardAlpha"/>
<feOffset dx="-1.52007" dy="-3.04013"/>
<feGaussianBlur stdDeviation="0.760033"/>
<feComposite in2="hardAlpha" operator="arithmetic" k2="-1" k3="1"/>
<feColorMatrix type="matrix" values="0 0 0 0 1 0 0 0 0 1 0 0 0 0 1 0 0 0 0.4 0"/>
<feBlend mode="normal" in2="effect4_innerShadow" result="effect5_innerShadow"/>
</filter>
<filter id="filter18_f" x="376.642" y="84.4032" width="349.76" height="90.7794" filterUnits="userSpaceOnUse" color-interpolation-filters="sRGB">
<feFlood flood-opacity="0" result="BackgroundImageFix"/>
<feBlend mode="normal" in="SourceGraphic" in2="BackgroundImageFix" result="shape"/>
<feGaussianBlur stdDeviation="1" result="effect1_foregroundBlur"/>
</filter>
<filter id="filter19_f" x="379.402" y="87.1632" width="344.24" height="85.2593" filterUnits="userSpaceOnUse" color-interpolation-filters="sRGB">
<feFlood flood-opacity="0" result="BackgroundImageFix"/>
<feBlend mode="normal" in="SourceGraphic" in2="BackgroundImageFix" result="shape"/>
<feGaussianBlur stdDeviation="0.760033" result="effect1_foregroundBlur"/>
</filter>
</defs>
</svg>
