<svg width="1375" height="671" fill="none" xmlns="http://www.w3.org/2000/svg"><g style="mix-blend-mode:color-dodge" filter="url(#filter0_f)"><path d="M230.244 93.787c0-5.434 5.848-9.838 13.062-9.838h902.134c7.22 0 13.07 4.404 13.07 9.838V558.49c0 5.433-5.85 9.838-13.07 9.838H243.306c-7.214 0-13.062-4.405-13.062-9.838V93.787z" stroke="#9EEEFF" stroke-width="15.201" stroke-linecap="round" stroke-linejoin="round"/></g><g style="mix-blend-mode:color-dodge" filter="url(#filter1_f)"><path d="M230.244 92.642c0-5.424 5.848-9.822 13.062-9.822h902.134c7.22 0 13.07 4.398 13.07 9.822v463.886c0 5.424-5.85 9.821-13.07 9.821H243.306c-7.214 0-13.062-4.397-13.062-9.821V92.642z" fill="#464EFF"/><path d="M230.244 92.642c0-5.424 5.848-9.822 13.062-9.822h902.134c7.22 0 13.07 4.398 13.07 9.822v463.886c0 5.424-5.85 9.821-13.07 9.821H243.306c-7.214 0-13.062-4.397-13.062-9.821V92.642z" stroke="#464EFF" stroke-width="20" stroke-linecap="round" stroke-linejoin="round"/></g><g style="mix-blend-mode:hard-light" filter="url(#filter2_dddii)"><path d="M231.244 93.787c0-5.434 5.848-9.838 13.062-9.838h902.134c7.22 0 13.07 4.404 13.07 9.838V558.49c0 5.433-5.85 9.838-13.07 9.838H244.306c-7.214 0-13.062-4.405-13.062-9.838V93.787z" stroke="#0075FF" stroke-opacity=".2" stroke-width="15.201" stroke-linecap="round" stroke-linejoin="round"/></g><g filter="url(#filter3_f)"><path d="M231.244 94.642c0-5.424 5.848-9.822 13.062-9.822h902.134c7.22 0 13.07 4.398 13.07 9.822v463.886c0 5.424-5.85 9.821-13.07 9.821H244.306c-7.214 0-13.062-4.397-13.062-9.821V94.642z" stroke="#83A5FF" stroke-width="9.12" stroke-linecap="round" stroke-linejoin="round"/></g><g filter="url(#filter4_f)"><path d="M231.244 94.642c0-5.424 5.848-9.822 13.062-9.822h902.134c7.22 0 13.07 4.398 13.07 9.822v463.886c0 5.424-5.85 9.821-13.07 9.821H244.306c-7.214 0-13.062-4.397-13.062-9.821V94.642z" stroke="#fff" stroke-width="4.56" stroke-linecap="round" stroke-linejoin="round"/></g><defs><filter id="filter0_f" x="146.64" y=".345" width="1095.47" height="651.587" filterUnits="userSpaceOnUse" color-interpolation-filters="sRGB"><feFlood flood-opacity="0" result="BackgroundImageFix"/><feBlend in="SourceGraphic" in2="BackgroundImageFix" result="shape"/><feGaussianBlur stdDeviation="38.002" result="effect1_foregroundBlur"/></filter><filter id="filter1_f" x="197.443" y="50.02" width="993.863" height="549.13" filterUnits="userSpaceOnUse" color-interpolation-filters="sRGB"><feFlood flood-opacity="0" result="BackgroundImageFix"/><feBlend in="SourceGraphic" in2="BackgroundImageFix" result="shape"/><feGaussianBlur stdDeviation="11.4" result="effect1_foregroundBlur"/></filter><filter id="filter2_dddii" x="132.439" y="15.546" width="1125.87" height="681.988" filterUnits="userSpaceOnUse" color-interpolation-filters="sRGB"><feFlood flood-opacity="0" result="BackgroundImageFix"/><feColorMatrix in="SourceAlpha" values="0 0 0 0 0 0 0 0 0 0 0 0 0 0 0 0 0 0 127 0"/><feOffset dy="15.201"/><feGaussianBlur stdDeviation="6.08"/><feColorMatrix values="0 0 0 0 0.0266667 0 0 0 0 0 0 0 0 0 0.0833333 0 0 0 0.7 0"/><feBlend mode="multiply" in2="BackgroundImageFix" result="effect1_dropShadow"/><feColorMatrix in="SourceAlpha" values="0 0 0 0 0 0 0 0 0 0 0 0 0 0 0 0 0 0 127 0"/><feOffset dy="30.401"/><feGaussianBlur stdDeviation="15.201"/><feColorMatrix values="0 0 0 0 0.0282625 0 0 0 0 0.004375 0 0 0 0 0.175 0 0 0 0.8 0"/><feBlend mode="multiply" in2="effect1_dropShadow" result="effect2_dropShadow"/><feColorMatrix in="SourceAlpha" values="0 0 0 0 0 0 0 0 0 0 0 0 0 0 0 0 0 0 127 0"/><feOffset dy="30.401"/><feGaussianBlur stdDeviation="45.602"/><feColorMatrix values="0 0 0 0 0.133333 0 0 0 0 0.584 0 0 0 0 1 0 0 0 1 0"/><feBlend mode="color-dodge" in2="effect2_dropShadow" result="effect3_dropShadow"/><feBlend in="SourceGraphic" in2="effect3_dropShadow" result="shape"/><feColorMatrix in="SourceAlpha" values="0 0 0 0 0 0 0 0 0 0 0 0 0 0 0 0 0 0 127 0" result="hardAlpha"/><feOffset dx="-1.52" dy="3.04"/><feGaussianBlur stdDeviation=".76"/><feComposite in2="hardAlpha" operator="arithmetic" k2="-1" k3="1"/><feColorMatrix values="0 0 0 0 1 0 0 0 0 1 0 0 0 0 1 0 0 0 0.5 0"/><feBlend in2="shape" result="effect4_innerShadow"/><feColorMatrix in="SourceAlpha" values="0 0 0 0 0 0 0 0 0 0 0 0 0 0 0 0 0 0 127 0" result="hardAlpha"/><feOffset dx="-1.52" dy="-3.04"/><feGaussianBlur stdDeviation=".76"/><feComposite in2="hardAlpha" operator="arithmetic" k2="-1" k3="1"/><feColorMatrix values="0 0 0 0 1 0 0 0 0 1 0 0 0 0 1 0 0 0 0.4 0"/><feBlend in2="effect4_innerShadow" result="effect5_innerShadow"/></filter><filter id="filter3_f" x="224.684" y="78.26" width="941.382" height="496.649" filterUnits="userSpaceOnUse" color-interpolation-filters="sRGB"><feFlood flood-opacity="0" result="BackgroundImageFix"/><feBlend in="SourceGraphic" in2="BackgroundImageFix" result="shape"/><feGaussianBlur stdDeviation="1" result="effect1_foregroundBlur"/></filter><filter id="filter4_f" x="227.444" y="81.02" width="935.862" height="491.129" filterUnits="userSpaceOnUse" color-interpolation-filters="sRGB"><feFlood flood-opacity="0" result="BackgroundImageFix"/><feBlend in="SourceGraphic" in2="BackgroundImageFix" result="shape"/><feGaussianBlur stdDeviation=".76" result="effect1_foregroundBlur"/></filter></defs></svg>