<svg viewBox="0 0 1722 869" fill="none" xmlns="http://www.w3.org/2000/svg"><g style="mix-blend-mode:color-dodge" opacity=".3" filter="url(#filter0_f)"><path d="M1417 538c0 128.682-117.93 233-575.5 233C383.932 771 305 666.682 305 538c0-128.682 78.932-233 536.5-233 457.57 0 575.5 104.318 575.5 233z" fill="#07E0FE"/></g><g style="mix-blend-mode:color-dodge" filter="url(#filter1_f)"><path d="M371.244 291.787c0-5.433 5.848-9.838 13.062-9.838h902.134c7.22 0 13.07 4.405 13.07 9.838V756.49c0 5.433-5.85 9.838-13.07 9.838H384.306c-7.214 0-13.062-4.405-13.062-9.838V291.787z" stroke="#9EEEFF" stroke-width="15.201" stroke-linecap="round" stroke-linejoin="round"/></g><g style="mix-blend-mode:color-dodge" filter="url(#filter2_f)"><path d="M371.244 290.642c0-5.424 5.848-9.821 13.062-9.821h902.134c7.22 0 13.07 4.397 13.07 9.821v463.886c0 5.424-5.85 9.821-13.07 9.821H384.306c-7.214 0-13.062-4.397-13.062-9.821V290.642z" fill="#464EFF"/><path d="M371.244 290.642c0-5.424 5.848-9.821 13.062-9.821h902.134c7.22 0 13.07 4.397 13.07 9.821v463.886c0 5.424-5.85 9.821-13.07 9.821H384.306c-7.214 0-13.062-4.397-13.062-9.821V290.642z" stroke="#464EFF" stroke-width="20" stroke-linecap="round" stroke-linejoin="round"/></g><g style="mix-blend-mode:multiply" opacity=".2" filter="url(#filter3_f)"><path d="M372.244 319.642c0-5.424 5.848-9.821 13.062-9.821h902.134c7.22 0 13.07 4.397 13.07 9.821v463.886c0 5.424-5.85 9.821-13.07 9.821H385.306c-7.214 0-13.062-4.397-13.062-9.821V319.642z" stroke="#0085FF" stroke-width="4.56" stroke-linecap="round" stroke-linejoin="round"/></g><g style="mix-blend-mode:lighten" opacity=".6" filter="url(#filter4_f)"><ellipse cx="836" cy="736" rx="562" ry="93" fill="#D022ED"/></g><g style="mix-blend-mode:hard-light" filter="url(#filter5_dddii)"><path d="M372.244 291.787c0-5.433 5.848-9.838 13.062-9.838h902.134c7.22 0 13.07 4.405 13.07 9.838V756.49c0 5.433-5.85 9.838-13.07 9.838H385.306c-7.214 0-13.062-4.405-13.062-9.838V291.787z" stroke="#0075FF" stroke-opacity=".2" stroke-width="15.201" stroke-linecap="round" stroke-linejoin="round"/></g><g filter="url(#filter6_f)"><path d="M372.244 292.642c0-5.424 5.848-9.821 13.062-9.821h902.134c7.22 0 13.07 4.397 13.07 9.821v463.886c0 5.424-5.85 9.821-13.07 9.821H385.306c-7.214 0-13.062-4.397-13.062-9.821V292.642z" stroke="#83A5FF" stroke-width="9.12" stroke-linecap="round" stroke-linejoin="round"/></g><defs><filter id="filter0_f" x=".987" y=".987" width="1720.03" height="1074.03" filterUnits="userSpaceOnUse" color-interpolation-filters="sRGB"><feFlood flood-opacity="0" result="BackgroundImageFix"/><feBlend in="SourceGraphic" in2="BackgroundImageFix" result="shape"/><feGaussianBlur stdDeviation="152.007" result="effect1_foregroundBlur"/></filter><filter id="filter1_f" x="287.64" y="198.345" width="1095.47" height="651.587" filterUnits="userSpaceOnUse" color-interpolation-filters="sRGB"><feFlood flood-opacity="0" result="BackgroundImageFix"/><feBlend in="SourceGraphic" in2="BackgroundImageFix" result="shape"/><feGaussianBlur stdDeviation="38.002" result="effect1_foregroundBlur"/></filter><filter id="filter2_f" x="338.443" y="248.02" width="993.863" height="549.13" filterUnits="userSpaceOnUse" color-interpolation-filters="sRGB"><feFlood flood-opacity="0" result="BackgroundImageFix"/><feBlend in="SourceGraphic" in2="BackgroundImageFix" result="shape"/><feGaussianBlur stdDeviation="11.4" result="effect1_foregroundBlur"/></filter><filter id="filter3_f" x="366.923" y="304.5" width="938.902" height="494.169" filterUnits="userSpaceOnUse" color-interpolation-filters="sRGB"><feFlood flood-opacity="0" result="BackgroundImageFix"/><feBlend in="SourceGraphic" in2="BackgroundImageFix" result="shape"/><feGaussianBlur stdDeviation="1.52" result="effect1_foregroundBlur"/></filter><filter id="filter4_f" x="110.806" y="479.806" width="1450.39" height="512.387" filterUnits="userSpaceOnUse" color-interpolation-filters="sRGB"><feFlood flood-opacity="0" result="BackgroundImageFix"/><feBlend in="SourceGraphic" in2="BackgroundImageFix" result="shape"/><feGaussianBlur stdDeviation="81.597" result="effect1_foregroundBlur"/></filter><filter id="filter5_dddii" x="273.439" y="213.546" width="1125.87" height="681.988" filterUnits="userSpaceOnUse" color-interpolation-filters="sRGB"><feFlood flood-opacity="0" result="BackgroundImageFix"/><feColorMatrix in="SourceAlpha" values="0 0 0 0 0 0 0 0 0 0 0 0 0 0 0 0 0 0 127 0"/><feOffset dy="15.201"/><feGaussianBlur stdDeviation="6.08"/><feColorMatrix values="0 0 0 0 0.0266667 0 0 0 0 0 0 0 0 0 0.0833333 0 0 0 0.7 0"/><feBlend mode="multiply" in2="BackgroundImageFix" result="effect1_dropShadow"/><feColorMatrix in="SourceAlpha" values="0 0 0 0 0 0 0 0 0 0 0 0 0 0 0 0 0 0 127 0"/><feOffset dy="30.401"/><feGaussianBlur stdDeviation="15.201"/><feColorMatrix values="0 0 0 0 0.0282625 0 0 0 0 0.004375 0 0 0 0 0.175 0 0 0 0.8 0"/><feBlend mode="multiply" in2="effect1_dropShadow" result="effect2_dropShadow"/><feColorMatrix in="SourceAlpha" values="0 0 0 0 0 0 0 0 0 0 0 0 0 0 0 0 0 0 127 0"/><feOffset dy="30.401"/><feGaussianBlur stdDeviation="45.602"/><feColorMatrix values="0 0 0 0 0.133333 0 0 0 0 0.584 0 0 0 0 1 0 0 0 1 0"/><feBlend mode="color-dodge" in2="effect2_dropShadow" result="effect3_dropShadow"/><feBlend in="SourceGraphic" in2="effect3_dropShadow" result="shape"/><feColorMatrix in="SourceAlpha" values="0 0 0 0 0 0 0 0 0 0 0 0 0 0 0 0 0 0 127 0" result="hardAlpha"/><feOffset dx="-1.52" dy="3.04"/><feGaussianBlur stdDeviation=".76"/><feComposite in2="hardAlpha" operator="arithmetic" k2="-1" k3="1"/><feColorMatrix values="0 0 0 0 1 0 0 0 0 1 0 0 0 0 1 0 0 0 0.5 0"/><feBlend in2="shape" result="effect4_innerShadow"/><feColorMatrix in="SourceAlpha" values="0 0 0 0 0 0 0 0 0 0 0 0 0 0 0 0 0 0 127 0" result="hardAlpha"/><feOffset dx="-1.52" dy="-3.04"/><feGaussianBlur stdDeviation=".76"/><feComposite in2="hardAlpha" operator="arithmetic" k2="-1" k3="1"/><feColorMatrix values="0 0 0 0 1 0 0 0 0 1 0 0 0 0 1 0 0 0 0.4 0"/><feBlend in2="effect4_innerShadow" result="effect5_innerShadow"/></filter><filter id="filter6_f" x="365.684" y="276.26" width="941.382" height="496.649" filterUnits="userSpaceOnUse" color-interpolation-filters="sRGB"><feFlood flood-opacity="0" result="BackgroundImageFix"/><feBlend in="SourceGraphic" in2="BackgroundImageFix" result="shape"/><feGaussianBlur stdDeviation="1" result="effect1_foregroundBlur"/></filter></defs></svg>