<svg width="380" height="323" fill="none" xmlns="http://www.w3.org/2000/svg"><path d="M128.732 322.956c3.713-4.083 6.776-9 10.396-13.269 3.991-4.639 14.851-17.444 16.522-19.114-16.708-5.104-52.35-12.991-53.835-12.805 13.087-20.414 47.059-62.076 48.73-63.932-8.911 6.217-18.007 11.877-29.238 12.526-11.603.65-24.969.186-34.993-6.309-6.033-3.897-10.117-10.3-12.066-17.259-2.228-7.98-1.764-17.073.185-24.218-1.763.278-3.434.928-5.105 1.484-18.564 6.31-51.514 3.341-62.931-14.66-5.476-8.723-6.961-19.486-6.219-29.693.928-12.619 5.105-25.239 13.644-34.518 10.489-11.505 24.783-15.031 39.356-12.248 7.054 1.392 14.294 6.96 14.294 6.96-1.578-1.578-5.29-14.754 2.599-21.064 7.425-5.846 16.521-3.247 21.07 1.114-4.456-5.104-7.704-17.816-6.962-24.311.557-5.196 2.692-10.392 6.498-14.011 3.434-3.248 7.982-5.104 12.623-6.032 5.012-1.02 10.303-1.206 15.129.186 6.312 1.856 10.674 6.31 13.181 12.34.464 1.114 1.577 2.877 1.763 4.084-.65-6.403 2.042-12.527 5.198-18.002 4.919-8.443 12.53-15.96 21.163-20.506 14.201-7.33 23.39-9 37.406-9.65 14.572-.742 32.301 7.145 37.962 11.042 3.992 2.69 7.612 5.846 10.582 9.65 1.856 2.32 3.341 4.918 4.548 7.609.557 1.392 2.599 7.516 2.784 9.371-1.021-5.288 8.633-6.588 12.067-7.051 6.219-.836 13.551-1.3 16.614 5.474 2.321 5.289 1.114 11.32 1.114 16.888 2.228-2.97 7.611-5.753 10.025-7.052 5.105-2.691 10.952-3.712 16.614-4.547 9.653-1.392 19.678-2.227 29.238-.093 13.459 2.784 23.669 12.527 29.609 24.59a68.202 68.202 0 016.034 19.392c2.042 12.898-1.393 38.601-18.657 40.457 18.471 10.578 28.217 31.826 22.833 52.89-2.691 10.299-10.302 17.908-19.027 23.568-12.252 7.887-27.011 16.053-41.954 11.413-5.013-1.577-10.953-2.969-14.759-6.681l-1.67-1.02c-5.755 12.805-19.121 23.383-31.466 29.321-21.163 10.207-45.852 14.568-67.294 1.949-7.704-4.547-15.036-12.248-16.707-21.435h.65c-7.519 7.331-14.201 16.239-21.441 24.033-7.611 8.258-15.315 16.609-22.927 24.867 9.189 3.341 19.214 5.568 28.217 7.052 10.489 1.671 20.977 3.619 31.373 5.661-19.306 12.712-38.891 24.96-58.661 37.023-3.342 2.041-9.468 6.588-14.109 8.536z" fill="#F4F4F2"/></svg>