<svg width="380" height="323" fill="none" xmlns="http://www.w3.org/2000/svg"><path d="M251.261 323.001c-3.713-4.083-6.776-9.001-10.396-13.269-3.991-4.639-14.851-17.444-16.522-19.115 16.708-5.103 52.35-12.99 53.835-12.805-13.087-20.413-47.059-62.076-48.73-63.931 8.911 6.216 18.007 11.877 29.238 12.526 11.602.65 24.968.186 34.993-6.31 6.033-3.897 10.117-10.299 12.066-17.258 2.228-7.98 1.764-17.074-.185-24.218 1.763.278 3.434.927 5.105 1.484 18.563 6.31 51.514 3.341 62.931-14.661 5.476-8.722 6.961-19.485 6.219-29.692-.929-12.619-5.105-25.239-13.645-34.518-10.488-11.506-24.782-15.032-39.355-12.248-7.054 1.392-14.294 6.96-14.294 6.96 1.578-1.578 5.291-14.754-2.599-21.064-7.425-5.846-16.522-3.248-21.07 1.114 4.455-5.104 7.704-17.816 6.962-24.311-.557-5.197-2.692-10.393-6.498-14.012-3.434-3.247-7.982-5.103-12.623-6.03-5.012-1.021-10.303-1.207-15.13.185-6.311 1.856-10.674 6.31-13.18 12.34-.464 1.114-1.578 2.877-1.763 4.084.649-6.403-2.042-12.527-5.198-18.002-4.92-8.444-12.531-15.96-21.163-20.506-14.201-7.33-23.39-9-37.406-9.65-14.572-.743-32.301 7.145-37.963 11.042-3.991 2.69-7.611 5.845-10.581 9.65-1.856 2.32-3.342 4.918-4.548 7.608-.557 1.392-2.599 7.517-2.785 9.372 1.021-5.289-8.632-6.588-12.066-7.052-6.219-.835-13.552-1.299-16.615 5.475-2.32 5.289-1.114 11.32-1.114 16.888-2.227-2.97-7.61-5.753-10.024-7.052-5.105-2.691-10.953-3.712-16.615-4.547-9.653-1.392-19.677-2.227-29.238-.093-13.458 2.784-23.668 12.527-29.609 24.59a68.225 68.225 0 00-6.033 19.392C3.62 98.265 7.054 123.968 24.32 125.823 5.848 136.401-3.898 157.65 1.485 178.713c2.692 10.3 10.303 17.909 19.028 23.569 12.252 7.887 27.01 16.052 41.954 11.413 5.012-1.577 10.953-2.969 14.758-6.681l1.671-1.021c5.755 12.805 19.12 23.383 31.466 29.322 21.162 10.207 45.852 14.568 67.293 1.949 7.704-4.547 15.037-12.249 16.708-21.435h-.65c7.518 7.331 14.201 16.238 21.441 24.033 7.611 8.258 15.315 16.609 22.926 24.867-9.189 3.341-19.213 5.568-28.217 7.052-10.488 1.67-20.977 3.619-31.372 5.66 19.306 12.713 38.891 24.961 58.661 37.023 3.342 2.042 9.468 6.588 14.109 8.537z" fill="#F4F4F2"/></svg>