<svg width="503" height="512" fill="none" xmlns="http://www.w3.org/2000/svg"><g filter="url(#filter0_d)"><path d="M109.762 117.282c.119-3.775.564-7.824 2.994-10.678 3.393-4.049 9.469-4.241 14.734-4.18 115.216 2.169 230.411 10.722 344.727 25.655 2.623.274 5.439.727 7.665 2.36 5.566 4.082 3.879 12.807 1.622 19.277-27.266 75.735-64.296 147.883-109.83 214.231-1.944 2.873-4.328 5.988-7.847 6.681-2.595.471-5.278-.435-7.703-1.388-46.63-18.281-93.147-36.529-139.81-54.697 4.087 24.298 8.141 48.709 12.115 72.974l-36.892-7.45c2.97 21.391 5.973 42.669 8.83 64.027-11.36-30.108-25.446-59.291-41.939-86.964 13.091-.235 26.031-2.48 38.382-6.494-8.805-20.76-23.547-51.486-23.547-51.486s-48.628-11.859-58.072-25.799c-4.819-7.06-4.864-16.168-4.814-24.756.301-12.817-1.744-109.766-.615-131.313z" fill="#fff"/></g><defs><filter id="filter0_d" x="0" y="0" width="502.794" height="511.62" filterUnits="userSpaceOnUse" color-interpolation-filters="sRGB"><feFlood flood-opacity="0" result="BackgroundImageFix"/><feColorMatrix in="SourceAlpha" values="0 0 0 0 0 0 0 0 0 0 0 0 0 0 0 0 0 0 127 0"/><feOffset dx="-6" dy="-7"/><feGaussianBlur stdDeviation="11"/><feColorMatrix values="0 0 0 0 0 0 0 0 0 0 0 0 0 0 0 0 0 0 0.48 0"/><feBlend in2="BackgroundImageFix" result="effect1_dropShadow"/><feBlend in="SourceGraphic" in2="effect1_dropShadow" result="shape"/></filter></defs></svg>