<svg viewBox="0 0 677 560" fill="none" xmlns="http://www.w3.org/2000/svg"><g style="mix-blend-mode:color-dodge" filter="url(#filter0_f)"><path d="M358.529 317.516l42.489-59.484-21.852-37.632 60.699-74.052-38.847-93.475-42.489 93.475m-14.567 30.349l-29.136 65.554 21.852 31.563-66.768 106.828 33.991 23.066-50.987 83.763 97.117-91.047-25.493-35.205 12.14-13.354m18.125-233.591a180.523 180.523 0 00-15.933-.703c-50.564 0-96.209 21.085-128.646 54.954m246.67-10.216c28.931 25.624 49.484 60.516 57.022 100.033M413.225 454.249c-22.631 10.418-47.816 16.227-74.355 16.227-6.986 0-13.878-.403-20.655-1.186m-69.634-23.378c-52.617-31.02-87.928-88.325-87.928-153.889 0-4.773.188-9.503.555-14.181m8.319-49.253l-21.013-56.748h27.017l53.517 155.21 53.776-155.21h27.147l-69.806 188.164H218.19l-42.659-115.202m350.525 154.239c0-8.948-2.008-16.726-6.024-23.336-3.936-6.609-10.04-12.373-18.313-17.29-8.192-4.997-19.598-9.552-34.216-13.663-14.537-4.11-24.858-8.624-30.963-13.541-6.023-4.998-9.035-11.084-9.035-18.258 0-8.947 3.172-15.919 9.517-20.917 6.426-5.078 15.341-7.617 26.747-7.617 12.288 0 21.806 3.063 28.553 9.189 6.747 6.045 10.12 14.388 10.12 25.028h23.252c0-9.753-2.61-18.741-7.831-26.963-5.14-8.221-12.449-14.67-21.927-19.345-9.397-4.675-20.12-7.013-32.167-7.013-17.671 0-32.048 4.554-43.132 13.663-11.003 9.028-16.505 20.474-16.505 34.338 0 12.252 4.498 22.57 13.493 30.953 9.076 8.302 23.534 15.315 43.373 21.038 15.822 4.595 26.746 9.27 32.77 14.026 6.024 4.675 9.036 11.325 9.036 19.95 0 8.624-3.253 15.436-9.759 20.433-6.506 4.998-15.863 7.497-28.072 7.497-13.092 0-23.573-3.063-31.445-9.19-7.79-6.206-11.686-14.63-11.686-25.27H398.59c0 10.237 2.811 19.386 8.433 27.447 5.703 8.06 13.775 14.428 24.216 19.104 10.442 4.594 21.686 6.891 33.734 6.891 18.554 0 33.373-4.272 44.457-12.816" stroke="#FB37FF" stroke-width="8.425" stroke-linecap="round" stroke-linejoin="round"/></g><g style="mix-blend-mode:color-dodge" filter="url(#filter1_f)"><path d="M358.529 316.844l42.489-59.484-21.852-37.633 60.699-74.052L401.018 52.2l-42.489 93.475m-14.567 30.349l-29.136 65.554 21.852 31.563L269.91 379.97l33.991 23.065-50.987 83.764 97.117-91.048-25.493-35.204 12.14-13.354m18.125-233.591a180.139 180.139 0 00-15.933-.704c-50.564 0-96.209 21.086-128.646 54.954m246.67-10.215c28.931 25.623 49.484 60.515 57.022 100.032M413.225 453.577c-22.631 10.417-47.816 16.226-74.355 16.226-6.986 0-13.878-.402-20.655-1.185m-69.634-23.378c-52.617-31.02-87.928-88.326-87.928-153.889 0-4.774.188-9.503.555-14.182m8.319-49.253l-21.013-56.747h27.017l53.517 155.209 53.776-155.209h27.147l-69.806 188.164H218.19L175.531 244.13m350.525 154.239c0-8.947-2.008-16.726-6.024-23.335-3.936-6.61-10.04-12.373-18.313-17.29-8.192-4.998-19.598-9.552-34.216-13.663-14.537-4.111-24.858-8.625-30.963-13.542-6.023-4.997-9.035-11.083-9.035-18.257 0-8.947 3.172-15.92 9.517-20.917 6.426-5.079 15.341-7.618 26.747-7.618 12.288 0 21.806 3.063 28.553 9.189 6.747 6.046 10.12 14.389 10.12 25.029h23.252c0-9.754-2.61-18.741-7.831-26.963-5.14-8.222-12.449-14.671-21.927-19.346-9.397-4.675-20.12-7.012-32.167-7.012-17.671 0-32.048 4.554-43.132 13.662-11.003 9.028-16.505 20.474-16.505 34.339 0 12.252 4.498 22.569 13.493 30.952 9.076 8.303 23.534 15.315 43.373 21.039 15.822 4.594 26.746 9.269 32.77 14.025 6.024 4.675 9.036 11.325 9.036 19.95s-3.253 15.436-9.759 20.434c-6.506 4.997-15.863 7.496-28.072 7.496-13.092 0-23.573-3.063-31.445-9.189-7.79-6.207-11.686-14.63-11.686-25.27H398.59c0 10.237 2.811 19.386 8.433 27.446 5.703 8.061 13.775 14.429 24.216 19.104 10.442 4.595 21.686 6.892 33.734 6.892 18.554 0 33.373-4.272 44.457-12.817" stroke="#FF00B8" stroke-width="11.086" stroke-linecap="round" stroke-linejoin="round"/></g><g style="mix-blend-mode:multiply" opacity=".2" filter="url(#filter2_f)"><path d="M359.04 330.059l42.489-59.484-21.852-37.633 60.698-74.051-38.846-93.475-42.489 93.475m-14.568 30.349l-29.135 65.553 21.852 31.563-66.768 106.829 33.991 23.065-50.987 83.764 97.117-91.047-25.493-35.205 12.14-13.354m18.125-233.591a180.157 180.157 0 00-15.933-.703c-50.564 0-96.21 21.085-128.646 54.953m246.67-10.215c28.931 25.623 49.484 60.515 57.022 100.033M413.736 466.792c-22.631 10.417-47.816 16.226-74.355 16.226-6.986 0-13.878-.402-20.655-1.185m-69.634-23.378c-52.617-31.02-87.928-88.326-87.928-153.889 0-4.773.187-9.503.555-14.182m8.319-49.252l-21.013-56.748h27.017l53.517 155.209 53.776-155.209h27.146l-69.805 188.164h-21.975l-42.659-115.203m350.525 154.239c0-8.947-2.008-16.725-6.024-23.335-3.936-6.61-10.04-12.373-18.313-17.29-8.192-4.998-19.598-9.552-34.216-13.663-14.537-4.111-24.858-8.625-30.963-13.542-6.024-4.997-9.035-11.083-9.035-18.257 0-8.947 3.172-15.92 9.517-20.917 6.426-5.078 15.341-7.618 26.746-7.618 12.289 0 21.807 3.063 28.554 9.19 6.747 6.045 10.12 14.388 10.12 25.028h23.252c0-9.754-2.61-18.741-7.831-26.963-5.14-8.222-12.449-14.67-21.927-19.346-9.397-4.675-20.12-7.012-32.168-7.012-17.67 0-32.047 4.554-43.131 13.663-11.003 9.027-16.505 20.473-16.505 34.338 0 12.252 4.498 22.569 13.493 30.953 9.076 8.302 23.534 15.315 43.372 21.038 15.823 4.594 26.747 9.269 32.771 14.025 6.023 4.675 9.035 11.325 9.035 19.95s-3.253 15.436-9.758 20.434c-6.506 4.997-15.863 7.496-28.072 7.496-13.092 0-23.573-3.063-31.445-9.189-7.791-6.206-11.686-14.63-11.686-25.27h-23.252c0 10.237 2.811 19.386 8.433 27.447 5.703 8.06 13.775 14.428 24.216 19.103 10.442 4.595 21.686 6.892 33.734 6.892 18.554 0 33.373-4.272 44.457-12.816" stroke="#FA00FF" stroke-width="2.528" stroke-linecap="round" stroke-linejoin="round"/></g><g style="mix-blend-mode:hard-light" filter="url(#filter3_dddii)"><path d="M359.202 317.489l42.489-59.484-21.851-37.632 60.698-74.052-38.847-93.475-42.489 93.475m-14.567 30.349L315.5 242.224l21.851 31.563-66.768 106.828 33.991 23.066-50.986 83.763 97.116-91.047-25.493-35.205 12.14-13.354m18.125-233.591a180.523 180.523 0 00-15.933-.703c-50.564 0-96.209 21.085-128.645 54.954m246.669-10.216c28.931 25.624 49.484 60.516 57.022 100.033M413.898 454.222c-22.631 10.418-47.816 16.227-74.355 16.227-6.986 0-13.878-.403-20.654-1.186m-69.635-23.378c-52.617-31.02-87.928-88.325-87.928-153.889 0-4.773.188-9.503.555-14.181m8.319-49.253l-21.013-56.748h27.017l53.517 155.21 53.776-155.21h27.147l-69.805 188.164h-21.976l-42.659-115.202m350.525 154.239c0-8.948-2.008-16.726-6.024-23.336-3.936-6.609-10.04-12.373-18.313-17.29-8.192-4.997-19.598-9.552-34.216-13.663-14.537-4.11-24.858-8.624-30.962-13.541-6.024-4.998-9.036-11.084-9.036-18.258 0-8.947 3.172-15.919 9.517-20.917 6.426-5.078 15.341-7.617 26.747-7.617 12.288 0 21.806 3.063 28.553 9.189 6.747 6.045 10.12 14.388 10.12 25.028h23.252c0-9.753-2.61-18.741-7.831-26.963-5.14-8.222-12.449-14.67-21.927-19.345-9.397-4.675-20.12-7.013-32.167-7.013-17.671 0-32.048 4.554-43.132 13.663-11.003 9.028-16.505 20.474-16.505 34.338 0 12.252 4.498 22.57 13.493 30.953 9.076 8.302 23.534 15.315 43.373 21.038 15.822 4.595 26.746 9.27 32.77 14.026 6.024 4.675 9.036 11.325 9.036 19.95 0 8.624-3.253 15.436-9.759 20.433-6.506 4.998-15.863 7.497-28.072 7.497-13.092 0-23.573-3.063-31.444-9.19-7.791-6.206-11.687-14.63-11.687-25.27h-23.252c0 10.237 2.811 19.386 8.433 27.447 5.703 8.06 13.775 14.428 24.217 19.104 10.441 4.594 21.686 6.891 33.733 6.891 18.554 0 33.373-4.272 44.457-12.816" stroke="#FA00FF" stroke-opacity=".2" stroke-width="8.425" stroke-linecap="round" stroke-linejoin="round"/></g><g filter="url(#filter4_f)"><path d="M358.933 317.598l42.489-59.485-21.851-37.632 60.698-74.052-38.847-93.475-42.489 93.475m-14.567 30.349l-29.135 65.554 21.851 31.563-66.768 106.829 33.991 23.065-50.986 83.763 97.117-91.047-25.494-35.205 12.14-13.353m18.125-233.591a180.139 180.139 0 00-15.933-.704c-50.564 0-96.209 21.085-128.645 54.954m246.669-10.215c28.931 25.623 49.484 60.515 57.022 100.032M413.629 454.331c-22.631 10.417-47.816 16.226-74.355 16.226-6.986 0-13.878-.403-20.654-1.186m-69.635-23.378c-52.617-31.02-87.928-88.325-87.928-153.889 0-4.773.188-9.502.555-14.181m8.319-49.253l-21.013-56.748h27.017l53.517 155.21 53.776-155.21h27.147L240.57 360.086h-21.976l-42.659-115.202M526.46 399.123c0-8.947-2.008-16.726-6.024-23.336-3.936-6.609-10.04-12.373-18.313-17.29-8.192-4.997-19.597-9.551-34.215-13.662-14.538-4.111-24.859-8.625-30.963-13.542-6.024-4.998-9.036-11.084-9.036-18.258 0-8.947 3.172-15.919 9.518-20.917 6.425-5.078 15.34-7.617 26.746-7.617 12.288 0 21.806 3.063 28.553 9.189 6.747 6.045 10.12 14.388 10.12 25.028h23.253c0-9.753-2.611-18.741-7.832-26.963-5.14-8.221-12.449-14.67-21.927-19.345-9.397-4.675-20.119-7.013-32.167-7.013-17.67 0-32.048 4.555-43.132 13.663-11.003 9.028-16.505 20.474-16.505 34.338 0 12.252 4.498 22.57 13.494 30.953 9.076 8.302 23.533 15.315 43.372 21.038 15.823 4.595 26.746 9.27 32.77 14.026 6.024 4.675 9.036 11.325 9.036 19.95s-3.253 15.436-9.759 20.433c-6.506 4.998-15.863 7.497-28.072 7.497-13.091 0-23.573-3.063-31.444-9.189-7.791-6.207-11.687-14.63-11.687-25.27h-23.252c0 10.237 2.811 19.385 8.433 27.446 5.703 8.061 13.775 14.429 24.217 19.104 10.441 4.594 21.686 6.891 33.733 6.891 18.554 0 33.373-4.272 44.457-12.816" stroke="#FF347D" stroke-width="5.055" stroke-linecap="round" stroke-linejoin="round"/></g><g filter="url(#filter5_f)"><path d="M358.933 317.598l42.489-59.485-21.851-37.632 60.698-74.052-38.847-93.475-42.489 93.475m-14.567 30.349l-29.135 65.554 21.851 31.563-66.768 106.829 33.991 23.065-50.986 83.763 97.117-91.047-25.494-35.205 12.14-13.353m18.125-233.591a180.139 180.139 0 00-15.933-.704c-50.564 0-96.209 21.085-128.645 54.954m246.669-10.215c28.931 25.623 49.484 60.515 57.022 100.032M413.629 454.331c-22.631 10.417-47.816 16.226-74.355 16.226-6.986 0-13.878-.403-20.654-1.186m-69.635-23.378c-52.617-31.02-87.928-88.325-87.928-153.889 0-4.773.188-9.502.555-14.181m8.319-49.253l-21.013-56.748h27.017l53.517 155.21 53.776-155.21h27.147L240.57 360.086h-21.976l-42.659-115.202M526.46 399.123c0-8.947-2.008-16.726-6.024-23.336-3.936-6.609-10.04-12.373-18.313-17.29-8.192-4.997-19.597-9.551-34.215-13.662-14.538-4.111-24.859-8.625-30.963-13.542-6.024-4.998-9.036-11.084-9.036-18.258 0-8.947 3.172-15.919 9.518-20.917 6.425-5.078 15.34-7.617 26.746-7.617 12.288 0 21.806 3.063 28.553 9.189 6.747 6.045 10.12 14.388 10.12 25.028h23.253c0-9.753-2.611-18.741-7.832-26.963-5.14-8.221-12.449-14.67-21.927-19.345-9.397-4.675-20.119-7.013-32.167-7.013-17.67 0-32.048 4.555-43.132 13.663-11.003 9.028-16.505 20.474-16.505 34.338 0 12.252 4.498 22.57 13.494 30.953 9.076 8.302 23.533 15.315 43.372 21.038 15.823 4.595 26.746 9.27 32.77 14.026 6.024 4.675 9.036 11.325 9.036 19.95s-3.253 15.436-9.759 20.433c-6.506 4.998-15.863 7.497-28.072 7.497-13.091 0-23.573-3.063-31.444-9.189-7.791-6.207-11.687-14.63-11.687-25.27h-23.252c0 10.237 2.811 19.385 8.433 27.446 5.703 8.061 13.775 14.429 24.217 19.104 10.441 4.594 21.686 6.891 33.733 6.891 18.554 0 33.373-4.272 44.457-12.816" stroke="#fff" stroke-width="2.528" stroke-linecap="round" stroke-linejoin="round"/></g><defs><filter id="filter0_f" x="102.174" y="6.533" width="470.222" height="527.278" filterUnits="userSpaceOnUse" color-interpolation-filters="sRGB"><feFlood flood-opacity="0" result="BackgroundImageFix"/><feBlend in="SourceGraphic" in2="BackgroundImageFix" result="shape"/><feGaussianBlur stdDeviation="21.064" result="effect1_foregroundBlur"/></filter><filter id="filter1_f" x="130.333" y="34.019" width="413.904" height="470.96" filterUnits="userSpaceOnUse" color-interpolation-filters="sRGB"><feFlood flood-opacity="0" result="BackgroundImageFix"/><feBlend in="SourceGraphic" in2="BackgroundImageFix" result="shape"/><feGaussianBlur stdDeviation="6.319" result="effect1_foregroundBlur"/></filter><filter id="filter2_f" x="146.076" y="62.467" width="383.44" height="440.496" filterUnits="userSpaceOnUse" color-interpolation-filters="sRGB"><feFlood flood-opacity="0" result="BackgroundImageFix"/><feBlend in="SourceGraphic" in2="BackgroundImageFix" result="shape"/><feGaussianBlur stdDeviation=".843" result="effect1_foregroundBlur"/></filter><filter id="filter3_dddii" x="94.421" y="14.931" width="487.073" height="544.129" filterUnits="userSpaceOnUse" color-interpolation-filters="sRGB"><feFlood flood-opacity="0" result="BackgroundImageFix"/><feColorMatrix in="SourceAlpha" values="0 0 0 0 0 0 0 0 0 0 0 0 0 0 0 0 0 0 127 0"/><feOffset dy="8.425"/><feGaussianBlur stdDeviation="3.37"/><feColorMatrix values="0 0 0 0 0.195571 0 0 0 0 0.000885412 0 0 0 0 0.2125 0 0 0 0.7 0"/><feBlend mode="multiply" in2="BackgroundImageFix" result="effect1_dropShadow"/><feColorMatrix in="SourceAlpha" values="0 0 0 0 0 0 0 0 0 0 0 0 0 0 0 0 0 0 127 0"/><feOffset dy="16.851"/><feGaussianBlur stdDeviation="8.425"/><feColorMatrix values="0 0 0 0 0.541667 0 0 0 0 0.0609375 0 0 0 0 0.349375 0 0 0 0.8 0"/><feBlend mode="multiply" in2="effect1_dropShadow" result="effect2_dropShadow"/><feColorMatrix in="SourceAlpha" values="0 0 0 0 0 0 0 0 0 0 0 0 0 0 0 0 0 0 127 0"/><feOffset dy="16.851"/><feGaussianBlur stdDeviation="25.276"/><feColorMatrix values="0 0 0 0 0.788 0 0 0 0 0.2 0 0 0 0 0.8 0 0 0 1 0"/><feBlend mode="color-burn" in2="effect2_dropShadow" result="effect3_dropShadow"/><feBlend in="SourceGraphic" in2="effect3_dropShadow" result="shape"/><feColorMatrix in="SourceAlpha" values="0 0 0 0 0 0 0 0 0 0 0 0 0 0 0 0 0 0 127 0" result="hardAlpha"/><feOffset dx="-.843" dy="1.685"/><feGaussianBlur stdDeviation=".421"/><feComposite in2="hardAlpha" operator="arithmetic" k2="-1" k3="1"/><feColorMatrix values="0 0 0 0 1 0 0 0 0 1 0 0 0 0 1 0 0 0 0.5 0"/><feBlend in2="shape" result="effect4_innerShadow"/><feColorMatrix in="SourceAlpha" values="0 0 0 0 0 0 0 0 0 0 0 0 0 0 0 0 0 0 127 0" result="hardAlpha"/><feOffset dx="-.843" dy="-1.685"/><feGaussianBlur stdDeviation=".421"/><feComposite in2="hardAlpha" operator="arithmetic" k2="-1" k3="1"/><feColorMatrix values="0 0 0 0 1 0 0 0 0 1 0 0 0 0 1 0 0 0 0.4 0"/><feBlend in2="effect4_innerShadow" result="effect5_innerShadow"/></filter><filter id="filter4_f" x="144.39" y="48.426" width="386.597" height="443.653" filterUnits="userSpaceOnUse" color-interpolation-filters="sRGB"><feFlood flood-opacity="0" result="BackgroundImageFix"/><feBlend in="SourceGraphic" in2="BackgroundImageFix" result="shape"/><feGaussianBlur stdDeviation="1" result="effect1_foregroundBlur"/></filter><filter id="filter5_f" x="146.811" y="50.848" width="381.755" height="438.811" filterUnits="userSpaceOnUse" color-interpolation-filters="sRGB"><feFlood flood-opacity="0" result="BackgroundImageFix"/><feBlend in="SourceGraphic" in2="BackgroundImageFix" result="shape"/><feGaussianBlur stdDeviation=".421" result="effect1_foregroundBlur"/></filter></defs></svg>